<?xml version="1.0" encoding="utf-8"?>
<!-- Generator: Adobe Illustrator 19.1.0, SVG Export Plug-In . SVG Version: 6.00 Build 0)  -->
<svg version="1.1" id="Layer_1" xmlns="http://www.w3.org/2000/svg" xmlns:xlink="http://www.w3.org/1999/xlink" x="0px" y="0px"
	 viewBox="-2725.4 3926.4 61.6 59.2" style="enable-background:new -2725.4 3926.4 61.6 59.2;" xml:space="preserve">
<style type="text/css">
	.st0{display:none;fill:#F1F2F2;}
	.st1{display:none;fill:#A7A9AC;}
	.st2{fill:#D64667;}
</style>
<rect x="-2770" y="2771.4" class="st0" width="590" height="7550"/>
<rect x="-2726" y="3924.4" class="st1" width="64" height="64"/>
<g>
	<g>
		<g>
			<g>
				<g>
					<path class="st2" d="M-2664.3,3951.5c-0.1,0-0.2,0.1,0,0.4c0.1,0,0.3,0,0.4,0.1C-2664,3951.8-2664.2,3951.6-2664.3,3951.5z"/>
					<path class="st2" d="M-2664.3,3953.9c0.1,0.4,0,1,0.4,0.9c0-0.6,0.1-0.7-0.2-1.2c0-0.3,0.1-0.6,0.2-0.6
						c-0.1-0.1-0.1-0.6-0.3-0.7c0,0.5,0,1,0.1,1.7C-2664.2,3954.1-2664.2,3954-2664.3,3953.9z"/>
					<path class="st2" d="M-2687,3955l0.2-0.1C-2686.8,3954.9-2686.9,3955-2687,3955z"/>
					<path class="st2" d="M-2700.7,3968.5c0.1-0.1,0.1-0.2,0.1-0.2C-2700.6,3968.4-2700.7,3968.5-2700.7,3968.5z"/>
					<path class="st2" d="M-2703.2,3970.5l0.2-0.1C-2703.2,3970.5-2703.2,3970.5-2703.2,3970.5z"/>
					<path class="st2" d="M-2687,3955l-0.4,0.3C-2687.3,3955.4-2687.1,3955.2-2687,3955z"/>
					<path class="st2" d="M-2666.5,3957.7c0.1-0.1,0.1-0.2,0.1-0.3L-2666.5,3957.7C-2666.5,3957.6-2666.5,3957.7-2666.5,3957.7z"/>
					<path class="st2" d="M-2680.1,3958.2l0.1,0.1c0.1,0,0.1,0,0.2,0L-2680.1,3958.2z"/>
					<path class="st2" d="M-2675.5,3962.8c0-0.1-0.3,0.1-0.4,0.1c0.1,0,0.3,0,0.3,0C-2675.6,3962.9-2675.6,3962.8-2675.5,3962.8z"/>
					<path class="st2" d="M-2668.4,3957.9l0.1-0.2L-2668.4,3957.9z"/>
					<path class="st2" d="M-2683.4,3954.9v-0.1C-2683.4,3954.8-2683.4,3954.9-2683.4,3954.9z"/>
					<path class="st2" d="M-2669.2,3945.7L-2669.2,3945.7L-2669.2,3945.7z"/>
					<path class="st2" d="M-2664.9,3952L-2664.9,3952c-0.1,0-0.2,0-0.2,0H-2664.9z"/>
					<path class="st2" d="M-2707.7,3974.5L-2707.7,3974.5C-2707.6,3974.4-2707.7,3974.5-2707.7,3974.5z"/>
					<path class="st2" d="M-2702.7,3956.1c-0.6,0.3,0.5-0.9-0.4-0.5C-2702.9,3955.6-2703.3,3956.5-2702.7,3956.1z"/>
					<path class="st2" d="M-2666.7,3957.8l-0.2,0.2C-2666.8,3957.9-2666.7,3957.8-2666.7,3957.8z"/>
					<polygon class="st2" points="-2703,3955.6 -2703,3955.6 -2703.1,3955.7 					"/>
					<path class="st2" d="M-2717.4,3983l0.1,0.1C-2717.2,3983.1-2717.3,3983.1-2717.4,3983z"/>
					<path class="st2" d="M-2709.8,3977.4l-0.2,0.2C-2709.9,3977.5-2709.9,3977.5-2709.8,3977.4z"/>
					<path class="st2" d="M-2721.5,3981.8c-0.1-0.1-0.1-0.2-0.2-0.3c0,0,0,0,0,0.1C-2721.6,3981.6-2721.6,3981.7-2721.5,3981.8z"/>
					<path class="st2" d="M-2723.2,3977.5L-2723.2,3977.5l-0.1,0.2L-2723.2,3977.5z"/>
					<path class="st2" d="M-2676.6,3932.3c0.1,0.1,0.2,0.2,0.2,0.3C-2676.5,3932.4-2675.5,3932.8-2676.6,3932.3z"/>
					<path class="st2" d="M-2666.6,3957.6c0,0.1,0,0.1,0,0.2V3957.6L-2666.6,3957.6z"/>
					<path class="st2" d="M-2723.2,3983.2c-0.2-0.3-0.5-0.5-0.6-0.8C-2723.7,3982.6-2723.5,3982.9-2723.2,3983.2z"/>
					<path class="st2" d="M-2714.9,3933.9l0.2-0.2C-2714.8,3933.8-2714.8,3933.8-2714.9,3933.9z"/>
					<path class="st2" d="M-2725.3,3979.5c0.1-0.2,0.1-0.4,0.1-0.6l-0.1-0.1C-2725.3,3979-2725.3,3979.2-2725.3,3979.5z"/>
					<path class="st2" d="M-2676.5,3932.7L-2676.5,3932.7L-2676.5,3932.7z"/>
					<path class="st2" d="M-2671.5,3937.3c-0.3-1-0.5-0.3-0.8-0.5c-0.6-1,0-0.6,0-1.1c-0.5-0.6-1.1-0.9-1.4-1.3c0-0.1,0-0.2,0.1-0.1
						c-0.4-0.2-0.8-0.6-1.2-0.9c-0.5-0.3-1-0.6-1.5-0.6c0-0.1-0.1-0.1-0.1-0.1c0.1,0.2,0,0.4-0.1,0.5c-0.4-0.2-0.8,0-0.8-0.3
						c0.2,0.1,0.3,0,0.4,0c-0.1,0-0.3,0-0.4,0c-0.3-0.4,0.6,0.1,0.7-0.2c-0.9-0.2-1.9-0.1-2.6-0.1c-0.1-0.2,0.3-0.2,0.6-0.2
						c0.3,0,0.5,0,0.1-0.2c0.4,0.1,0.7,0.2,1,0.3c-0.7-0.7,0.6,0.2,0-0.5c-0.7-0.2-1.2-0.2-1.6-0.1c-0.4,0.1-0.8,0.1-1.6,0.3
						c-0.3,0.3,0.2,0.2-0.1,0.5c-0.8,0.4-1.2,0.5-1.3,0.4s-0.2-0.3-0.3-0.2c0,0,0,0-0.1,0.1c-0.1,0.1-0.2,0.2-0.3,0.3
						c-0.1,0-0.1,0-0.2,0c-0.1-0.1-0.2-0.2-0.4-0.4l0.5-0.1c-0.9-0.8-0.9,0-1.7-1c0.3,0,0.8,0.5,0.7,0.3c-0.5-0.7-0.6-0.2-1.1-0.5
						l0.1-0.4c-1.1-0.7-2.4-1.2-3.7-1.8c0.1-0.1,0.4,0,0.1-0.3c-1.7-0.7-3.5-1.6-5.2-2.2l-0.7,0.1c-0.2,0-0.3-0.2-0.1-0.2
						c-0.7-0.2-0.1,0.2-0.4,0.2c-0.4-0.1-0.5-0.3-0.2-0.3c-1.3,0-3.5,0.1-4.8-0.1l0.2-0.1c-1-0.1-1.1,0.7-2,0.5l0.2-0.1
						c-2.2,0.2-4.3,1.2-6,1.6c-0.1,0.5-2,0.8-1.8,1.4c-1.2,0.4-1,0.1-2.5,1c-0.2,0.1-0.3,0.3-0.3,0.5c0,0.1-0.1,0.2-0.2,0.4
						c-0.1,0.1-0.2,0.3-0.3,0.4l-0.3-0.2c-0.2,0.3-0.4,0.6-0.5,0.9c-0.3,0.1-0.6,0.2-0.9,0.3l-0.5,0.6c0.3-0.2,0.7-0.5,0.8-0.4
						c-0.2,0.3-0.5,0.5-0.8,0.8l-0.5,0.4c-0.1,0.1-0.2,0.1-0.3,0.2l-0.2,0.2c0.3,0.2,0.4,0.3,0.3,0.3c1.3,0.3,2.5,0.5,3.5,0.7
						c-0.1,0.1-0.7,0-1.2-0.1c1,0.1,1,0.2,1,0.3c0,0,0,0.1,0.1,0.1c0.1,0.1,0.3,0.1,0.7,0.2c-0.2-0.1,0.2-0.1,0.2-0.2
						c0.4,0.3,1.3,0.7,2,0.9l-0.2,0.1c1.2,0.6,2.7,1,4,1.8c-0.4-0.3-0.2-0.6,0.3-0.4v0.4c0.4,0-0.4-0.3,0.3-0.3
						c0.5,0.3,0.2,0.5-0.2,0.4l0.7,0.2c0,0.1-0.2,0.1-0.3,0.2c0.4,0,0.9,0.9,1.4,0.8v0.1c1.3,0.8,1.9,1.1,3,1.7
						c0.2-0.2,0.5,0.1,1,0.1c0.7,0.6,1.4,1.4,2.2,2.1c0.7,0.4,0.3,0,0.7,0.1c-0.1,0.1,0.1,0.4,0.2,0.5s0.1,0.1,0.1,0.2
						c0,0,0,0.1-0.1,0c0.2,0.2,0.3,0.2,0.5,0.4l0.1,0.1l-0.1,0.1l-0.2,0.4c0.1,0,0.3-0.1,0.3,0s-0.1,0.1-0.2,0.2
						c-0.1,0-0.2,0.1-0.3,0v-0.1c-1.1,1.6-3.7,2.6-4.4,4.1v-0.1l-0.9,1.3c-0.5,0.5,0.2-0.4-0.3-0.2c-0.9,1.5-2,1.9-2.8,3.1
						c-1.3,0.2-2.7,2.8-4.1,3.5l0.2,0.1c-0.1,0.4-0.4,0.3-0.6,0.4c0.1,0.1,0.4-0.2,0.3,0.1c-2.1,2.4-4.9,4.5-7.4,6.8
						c-0.9,0.8,0.2,1.1-1.2,1.9l0.1-0.5c-1.5,2-3.5,3.5-5,5.5c0-0.2,0-0.2,0.1-0.4c-0.5,0.2-1.3,1.3-1.2,1.5
						c-0.3,0.3-0.2-0.1-0.5,0.1c-0.5,0.4-0.7,1.4-1,1.5c-0.1,0,0-0.2,0.1-0.3c-0.2,0.4-0.8,1.7-0.4,1.4c-0.5,1-0.3,2.1-0.4,2.9
						c0.2,0.3,0.2,0.7,0.3,1.1c0.1,0.4,0.2,0.7,0.5,0.7c-0.2,0.1-0.1,0.5,0.2,1c0.3,0.5,0.8,1,1.1,1.1c-0.3-0.1,0.3,0.5,0,0.5
						c0.5,0.6,1.2,0.9,1.2,0.6c0.4,0.6,1.1,0.9,1.7,1.1c0.6,0.2,1.2,0.2,1.5,0.6c1.2,0,2.4-0.3,3.3-0.8c0.9-0.5,1.7-1.2,2.3-1.9
						c0.1,0.2-0.2,0.6-0.6,0.9c-0.4,0.3-0.9,0.6-0.7,0.8c0.8-0.6,1.3-1.2,1.7-1.8c0.4-0.5,0.8-1,1.4-1.6c0.3-0.3,0,0.3-0.1,0.5
						c1-1.3,2.3-2.2,3.1-3.4c0,0-0.1,0.2-0.1,0.3c0.2-0.2,0.5-0.4,0.4-0.5l-0.2,0.2c-0.5,0.1,0.4-1.2,0.3-1.4
						c0.1,0.8,1.1-0.9,1.1,0.2c0.1-0.2,0.2-0.4,0.1-0.5c0.2-0.2,0.3-0.2,0.3,0.1c0.7-0.8,0.2-0.7,0.9-1.4c0.1,0.1,0,0.2,0,0.4
						c0.2-0.5,0.4-0.9,1-1.4c0,0.1,0.1,0.1,0,0.2c0.9-1,1.3-2,2.5-2.9c0,0.6,0.5-0.3,0.8-0.1l0.5-0.6l-0.4,0.1
						c0.5-0.5,0.7-1.1,1.3-1.5l-0.3,0.5l0.9-1l-0.6,0.4c0.4-0.6-0.4-0.3,0.3-0.9c-0.1,0.2,0.5-0.5,0.9-0.6l0,0
						c0.2-0.3,0.3-0.7,0.8-1c0.2,0,0.2,0.4,0.3,0.4c0-0.5,1.1-1.2,1.2-1.8c0,0.2,0.1,0.3,0.1,0.3v-0.4c0.3-0.2,0.3-0.2,0.4,0
						c0.7-0.7-0.6-0.1,0.4-0.8c0,0.1,0,0.1-0.1,0.2c0.9-0.7,1.5-1.7,2.3-2.4c0.5,0-0.6,0.7-0.1,0.7c1-1.1,1.9-2.6,3.1-3.6l-0.2,0.2
						c-0.2-0.5,1-0.6,1.3-1.3c-0.1,0.2,0,0.4,0,0.3c0.8-0.7,1.4-1.6,2.4-2.8v0.2c0.1-0.1,0.3-0.2,0.4-0.3l0.4-0.3
						c0.2-0.2,0.4-0.3,0.5-0.4c0-0.2,0.2-0.3,0.2-0.4l0,0v-0.1l0,0c0.5,1.5,2.7,2.1,3.5,3.8c-0.2-0.2-0.4-0.3-0.3-0.2l1.2,1
						c0.1-0.2,0-0.2-0.1-0.6c0.2,0,0.6,0.3,0.9,0.5c-0.6-0.4-0.3,0.3-0.1,0.6c0-0.1,0.1-0.1,0.2-0.1c0.3,0.9,0.4-0.2,1,0.7h-0.1
						c0.3,0.2,0.7,0.4,1,0.7c-0.1,0.3-0.4-0.2-0.6-0.1c0.4,0.4,1.2,0.5,1.4,1.1c-0.2-0.1-0.5-0.4-0.7-0.5c0.2,0.6,0.3,0.6,0.6,1l0,0
						l0.6,0.8l-0.1-0.2c0.5,0,0.8,0.3,1.2,0.6s1,0.5,1.5,0.2c-0.5,0.2-0.6,0.2-0.5,0.3s0.3,0.1,0.3,0.2c0.3,0.1,0.9,0.1,0.8,0.2
						c0.3-0.2,0.6-0.3,0.9-0.4c0.1-0.1,0.3-0.2,0.4-0.3s0.2-0.2,0.2-0.4c0.1,0,0.4-0.4,0.5-0.1c0.4-0.5-0.2,0-0.3-0.1
						c0.5-0.9,1.9-1.3,2.6-2.7c0.7-1,0.7-1.4,1.3-2.3c0.4-0.2,0,0.5,0,0.5c0.5-0.3,0.8-0.7,1.2-1.2c0,0.1,0.1,0.1,0.3,0.1
						c0.3-0.3,0-0.5,0.5-0.8c0,0.2,0,0.4,0,0.6c0.3-0.5,0.6-1,0.9-1.4c0.2,0-0.1,0.4-0.1,0.6c0.4-0.5,1.1-1.3,1-1.6l-0.4,0.2
						c0.2-0.2,0.2,0.1,0.2,0.2c-0.2,0.5-0.6,0.5-0.7,0.4l0.2-0.3c-0.7-0.1-1.1,1.2-1.7,1.8l-0.1-0.5l-0.3,0.8c-0.2,0-0.5,0-0.2-0.4
						c-0.6,0.3-0.3,0.5-0.8,0.7c-0.1,0-0.1,0,0-0.1l-0.3,0.5c0-0.1-0.3-0.1,0-0.3c-0.9,0.6-0.9,1.4-1.4,1.4v-0.1
						c-0.9,1.1,0.1,0.3-0.4,1.3h-1l0.1,0.3c-0.1,0.1-0.3,0.3-0.4,0.2c-0.2,0.5,0.2,0,0.1,0.4c-0.7,0.3-1.3,1.5-1.7,1.2
						c0,0.3,0.6-0.4,0.2,0.3c-0.3-0.1-0.4,0.1-0.5,0.2c-0.2,0.2-0.4,0.4-0.7,0.3c0.1-0.3,0.6-0.3,0.1-0.4c-0.1,0.3-0.4,0.3-0.6,0.1
						c-0.2-0.1-0.4-0.3-0.6-0.4c-0.2,0.3-0.9-0.7-1.6-1.2c0.1,0-1.1-1.4-1.6-2h0.1c-0.4,0.1-0.9-0.5-1.4-0.9
						c0.2-0.1,0.3-0.1,0.6,0.1l-0.4-0.4c-0.2,0-0.4-0.1-0.7-0.3l0.3-0.1c-0.6-0.6-1.4-0.9-2-1.8c-0.2,0.1,0.1,1.1-0.8,0.4
						c0.1-0.1,0.2-0.3,0.4-0.2c-0.1-0.1-0.3-0.2-0.4-0.3l0.5,0.1c-0.3-0.4-0.3,0-0.6-0.3c0.1-0.1-0.1-0.3,0.1-0.4
						c0.1,0.1,0.2,0.3,0.3,0.3c-0.3-0.3-0.5-0.8-0.6-1c-0.1,0.1-0.2,0.2-0.4,0c-0.7-0.7-0.1-0.4-0.5-1c-0.2-0.1-0.7-0.7-0.8-0.4
						c-0.1-0.1-0.2-0.2-0.2-0.3c-0.1,0-0.1-0.1-0.2-0.1c-0.4,0.6-1.9,2-1.3,1.8l0.1-0.1v0.1l0,0l0,0c-0.8,1.2-2.1,1.9-3,2.9
						l-0.1-0.1c-0.5,0.6-1.2,1.3-1.5,1.9c-0.2,0.2-0.5,0.3-0.5,0.1c-0.4,0.5-0.3,0.6-1.1,1.1c0.3-0.6-0.3,0,0.4-0.5
						c-0.6,0.5-0.9,0.5-1.3,1.3c0-0.4-0.6,0.2-0.9,0.5l0.5-0.3c-0.3,0.3-0.6,0.6-0.8,0.8l-0.1-0.4c-1.4,0.9-1.6,2.6-2.9,3
						c-0.1,0.5,0.7-0.5,0.7,0c-0.6,0.5-1.4,0.7-1.6,0.9c-0.9,0.6-0.3,1-1.2,1.7c0.2,0,0.5,0.1,0,0.8c-0.6,0.5-1,0.3-0.7-0.1
						c0.1-0.1,0.2-0.2,0.2-0.1c0.1-0.2,0.3-0.5,0-0.3v0.2c-0.3,0.2-1.1,0.9-1,0.6c-0.3,0.5,0,0.3,0.3,0.1c-0.8,0.6-1.1,1.1-1.8,1.7
						c0.2-0.1,0.4-0.1,0.2,0c-1.1,0.9-0.3,0.6-0.9,1.3c-0.5,0.3-0.2-0.4-0.8,0.4c-0.5,0.3-0.3-0.1-0.2-0.4c-0.5,0.8-1.3,1.1-1.7,1.4
						l0.3-0.4c-0.2,0.2-0.3,0.4-0.5,0.6h0.4c-0.2,0.2-0.4,0.3-0.5,0.3c-0.1,0.3,0.4,0.1,0.2,0.7c-0.3,0.2-0.7,0.9-1,0.8
						c0.9-0.7-0.3-0.1,0.3-0.9c-0.1,0.2-0.3,0.3-0.5,0.5c-0.1,0,0-0.1,0-0.1c-1,0.6-0.1,0.6-0.9,1.4c0-0.2-0.4,0-0.5,0.1
						c0.3-0.3,0.4,0.1,0.2,0.4c-0.6,0.4-0.5,0.6-0.8,0.9l0.4-0.3c0,0.2-0.3,0.5-0.6,0.9c-0.1-0.1,0.3-0.4,0.1-0.3
						c-0.2,0.6-1.1,0.7-1.6,1.4c-0.3,0.2-0.3-0.2-0.5,0c-0.5,0.8-0.9,0.5-1.4,1.3c0.4,0,0.4-0.1,0,0.5l1-1.2l-0.5,0.9
						c0.3-0.3,0.6-0.8,0.8-1c-0.2,0.5-0.2,0.4,0.1,0.4c-0.7,0.2-0.8,1-1.4,1.4l-0.4-0.4c-0.2,0.1-0.4,0.3-0.6,0.5
						c-0.2,0.2-0.3,0.3-0.4,0.5c-0.3,0.4-0.7,0.7-1.3,0.9c0.1,0,0.3,0,0.4-0.1c0,0.3-0.7,0.4-1.1,0.5c0-0.2-0.3-0.2-0.4-0.3
						c0,0.2-0.8,0.1-1,0.4c-0.2-0.1-0.3-0.2-0.5-0.3c-0.5-0.2-0.8-0.1-1.1-0.1c-0.3,0-0.7,0-1.1-0.3c0.4,0,0.1-0.4,0.7-0.2
						c-0.3-0.2-0.5-0.4-0.6-0.3c-0.1-0.2-0.9-0.4-1-0.8c-0.2,0-0.4,0.1-0.6-0.3c0-0.1,0.1-0.1,0.1-0.1c-0.1,0.1-0.5-0.4-0.4,0
						c-0.1-0.6-0.4-1.2-0.6-1.9s-0.3-1.4,0.1-1.8c0-0.7,0.3-1.6,0.6-2.1c0,0.1,0.1,0.1,0,0.2c0.7-0.6-0.2-0.8,0.8-1.5
						c0.6-0.2-0.3,0.5,0,0.4c0.5,0.4,0.9-1.1,1.7-1.3l-0.1,0.2c0.6-0.3,0.9-1.2,1.6-1.9c0,0,0,0.1,0.1,0.1c0.2-0.7,1.1-1.7,1.7-2.4
						c0,0.4-0.2,0.4,0.1,0.5c0.3-0.3-0.4-0.2,0.2-0.9c0.3-0.1,0.8-0.4,1.1-0.3l-0.6,0.6c0.5,0,0.7-0.7,1.1-1l0.1,0.1
						c0.8-0.9,0.6-1.2,1.5-2.1h-0.2c0.2-0.8,0.6-0.3,0.9-1l0.4,0.1c0.3-0.4,0.9-1.4,1.4-2.1c-0.1,0.5-0.7,1.4-1,1.9
						c0.3-0.3,1.1-1.1,1.1-1.5c-0.1,0.2-0.2,0.4-0.4,0.5c0.2-0.6,0.6-1.3,1.3-1.9c0.4,0.7,1.9-1.6,2.8-1.6c1-1.4,2.4-2.2,3.7-3.6
						c-0.9,0.1,0.4-0.4-0.1-0.8c0.3-0.3,0.4-0.5,0.5-0.5l1.2-0.7c0.4-0.1-0.2,0.4-0.1,0.5c0.7-0.7,0.5-0.1,1-0.5
						c-0.2-0.1,0-0.5,0.5-0.8l-0.8,0.4c0.7-1.2,1.2-0.5,1.9-1.7l-0.2,0.4c0.4-0.6,1.8-1.8,2-2.7c0.1,0,0.4,0,0.2,0.2
						c0.6-0.6,1.2-1.3,1.8-2c0.3-0.4,0.6-0.7,0.8-1l0.2-0.2l0.3-0.3c0.2-0.2,0.4-0.4,0.7-0.6v0.2c0.3-0.4,0.3-0.7,0.9-1.1
						c0.1,0,0,0.2,0.2,0l0.1-0.1c0,0,0.1-0.1,0-0.1l-0.5-0.4c-0.3-0.3-0.7-0.6-0.9-0.8l0.6,0.3c-0.4-0.5-0.9-1-1.3-1.3
						c-0.3-0.2-0.6-0.4-0.8-0.5c-0.6-0.3-1.1-0.5-1.7-0.9c0.3-0.3-0.7-1.3-1.2-1.7h0.1c-1.6-1.2-3-1.6-4.7-2.3c-0.7-1-3.3-2-4.9-2.9
						c0.2,0.2-0.2,0.3-0.5,0.2c-0.4-0.2-1.2-0.2-1-0.5l0.1,0.1c-0.1-0.2-0.3-0.4-0.6-0.6c-0.2-0.1-0.3-0.1-0.5-0.2l-0.4-0.1
						c-0.1,0.2-0.2,0.3-0.3,0.5c-0.2-0.4-0.3-0.4-0.7-0.5c-0.1-0.2,0.4-0.8,0.8-0.6c0,0,0.2-0.3,0.3-0.4c0.2-0.2,0.3-0.3,0.4-0.5
						l0.2,0.2l2.6-1.6l-0.1,0.3c0.7-0.4,0.5-1.2,1.1-1.5l0.4,0.3c1.2-0.6,2.6-0.6,3.8-1.2c0,0.1,0,0.2-0.2,0.3
						c0.6-0.2,2.4-0.1,2.1-0.6c0,0.4,1.4-0.1,2.1-0.2l-0.1,0.3c0.6-0.3,0.7-0.4,1.5-0.4c0.2,0.1,0.2,0.2-0.1,0.1
						c0.7,0.2,0.6-0.2,1.4,0.1l-0.3,0.1c0.7,0.1,0.7,0,1.1-0.1c0.5,0,1.3,0.4,1.3,0.7c0.1-0.1,0.6-0.2,1,0c0,0.1-0.1,0.1-0.2,0.1
						c1.1,0.6,1.8,0.3,2.4,0.9c0,0.1,0,0.2,0.1,0.2c-0.9-0.4-1.6-0.7-1.5-0.7c-0.1,0.2,0.6,0.6-0.1,0.7c0.6,0,1.8,0.1,2.4,0.5v0.1
						h-0.1c0.1,0.1,0.3,0.2,0.4,0.2c0.2,0.1,0.3,0.2,0.5,0.4c0,0.2,0.7,0.5,1,0.7c0.1-0.3,0.5,0.1,0.2-0.4c0,0.1-0.1,0-0.3-0.1
						c-0.1,0-0.1-0.1-0.2-0.1l0,0l-0.8-0.5c0.3,0,0.7,0.1,1,0.4c0.3-0.1,0.5-0.1,0.7-0.1c0.2,0.6,0.9,1.4,0.9,1.6
						c0.5,0.2,1,0.6,1.4,0.9c0.2,0.1,0.6,0.4,0.9,0.7c0.3,0.2,0.6,0.4,0.8,0.5c0.1-0.1,0.2-0.2,0.3-0.4c0.4-0.3,0.4-0.1,0.6-0.2
						c-0.2,0.2-0.5,0.4-0.6,0.6c0.2-0.2,0.5-0.4,0.7-0.6c0.1-0.1,0.3-0.2,0.4-0.3l0.3-0.1c0.3-0.2,0.6-0.3,0.7-0.5
						c0.8,0-0.3,0.4,0.7,0.2l-0.1,0.1c1,0.2,1.7,0.1,2.6,0.2c0.9,0.1,1.9,0.6,2.3,1.8c-0.1-0.2-0.1-0.2-0.1-0.3
						c0.7,1,1.3,2.1,1.4,3.3c0.1,0.6,0,1.2-0.2,1.8c0,0.1-0.1,0.3-0.2,0.4c-0.1,0.1-0.1,0.3-0.2,0.5c-0.2,0.4-0.5,0.7-0.8,1.1
						c0.2,0.3,0.5,0.6,0.7,1c0.2,0.2,0.4,0.4,0.5,0.5s0.2,0.1,0.3,0.2c0.2,0.1,0.4,0.1,0.6,0.2l-0.1,0.3l0.9,0.4c1,0.7,1,2,2.4,2.8
						v-0.3c0.4,0.4,1.3,1.2,1.1,1.3c0.1,0,0.3,0,0.4,0.2l-0.1,0.1l1.2,0.8c0.7,0.8-0.6,0.3,0.5,1.4c0.4,0.4,1.5,0.8,1.4,0.6
						c-0.2-0.2-0.3-0.5-0.2-0.6l0.4,0.3c0.4-0.3,1-0.3,0.3-1.5l-0.8-0.4v-0.4l0.5,0.5c-0.2-0.5-0.5-0.5-0.8-0.6c0-0.1,0-0.3-0.1-0.4
						l-0.9-0.3c0.1-0.2,0.5,0,0.2-0.5c-0.4-0.1,0,0.6-0.6,0.2c-0.2-0.5,0.1-0.5-0.4-0.7c0-0.1,0.2-0.1,0.3,0
						c-0.4-0.2-0.9-0.8-1.2-0.8c-0.1-0.5-1.1-1-0.8-1.3c-0.2,0-0.8-0.3-1.1-0.6c0.9,0.2-1.1-1.1-0.5-1.4c-0.4,0-0.8-0.3-1.2-0.7
						c-0.3-0.2-0.3-0.2-0.4-0.3c-0.1-0.1-0.2-0.1-0.3-0.2c0.1,0,0.2,0,0.2,0.1c0,0-0.1-0.1,0-0.1c0.1-0.1,0.3-0.1,0.4-0.2
						c-0.1,0-0.2-0.1-0.2-0.1s0-0.1-0.1-0.1c0,0,0-0.1,0-0.2c0-0.3,0.1-0.7,0.1-1c0.6-0.7,0.3,0.6,0.7,0.5c-0.2,0-0.1-0.4-0.1-0.7
						s0-0.6-0.2-0.5c0.3-0.6,0.2-0.5,0.5-0.8c-0.5-0.1-0.1-0.6-0.5-1.1c0-0.9,0.4-0.3,0-1.3
						C-2672,3936.4-2671.5,3937.2-2671.5,3937.3z M-2688.6,3929.2L-2688.6,3929.2l0.4,0.2L-2688.6,3929.2z M-2690.1,3928.4l0.7,0.3
						c0,0.1-0.1,0.2-0.2,0.1C-2689.6,3928.8-2689.9,3928.6-2690.1,3928.4z M-2687.9,3931.7c-0.2-0.1-0.3-0.2-0.3-0.2L-2687.9,3931.7
						L-2687.9,3931.7C-2687.8,3931.7-2687.8,3931.7-2687.9,3931.7z"/>
					<path class="st2" d="M-2687.3,3931.7L-2687.3,3931.7C-2687.3,3931.6-2687.3,3931.6-2687.3,3931.7l-0.1-0.1L-2687.3,3931.7z"/>
					<path class="st2" d="M-2686.7,3954.9L-2686.7,3954.9L-2686.7,3954.9L-2686.7,3954.9z"/>
					<polygon class="st2" points="-2712.8,3931.8 -2712.8,3931.8 -2712.6,3931.6 					"/>
					<path class="st2" d="M-2680.4,3959.8v0.1C-2680.4,3959.9-2680.4,3959.8-2680.4,3959.8z"/>
					<path class="st2" d="M-2677.7,3962.6l0.3,0.5C-2677.5,3962.8-2677.6,3962.7-2677.7,3962.6z"/>
					<path class="st2" d="M-2674.9,3964.6c0.1,0,0.1-0.1,0.1-0.1l0,0L-2674.9,3964.6z"/>
					<path class="st2" d="M-2708.3,3978.6C-2708.4,3978.6-2708.4,3978.7-2708.3,3978.6C-2708.6,3978.9-2708.5,3978.8-2708.3,3978.6z
						"/>
					<path class="st2" d="M-2698.7,3968c-0.1,0.1-0.1,0.3-0.2,0.4C-2698.7,3968.3-2698.6,3968.1-2698.7,3968z"/>
					<polygon class="st2" points="-2723.2,3983.3 -2723.1,3983.3 -2723.2,3983.2 					"/>
					<path class="st2" d="M-2699.4,3968.9c0.2-0.1,0.4-0.3,0.5-0.5C-2699.1,3968.6-2699.3,3968.7-2699.4,3968.9z"/>
					<path class="st2" d="M-2664.6,3955.8l0.1-0.1l0,0L-2664.6,3955.8z"/>
					<path class="st2" d="M-2664.5,3955.7l0.1-0.1C-2664.5,3955.6-2664.5,3955.6-2664.5,3955.7z"/>
					<path class="st2" d="M-2664.2,3955.2l-0.2,0.3C-2664.3,3955.4-2664.2,3955.3-2664.2,3955.2z"/>
					<path class="st2" d="M-2667.5,3958.5v0.1C-2667.5,3958.6-2667.5,3958.6-2667.5,3958.5z"/>
					<path class="st2" d="M-2668.4,3959.4c0.2-0.2,0.7-0.4,0.9-0.7v-0.1C-2667.5,3958.9-2668.3,3959.1-2668.4,3959.4z"/>
					<path class="st2" d="M-2672.8,3962.1l0.8-0.7c-0.2,0-0.5,0.1-0.2-0.2C-2673.4,3961.9-2671.9,3961.2-2672.8,3962.1z"/>
					<path class="st2" d="M-2675,3963.2c0.4,0,0-0.2,0.1-0.2C-2675.2,3963-2675.3,3963-2675,3963.2z"/>
					<path class="st2" d="M-2692,3959.8l-0.1-0.2C-2692.4,3959.9-2692,3959.6-2692,3959.8z"/>
					<polygon class="st2" points="-2694.1,3963.8 -2693.7,3963.6 -2693.7,3963.3 					"/>
					<polygon class="st2" points="-2697.2,3964.3 -2697.1,3964.2 -2697.6,3964.8 					"/>
					<path class="st2" d="M-2722.9,3978.3l-0.3,0.1C-2723.2,3978.7-2722.8,3978.7-2722.9,3978.3z"/>
					<path class="st2" d="M-2713.4,3966.2c0.2,0,0.6-0.3,0.7-0.6C-2713,3965.9-2713.3,3966.1-2713.4,3966.2z"/>
					<path class="st2" d="M-2710.7,3933.9c0.1,0,0.1,0,0.2-0.1C-2710.6,3933.8-2710.6,3933.8-2710.7,3933.9L-2710.7,3933.9z"/>
				</g>
			</g>
		</g>
	</g>
</g>
<g>
	<g>
		<g>
			<g>
				<g>
					<path class="st2" d="M-2716.2,3978.3c0.1,0.1,0.2,0.2,0.2,0.2L-2716.2,3978.3L-2716.2,3978.3z"/>
					<path class="st2" d="M-2715.7,3978.7c-0.1-0.1-0.3-0.3-0.5-0.5c0.2,0.2,0.1,0.1,0.4,0.4c0,0-0.1-0.1-0.2-0.1
						c0.1,0.1-0.1,0,0.1,0.1c0.2,0.2,0.2,0.1,0.1,0C-2715.8,3978.6-2715.7,3978.6-2715.7,3978.7z"/>
					<path class="st2" d="M-2714.7,3977L-2714.7,3977L-2714.7,3977z"/>
					<path class="st2" d="M-2715.2,3975.7C-2715.1,3975.7-2715.1,3975.6-2715.2,3975.7C-2715.1,3975.6-2715.1,3975.6-2715.2,3975.7z
						"/>
					<path class="st2" d="M-2715.1,3975.2L-2715.1,3975.2L-2715.1,3975.2z"/>
					<path class="st2" d="M-2714.7,3977L-2714.7,3977C-2714.7,3976.9-2714.7,3977-2714.7,3977z"/>
					<polygon class="st2" points="-2716.2,3978 -2716.1,3978.1 -2716.2,3978.1 					"/>
					<polygon class="st2" points="-2714.4,3977.6 -2714.4,3977.6 -2714.3,3977.6 					"/>
					<path class="st2" d="M-2714.5,3978.1c0,0-0.3-0.1-0.4-0.1c0.1,0,0.2,0.1,0.2,0.1H-2714.5z"/>
					<path class="st2" d="M-2715.2,3978.6L-2715.2,3978.6L-2715.2,3978.6z"/>
					<path class="st2" d="M-2714.4,3977.2L-2714.4,3977.2L-2714.4,3977.2z"/>
					<path class="st2" d="M-2716.8,3978L-2716.8,3978L-2716.8,3978z"/>
					<polygon class="st2" points="-2715.7,3978.9 -2715.7,3978.9 -2715.6,3979 					"/>
					<path class="st2" d="M-2715.3,3974.6L-2715.3,3974.6L-2715.3,3974.6z"/>
					<path class="st2" d="M-2719.8,3975.7c0.2,0.1,0.2,0.2,0.5,0.3C-2719.4,3976-2719.6,3975.7-2719.8,3975.7z"/>
					<path class="st2" d="M-2716.2,3978.1L-2716.2,3978.1L-2716.2,3978.1z"/>
					<path class="st2" d="M-2719.3,3976L-2719.3,3976L-2719.3,3976z"/>
					<path class="st2" d="M-2716.5,3974.3v0.1C-2716.6,3974.3-2716.6,3974.3-2716.5,3974.3z"/>
					<path class="st2" d="M-2715.8,3974.9L-2715.8,3974.9L-2715.8,3974.9z"/>
					<path class="st2" d="M-2717,3974.6C-2717.1,3974.6-2717.1,3974.5-2717,3974.6L-2717,3974.6
						C-2717.1,3974.6-2717.1,3974.6-2717,3974.6z"/>
					<polygon class="st2" points="-2717.5,3974.6 -2717.5,3974.7 -2717.5,3974.7 					"/>
					<path class="st2" d="M-2717.1,3978.2v0.3C-2717.1,3978.3-2717.1,3978.2-2717.1,3978.2z"/>
					<path class="st2" d="M-2716.1,3978.1C-2716.1,3978.1-2716.2,3978.1-2716.1,3978.1L-2716.1,3978.1L-2716.1,3978.1z"/>
					<path class="st2" d="M-2717.1,3976.8L-2717.1,3976.8L-2717.1,3976.8z"/>
					<path class="st2" d="M-2717.9,3977.8L-2717.9,3977.8L-2717.9,3977.8z"/>
					<polygon class="st2" points="-2717.2,3976.8 -2717.2,3976.6 -2717.2,3976.7 					"/>
					<path class="st2" d="M-2717,3978.5L-2717,3978.5L-2717,3978.5z"/>
					<path class="st2" d="M-2717,3977.8c0,0,0.1,0.4,0.1,0.6c0,0.1-0.1-0.3-0.1-0.4c0,0.1,0.1,0.4,0,0.4v-0.2c0,0.3,0,0,0,0.4v-0.1
						l0.1,0.5c0,0,0,0.2,0,0c0,0,0-0.1,0-0.2v0.1c0-0.3,0-0.1,0-0.4c0,0.1,0,0.4-0.1,0.3c0-0.3,0-0.1,0-0.4v0.1c-0.1-0.5,0,0,0-0.5
						c0-0.1,0,0.2,0,0.1v0.5c-0.1,0.3,0-0.9,0-0.4c0,0.2-0.1,0.6-0.1,0.4l0.1-0.4c0,0-0.1,0.5-0.1,0.3c0-0.1,0-0.1,0.1-0.2
						c0-0.3-0.1,0.2-0.1,0.2l0.1-0.3c0,0-0.1,0.3-0.2,0.3c0-0.1,0.1-0.2,0.1-0.3c-0.1,0.1-0.1-0.1,0-0.3l-0.1,0.3
						c0,0,0.1-0.1,0.1-0.2c0-0.1-0.1,0.2-0.1,0.3l0.1-0.2c-0.1,0.2-0.4,0.4-0.2,0.1l0.1-0.1c0.1-0.1-0.4,0.5-0.2,0.2l0,0
						c0-0.1-0.2,0,0.1-0.3c-0.3,0.3,0.1-0.2-0.4,0.2c0.2-0.2,0.3-0.3,0.4-0.4c0,0-0.3,0.2-0.4,0.2l0.3-0.2l-0.3,0.2l0.3-0.2h-0.1
						c0,0-0.1,0.1-0.2,0.1c-0.1,0,0.2-0.2,0.3-0.2c-0.1,0-0.2,0.1-0.3,0.1l0.2-0.1c-0.3,0.1,0.3-0.1,0,0l-0.2,0.1
						c0.2-0.1,0.2-0.1,0.1-0.1l0.2-0.1c0,0-0.1,0-0.1-0.1c-0.1,0-0.5,0.1-0.5,0.1l0.3-0.1c-0.2,0-0.1,0-0.4,0.1c0,0,0.4-0.1,0.5-0.1
						h-0.1h0.3c-0.2,0,0.3-0.1,0,0h0.1c0,0-0.1,0-0.1-0.1c-0.3,0-0.2,0-0.4,0c0.1,0,0.3,0,0.3-0.1c-0.1,0-0.2,0-0.4-0.1
						c0.3,0,0.2,0,0.4,0c0,0-0.1,0-0.2-0.1c-0.1,0-0.1,0-0.2,0c0,0,0.1,0,0.2,0l0,0c-0.4-0.2,0.7,0.1,0.2-0.1l0,0
						c-0.1,0-0.2-0.1-0.2-0.2c0,0,0.2,0.1,0.3,0.1c-0.4-0.2,0.1,0-0.1-0.2c0.6,0.4,0-0.1,0.4,0.2l-0.1-0.1c-0.1-0.1,0.1,0.1,0.1,0.1
						c-0.1-0.1-0.1-0.1-0.2-0.2c-0.1-0.2,0.3,0.1,0.4,0.2c0,0-0.5-0.8-0.2-0.5l0.1,0.3c-0.1-0.4,0.1,0,0-0.4c0,0.1,0,0.2,0,0.2
						c0.1,0.2,0,0,0-0.2c0,0,0,0.2,0.1,0.3c0,0.1,0-0.3,0-0.1v0.1c0-0.1,0,0,0-0.2c0,0.1,0-0.1,0.1,0c0-0.3,0,0.1,0-0.3
						c0,0.5,0,0.4,0.1,0.2c0,0.1,0,0.1,0,0.3c0,0,0-0.1,0-0.3c0,0.5,0.1-0.4,0,0.3c0.1-0.2,0.2-0.4,0.3-0.5c-0.1,0.4-0.1,0-0.2,0.5
						c0.1-0.2,0.2-0.5,0.2-0.4s-0.1,0.2-0.1,0.3c0.1-0.2,0,0.1,0.2-0.1l-0.1,0.1c0,0,0,0.1,0.1-0.1l0,0c0.1-0.3,0.3-0.5,0.4-0.7
						c-0.3,0.5,0,0.2-0.4,0.8c0,0,0.1-0.1,0.2-0.2c0,0-0.1,0.1-0.1,0.2c0.1-0.1,0.2-0.3,0.2-0.2l-0.2,0.2c0.1-0.2,0.2-0.3,0.2-0.2
						l-0.1,0.1c0,0,0.4-0.3,0.3-0.2c-0.3,0.3-0.1,0.1-0.3,0.4l0.1-0.1l0.1-0.1c0,0,0.2-0.1,0.2,0l-0.1,0.1h0.1l0.1-0.1
						c0.2-0.1,0.4-0.3,0.3-0.2c0,0,0,0-0.1,0.2l0,0c0.1-0.1,0.2-0.1,0.2,0l-0.4,0.3c0.3-0.2,0.1,0,0.4-0.2c-0.1,0-0.2,0.1-0.3,0.2
						l0.2-0.1c-0.1,0.1-0.1,0.1-0.2,0.2c0,0.1,0.4-0.3,0.2-0.1h-0.1c-0.1,0.1,0.2,0,0.1,0.1c-0.3,0.2-0.1,0-0.4,0.2
						c0.1,0,0.5-0.1,0.4,0l0,0c0.5-0.2-0.2,0.1,0,0.1c0,0-0.3,0.1-0.2,0.1c-0.1,0.1,0.1,0,0.3,0.1h-0.1c-0.1,0-0.1,0.1-0.1,0.1
						c0.1,0,0.1,0,0.3,0c-0.8,0.1,0.4,0.2-0.2,0.2h-0.1l0.1,0.1c0.2,0,0.1,0,0.3,0c0.1,0,0.2,0.1,0.2,0.1c-0.2-0.1-0.4,0-0.5,0h0.2
						c-0.4,0,0.5,0.1,0.2,0.1h-0.1c0.1,0,0.2,0.1,0.2,0.1c-0.3,0-0.1,0-0.3-0.1c0,0,0.5,0.2,0.2,0.1c-0.1,0-0.1,0-0.1-0.1
						c-0.3,0-0.2,0-0.3,0l0,0h-0.1h0.1c0.7,0.2,0.1,0.1,0.5,0.3c-0.4-0.2-0.2-0.1-0.5-0.2c-0.1,0-0.2,0-0.3-0.1
						c0.2,0.1-0.2,0,0.1,0.1c-0.1,0,0,0-0.2-0.1c0.1,0,0.2,0.1,0.3,0.1c0.3,0.2-0.4-0.1,0,0.2c0.1,0.1,0.4,0.3,0.5,0.4
						c-0.1-0.1-0.3-0.2-0.3-0.2c-0.1-0.1-0.1,0,0,0.1c-0.1-0.1-0.1-0.1-0.2-0.1c0,0,0.3,0.2,0.1,0.2l-0.3-0.2
						c0.1,0.1,0.2,0.2,0.2,0.3c-0.1-0.1-0.2-0.2-0.3-0.2c0,0.1,0.1,0.1,0.3,0.3h0.1c0,0-0.2-0.1-0.2-0.2c-0.2-0.1,0.1,0,0.2,0.1v0.1
						c0.5,0.3,0-0.1,0-0.1l0.3,0.3l-0.3-0.2c0.1,0.1,0.3,0.2,0.3,0.2c0.2,0.1-0.1-0.1,0.1,0c0,0,0,0,0.1,0l-0.1-0.1
						c0.1,0.1,0.3,0.1,0.2,0.1c0.2,0.1-0.2-0.2,0.1-0.1l0,0c-0.1-0.1-0.3-0.2-0.6-0.4l0.7,0.3l-0.3-0.1c0,0,0,0,0.2,0
						c-0.2-0.1-0.1-0.1-0.3-0.1c0.3,0.1-0.1-0.2,0.4,0c-0.2-0.1-0.2,0-0.3-0.1c0.5,0.2-0.1-0.1,0.2,0c0.3,0.1,0.1,0.1,0.3,0.1
						c-0.4-0.2,0.1-0.1,0-0.1c-0.3-0.1-0.1-0.1-0.2-0.2c0.1,0,0.2-0.1,0.4-0.1h0.1c-0.4-0.1-0.3-0.1-0.4-0.2c0.2,0,0.3,0,0.4,0.1
						l0,0c-0.1,0-0.2,0-0.2-0.1h0.3c0-0.1-0.3-0.1-0.1-0.2c-0.3,0-0.7,0.1-0.9,0c0.1,0,0.4,0,0.4,0h-0.1h0.2c0.1,0-0.2,0-0.2,0
						c0.2,0,0.1,0,0.3,0c0,0-0.1,0,0,0c0,0,0.1-0.1,0.3-0.1c-0.1,0-0.3,0-0.3,0c0-0.1,0.2,0,0.3-0.1c-0.1,0,0-0.1-0.3,0
						c0,0,0.1,0,0.2-0.1c-0.1,0-0.1-0.1-0.4-0.1l0,0l0,0l0,0l0,0c-0.3,0,0.1-0.2,0-0.3h0.1c-0.1,0-0.1-0.1-0.3-0.1
						c0,0,0.2-0.1,0.3-0.1c-0.1,0-0.2,0-0.1-0.1c0.2,0,0.1-0.1,0.1,0c0.1-0.1,0.2-0.2-0.1-0.1c0.2-0.1,0.3-0.2,0.2-0.2l-0.1,0.1
						c0,0,0,0,0-0.1l0.3-0.1c0.3-0.3-0.7,0.1-0.2-0.3c-0.2,0.1-0.1,0.1-0.3,0.3c0-0.1,0.4-0.4,0.3-0.4c0.1-0.2-0.4,0.2-0.4,0.1
						c-0.1,0.1-0.3,0.3-0.4,0.3c0-0.1,0.3-0.4,0.4-0.4c0,0,0,0,0,0.1c0,0,0.1,0,0.2-0.1l-0.1,0.1c0.1-0.1,0-0.2,0.2-0.3
						c-0.1,0-0.2,0.1-0.2,0.2c0.1-0.2-0.1-0.1-0.1-0.2c0,0.1-0.1,0.2-0.1,0.2c0-0.2-0.2,0.1-0.3,0.1c0.1-0.2,0.3-0.3,0.1-0.3
						c0-0.1,0.2-0.2,0.3-0.3c-0.2,0.1,0-0.2,0-0.3h0.1c-0.1,0-0.1,0-0.1,0l-0.1,0.2v-0.1c-0.1,0.1-0.2,0.3-0.4,0.5
						c0-0.1-0.1,0.1,0-0.2c0,0.1,0.2-0.3,0.3-0.3h-0.1c0,0,0-0.1,0.1-0.1c0.1-0.3-0.2,0.3-0.3,0.2c0.1-0.1,0.2-0.3,0.1-0.3
						c0,0-0.1,0.3-0.2,0.4c0-0.2-0.1,0.1-0.1,0v0.1c-0.1,0.1-0.1,0.1-0.2,0.1c0.1-0.1,0.1-0.1,0.1-0.1c-0.2,0.3,0-0.3-0.1-0.2
						c0-0.1,0.1-0.3,0.1-0.4c-0.2,0.2,0-0.3-0.1-0.1s0,0.2-0.2,0.4l0.2-0.1l-0.2,0.3l0.1-0.1c-0.1,0.2-0.1,0.1-0.1,0.3
						c0.1-0.3-0.2,0.2-0.1-0.1l0.2-0.6c0-0.3-0.3,0.2-0.3,0.1v0.1c-0.1,0.2-0.1,0-0.1,0.1c0-0.2,0-0.3,0-0.4c0,0.1-0.1,0-0.2,0.4
						v-0.3c-0.1-0.1-0.2,0.5-0.2,0.5c0-0.2,0-0.4,0.1-0.5c0,0-0.1,0-0.1,0.1c0-0.1-0.1,0.3-0.1,0.1c0,0.1,0,0.3-0.1,0.3v-0.1
						c0,0.1,0,0.1,0,0.4c-0.1-0.6-0.2,0-0.3-0.5c-0.1,0.1-0.1,0.1-0.2,0.2c0-0.1,0-0.1,0-0.1c-0.1-0.2,0.1,0.6,0,0.4
						c-0.1-0.3,0-0.2-0.1-0.3c-0.2-0.6-0.1,0.1-0.2-0.2l0,0c-0.1-0.2,0,0.3-0.1,0.3v-0.1c0.1,0.3,0,0.5,0,0.6
						c-0.1-0.2,0-0.1-0.2-0.4c0,0,0.2,0.4,0.2,0.5c-0.1-0.1-0.2-0.2-0.3-0.4h0.1c-0.2-0.3-0.1,0-0.1,0l-0.1-0.1
						c-0.1,0.1,0.1,0.4,0,0.5l0.1,0.1c0.2,0.4-0.2-0.2,0,0.1l-0.2-0.3c0,0.1,0.1,0.4,0.1,0.5c-0.2-0.2-0.2-0.4-0.3-0.6
						c0,0-0.1,0.1,0,0.3c0,0-0.1-0.1,0-0.1c0.2,0.3,0.2,0.4,0.2,0.5c-0.5-0.6-0.3,0-0.7-0.4c0.1,0.3-0.3,0.1-0.4,0.3
						c0.5,0.3,0,0.1,0.5,0.4c0,0,0,0.1,0,0c-0.1,0-0.2-0.1-0.4-0.1c-0.2-0.1-0.1-0.1-0.2-0.2c-0.1,0.1-0.2-0.1-0.4-0.1
						c0.2,0.1,0.3,0.2,0.2,0.2l0.3,0.1c0.2,0.3-0.5-0.1-0.3,0.1l-0.2-0.1c0.1,0.1-0.1,0.2,0.3,0.5c-0.1,0-0.2-0.1-0.3-0.1
						c-0.1,0.1,0.4,0.5,0.1,0.5h-0.1c0,0,0.3,0.1,0.1,0.1c-0.1,0-0.1,0-0.2,0l0.2,0.1l-0.2-0.1c-0.2,0.1,0.4,0.3,0.5,0.4
						c-0.4,0-0.6,0.1-0.7,0.2h-0.1c0,0.2,0.4,0.3,0.6,0.4c-0.5,0.2-0.1,0.4-0.3,0.6c0.1-0.1,0.3-0.1,0.4-0.1c-0.1,0.1,0.3,0-0.1,0.1
						l0,0c-0.4,0.2-0.2,0.2-0.2,0.3l0.5-0.2c-0.6,0.5,0.4,0.2-0.1,0.6c0.1,0,0.2,0,0.3,0l-0.2,0.2c0,0.1,0,0.2,0.2,0.3l-0.2,0.1
						c0,0.1,0.7-0.5,0.7-0.4l-0.3,0.3c0.1,0.1-0.1,0.4,0.3,0.2c0,0-0.1,0.1-0.2,0.1c0,0.1,0,0.4,0.3-0.1c-0.2,0.3,0.1,0.1,0.2,0
						l-0.2,0.2c0.2-0.3,0.3-0.4,0.4-0.4c0,0-0.1,0.2-0.1,0.1c0,0.2,0.2-0.2,0.2,0l-0.1,0.1c0,0,0.1,0,0.2-0.2c0.1-0.1,0.1,0.1,0,0.3
						c0.1-0.1,0.2-0.3,0.2-0.2s-0.1,0.1-0.1,0.2c0,0.2,0.2-0.3,0.2,0c0,0.1,0,0.1,0,0.2c-0.1,0-0.1-0.1-0.1-0.1
						c-0.1,0.2,0,0.3-0.2,0.6c0.1-0.2,0.4-0.5,0.4-0.4v0.1l0,0c0,0,0,0,0.1,0v0.1c0,0.2,0.1,0.1,0.1,0.1c0.1-0.3,0.1-0.2,0.1-0.5
						l0,0l0,0l0,0h-0.1c0.1-0.1,0.1-0.2,0.1-0.1l0.1-0.4c-0.1,0.4,0,0.6,0,0.9c0.1-0.1,0.3-0.1,0.4-0.6c0-0.1,0,0.2,0,0.2
						c0,0.1,0,0-0.1,0.1c0.1-0.1,0.2,0,0.2-0.4c0.1,0.2,0,0.3,0.1,0.3v0.1c0.1,0.3,0.2,0.1,0.2-0.2c0.1-0.2,0.1-0.4,0.2-0.1v-0.1
						c0.3,0.3,0.3-0.4,0.7,0c0.1,0.1,0-0.1,0-0.3l0.2,0.3l-0.1-0.3c-0.1-0.3,0.5,0.6,0.4,0.1l-0.1-0.2c0.1,0,0-0.2,0.2,0
						c0,0-0.1-0.2,0-0.1l0.1,0.1c0-0.1-0.1-0.2-0.1-0.3c0.1,0,0.4,0.5,0.5,0.4c0-0.1-0.2-0.4-0.3-0.5c0,0-0.1,0-0.2-0.2v-0.1
						c-0.3-0.3-0.7-0.7-0.9-0.9l0.2,0.2l-0.2-0.2l0,0c-0.2-0.1,0,0,0,0.1l-0.2-0.2l0.3,0.4c-0.1-0.1-0.2-0.3-0.3-0.4
						c0.1,0.2,0.3,0.3,0.3,0.4c-0.1-0.2-0.2-0.3-0.1-0.1c-0.1-0.1-0.1-0.2-0.1-0.2c0.1,0.1,0,0.1,0.2,0.3c-0.2-0.2,0,0.1-0.2-0.3
						c0.1,0.1,0.2,0.3,0.2,0.3c-0.3-0.5-0.1,0-0.3-0.5c0.2,0.4,0.1,0.2,0.2,0.5v-0.1l-0.1-0.2c0.1,0.4,0.2,0.5,0.2,0.7
						C-2716.8,3978.3-2716.8,3978.2-2717,3977.8c0.2,0.4,0.2,0.4,0.2,0.6c-0.1-0.2,0-0.1-0.2-0.4c0.1,0.5,0,0.1,0.1,0.4
						c-0.1-0.2-0.1-0.4-0.1-0.3C-2717,3978-2717,3977.8-2717,3977.8z M-2717.5,3978.6L-2717.5,3978.6L-2717.5,3978.6L-2717.5,3978.6
						z M-2717.6,3978.6L-2717.6,3978.6c0,0.1,0,0.2,0,0.2C-2717.6,3978.7-2717.6,3978.7-2717.6,3978.6z M-2718,3980.5L-2718,3980.5
						c0-0.1,0-0.1,0-0.1l0,0V3980.5z"/>
					<polygon class="st2" points="-2717.8,3980.1 -2717.8,3980.1 -2717.8,3980.1 					"/>
					<path class="st2" d="M-2714.8,3977L-2714.8,3977L-2714.8,3977z"/>
					<path class="st2" d="M-2717.8,3977.8L-2717.8,3977.8L-2717.8,3977.8z"/>
					<path class="st2" d="M-2715.7,3977.5L-2715.7,3977.5L-2715.7,3977.5z"/>
					<path class="st2" d="M-2715.8,3977.7L-2715.8,3977.7C-2715.8,3977.7-2715.8,3977.7-2715.8,3977.7z"/>
					<polygon class="st2" points="-2715.9,3977.8 -2715.8,3977.8 -2715.8,3977.8 					"/>
					<path class="st2" d="M-2716.7,3976.6L-2716.7,3976.6C-2716.8,3976.6-2716.7,3976.6-2716.7,3976.6z"/>
					<path class="st2" d="M-2715.9,3976.4l-0.1,0.1C-2716,3976.5-2716,3976.5-2715.9,3976.4z"/>
					<path class="st2" d="M-2717.1,3976.8L-2717.1,3976.8L-2717.1,3976.8z"/>
					<path class="st2" d="M-2716,3976.5C-2716.1,3976.5-2716.1,3976.5-2716,3976.5C-2716,3976.5-2716,3976.4-2716,3976.5z"/>
					<polygon class="st2" points="-2716.3,3978.1 -2716.3,3978.1 -2716.2,3978.1 					"/>
					<path class="st2" d="M-2716.2,3978.1L-2716.2,3978.1C-2716.2,3978.2-2716.2,3978.1-2716.2,3978.1z"/>
					<path class="st2" d="M-2716.2,3978.2L-2716.2,3978.2L-2716.2,3978.2z"/>
					<path class="st2" d="M-2716.1,3978.1L-2716.1,3978.1L-2716.1,3978.1z"/>
					<path class="st2" d="M-2716.1,3978c0,0-0.2-0.1-0.2,0H-2716.1C-2716.3,3977.9-2715.9,3978.1-2716.1,3978z"/>
					<path class="st2" d="M-2714.8,3978.3L-2714.8,3978.3c0,0,0.1,0.1,0.2,0.1C-2714.3,3978.5-2714.9,3978.4-2714.8,3978.3z"/>
					<path class="st2" d="M-2714.6,3978.2c0,0.1,0.2,0,0.2,0.1C-2714.5,3978.2-2714.5,3978.2-2714.6,3978.2z"/>
					<path class="st2" d="M-2714.7,3976.5l0.2-0.1C-2714.5,3976.3-2714.5,3976.4-2714.7,3976.5z"/>
					<polygon class="st2" points="-2716,3976.8 -2716.1,3976.9 -2715.9,3976.8 					"/>
					<polygon class="st2" points="-2714.5,3975.7 -2714.5,3975.7 -2714.6,3975.7 					"/>
					<path class="st2" d="M-2717.4,3974.4v0.3C-2717.4,3974.6-2717.4,3974.3-2717.4,3974.4z"/>
					<path class="st2" d="M-2718.6,3975.1C-2718.7,3974.9-2718.8,3974.9-2718.6,3975.1L-2718.6,3975.1z"/>
					<path class="st2" d="M-2720.1,3978.8L-2720.1,3978.8L-2720.1,3978.8z"/>
				</g>
			</g>
		</g>
	</g>
</g>
<g>
	<g>
		<g>
			<g>
				<g>
					<path class="st2" d="M-2711.2,3967.7c0.1,0.1,0.2,0.2,0.2,0.2L-2711.2,3967.7L-2711.2,3967.7z"/>
					<path class="st2" d="M-2710.7,3968c-0.1-0.1-0.3-0.4-0.5-0.6c0.2,0.3,0.1,0.2,0.3,0.5c0,0.1-0.1,0-0.2-0.1c0.1,0.1-0.1,0,0,0.1
						c0.2,0.2,0.3,0.1,0.1-0.1C-2710.8,3967.9-2710.7,3968-2710.7,3968z"/>
					<path class="st2" d="M-2708,3966.1L-2708,3966.1L-2708,3966.1z"/>
					<path class="st2" d="M-2706.4,3964.8L-2706.4,3964.8L-2706.4,3964.8z"/>
					<path class="st2" d="M-2705.9,3964.8L-2705.9,3964.8L-2705.9,3964.8z"/>
					<path class="st2" d="M-2708,3966.1h0.1C-2707.9,3966-2708,3966.1-2708,3966.1z"/>
					<path class="st2" d="M-2710.9,3967.1C-2710.9,3967.1-2710.9,3967.2-2710.9,3967.1C-2710.9,3967.2-2710.9,3967.2-2710.9,3967.1
						L-2710.9,3967.1z"/>
					<polygon class="st2" points="-2708.4,3966.9 -2708.4,3966.9 -2708.4,3967 					"/>
					<path class="st2" d="M-2708.9,3967.4c0,0-0.2-0.2-0.3-0.3c0.1,0.1,0.1,0.1,0.1,0.2L-2708.9,3967.4z"/>
					<path class="st2" d="M-2710,3967.8L-2710,3967.8L-2710,3967.8z"/>
					<path class="st2" d="M-2708,3966.6L-2708,3966.6L-2708,3966.6z"/>
					<path class="st2" d="M-2696,3951.6L-2696,3951.6L-2696,3951.6z"/>
					<polygon class="st2" points="-2694.5,3952 -2694.5,3952 -2694.4,3952.1 					"/>
					<path class="st2" d="M-2705.2,3964.6L-2705.2,3964.6L-2705.2,3964.6z"/>
					<path class="st2" d="M-2701.3,3960.3c-0.2-0.1-0.2-0.3-0.4-0.4C-2701.6,3960-2701.4,3960.3-2701.3,3960.3z"/>
					<path class="st2" d="M-2710.9,3967.1L-2710.9,3967.1L-2710.9,3967.1z"/>
					<path class="st2" d="M-2701.7,3959.9L-2701.7,3959.9L-2701.7,3959.9z"/>
					<path class="st2" d="M-2704.3,3963.4L-2704.3,3963.4C-2704.4,3963.4-2704.4,3963.4-2704.3,3963.4z"/>
					<path class="st2" d="M-2705.4,3963.9L-2705.4,3963.9C-2705.3,3963.9-2705.4,3963.9-2705.4,3963.9z"/>
					<path class="st2" d="M-2704.2,3962.8C-2704.2,3962.8-2704.1,3962.8-2704.2,3962.8L-2704.2,3962.8L-2704.2,3962.8z"/>
					<path class="st2" d="M-2703.8,3962.3L-2703.8,3962.3L-2703.8,3962.3z"/>
					<path class="st2" d="M-2697.2,3952.9c0.1,0,0.1,0.1,0.2,0.2C-2697.1,3952.9-2697.1,3952.8-2697.2,3952.9z"/>
					<path class="st2" d="M-2710.8,3967.2C-2710.8,3967.2-2710.9,3967.2-2710.8,3967.2L-2710.8,3967.2L-2710.8,3967.2z"/>
					<path class="st2" d="M-2705.8,3961.2L-2705.8,3961.2C-2705.7,3961.1-2705.7,3961.2-2705.8,3961.2z"/>
					<path class="st2" d="M-2700.1,3955.9L-2700.1,3955.9L-2700.1,3955.9z"/>
					<path class="st2" d="M-2705.5,3960.9c0.1,0.1,0.1,0.1,0.2,0.1v-0.1H-2705.5z"/>
					<path class="st2" d="M-2697,3953.1L-2697,3953.1L-2697,3953.1z"/>
					<path class="st2" d="M-2697,3952.2c-0.1,0.1,0.2,0.3,0.4,0.4C-2696.6,3952.7-2696.8,3952.4-2697,3952.2c0,0.2,0.2,0.5,0.2,0.5
						s-0.1,0-0.1-0.1c0.2,0.3-0.1,0.2,0.1,0.5l-0.1-0.1c0.1,0.1,0.3,0.3,0.4,0.4c0,0,0.1,0.2-0.1,0.1c0,0,0-0.1-0.1-0.1v0.1
						c-0.3-0.2,0-0.1-0.2-0.3c0,0.1,0.2,0.4,0,0.4c-0.2-0.2,0-0.2-0.2-0.3h0.2c-0.4-0.3,0.1,0-0.4-0.4c-0.2,0,0,0.2-0.1,0.2
						c0.1,0.2,0.2,0.2,0.3,0.3c0.1,0.4-0.7-0.5-0.5-0.1c0.1,0.2,0.4,0.5,0.2,0.4l-0.2-0.3c-0.1,0.1,0.3,0.4,0.1,0.3
						c-0.1-0.1,0-0.2-0.1-0.2c-0.3-0.2,0.1,0.2,0.1,0.2l-0.2-0.2c-0.1,0.1,0,0.4,0,0.6c-0.1-0.1-0.1-0.2-0.2-0.2
						c0,0.2-0.3,0.2-0.6,0.2l0.2,0.3l-0.1-0.1c-0.1,0,0.1,0.1,0.2,0.2c0,0-0.2-0.1-0.2-0.2c0.1,0.3,0.1,0.6-0.2,0.5v-0.1
						c-0.2,0,0.3,0.5,0.1,0.4l0,0c-0.2,0.1-0.2,0.4-0.7,0.2c0.3,0.3-0.3,0,0.1,0.4c-0.3-0.1-0.3-0.2-0.6-0.2c-0.1,0,0.2,0.3,0.2,0.4
						l-0.2-0.2l0.2,0.3l-0.3-0.2v0.1c0,0,0.1,0.1,0.2,0.1c0,0.2-0.3,0-0.4-0.1v0.3c-0.1-0.1-0.1-0.1-0.1-0.2
						c0.1,0.3-0.2-0.2-0.1,0.1c0.1,0,0.1,0.1,0.2,0.2c-0.2-0.1-0.2,0-0.2,0.1l-0.1-0.2c-0.1,0.1-0.1,0.3-0.3,0.4
						c0.1,0,0.4,0.3,0.4,0.4l-0.2-0.2c0.1,0.2,0.1,0.1,0.3,0.3c-0.1,0-0.3-0.2-0.3-0.3v0.1c-0.1-0.1-0.1-0.1-0.2-0.2
						c0.1,0.2-0.3-0.1-0.1,0.1l-0.1-0.1c-0.1,0.1-0.1,0.2-0.2,0.4c0.2,0.2,0.1,0.2,0.2,0.4c-0.1,0-0.4-0.1-0.4,0
						c0,0.2,0.2,0.2,0.2,0.3c-0.2-0.2-0.3-0.1-0.3-0.2c-0.1,0.1-0.1,0.2-0.1,0.4c0.1,0.1,0.1,0.1,0.2,0.1c0,0.1-0.1,0-0.2-0.1l0,0
						c0.1,0.4-0.9-0.2-0.6,0.3l0,0l0.1,0.3c-0.1,0-0.1-0.2-0.3-0.2c0.2,0.4-0.2,0.2-0.1,0.5c-0.6-0.5-0.3,0.3-0.7,0.1l0.1,0.1
						c0.1,0.2-0.1,0-0.2,0c0.1,0.1,0.1,0.1,0.2,0.2c-0.1,0.4-0.7,0.3-1,0.4c-0.1,0.1,0.6,0.7,0.2,0.5l-0.2-0.3
						c0.1,0.5-0.4,0.4-0.3,0.8c0-0.1-0.1-0.1-0.1-0.2c-0.2-0.1-0.1,0.1,0,0.3c0,0-0.1-0.1-0.2-0.2c-0.1-0.1,0.1,0.3-0.1,0.2
						c0,0,0-0.1-0.1-0.1c0.1,0.1-0.1,0.1,0.1,0.3c-0.2,0,0,0.2-0.2,0.2c0.2,0.3-0.2,0,0.1,0.3c-0.3-0.3-0.4-0.1-0.3,0.1
						c-0.1-0.1-0.1-0.1-0.3-0.2c0,0.1,0,0.2,0.1,0.3c-0.5-0.3,0.1,0.5-0.4,0c0,0.3,0,0.6,0,0.8c-0.3-0.3,0.1-0.2-0.2-0.5
						c0,0.3,0.2,0.6,0,0.6c-0.1,0-0.1-0.2-0.2-0.2c0,0.3-0.3,0.2-0.2,0.5l-0.1-0.1c0,0-0.1,0,0.1,0.1v-0.1c0.2,0.2,0.4,0.5,0.5,0.6
						c-0.4-0.5-0.2,0-0.7-0.6c0,0,0.1,0.1,0.2,0.2c0,0-0.1-0.1-0.2-0.2c0,0.2,0.2,0.3,0.1,0.3c-0.1-0.1-0.1-0.1-0.2-0.2
						c0.1,0.2,0.2,0.3,0.1,0.3l-0.1-0.1c-0.1,0.1,0.2,0.5-0.1,0.5c-0.3-0.3-0.1-0.1-0.4-0.3v0.1l0.2,0.1c-0.1,0,0.1,0.3,0,0.2
						l-0.1-0.1v0.1h0.2c0.1,0.2,0.3,0.3,0.2,0.3c0,0-0.1,0-0.2-0.1l0,0c0.1,0.1,0.1,0.2,0,0.2c-0.1-0.1-0.3-0.3-0.3-0.4
						c0.2,0.2-0.1,0.2,0.1,0.5c0-0.1-0.2-0.2-0.2-0.2l0.2,0.2c-0.1,0-0.1-0.1-0.2-0.2c-0.1,0,0.4,0.3,0.1,0.3c0,0,0,0-0.1-0.1
						c-0.2,0-0.1,0.3-0.2,0.3c-0.3-0.2,0-0.1-0.2-0.3c-0.1,0.2,0.1,0.6-0.1,0.6l0,0c0.4,0.4-0.3-0.1-0.1,0.1l-0.2-0.2
						c-0.1,0-0.1,0.2-0.1,0.5l-0.1-0.1c-0.1,0-0.2,0.1-0.3,0.1c0.1,0.1,0,0.1,0.2,0.2c-0.7-0.4,0,0.6-0.6,0.3c0,0,0-0.1-0.1-0.1v0.2
						c0.2,0.2,0.1,0.1,0.3,0.2c0.1,0.1,0.1,0.2,0.1,0.2c-0.1-0.2-0.3-0.3-0.4-0.3c0.1,0,0.1,0.1,0.2,0.2c-0.3-0.2,0.3,0.3,0,0.2
						l-0.1-0.1c0,0.1,0.1,0.2,0,0.2c-0.2-0.2-0.1-0.1-0.2-0.3c0,0.1,0.3,0.4,0,0.3c0-0.1,0-0.1,0-0.2c-0.3-0.2-0.2-0.1-0.3-0.1l0,0
						h-0.2h0.1c0.4,0.6,0,0.2,0.2,0.6c-0.2-0.4-0.2-0.2-0.4-0.4c-0.1,0-0.2-0.1-0.2-0.1c0.1,0.2-0.2-0.1,0,0.2c-0.1-0.1,0,0-0.2-0.1
						c0,0.1,0.1,0.1,0.2,0.2c0.2,0.3-0.5-0.1-0.2,0.3c0,0.2,0.3,0.5,0.3,0.7c-0.1-0.1-0.2-0.3-0.2-0.3c-0.1-0.1-0.2,0-0.1,0.1
						c-0.1-0.1-0.1-0.1-0.2-0.2c0,0.1,0.2,0.3,0.1,0.2s-0.2-0.2-0.2-0.3c0,0.1,0.1,0.3,0.1,0.4c-0.1-0.1-0.2-0.2-0.2-0.3
						c0,0.1,0,0.2,0.2,0.4h0.1l-0.2-0.2c-0.1-0.2,0.1,0,0.2,0.1v0.1c0.4,0.4,0.1-0.2,0.1-0.2l0.3,0.3l-0.2-0.3
						c0.1,0.1,0.3,0.2,0.3,0.3c0.2,0.1-0.1-0.1,0.1,0c0,0,0,0,0,0.1v-0.1c0.1,0.1,0.2,0.2,0.1,0.2c0.2,0.1-0.1-0.3,0.2-0.1l0,0
						c0-0.2-0.2-0.2-0.4-0.6l0.6,0.5l-0.2-0.2c0,0,0.1,0,0.1,0.1c-0.1-0.2-0.1-0.1-0.2-0.2c0.2,0.1,0.1-0.2,0.4,0.1
						c-0.1-0.2-0.2-0.1-0.2-0.2c0.4,0.4,0-0.1,0.2,0c0.2,0.2,0,0.1,0.2,0.3c-0.3-0.4,0.2,0,0.1-0.1c-0.3-0.3,0-0.2,0-0.3
						c0.1,0.1,0.3,0,0.4,0l0,0c-0.2-0.3-0.1-0.3-0.1-0.4c0.2,0.2,0.2,0.2,0.2,0.3l0,0c-0.1-0.1-0.1-0.2-0.1-0.2l0.2,0.2
						c0-0.1-0.1-0.3,0.1-0.3c-0.2-0.2-0.6-0.4-0.6-0.6c0.1,0.1,0.3,0.3,0.3,0.3s-0.1-0.1,0-0.1l0.1,0.2c0.1,0-0.1-0.2-0.1-0.2
						c0.1,0.1,0.1,0.1,0.2,0.2c0,0-0.1,0,0,0c0.1,0,0.2,0,0.3,0.1c-0.1-0.1-0.2-0.2-0.2-0.2c0-0.1,0.2,0.1,0.3,0.2
						c-0.1-0.1,0.1,0-0.2-0.3c0,0,0.1,0.1,0.2,0.1c-0.1-0.1,0.1-0.2-0.1-0.4l0,0l0,0l0,0l0,0c-0.1-0.3,0.3-0.1,0.3-0.3l0.1,0.1
						c0-0.1,0.1-0.2,0-0.4c0,0,0.2,0.1,0.2,0.2c0-0.1-0.1-0.2,0.1-0.1c0.1,0.2,0.1,0.1,0,0.1c0.1,0,0.2,0.1,0.1-0.2
						c0.2,0.2,0.3,0.2,0.2,0.1l-0.2-0.1c0-0.1,0-0.1,0.1-0.1l0.2,0.3c0.4,0.2-0.3-0.7,0.3-0.3c-0.1-0.2-0.2-0.1-0.3-0.3
						c0.1,0,0.5,0.3,0.5,0.2c0.2,0.1-0.3-0.4-0.1-0.4c-0.1-0.1-0.3-0.3-0.3-0.4c0.1,0,0.4,0.3,0.5,0.4c0,0,0,0-0.1,0
						c0,0,0,0.1,0.1,0.2l-0.1-0.1c0.1,0.1,0.2,0,0.3,0.1c0-0.1-0.1-0.2-0.2-0.2c0.2,0.1,0.1-0.1,0.3-0.1c-0.1,0-0.2-0.1-0.2-0.1
						c0.2,0-0.1-0.2-0.1-0.3c0.2,0.1,0.3,0.3,0.3,0.1c0.1,0,0.2,0.2,0.3,0.3c-0.1-0.2,0.2,0,0.3,0v0.1c0-0.1,0-0.1,0-0.1l-0.2-0.1
						c0,0,0.1,0,0.1,0.1c-0.1-0.1-0.3-0.3-0.4-0.5c0.1,0.1,0-0.2,0.2,0c-0.2,0,0.2,0.2,0.2,0.3c0,0,0-0.1,0.1,0c0,0,0,0,0.1,0.1
						c0.3,0.1-0.2-0.3-0.1-0.4c0.1,0.1,0.3,0.2,0.2,0.2c0,0-0.2-0.2-0.3-0.3c0.2,0,0-0.1,0-0.1h-0.1c-0.1-0.1-0.1-0.1-0.1-0.2
						c0.1,0.1,0,0.1,0.1,0.1c-0.2-0.3,0.3,0.1,0.2-0.1c0.1,0.1,0.2,0.2,0.3,0.3c-0.1-0.2,0.2,0.1,0.2-0.1c-0.2-0.1-0.2-0.1-0.3-0.3
						v0.2l-0.2-0.3v0.2c-0.1-0.2-0.1-0.1-0.2-0.3c0.3,0.2-0.1-0.2,0.2-0.1l0.4,0.4c0.3,0.1-0.1-0.4,0.1-0.4h-0.1
						c-0.2-0.2,0-0.1,0-0.2c0.1,0.1,0.2,0.2,0.3,0.2c-0.1-0.1,0.1-0.1-0.2-0.4l0.2,0.1c0.2,0-0.3-0.5-0.2-0.5
						c0.1,0.2,0.3,0.2,0.3,0.4c0,0,0.1,0,0-0.1c0.1,0.1-0.1-0.3,0-0.2c-0.1-0.1-0.2-0.2-0.1-0.2l0.1,0.1c-0.1-0.1,0-0.1-0.2-0.3
						c0.5,0.3,0.2-0.3,0.7,0c0-0.1,0-0.2,0.1-0.3c0,0,0.1,0.1,0,0.1c0.2,0.1-0.4-0.4-0.1-0.4c0.3,0.2,0.1,0.2,0.2,0.2
						c0.5,0.4,0-0.2,0.4,0l0,0c0.2,0.1-0.1-0.3,0-0.3c0,0,0,0,0.1,0.1c-0.2-0.3-0.2-0.5-0.2-0.6c0.2,0.2,0.1,0.1,0.3,0.3
						c0-0.1-0.3-0.3-0.3-0.4c0.1,0.1,0.2,0.1,0.5,0.3v0.1c0.3,0.2,0.1-0.1,0.1-0.1l0.1,0.1c0.1-0.1-0.2-0.4-0.1-0.5l-0.1-0.1
						c-0.2-0.3,0.2,0.1,0-0.1l0.3,0.3c0-0.1-0.1-0.4-0.1-0.5c0.2,0.2,0.2,0.4,0.3,0.6c0,0,0.1-0.1,0-0.3c0,0,0.1,0.1,0,0.1
						c-0.2-0.3-0.2-0.4-0.2-0.5c0.5,0.6,0.3,0,0.8,0.3c-0.1-0.3,0.3-0.2,0.4-0.3c-0.5-0.4,0-0.1-0.4-0.5c0-0.1,0-0.1,0.1,0l0.4,0.2
						c0.2,0.1,0.1,0.1,0.2,0.2c0.1,0,0.2,0.2,0.4,0.2c-0.2-0.1-0.2-0.2-0.1-0.2l-0.3-0.1c-0.1-0.3,0.5,0.3,0.3-0.1l0.1,0.2
						c0-0.1,0.2-0.2-0.1-0.6c0.1,0,0.2,0.1,0.2,0.2c0.2-0.1-0.1-0.6,0.2-0.5l0.1,0.1c0-0.1-0.2-0.2,0-0.2l0.1,0.1c0,0-0.1-0.2,0-0.2
						l0.1,0.1c0.3,0-0.1-0.5-0.1-0.7c0.3,0.3,0.5,0.3,0.6,0.3l0,0c0.2-0.1,0-0.5,0-0.8c0.4,0.3,0.4-0.1,0.7-0.1
						c-0.1,0-0.2-0.2-0.2-0.3c0.1,0-0.1-0.3,0.2,0l0,0c0.3,0.3,0.3,0.1,0.3,0.1l-0.4-0.4c0.7,0.4,0.1-0.5,0.7-0.1
						c-0.1-0.1,0-0.2-0.1-0.3l0.2,0.2c0.1,0,0.2-0.1,0.3-0.2l0.1,0.2c0.1,0-0.5-0.7-0.5-0.7l0.3,0.3c0.1-0.1,0.5,0,0.3-0.3
						c0,0,0.1,0.1,0.1,0.2c0.1,0,0.4,0,0-0.4c0.3,0.3,0.1-0.1,0.1-0.3l0.2,0.2c-0.2-0.3-0.3-0.4-0.3-0.5c0,0,0.2,0.1,0.1,0.1
						c0.2,0.1-0.1-0.2,0-0.2l0.1,0.1c0.1,0,0-0.1-0.1-0.3c0-0.1,0.2-0.1,0.3,0.1c-0.1-0.1-0.2-0.3-0.1-0.3c0.1,0.1,0.1,0.1,0.1,0.1
						c0.2,0-0.1-0.4,0.2-0.2c0.1,0.1,0.1,0.1,0.1,0.1c-0.1,0.1-0.1,0.1-0.2,0.1c0.2,0.2,0.3,0.2,0.5,0.5c-0.1-0.2-0.3-0.6-0.2-0.5
						l0.1,0.1l0,0c0,0,0,0,0-0.1h0.1c0.2,0.1,0.1,0,0.2,0c-0.2-0.2-0.1-0.2-0.3-0.3c0,0,0,0,0,0.1l0,0l0,0c0,0,0,0.1-0.1,0.1
						c-0.1-0.1-0.1-0.2,0-0.2l-0.3-0.4c0.3,0.2,0.5,0.3,0.7,0.5c0-0.2,0.1-0.3-0.2-0.7c0-0.1,0.1,0.1,0.2,0.1c0,0.1,0,0.1,0,0.1
						c0-0.1,0.1-0.2-0.1-0.5c0.2,0.1,0.2,0.3,0.2,0.1l0.1,0.1c0.6,0.2-0.4-0.9,0.3-0.6c0,0-0.1,0-0.1-0.1c0.5,0,0.2-0.7,0.8-0.5
						c0.1,0,0-0.2-0.1-0.3l0.2,0.2l-0.2-0.3c-0.1-0.3,0.7,0.4,0.5-0.1l-0.2-0.1c0.1,0,0-0.2,0.2,0c0,0-0.1-0.2,0-0.1l0.1,0.1
						l-0.1-0.3c0.2,0,0.4,0.5,0.6,0.4c0-0.1-0.2-0.4-0.3-0.5c0,0-0.1,0-0.2-0.1v-0.1c-0.3-0.3-0.6-0.7-1-0.8l0.1,0.3l-0.2-0.1v-0.1
						c-0.2-0.1-0.1,0,0,0.1c-0.1-0.1-0.2-0.1-0.2-0.1l0.2,0.4c-0.1-0.1-0.2-0.3-0.3-0.3c0.1,0.2,0.3,0.3,0.4,0.4
						c-0.2-0.1-0.3-0.2-0.2-0.1c-0.1-0.1-0.1-0.1-0.2-0.2c0.1,0.1,0,0.1,0.1,0.3c-0.2-0.2-0.1,0.2-0.4-0.2c0.1,0.1,0.2,0.3,0.2,0.3
						c-0.3-0.4-0.1,0.1-0.5-0.3c0.3,0.4,0,0.3,0.1,0.6c0,0-0.1-0.1,0-0.1c-0.1,0-0.2-0.1-0.3-0.1c0.3,0.3,0.3,0.4,0.4,0.6
						c-0.3-0.2-0.3-0.4-0.6-0.6c0.2,0.2,0.1,0.3,0.3,0.5c-0.2-0.1-0.1,0-0.4-0.3c0.3,0.4,0,0.1,0.2,0.3c-0.2-0.1-0.3-0.3-0.3-0.1
						C-2696.9,3952.4-2697,3952.2-2697,3952.2z M-2697.9,3954.2L-2697.9,3954.2L-2697.9,3954.2L-2697.9,3954.2z M-2698,3954.4
						C-2698,3954.4-2698,3954.3-2698,3954.4c0.1,0,0.2,0.1,0.2,0.1C-2697.9,3954.4-2697.9,3954.4-2698,3954.4z M-2696.4,3955.5
						L-2696.4,3955.5C-2696.4,3955.5-2696.4,3955.4-2696.4,3955.5l-0.1-0.1L-2696.4,3955.5z"/>
					<path class="st2" d="M-2696.6,3955.2L-2696.6,3955.2L-2696.6,3955.2L-2696.6,3955.2L-2696.6,3955.2z"/>
					<polygon class="st2" points="-2708,3966.1 -2708,3966.1 -2708.1,3966 					"/>
					<path class="st2" d="M-2700.1,3955.7h0.1H-2700.1z"/>
					<path class="st2" d="M-2709.4,3966L-2709.4,3966L-2709.4,3966z"/>
					<path class="st2" d="M-2709.7,3966.3L-2709.7,3966.3C-2709.8,3966.3-2709.8,3966.3-2709.7,3966.3z"/>
					<polygon class="st2" points="-2710.1,3966.4 -2710,3966.5 -2710,3966.5 					"/>
					<path class="st2" d="M-2706.7,3962.6L-2706.7,3962.6C-2706.7,3962.5-2706.7,3962.6-2706.7,3962.6z"/>
					<path class="st2" d="M-2707.3,3964.1c0,0,0-0.1-0.1-0.1C-2707.4,3964-2707.4,3964-2707.3,3964.1z"/>
					<path class="st2" d="M-2705.8,3961.2L-2705.8,3961.2L-2705.8,3961.2z"/>
					<path class="st2" d="M-2707.3,3964C-2707.4,3963.9-2707.4,3964-2707.3,3964L-2707.3,3964z"/>
					<path class="st2" d="M-2711.1,3967.3L-2711.1,3967.3L-2711.1,3967.3z"/>
					<path class="st2" d="M-2711.1,3967.3L-2711.1,3967.3C-2711.1,3967.4-2711.1,3967.4-2711.1,3967.3z"/>
					<path class="st2" d="M-2711.1,3967.5L-2711.1,3967.5C-2711.1,3967.4-2711.1,3967.4-2711.1,3967.5z"/>
					<path class="st2" d="M-2710.7,3967.1L-2710.7,3967.1L-2710.7,3967.1z"/>
					<path class="st2" d="M-2710.7,3967c0,0-0.2-0.1-0.2,0l0.1,0.1C-2710.9,3966.9-2710.6,3967.1-2710.7,3967z"/>
					<path class="st2" d="M-2709.4,3967.5h-0.1c0.1,0.1,0.2,0.1,0.2,0.2C-2709,3967.9-2709.5,3967.6-2709.4,3967.5z"/>
					<path class="st2" d="M-2709,3967.4c0,0.1,0.1,0.1,0.2,0.2C-2708.9,3967.4-2709,3967.4-2709,3967.4z"/>
					<path class="st2" d="M-2707.3,3965.7l0.2,0.2C-2707.2,3965.8-2707.2,3965.8-2707.3,3965.7z"/>
					<polygon class="st2" points="-2708,3964.4 -2708.1,3964.3 -2707.9,3964.5 					"/>
					<polygon class="st2" points="-2706.5,3965.5 -2706.5,3965.6 -2706.5,3965.4 					"/>
					<path class="st2" d="M-2703.7,3962.6l-0.2-0.2C-2703.9,3962.4-2703.7,3962.7-2703.7,3962.6z"/>
					<path class="st2" d="M-2702.7,3961.1C-2702.6,3961.2-2702.5,3961.2-2702.7,3961.1C-2702.6,3961.2-2702.7,3961.1-2702.7,3961.1z
						"/>
					<path class="st2" d="M-2698.6,3957.8L-2698.6,3957.8L-2698.6,3957.8z"/>
				</g>
			</g>
		</g>
	</g>
</g>
<g>
	<g>
		<g>
			<g>
				<g>
					<path class="st2" d="M-2689.8,3947.2c-0.1,0.1-0.2,0.2-0.2,0.2L-2689.8,3947.2L-2689.8,3947.2z"/>
					<path class="st2" d="M-2690.2,3947.7c0.1-0.1,0.3-0.3,0.5-0.5l-0.4,0.4c0,0,0.1-0.1,0.2-0.2c-0.1,0.1,0-0.1-0.1,0.1
						c-0.2,0.2-0.2,0.2,0,0.1L-2690.2,3947.7z"/>
					<path class="st2" d="M-2690.2,3948.5L-2690.2,3948.5L-2690.2,3948.5z"/>
					<path class="st2" d="M-2690.1,3948.8C-2690.1,3948.8-2690.1,3948.9-2690.1,3948.8L-2690.1,3948.8z"/>
					<path class="st2" d="M-2690.3,3949.1L-2690.3,3949.1C-2690.3,3949.1-2690.3,3949.2-2690.3,3949.1z"/>
					<path class="st2" d="M-2690.2,3948.5L-2690.2,3948.5L-2690.2,3948.5z"/>
					<path class="st2" d="M-2689.6,3947.2L-2689.6,3947.2L-2689.6,3947.2z"/>
					<polygon class="st2" points="-2690.5,3948.5 -2690.5,3948.5 -2690.6,3948.6 					"/>
					<polygon class="st2" points="-2690.6,3948.5 -2690.3,3948.2 -2690.5,3948.3 					"/>
					<path class="st2" d="M-2690.4,3948L-2690.4,3948L-2690.4,3948z"/>
					<path class="st2" d="M-2690.5,3948.6L-2690.5,3948.6L-2690.5,3948.6z"/>
					<path class="st2" d="M-2686.6,3949.5L-2686.6,3949.5L-2686.6,3949.5z"/>
					<polygon class="st2" points="-2687.5,3950.6 -2687.5,3950.6 -2687.6,3950.7 					"/>
					<path class="st2" d="M-2690.4,3949.5L-2690.4,3949.5C-2690.5,3949.5-2690.5,3949.5-2690.4,3949.5z"/>
					<path class="st2" d="M-2689.6,3950c0.2-0.2,0.2-0.2,0.4-0.4C-2689.2,3949.7-2689.5,3949.9-2689.6,3950z"/>
					<path class="st2" d="M-2689.6,3947.2L-2689.6,3947.2L-2689.6,3947.2z"/>
					<polygon class="st2" points="-2689.2,3949.6 -2689.2,3949.6 -2689.1,3949.6 					"/>
					<path class="st2" d="M-2690.1,3949.5L-2690.1,3949.5L-2690.1,3949.5z"/>
					<path class="st2" d="M-2690,3949.1L-2690,3949.1L-2690,3949.1z"/>
					<path class="st2" d="M-2689.8,3949.3C-2689.8,3949.3-2689.8,3949.4-2689.8,3949.3L-2689.8,3949.3L-2689.8,3949.3z"/>
					<path class="st2" d="M-2689.7,3949.4L-2689.7,3949.4L-2689.7,3949.4z"/>
					<path class="st2" d="M-2686.9,3949.4l-0.2,0.2C-2687,3949.4-2686.9,3949.4-2686.9,3949.4z"/>
					<polygon class="st2" points="-2689.7,3947.3 -2689.6,3947.2 -2689.6,3947.2 					"/>
					<path class="st2" d="M-2688.2,3947.7L-2688.2,3947.7C-2688.2,3947.8-2688.2,3947.8-2688.2,3947.7z"/>
					<path class="st2" d="M-2687.5,3948.9L-2687.5,3948.9C-2687.4,3948.9-2687.4,3948.9-2687.5,3948.9z"/>
					<polygon class="st2" points="-2688.2,3947.8 -2688.3,3947.9 -2688.3,3947.9 					"/>
					<path class="st2" d="M-2687.1,3949.6L-2687.1,3949.6L-2687.1,3949.6z"/>
					<path class="st2" d="M-2686.6,3949.2c0,0-0.3,0.2-0.4,0.4C-2687.1,3949.6-2686.8,3949.4-2686.6,3949.2
						c-0.2,0.1-0.4,0.4-0.4,0.3l0.1-0.1c-0.2,0.2,0,0-0.3,0.2l0.1-0.1l-0.4,0.4c0,0-0.2,0.2,0,0l0.1-0.1l-0.1,0.1
						c0.2-0.2,0.1-0.1,0.3-0.3c-0.1,0.1-0.3,0.3-0.2,0.2c0.2-0.2,0.1-0.1,0.3-0.3l-0.1,0.1l0.4-0.4c0.1-0.1-0.1,0.1-0.1,0l-0.3,0.3
						c-0.3,0.2,0.6-0.6,0.2-0.3c-0.2,0.2-0.5,0.5-0.3,0.3l0.3-0.3c0,0-0.4,0.4-0.2,0.2c0.1-0.1,0.1-0.1,0.1-0.1
						c0.2-0.2-0.2,0.1-0.2,0.1l0.2-0.2c-0.1,0-0.2,0.2-0.3,0.2c0.1-0.1,0.2-0.1,0.2-0.2c-0.1,0.1,0-0.1,0.1-0.2l-0.2,0.2l0.1-0.1
						c0.1-0.1-0.1,0.1-0.2,0.2c0,0,0.1-0.1,0.2-0.2c-0.2,0.2-0.4,0.3-0.2,0.1l0.1-0.1c0.1-0.1-0.4,0.4-0.3,0.2l0,0
						c0.1-0.1-0.2,0,0.1-0.3c-0.3,0.3,0.1-0.2-0.3,0.3c0.2-0.2,0.3-0.3,0.4-0.5l-0.3,0.3l0.2-0.2l-0.2,0.2l0.3-0.3l-0.1,0.1
						c0,0-0.1,0.1-0.2,0.2c-0.1,0.1,0.1-0.2,0.2-0.3l-0.2,0.2l0.2-0.2c-0.2,0.2,0.2-0.2,0,0l-0.2,0.2c0.1-0.1,0.1-0.2,0-0.1l0.2-0.1
						c0-0.1-0.1,0-0.1,0c-0.1,0.1-0.3,0.3-0.4,0.4l0.2-0.2c-0.1,0.1-0.1,0.1-0.3,0.3l0.3-0.3l-0.1,0.1l0.2-0.2c-0.1,0.1,0.2-0.2,0,0
						l0.1-0.1h-0.1c-0.2,0.2-0.2,0.1-0.3,0.3c0.1-0.1,0.2-0.2,0.2-0.2c-0.1,0.1-0.2,0.2-0.3,0.3c0.2-0.2,0.1-0.2,0.3-0.3
						c0,0-0.1,0-0.2,0.1l-0.2,0.2c0,0,0.1-0.1,0.2-0.2l0,0c-0.3,0.2,0.5-0.6,0.1-0.2l0,0l-0.2,0.2c0,0,0.1-0.1,0.2-0.2
						c-0.3,0.3,0-0.1-0.2,0.1c0.5-0.5-0.1,0,0.2-0.4l-0.1,0.1c-0.1,0.1,0.1-0.1,0.1-0.1c-0.1,0.1-0.1,0.1-0.2,0.2
						c-0.2,0.1,0.1-0.3,0.2-0.4c0-0.1-0.7,0.6-0.4,0.3l0.2-0.2c-0.3,0.2-0.1-0.1-0.3,0.1c0.1-0.1,0.1-0.1,0.1-0.1
						c0.2-0.2,0,0-0.2,0.1c0,0,0.1-0.1,0.2-0.2c0.1-0.1-0.2,0.2-0.1,0l0.1-0.1c-0.1,0.1,0,0-0.2,0.2c0.1-0.1-0.1,0.1,0-0.1
						c-0.2,0.2,0.1-0.1-0.2,0.2c0.3-0.3,0.2-0.3,0.1-0.1l0.2-0.2c0,0-0.1,0-0.2,0.2c0.4-0.4-0.3,0.3,0.1-0.2
						c-0.2,0.1-0.3,0.2-0.4,0.3c0.3-0.3,0.1,0,0.4-0.3c-0.2,0.1-0.4,0.4-0.4,0.3c0,0,0.1-0.1,0.2-0.2c-0.2,0.1,0-0.1-0.2,0.1
						l0.1-0.1c0,0,0-0.1-0.1,0.1l0,0c-0.2,0.2-0.5,0.4-0.6,0.5c0.4-0.4,0.1-0.1,0.6-0.6c0,0-0.1,0.1-0.2,0.2c0,0,0.1-0.1,0.2-0.2
						c-0.1,0.1-0.2,0.2-0.2,0.2l0.2-0.2c-0.1,0.1-0.3,0.3-0.2,0.2l0.1-0.1c0,0-0.4,0.3-0.3,0.2c0.3-0.3,0.1-0.1,0.4-0.4l-0.1,0.1
						l-0.1,0.1c0,0-0.2,0.2-0.1,0.1l0.1-0.1h-0.1l-0.1,0.1c-0.1,0.1-0.3,0.3-0.3,0.2c0,0,0,0,0.1-0.2l0,0c-0.1,0.1-0.2,0.2-0.1,0.1
						l0.3-0.3c-0.2,0.2-0.1,0-0.3,0.3l0.2-0.2l-0.2,0.2c0.1-0.1,0.1-0.1,0.2-0.2c0,0-0.3,0.3-0.2,0.2l0.1-0.1c0.1-0.1-0.1,0.1-0.1,0
						c0.3-0.3,0.1-0.1,0.3-0.3c-0.1,0-0.4,0.3-0.3,0.2l0,0c-0.4,0.4,0.2-0.2,0,0l0.2-0.2c0-0.1-0.1,0.1-0.3,0.2l0.1-0.1
						c0.1-0.1,0-0.1,0.1-0.1c-0.1,0.1-0.1,0.1-0.2,0.2c0.5-0.6-0.3,0.2,0.1-0.2l0.1-0.1l-0.1,0.1l-0.2,0.2c-0.1,0.1-0.2,0.2-0.2,0.2
						c0.1-0.1,0.3-0.3,0.3-0.4l-0.2,0.2c0.3-0.3-0.3,0.3-0.1,0.1l0.1-0.1c0,0-0.2,0.1-0.1,0.1c0.2-0.2,0.1-0.1,0.2-0.2
						c0,0-0.4,0.3-0.2,0.1l0.1-0.1c0.2-0.2,0.2-0.2,0.2-0.2l0,0l0.1-0.1l-0.1,0.1c-0.5,0.5-0.1,0.1-0.4,0.4c0.3-0.3,0.2-0.2,0.4-0.4
						c0.1-0.1,0.1-0.1,0.2-0.2c-0.2,0.2,0.1-0.1-0.1,0.1c0.1-0.1,0,0,0.2-0.2c-0.1,0-0.1,0.1-0.2,0.2c-0.2,0.2,0.3-0.3-0.1,0
						l-0.5,0.4c0.1-0.1,0.3-0.2,0.3-0.2c0.1-0.1,0.1-0.1,0,0l0.2-0.2c0,0-0.3,0.2-0.2,0.1l0.3-0.3l-0.3,0.2c0.1-0.1,0.2-0.2,0.3-0.3
						c-0.1,0-0.1,0.1-0.3,0.3l-0.1,0.1l0.2-0.2c0.2-0.1-0.1,0.1-0.1,0.1l0,0c-0.4,0.4,0.1,0,0.1,0l-0.3,0.3l0.3-0.2
						c-0.1,0.1-0.2,0.2-0.3,0.3c-0.1,0.2,0.1-0.1,0,0.1l-0.1,0.1l0.1-0.1c-0.1,0.1-0.2,0.2-0.2,0.2c-0.2,0.2,0.2-0.2,0,0l0,0
						c0.1-0.1,0.2-0.2,0.5-0.5l-0.5,0.5l0.2-0.2c0,0,0,0-0.1,0.1l0.2-0.2c-0.2,0.2,0.1-0.1-0.2,0.3c0.2-0.2,0.1-0.1,0.2-0.2
						c-0.4,0.4,0.1-0.1-0.1,0.1c-0.2,0.2-0.1,0.1-0.3,0.3c0.3-0.3-0.1,0.1,0,0c0.3-0.3,0.1-0.1,0.2-0.2c-0.1,0.1-0.1,0.2-0.2,0.3
						l0,0c0.3-0.3,0.2-0.2,0.3-0.2c-0.2,0.2-0.2,0.2-0.3,0.3l0,0c0.1-0.1,0.1-0.1,0.2-0.1l-0.2,0.2c0,0,0.2-0.2,0.1-0.1
						c0.2-0.2,0.5-0.5,0.6-0.6l-0.3,0.3c0,0,0.1-0.1,0,0l-0.2,0.2c-0.1,0.1,0.1-0.1,0.1-0.1l-0.2,0.2c0,0,0.1-0.1,0,0
						c0,0-0.1,0.1-0.2,0.2c0.1-0.1,0.2-0.2,0.2-0.2l-0.2,0.2c0.1-0.1,0,0,0.2-0.2c0,0-0.1,0.1-0.1,0.2c0.1-0.1,0.1,0,0.3-0.2l0,0
						l0,0l0,0l0,0c0.2-0.2-0.1,0.2,0,0.1l-0.1,0.1c0.1-0.1,0.1,0,0.2-0.2c0,0-0.1,0.1-0.2,0.2c0.1,0,0.1-0.1,0,0
						c-0.1,0.1-0.1,0.1-0.1,0.1c-0.1,0.1-0.2,0.2,0,0c-0.2,0.2-0.2,0.2-0.2,0.2l0.1-0.1l0,0l-0.2,0.2c-0.3,0.3,0.5-0.4,0.1,0
						c0.2-0.2,0.1-0.1,0.3-0.3l-0.3,0.4c-0.1,0.1,0.4-0.3,0.3-0.2c0.1-0.1,0.3-0.3,0.4-0.4c0,0-0.3,0.4-0.4,0.4c0,0,0,0,0-0.1
						c0,0-0.1,0.1-0.2,0.2l0.1-0.1c-0.1,0.1-0.1,0.1-0.2,0.2c0.1-0.1,0.1-0.1,0.2-0.2c-0.1,0.1,0,0-0.1,0.1l0.1-0.1
						c-0.1,0.1,0.2-0.1,0.2-0.2c-0.1,0.1-0.3,0.3-0.2,0.2c-0.1,0.1-0.2,0.2-0.3,0.3c0.2-0.1-0.1,0.1-0.1,0.2l-0.1,0.1l0,0l0.2-0.2
						c0,0,0,0-0.1,0.1l0.4-0.4c-0.1,0.1,0.1-0.1-0.1,0.1c0.1-0.1-0.2,0.2-0.3,0.2l0,0l-0.1,0.1c-0.2,0.2,0.3-0.2,0.3-0.2
						c-0.1,0.1-0.2,0.2-0.2,0.2s0.2-0.2,0.3-0.3c-0.1,0.1,0.1-0.1,0.1,0v-0.1c0.1-0.1,0.1-0.1,0.2-0.1l-0.1,0.1
						c0.2-0.2-0.2,0.2-0.1,0.1l-0.3,0.3c0.2-0.2-0.2,0.2,0,0.1c0.2-0.2,0.1-0.1,0.3-0.3l-0.1,0.1l0.3-0.2l-0.1,0.1
						c0.1-0.1,0.1-0.1,0.2-0.2c-0.2,0.3,0.2-0.1,0,0.1l-0.4,0.4c-0.2,0.2,0.2-0.2,0.2-0.1l0.1-0.1c0.2-0.2,0,0,0.1-0.1l-0.3,0.3
						c0.1-0.1,0,0,0.3-0.3l-0.2,0.2c-0.1,0.1,0.4-0.4,0.4-0.3c-0.2,0.1-0.2,0.3-0.4,0.4c0,0,0,0,0.1-0.1c-0.1,0.1,0.2-0.2,0.1,0
						c0.1-0.1,0.2-0.2,0.2-0.2l-0.1,0.1c0.1-0.1,0.1-0.1,0.3-0.2c-0.4,0.4,0.1,0-0.3,0.4c0.1,0,0.1-0.1,0.1-0.1l-0.1,0.1
						c-0.1,0.1,0.4-0.4,0.3-0.2c-0.2,0.2-0.1,0.1-0.2,0.2c-0.5,0.5,0.1,0-0.2,0.2l0,0c-0.1,0.2,0.2-0.2,0.2-0.1l-0.1,0.1
						c0.2-0.2,0.3-0.3,0.4-0.3c-0.2,0.2-0.1,0.1-0.3,0.3c0,0,0.3-0.3,0.4-0.3l-0.4,0.4l0,0c-0.2,0.3,0,0,0,0.1l-0.1,0.1
						c0.1,0,0.3-0.3,0.3-0.3l0.1-0.1c0.3-0.3-0.1,0.2,0.1,0l-0.3,0.3c0.1-0.1,0.3-0.2,0.4-0.3c-0.2,0.2-0.3,0.3-0.5,0.4
						c0,0,0,0,0.2-0.1c0,0-0.1,0.1-0.1,0c0.2-0.2,0.3-0.3,0.4-0.3c-0.5,0.5-0.1,0.2-0.5,0.6c0.2-0.2,0,0.1,0,0.1
						c0.4-0.4,0,0,0.4-0.4l0,0l-0.2,0.3c-0.1,0.1-0.1,0.1-0.2,0.2c0,0-0.2,0.2-0.3,0.3c0.2-0.2,0.2-0.2,0.2-0.2l0.2-0.2
						c0.2-0.2-0.3,0.4-0.1,0.2l-0.1,0.1c0.1-0.1,0,0,0.4-0.3c0,0.1-0.2,0.2-0.2,0.2c0,0.1,0.4-0.3,0.2-0.1l-0.1,0.1
						c0,0,0.2-0.2,0.1-0.1l-0.1,0.1c0,0,0.2-0.2,0.1-0.1l-0.1,0.1c-0.1,0.2,0.3-0.3,0.4-0.3c-0.3,0.3-0.4,0.4-0.4,0.5l0,0
						c0,0.1,0.3-0.2,0.4-0.3c-0.3,0.4-0.1,0.2-0.3,0.4c0.1-0.1,0.2-0.2,0.3-0.3c-0.1,0.1,0.2-0.2-0.1,0.1l0,0
						c-0.3,0.3-0.2,0.2-0.2,0.2l0.4-0.4c-0.5,0.6,0.3-0.1-0.2,0.4l0.2-0.2l-0.2,0.2c0,0.1-0.1,0.1,0,0.1l-0.1,0.1l0.6-0.6l-0.3,0.3
						c0,0-0.2,0.3,0.1,0l-0.1,0.1c0,0-0.2,0.2,0.2-0.2c-0.3,0.3,0,0,0.1-0.1l-0.2,0.2c0.3-0.2,0.3-0.3,0.4-0.4c0,0-0.2,0.2-0.1,0.1
						c-0.1,0.1,0.2-0.2,0.1-0.1l-0.1,0.1c0,0,0.1,0,0.2-0.2c0.1-0.1,0,0.1-0.2,0.2c0.1-0.1,0.3-0.2,0.2-0.2l-0.1,0.1
						c-0.1,0.2,0.3-0.2,0.1,0l-0.1,0.1c0,0,0,0,0-0.1c-0.2,0.2-0.2,0.2-0.5,0.5c0.1-0.1,0.5-0.4,0.4-0.3l-0.1,0.1l0,0l0,0v0.1
						c-0.1,0.2-0.1,0.1-0.1,0.1c0.2-0.2,0.2-0.2,0.3-0.3l0,0l0,0l0,0l0,0c0.1-0.1,0.2-0.2,0.1-0.1l0.3-0.3l-0.6,0.6
						c0.1-0.1,0.1,0,0.5-0.4c0.1,0-0.1,0.1-0.2,0.2c0,0,0,0-0.1,0.1c0.1-0.1,0.1,0,0.3-0.3c-0.1,0.1-0.2,0.2-0.2,0.2l-0.1,0.1
						c-0.4,0.4,0.7-0.6,0.2,0l0.1-0.1c-0.2,0.3,0.3-0.1,0,0.3c-0.1,0.1,0.1-0.1,0.2-0.2l-0.2,0.2l0.3-0.2c0.2-0.2-0.5,0.6-0.1,0.2
						l0.1-0.1c0,0,0.1-0.1-0.1,0.1c0,0,0.2-0.1,0.1-0.1l-0.1,0.1l0.2-0.2c-0.1,0.1-0.4,0.4-0.4,0.5c0.1,0,0.3-0.3,0.4-0.4
						c0,0,0.1-0.1,0.2-0.2l0.1-0.1c0.3-0.3,0.7-0.7,0.9-0.9l-0.2,0.2l0.2-0.2l0,0c0.1-0.2,0,0-0.1,0.1l0.2-0.2l-0.3,0.3
						c0.1-0.1,0.3-0.3,0.3-0.3c-0.2,0.1-0.3,0.3-0.4,0.4c0.1-0.2,0.3-0.3,0.1-0.2l0.2-0.2c-0.1,0.1-0.1,0-0.2,0.2
						c0.2-0.2-0.1,0,0.2-0.3c-0.1,0.1-0.3,0.2-0.3,0.2c0.4-0.4,0,0,0.4-0.4c-0.3,0.3-0.2,0.1-0.4,0.3l0.1-0.1c0,0,0.1-0.1,0.2-0.2
						c-0.3,0.3-0.4,0.3-0.5,0.5c0.3-0.3,0.3-0.3,0.6-0.6c-0.2,0.2-0.2,0.2-0.4,0.4l0.3-0.3c-0.3,0.3-0.1,0.1-0.3,0.3
						c0.2-0.2,0.3-0.3,0.2-0.2C-2686.7,3949.3-2686.6,3949.2-2686.6,3949.2z M-2687.4,3949.5L-2687.4,3949.5L-2687.4,3949.5
						L-2687.4,3949.5z M-2687.4,3949.5L-2687.4,3949.5c-0.1,0.1-0.1,0.2-0.1,0.2C-2687.5,3949.6-2687.5,3949.5-2687.4,3949.5z
						 M-2688.8,3950.9L-2688.8,3950.9L-2688.8,3950.9l0.1-0.1L-2688.8,3950.9z"/>
					<polygon class="st2" points="-2688.5,3950.7 -2688.5,3950.6 -2688.4,3950.6 					"/>
					<path class="st2" d="M-2690.1,3948.4L-2690.1,3948.4L-2690.1,3948.4z"/>
					<polygon class="st2" points="-2687.3,3948.8 -2687.4,3948.9 -2687.4,3948.8 					"/>
					<path class="st2" d="M-2689.6,3947.6L-2689.6,3947.6L-2689.6,3947.6z"/>
					<path class="st2" d="M-2689.6,3947.5L-2689.6,3947.5L-2689.6,3947.5z"/>
					<polygon class="st2" points="-2689.5,3947.4 -2689.6,3947.5 -2689.6,3947.5 					"/>
					<path class="st2" d="M-2688.7,3947.8L-2688.7,3947.8C-2688.6,3947.7-2688.6,3947.7-2688.7,3947.8z"/>
					<path class="st2" d="M-2689.3,3948.1L-2689.3,3948.1C-2689.2,3947.9-2689.2,3947.9-2689.3,3948.1z"/>
					<path class="st2" d="M-2688.2,3947.7L-2688.2,3947.7L-2688.2,3947.7z"/>
					<path class="st2" d="M-2689.2,3948C-2689.2,3947.9-2689.2,3947.9-2689.2,3948L-2689.2,3948z"/>
					<path class="st2" d="M-2689.6,3947.1L-2689.6,3947.1L-2689.6,3947.1z"/>
					<path class="st2" d="M-2689.6,3947.1L-2689.6,3947.1C-2689.7,3947.2-2689.7,3947.2-2689.6,3947.1z"/>
					<path class="st2" d="M-2689.7,3947.2L-2689.7,3947.2L-2689.7,3947.2z"/>
					<path class="st2" d="M-2689.6,3947.3L-2689.6,3947.3L-2689.6,3947.3z"/>
					<path class="st2" d="M-2689.6,3947.3c0,0,0.1-0.2,0.1-0.1L-2689.6,3947.3C-2689.5,3947.1-2689.7,3947.4-2689.6,3947.3z"/>
					<path class="st2" d="M-2690.4,3948.2L-2690.4,3948.2c0,0-0.1,0.1-0.2,0.1C-2690.8,3948.6-2690.4,3948.2-2690.4,3948.2z"/>
					<path class="st2" d="M-2690.5,3948.4c0,0-0.1,0.1-0.2,0.2C-2690.6,3948.5-2690.6,3948.4-2690.5,3948.4z"/>
					<path class="st2" d="M-2690.2,3948.7l-0.2,0.2C-2690.4,3948.8-2690.3,3948.8-2690.2,3948.7z"/>
					<polygon class="st2" points="-2689.2,3947.8 -2689.1,3947.7 -2689.3,3947.8 					"/>
					<polygon class="st2" points="-2690.5,3949.1 -2690.5,3949.1 -2690.4,3949.1 					"/>
					<path class="st2" d="M-2689.9,3949.5l0.2-0.2C-2689.7,3949.4-2690,3949.6-2689.9,3949.5z"/>
					<path class="st2" d="M-2689.5,3949.5C-2689.6,3949.6-2689.6,3949.7-2689.5,3949.5C-2689.5,3949.6-2689.4,3949.5-2689.5,3949.5z
						"/>
					<polygon class="st2" points="-2689.2,3950.5 -2689.3,3950.6 -2689.2,3950.6 					"/>
				</g>
			</g>
		</g>
	</g>
</g>
<g>
	<g>
		<g>
			<g>
				<g>
					<path class="st2" d="M-2678.5,3937.3c-0.1,0.1-0.2,0.2-0.2,0.2L-2678.5,3937.3L-2678.5,3937.3z"/>
					<path class="st2" d="M-2678.9,3937.8l0.5-0.5l-0.4,0.4c0,0,0.1-0.1,0.2-0.2c-0.1,0.1,0-0.1-0.1,0.1c-0.2,0.2-0.2,0.2,0,0
						L-2678.9,3937.8z"/>
					<path class="st2" d="M-2679.1,3938.3L-2679.1,3938.3L-2679.1,3938.3z"/>
					<path class="st2" d="M-2679.1,3938.6L-2679.1,3938.6L-2679.1,3938.6z"/>
					<path class="st2" d="M-2679.3,3938.9L-2679.3,3938.9L-2679.3,3938.9z"/>
					<path class="st2" d="M-2679.1,3938.3L-2679.1,3938.3C-2679.1,3938.3-2679.1,3938.4-2679.1,3938.3z"/>
					<polygon class="st2" points="-2678.3,3937.2 -2678.4,3937.3 -2678.4,3937.3 					"/>
					<polygon class="st2" points="-2679.3,3938.5 -2679.3,3938.5 -2679.4,3938.6 					"/>
					<polygon class="st2" points="-2679.4,3938.5 -2679.1,3938.2 -2679.3,3938.3 					"/>
					<path class="st2" d="M-2679.1,3938.1L-2679.1,3938.1L-2679.1,3938.1z"/>
					<path class="st2" d="M-2679.3,3938.5L-2679.3,3938.5L-2679.3,3938.5z"/>
					<path class="st2" d="M-2676.7,3938.2L-2676.7,3938.2L-2676.7,3938.2z"/>
					<polygon class="st2" points="-2677.6,3939.3 -2677.6,3939.3 -2677.7,3939.4 					"/>
					<path class="st2" d="M-2679.5,3939.2L-2679.5,3939.2C-2679.6,3939.2-2679.5,3939.2-2679.5,3939.2z"/>
					<path class="st2" d="M-2679,3939.4l0.4-0.4L-2679,3939.4z"/>
					<path class="st2" d="M-2678.3,3937.3L-2678.3,3937.3L-2678.3,3937.3z"/>
					<polygon class="st2" points="-2678.6,3939 -2678.6,3938.9 -2678.6,3938.9 					"/>
					<path class="st2" d="M-2679.3,3939.1L-2679.3,3939.1L-2679.3,3939.1z"/>
					<path class="st2" d="M-2679.1,3938.8L-2679.1,3938.8L-2679.1,3938.8z"/>
					<path class="st2" d="M-2679,3938.9L-2679,3938.9L-2679,3938.9L-2679,3938.9z"/>
					<polygon class="st2" points="-2679,3938.9 -2678.9,3938.9 -2678.9,3938.9 					"/>
					<path class="st2" d="M-2676.9,3938.2l-0.2,0.2C-2676.9,3938.3-2676.8,3938.2-2676.9,3938.2z"/>
					<polygon class="st2" points="-2678.4,3937.4 -2678.3,3937.3 -2678.4,3937.3 					"/>
					<path class="st2" d="M-2677.4,3937.3L-2677.4,3937.3L-2677.4,3937.3z"/>
					<path class="st2" d="M-2677.2,3938L-2677.2,3938C-2677.1,3938-2677.1,3938-2677.2,3938z"/>
					<polygon class="st2" points="-2677.4,3937.3 -2677.5,3937.5 -2677.5,3937.4 					"/>
					<path class="st2" d="M-2677,3938.4L-2677,3938.4L-2677,3938.4z"/>
					<path class="st2" d="M-2676.5,3938c0,0-0.3,0.3-0.4,0.4C-2677,3938.4-2676.8,3938.2-2676.5,3938l-0.4,0.4l0.1-0.1
						c-0.2,0.2,0,0-0.3,0.3l0.1-0.1l-0.4,0.4c0,0-0.2,0.2,0,0l0.1-0.1l-0.1,0.1l0.3-0.3c-0.1,0.1-0.3,0.3-0.2,0.2
						c0.2-0.2,0.1-0.1,0.3-0.3l-0.1,0.1l0.4-0.4c0.1-0.1-0.1,0.1-0.1,0l-0.3,0.3c-0.3,0.2,0.6-0.6,0.3-0.3c-0.2,0.2-0.5,0.5-0.3,0.3
						l0.3-0.3c0,0-0.4,0.4-0.2,0.2l0.1-0.1c0.2-0.2-0.2,0.1-0.2,0.1l0.2-0.2l-0.3,0.2l0.2-0.2c-0.1,0.1,0-0.1,0.1-0.2l-0.2,0.2
						l0.1-0.1c0.1-0.1-0.1,0.1-0.2,0.2c0,0,0.1-0.1,0.2-0.2c-0.2,0.2-0.4,0.4-0.2,0.1l0.1-0.1c0.1-0.1-0.4,0.4-0.2,0.2l0,0
						c0.1-0.1-0.1,0.1,0.2-0.3c-0.3,0.3,0.1-0.1-0.3,0.3c0.2-0.2,0.3-0.3,0.4-0.4l-0.3,0.3l0.2-0.2l-0.2,0.2l0.3-0.3l-0.1,0.1
						l-0.2,0.2c-0.1,0.1,0.1-0.2,0.2-0.3l-0.2,0.2l0.2-0.2c-0.2,0.2,0.2-0.2,0,0l-0.2,0.2c0.1-0.1,0.1-0.1,0.1-0.1l0.2-0.1
						c0,0-0.1,0.1-0.1,0l-0.4,0.4l0.2-0.2l-0.3,0.3l0.3-0.3l-0.1,0.1l0.2-0.2c-0.1,0.1,0.2-0.2,0,0l0.1-0.1l-0.1,0.1l-0.3,0.3
						c0.1-0.1,0.2-0.2,0.2-0.2l-0.3,0.3c0.2-0.2,0.2-0.2,0.3-0.3c0,0,0,0-0.2,0.2l-0.2,0.2c0,0,0.1-0.1,0.2-0.2l0,0
						c-0.3,0.3,0.5-0.6,0.1-0.2l0,0l-0.2,0.2c0,0,0.1-0.1,0.2-0.2c-0.3,0.3,0-0.1-0.2,0.1c0.5-0.5-0.1,0,0.3-0.3l-0.1,0.1
						c-0.1,0.1,0.1-0.1,0.1-0.1l-0.2,0.2c-0.2,0.1,0.1-0.2,0.2-0.4c0,0-0.7,0.6-0.4,0.3l0.2-0.2c-0.3,0.3,0,0-0.3,0.2l0.1-0.1
						c0.2-0.2,0,0-0.1,0.1l0.2-0.2c0.1-0.1-0.2,0.2-0.1,0l0.1-0.1c-0.1,0.1,0,0-0.2,0.2c0.1-0.1-0.1,0.1,0,0
						c-0.2,0.2,0.1-0.1-0.2,0.2c0.3-0.3,0.2-0.3,0.1-0.1l0.2-0.2c0,0-0.1,0.1-0.2,0.2c0.4-0.4-0.3,0.3,0.2-0.2
						c-0.2,0.2-0.3,0.3-0.4,0.3c0.3-0.3,0,0,0.4-0.4c-0.1,0.1-0.4,0.4-0.4,0.3l0.2-0.2c-0.1,0.1,0-0.1-0.2,0.1l0.1-0.1
						c0,0,0-0.1-0.1,0.1l0,0l-0.6,0.5l0.6-0.6l-0.2,0.2l0.2-0.2c-0.1,0.1-0.2,0.2-0.2,0.2l0.2-0.2c-0.1,0.1-0.3,0.3-0.2,0.2l0.1-0.1
						c0,0-0.4,0.3-0.3,0.2l0.4-0.4l-0.1,0.1l-0.1,0.1c0,0-0.2,0.2-0.1,0.1l0.1-0.1h-0.1l-0.1,0.1c-0.1,0.1-0.3,0.3-0.3,0.3l0.2-0.2
						l0,0c-0.1,0.1-0.2,0.2-0.1,0.1l0.3-0.3l-0.3,0.3l0.2-0.2l-0.2,0.2l0.2-0.2c0,0-0.3,0.3-0.2,0.2l0.1-0.1c0.1-0.1-0.1,0.1,0,0
						l0.3-0.3c-0.1,0-0.3,0.3-0.3,0.2l0,0c-0.4,0.4,0.2-0.2,0,0l0.2-0.2c0.1-0.1-0.1,0.1-0.2,0.2l0.1-0.1c0.1-0.1,0-0.1,0.1-0.1
						l-0.2,0.2c0.5-0.6-0.3,0.3,0.1-0.2l0.1-0.1l-0.1,0.1l-0.2,0.2c-0.1,0.1-0.2,0.2-0.2,0.2c0.1-0.1,0.3-0.3,0.4-0.4l-0.2,0.2
						c0.3-0.3-0.3,0.3-0.1,0.1l0.1-0.1c0,0-0.2,0.2-0.1,0.1l0.2-0.2c0,0-0.4,0.4-0.2,0.2l0.1-0.1c0.2-0.2,0.2-0.2,0.2-0.2l0,0
						l0.1-0.1l-0.1,0.1c-0.5,0.5-0.1,0.1-0.4,0.4l0.4-0.4l0.2-0.2c-0.2,0.2,0.1-0.1-0.1,0.1l0.2-0.2c-0.1,0.1-0.1,0.1-0.2,0.2
						c-0.2,0.2,0.3-0.3-0.1,0l-0.5,0.5l0.3-0.2c0.1-0.1,0.1-0.1,0,0l0.2-0.2c0,0-0.3,0.2-0.2,0.1l0.3-0.3l-0.3,0.2l0.3-0.3
						c-0.1,0.1-0.1,0.1-0.3,0.3l-0.1,0.1l0.2-0.2c0.2-0.1-0.1,0.1-0.1,0.1l0,0c-0.4,0.4,0.1-0.1,0.1,0l-0.3,0.3l0.2-0.2l-0.3,0.3
						c-0.1,0.1,0.1-0.1-0.1,0.1l-0.1,0.1l0.1-0.1c-0.1,0.1-0.2,0.2-0.2,0.2c-0.2,0.2,0.2-0.2,0,0l0,0c0.1-0.1,0.2-0.2,0.5-0.5
						l-0.5,0.5l0.2-0.2l-0.1,0.1l0.2-0.2c-0.2,0.2,0.1-0.1-0.2,0.3l0.2-0.2c-0.4,0.4,0.1-0.1-0.1,0.1c-0.2,0.2-0.1,0.1-0.3,0.3
						c0.3-0.3-0.1,0.1,0,0c0.3-0.3,0.1-0.1,0.2-0.2c-0.1,0.1-0.1,0.2-0.2,0.3l0,0c0.3-0.3,0.2-0.2,0.3-0.3l-0.3,0.3l0,0l0.2-0.2
						l-0.2,0.2c0,0,0.2-0.2,0.1-0.1c0.2-0.2,0.5-0.5,0.6-0.6l-0.3,0.3c0,0,0.1-0.1,0,0l-0.2,0.2c-0.1,0.1,0.1-0.1,0.1-0.1l-0.2,0.2
						c0,0,0.1-0.1,0,0l-0.2,0.2l0.2-0.2l-0.2,0.2l0.2-0.2l-0.2,0.2c0.1-0.1,0,0,0.3-0.2l0,0l0,0l0,0l0,0c0.2-0.2-0.1,0.1,0,0.1
						l-0.1,0.1c0.1-0.1,0.1,0,0.2-0.2l-0.2,0.2c0.1,0,0.1-0.1,0,0c-0.1,0.1-0.1,0.1-0.1,0.1c-0.1,0.1-0.2,0.2,0,0
						c-0.2,0.2-0.2,0.2-0.2,0.2l0.1-0.1l0,0l-0.2,0.2c-0.3,0.3,0.5-0.5,0,0l0.3-0.3l-0.4,0.4c-0.1,0.1,0.3-0.3,0.3-0.2l0.4-0.4
						c0,0-0.3,0.4-0.4,0.4c0,0,0,0,0-0.1l-0.2,0.2l0.1-0.1c-0.1,0.1-0.1,0.1-0.2,0.2c0.1-0.1,0.1-0.1,0.2-0.2c-0.1,0.1,0,0-0.1,0.1
						l0.1-0.1c-0.1,0.1,0.2-0.2,0.2-0.2c-0.1,0.1-0.3,0.3-0.2,0.2l-0.3,0.3c0.2-0.2-0.1,0.1-0.1,0.1l-0.1,0.1l0,0l0.2-0.2l-0.1,0.1
						l0.4-0.4c-0.1,0.1,0.1-0.1-0.1,0.1c0.1-0.1-0.2,0.2-0.3,0.3l0,0l-0.1,0.1c-0.2,0.2,0.3-0.2,0.3-0.2c-0.1,0.1-0.2,0.2-0.2,0.2
						s0.2-0.2,0.3-0.3c-0.1,0.1,0.1-0.1,0.1-0.1l0,0c0.1-0.1,0.1-0.1,0.2-0.1l-0.1,0.1c0.2-0.2-0.2,0.2-0.1,0.1l-0.3,0.3
						c0.2-0.2-0.2,0.2,0,0.1c0.2-0.2,0.1-0.1,0.3-0.3l-0.1,0.1l0.3-0.2l-0.1,0.1l0.2-0.2c-0.2,0.3,0.2-0.1,0,0l-0.4,0.4
						c-0.2,0.2,0.2-0.2,0.1-0.1l0.1-0.1c0.2-0.2,0,0,0.1-0.1l-0.3,0.3c0.1-0.1,0,0,0.3-0.3l-0.2,0.2c-0.1,0.1,0.4-0.4,0.4-0.3
						l-0.4,0.4c0,0,0,0,0.1-0.1c-0.1,0.1,0.2-0.2,0.1,0c0.1-0.1,0.2-0.2,0.2-0.2l-0.1,0.1l0.2-0.2c-0.4,0.4,0.1,0-0.3,0.4
						c0.1,0,0.1-0.1,0.1-0.1l-0.1,0.1c-0.1,0.1,0.4-0.4,0.3-0.2c-0.2,0.2-0.1,0.1-0.2,0.2c-0.5,0.5,0.1-0.1-0.2,0.2l0,0
						c-0.2,0.2,0.2-0.2,0.2-0.1l-0.1,0.1c0.2-0.2,0.3-0.3,0.4-0.4l-0.3,0.3l0.3-0.3l-0.4,0.4l0,0c-0.2,0.3,0,0,0,0l-0.1,0.1l0.3-0.3
						l0.1-0.1c0.3-0.3-0.2,0.2,0.1,0l-0.3,0.3l0.3-0.3l-0.4,0.4c0,0,0,0,0.2-0.1c0,0-0.1,0.1-0.1,0c0.2-0.2,0.3-0.3,0.3-0.3
						c-0.5,0.5-0.1,0.2-0.5,0.6c0.2-0.2-0.1,0.1,0,0.1l0.4-0.4l0,0l-0.2,0.3l-0.2,0.2c0,0-0.2,0.2-0.3,0.3c0.2-0.2,0.2-0.2,0.2-0.2
						l0.2-0.2c0.2-0.2-0.4,0.4-0.1,0.2l-0.1,0.1c0.1-0.1,0,0,0.4-0.3l-0.2,0.2c0,0.1,0.4-0.3,0.2-0.1l-0.1,0.1c0,0,0.2-0.2,0.1-0.1
						l-0.1,0.1c0,0,0.2-0.2,0.1-0.1l-0.1,0.1c-0.1,0.1,0.3-0.3,0.4-0.3c-0.3,0.3-0.4,0.4-0.4,0.5l0,0c0,0.1,0.3-0.2,0.4-0.3
						c-0.3,0.3-0.1,0.2-0.3,0.4l0.3-0.3c-0.1,0.1,0.2-0.2-0.1,0.1l0,0c-0.3,0.3-0.2,0.2-0.2,0.2l0.4-0.4c-0.5,0.6,0.2-0.2-0.3,0.3
						l0.2-0.2l-0.2,0.2c0,0.1-0.1,0.1,0,0l-0.1,0.1l0.6-0.6l-0.3,0.3c0,0-0.2,0.3,0,0l-0.1,0.1c0,0-0.2,0.2,0.2-0.2
						c-0.3,0.3,0,0,0.1-0.1l-0.2,0.2c0.3-0.2,0.3-0.3,0.4-0.4c0,0-0.2,0.2-0.1,0.1c-0.1,0.1,0.2-0.2,0.1-0.1l-0.1,0.1
						c0,0,0.1,0,0.2-0.2c0.1-0.1,0,0.1-0.2,0.2c0.1-0.1,0.3-0.2,0.2-0.2l-0.1,0.1c-0.1,0.1,0.2-0.2,0.1,0l-0.1,0.1l0,0l-0.5,0.5
						c0.1-0.1,0.4-0.4,0.4-0.3l-0.1,0.1l0,0l0,0c0,0,0,0.1-0.1,0.1c-0.2,0.1-0.1,0.1-0.1,0.1l0.3-0.3l0,0l0,0l0,0l0,0
						c0.1-0.1,0.2-0.2,0.1-0.1l0.3-0.3l-0.6,0.6c0.1-0.1,0.1-0.1,0.5-0.4c0,0-0.1,0.1-0.2,0.2l-0.1,0.1c0.1-0.1,0.1,0,0.3-0.3
						c-0.1,0.1-0.2,0.2-0.2,0.2l-0.1,0.1c-0.4,0.4,0.7-0.6,0.2-0.1l0.1-0.1c-0.2,0.3,0.3-0.2-0.1,0.2c-0.1,0.1,0.1-0.1,0.2-0.2
						l-0.2,0.2l0.3-0.2c0.2-0.2-0.5,0.5-0.2,0.2l0.1-0.1c0,0,0.1-0.1-0.1,0.1c0,0,0.2-0.1,0.1-0.1l-0.1,0.1l0.2-0.2
						c-0.1,0.1-0.4,0.4-0.5,0.5l0.4-0.4l0.2-0.2l0.1-0.1c0.3-0.3,0.7-0.7,0.9-0.9l-0.2,0.2l0.2-0.2l0,0c0.1-0.2,0,0-0.1,0.1l0.2-0.2
						l-0.3,0.3l0.3-0.3l-0.4,0.4c0.1-0.2,0.3-0.3,0.1-0.1l0.2-0.2c-0.1,0.1-0.1,0-0.2,0.2c0.2-0.2-0.1,0,0.3-0.3l-0.3,0.2
						c0.4-0.4,0,0,0.4-0.4c-0.3,0.3-0.2,0.1-0.4,0.3l0.1-0.1l0.2-0.2l-0.5,0.5l0.6-0.6l-0.4,0.4l0.3-0.3c-0.3,0.3-0.1,0.1-0.3,0.3
						c0.2-0.2,0.3-0.3,0.2-0.2L-2676.5,3938z M-2677.3,3938.4L-2677.3,3938.4L-2677.3,3938.4L-2677.3,3938.4z M-2677.3,3938.4
						L-2677.3,3938.4l-0.1,0.1L-2677.3,3938.4z M-2678.6,3939.8C-2678.7,3939.9-2678.6,3939.8-2678.6,3939.8L-2678.6,3939.8l0.1-0.1
						L-2678.6,3939.8z"/>
					<polygon class="st2" points="-2678.4,3939.6 -2678.4,3939.6 -2678.3,3939.5 					"/>
					<path class="st2" d="M-2679,3938.3L-2679,3938.3L-2679,3938.3z"/>
					<path class="st2" d="M-2677,3937.9l-0.1,0.1L-2677,3937.9z"/>
					<path class="st2" d="M-2678.4,3937.6L-2678.4,3937.6L-2678.4,3937.6z"/>
					<path class="st2" d="M-2678.4,3937.5L-2678.4,3937.5L-2678.4,3937.5z"/>
					<polygon class="st2" points="-2678.3,3937.4 -2678.4,3937.5 -2678.4,3937.5 					"/>
					<path class="st2" d="M-2677.8,3937.5L-2677.8,3937.5C-2677.7,3937.4-2677.7,3937.4-2677.8,3937.5z"/>
					<path class="st2" d="M-2678.3,3937.8L-2678.3,3937.8C-2678.2,3937.7-2678.2,3937.7-2678.3,3937.8z"/>
					<path class="st2" d="M-2677.4,3937.3L-2677.4,3937.3L-2677.4,3937.3z"/>
					<path class="st2" d="M-2678.2,3937.7L-2678.2,3937.7C-2678.2,3937.8-2678.3,3937.8-2678.2,3937.7z"/>
					<path class="st2" d="M-2678.3,3937.2L-2678.3,3937.2L-2678.3,3937.2z"/>
					<path class="st2" d="M-2678.3,3937.2L-2678.3,3937.2C-2678.4,3937.2-2678.4,3937.2-2678.3,3937.2z"/>
					<path class="st2" d="M-2678.4,3937.3L-2678.4,3937.3C-2678.4,3937.2-2678.4,3937.2-2678.4,3937.3z"/>
					<path class="st2" d="M-2678.4,3937.3L-2678.4,3937.3L-2678.4,3937.3z"/>
					<path class="st2" d="M-2678.4,3937.3c0,0,0.1-0.2,0.1-0.1L-2678.4,3937.3C-2678.2,3937.1-2678.5,3937.4-2678.4,3937.3z"/>
					<path class="st2" d="M-2679.2,3938.2L-2679.2,3938.2l-0.1,0.1C-2679.6,3938.6-2679.2,3938.2-2679.2,3938.2z"/>
					<path class="st2" d="M-2679.3,3938.4c0,0-0.1,0.1-0.2,0.2C-2679.4,3938.5-2679.4,3938.4-2679.3,3938.4z"/>
					<path class="st2" d="M-2679.2,3938.5l-0.2,0.2L-2679.2,3938.5z"/>
					<polygon class="st2" points="-2678.2,3937.6 -2678.1,3937.5 -2678.2,3937.7 					"/>
					<polygon class="st2" points="-2679.5,3938.9 -2679.5,3938.9 -2679.4,3938.9 					"/>
					<path class="st2" d="M-2679.2,3939.1l0.2-0.2C-2679,3938.9-2679.2,3939.2-2679.2,3939.1z"/>
					<path class="st2" d="M-2678.8,3939C-2678.9,3939.1-2679,3939.2-2678.8,3939C-2678.9,3939-2678.8,3938.9-2678.8,3939z"/>
					<path class="st2" d="M-2678.9,3939.7L-2678.9,3939.7L-2678.9,3939.7z"/>
				</g>
			</g>
		</g>
	</g>
</g>
</svg>
