<?xml version="1.0" encoding="utf-8"?>
<!-- Generator: Adobe Illustrator 19.1.0, SVG Export Plug-In . SVG Version: 6.00 Build 0)  -->
<svg version="1.1" id="Layer_1" xmlns="http://www.w3.org/2000/svg" xmlns:xlink="http://www.w3.org/1999/xlink" x="0px" y="0px"
	 viewBox="-1007.4 3999.4 57.4 50.2" style="enable-background:new -1007.4 3999.4 57.4 50.2;" xml:space="preserve">
<style type="text/css">
	.st0{display:none;fill:#F1F2F2;}
	.st1{display:none;fill:#A7A9AC;}
	.st2{fill:#D64667;}
</style>
<rect x="-1385" y="1385.7" class="st0" width="590" height="7550"/>
<rect x="-1011" y="3990.7" class="st1" width="64" height="64"/>
<g>
	<g>
		<g>
			<g>
				<g>
					<path class="st2" d="M-951.7,4016.3c0.1,0.1,0.3,0,0.2-0.2l-0.3-0.2L-951.7,4016.3z"/>
					<path class="st2" d="M-951.1,4014.7c-0.2-0.3-0.5-0.5-0.8-0.3c0.3,0.2,0.2,0.3,0.6,0.6c0.1,0.2-0.1,0.4-0.2,0.4
						c0.1,0.1-0.1,0.4,0.2,0.5c0.2-0.3,0.2-0.7,0-1.1C-951.3,4014.6-951.2,4014.7-951.1,4014.7z"/>
					<path class="st2" d="M-966.6,4000.3l0.2,0C-966.5,4000.3-966.6,4000.3-966.6,4000.3z"/>
					<path class="st2" d="M-979,4006.3C-978.9,4006.4-978.9,4006.3-979,4006.3C-978.9,4006.3-979,4006.3-979,4006.3z"/>
					<path class="st2" d="M-980.3,4004.7l0.1,0.1C-980.3,4004.8-980.3,4004.7-980.3,4004.7z"/>
					<path class="st2" d="M-966.6,4000.3l-0.4-0.1C-967,4000.4-966.8,4000.3-966.6,4000.3z"/>
					<path class="st2" d="M-952.5,4011.8c0,0.1,0.1,0.1,0.1,0.2L-952.5,4011.8L-952.5,4011.8z"/>
					<path class="st2" d="M-960,4000.8l0.1,0c0,0,0.1-0.1,0.1-0.1L-960,4000.8z"/>
					<path class="st2" d="M-955.6,4003.5c-0.1-0.1-0.3,0.1-0.4,0.2c0.1,0,0.2,0,0.3,0C-955.7,4003.6-955.7,4003.6-955.6,4003.5z"/>
					<path class="st2" d="M-951.7,4010.4l0.1,0.1L-951.7,4010.4z"/>
					<path class="st2" d="M-963.6,3999.9c0,0,0-0.1,0-0.1C-963.7,3999.8-963.7,3999.9-963.6,3999.9z"/>
					<path class="st2" d="M-953.2,4021.4C-953.1,4021.5-953.1,4021.5-953.2,4021.4C-953.1,4021.4-953.1,4021.4-953.2,4021.4z"/>
					<path class="st2" d="M-950.9,4016.3L-950.9,4016.3c0.1,0.1,0.1,0.1,0.2,0.1L-950.9,4016.3z"/>
					<path class="st2" d="M-983.8,4001.6L-983.8,4001.6C-983.7,4001.7-983.8,4001.6-983.8,4001.6z"/>
					<path class="st2" d="M-1004.6,4025.9c-0.1-0.5,0.7,0.5,0.5-0.3C-1004.1,4025.7-1004.8,4025.2-1004.6,4025.9z"/>
					<path class="st2" d="M-952.5,4011.7c0-0.1,0-0.1-0.1-0.2C-952.5,4011.6-952.5,4011.6-952.5,4011.7z"/>
					<polygon class="st2" points="-1004.1,4025.6 -1004.1,4025.6 -1004.1,4025.5 					"/>
					<path class="st2" d="M-994.7,3999.4c0,0,0.1,0.1,0.1,0.1C-994.6,3999.5-994.6,3999.5-994.7,3999.4z"/>
					<path class="st2" d="M-986.6,4000.8l-0.2-0.1C-986.7,4000.7-986.7,4000.8-986.6,4000.8z"/>
					<path class="st2" d="M-998.8,4001c-0.1,0-0.2,0-0.3,0.1c0,0,0,0,0.1,0C-999,4001.1-998.9,4001-998.8,4001z"/>
					<path class="st2" d="M-1002.4,4003.6C-1002.3,4003.6-1002.3,4003.6-1002.4,4003.6l0.2-0.1L-1002.4,4003.6z"/>
					<path class="st2" d="M-960.6,4030.6c0.1,0,0.2,0,0.3,0.1C-960.5,4030.6-960.1,4030.2-960.6,4030.6z"/>
					<path class="st2" d="M-952.3,4011.7c-0.1,0-0.1,0-0.1-0.1L-952.3,4011.7C-952.4,4011.8-952.3,4011.8-952.3,4011.7z"/>
					<path class="st2" d="M-997.9,4003.1c-0.2,0.1-0.4,0.2-0.5,0.2C-998.3,4003.3-998.1,4003.2-997.9,4003.1z"/>
					<path class="st2" d="M-981.4,4042.6l0.1,0.1C-981.3,4042.7-981.4,4042.6-981.4,4042.6z"/>
					<path class="st2" d="M-999.9,4004.3c-0.1,0-0.3,0-0.4,0.1c0,0,0,0.1,0,0.1L-999.9,4004.3z"/>
					<path class="st2" d="M-960.3,4030.7L-960.3,4030.7L-960.3,4030.7z"/>
					<path class="st2" d="M-957.5,4027.5c-0.4,0.4,0,0.5,0.1,0.7c-0.5,0.6-0.4,0-0.7,0.1c-0.3,0.4-0.3,0.9-0.6,1.1
						c-0.1,0-0.1,0-0.1-0.1c-0.2,0.5-1.1,0.9-1.3,1.6c-0.1,0-0.1,0-0.1,0c0.2,0.1,0.3,0.2,0.4,0.3c-0.2,0.2-0.3,0.5-0.5,0.4
						c0.1-0.1,0.1-0.2,0.1-0.3l-0.2,0.3c-0.4-0.1,0.2-0.3,0.1-0.5c-0.4,0.4-0.8,1.1-1.2,1.2c-0.3-0.2,0.8-0.7,0.1-0.6l0.6-0.3
						c-0.7-0.1,0.4-0.2-0.4-0.4c-0.8,0.5-0.7,0.7-1.5,1.2c-0.1,0.3,0.2,0.2,0.2,0.5c-0.9,1-1.3-0.1-1.8,0.8
						c-0.1,0.3,0.1,0.7-0.6,0.9l0-0.4c-0.7,0.5-0.1,0.7-1,1.1c0-0.2,0.5-0.5,0.4-0.5c-0.7,0.1-0.2,0.4-0.6,0.7l-0.3-0.2
						c-0.7,0.6-1.4,1.4-2.3,2c0-0.1,0.1-0.3-0.2-0.2c-1,0.9-2.3,1.7-3.4,2.3l-0.2,0.5c-0.1,0.1-0.2,0-0.2-0.1
						c-0.5,0.2,0.1,0.2,0,0.4c-0.2,0.2-0.4,0.1-0.3-0.1c-0.5,0.8-1.5,2.1-2.4,2.5l0.1-0.2c-0.6,0.4-0.2,1-0.8,1.3l0.1-0.1
						c-0.6,0.5-1.1,1.2-1.6,1.8c-0.3,0.4-0.4,0.4-0.5,0.5c-0.1,0.1-0.2,0.1-0.3,0.1c0,0.2,0,0.3-0.1,0.4c-0.1-0.2-0.2-0.5-0.4-0.1
						c-0.1-0.4-0.1-0.5-0.1-0.6c0.1-0.1-0.1-0.4-0.4-0.9c-0.2-0.3-0.6-0.1-0.9-0.4l0.2-0.2l-0.6-0.2l0.1-0.5l-0.3-0.2
						c0.1,0.1,0.1,0.3,0.1,0.4c-0.5-0.3-0.9-1.2-0.8-1.3l-1.2-0.8c0.1-0.1,0.3,0.1,0.5,0.1c-0.8-0.3,0.1-0.3-0.6-0.6
						c0,0.1-0.2,0.1-0.2,0.1c-0.1-0.4-0.7-0.9-1.3-1.2l0.2-0.1c-0.8-0.7-1.8-1.4-2.8-2.1c0.3,0.3,0,0.6-0.3,0.4l0.1-0.3
						c-0.3,0,0.2,0.3-0.3,0.2c-0.3-0.3,0-0.5,0.3-0.4l-0.5-0.2c0-0.1,0.2-0.1,0.3-0.1c-0.3,0-0.6-0.8-1-0.7l0-0.1
						c-1-0.7-1.5-0.9-2.3-1.5c-0.2,0.2-0.4-0.1-0.8,0c-0.5-0.5-1-1.1-1.7-1.6c-0.6-0.2-0.3,0.1-0.6,0.1c0.1-0.2-0.6-0.7-0.1-0.6
						c-0.8-0.6-1.1-0.7-2.2-1.3c0,0.2,0.1,0.3,0,0.3c-0.2-0.1-0.4-0.4-0.2-0.5l0.1,0c-1.4-0.6-2-2.6-3.2-3l0.1,0
						c-0.3-0.2-0.7-0.4-1-0.6c-0.3-0.4,0.4,0.1,0.2-0.3c-1.2-0.6-1.2-1.5-2-2.1c0.1-0.5-0.3-1.1-0.7-1.7c-0.4-0.6-0.8-1.2-0.7-1.8
						l-0.1,0.1c-0.3-0.2,0-0.3,0-0.5c-0.1,0.1-0.1,0.3-0.2,0.2c-1-2.1-0.7-4.7-0.3-6.9c0.1-0.8-0.9-0.6-0.3-1.6l0.3,0.4
						c-0.1-1.8,0.9-3.3,1.4-4.9c0,0.1,0.1,0.2,0,0.3c0.4-0.2,0.7-1.1,0.5-1.2c0.2-0.2,0.2,0.1,0.4,0c0.3-0.2,0.3-0.9,0.6-0.9
						c0,0,0,0.1,0,0.2c0-0.3,0.7-0.8,0.4-0.8c0.5-0.4,0.8-0.9,1.2-1.1c0-0.5,0.9-0.5,0.8-0.9c0.2,0.4,1.1-0.3,1.4-0.6
						c-0.1,0.2,0.4,0,0.3,0.2c0.4-0.2,0.7-0.4,0.6-0.6c0.9,0.2,1.5-0.9,2.1-0.4c1.2-0.5,2.5-0.7,3.8-0.7c-0.1,0.4-1.4,0-1.3,0.5
						c1.2-0.2,1.9-0.5,3-0.2c0.3,0.1-0.2,0.2-0.3,0.2c1.2,0,2.1,0.5,3.1,0.7c0,0-0.1,0-0.2,0c0.2,0.1,0.4,0.2,0.5,0.1l-0.2,0
						c-0.2-0.4,1-0.2,1.1-0.3c-0.6,0.3,0.8,0.6,0,1c0.1,0,0.3,0,0.4-0.1c0.2,0.1,0.2,0.2-0.1,0.3c0.7,0.3,0.6,0,1.1,0.4
						c-0.1,0.1-0.2,0-0.3,0.1c0.4,0,0.8,0.1,1.2,0.5c-0.1,0-0.1,0.1-0.2,0c0.8,0.6,1.7,0.7,2.4,1.5c-0.5,0.1,0.2,0.4,0,0.7l0.5,0.3
						l-0.1-0.3c0.4,0.3,1,0.5,1.5,1l-0.5-0.2l1.1,0.8l0,0l0,0l-0.6-0.6c0.5,0.2,0.1-0.5,0.6,0l0.1,0c-0.1,0.1,0.4-0.4,0.8-0.4l0,0
						c0.2-0.3,0.4-0.6,0.7-0.8c0.2,0,0.2,0.4,0.3,0.4c0-0.4,0.9-0.8,0.9-1.3c0,0.1,0.1,0.3,0.1,0.3l0-0.3c0.2-0.1,0.3-0.1,0.4,0.1
						c0.6-0.4-0.5-0.2,0.3-0.6c0,0.1,0,0.1-0.1,0.2c0.8-0.4,1.3-1.1,2-1.4c0.4,0.2-0.5,0.4-0.1,0.6c0.9-0.7,1.8-1.6,2.8-1.9l-0.2,0
						c-0.1-0.6,0.8-0.1,1.3-0.5c-0.1,0.1-0.1,0.3-0.1,0.3c0.7-0.1,1.4-0.6,2.5-0.9l-0.1,0.2c0.5,0.1,1.2-0.1,1.6,0
						c0.1-0.1,0.4-0.1,0.2-0.3c0.8,0.4,1.4,0.3,2.1,0.2c0.7,0,1.4,0,1.9,0.5c-0.1,0-0.4,0-0.3,0c0.4,0.1,0.7,0.1,1.1,0.2
						c0-0.2-0.1-0.2-0.2-0.4c0.2-0.1,0.5-0.1,0.8,0c-0.5-0.1-0.1,0.3,0,0.5c0-0.1,0.1-0.1,0.1-0.2c0.3,0.6,0.3-0.4,0.9,0.2l-0.1,0.1
						c0.3,0.1,0.6,0.1,0.9,0.3c0,0.3-0.3-0.1-0.5,0.1c0.4,0.2,1,0.1,1.2,0.5c-0.2-0.1-0.4-0.2-0.6-0.3c0.2,0.5,0.3,0.5,0.5,0.7l0,0
						c0.2,0.2,0.3,0.4,0.5,0.6l-0.1-0.2c0.9-0.2,0.9,0.7,1.8,0.9c-0.8-0.3-0.3,0.1-0.5,0.2c0.1,0.2,0.2,0.5,0.1,0.5
						c0.4,0.1,0.2,0.6,0.8,0.7c-0.1,0.1,0.2,0.3,0,0.4c0.3,0.3,0.1-0.2,0.2-0.2c0.7,0.4,0.6,1.6,1.4,2.3c0.6,0.7,0.9,0.7,1.4,1.5
						c0,0.3-0.4-0.1-0.4-0.1c0,0.5,0.2,0.8,0.4,1.2c-0.1-0.1-0.1,0-0.2,0.2c0.1,0.3,0.4,0.1,0.4,0.6c-0.1,0-0.3-0.1-0.5-0.2
						c0.2,0.4,0.5,0.7,0.6,1.1c-0.1,0.1-0.3-0.2-0.4-0.3c0.2,0.4,0.4,1.1,0.7,1.3l0.1-0.3c0,0.2-0.2,0.1-0.3,0
						c-0.3-0.4,0-0.6,0.1-0.6l0.1,0.3c0.5-0.4-0.3-1.2-0.5-1.7l0.5,0.1c-0.2-0.2-0.3-0.3-0.5-0.5c0.1-0.2,0.3-0.3,0.4,0
						c0.1-0.5-0.3-0.3-0.2-0.8c0-0.1,0,0,0.1,0l-0.3-0.4c0.1,0,0.2-0.2,0.3,0.1c-0.1-0.8-0.8-1.1-0.6-1.4l0.1,0
						c-0.6-0.9-0.3,0-1-0.5c0.1-0.3,0.3-0.6,0.4-0.8l-0.3,0.1c0-0.1-0.1-0.3,0-0.3c-0.4-0.2-0.1,0.1-0.4,0c0-0.6-0.9-1.1-0.6-1.5
						c-0.3,0,0.2,0.5-0.3,0.2c0.3-0.5-0.5-0.5-0.6-1c0.3-0.1,0.5,0.4,0.4-0.2c-0.5,0.1-0.6-0.8-1-1c-0.3,0.3-0.8-0.5-1.4-0.8
						c0.1-0.1-1-0.9-1.5-1.3l0,0c-0.3,0.3-0.9-0.1-1.3-0.2c0.1-0.2,0.2-0.2,0.5-0.2l-0.4-0.2c-0.1,0.1-0.3,0.1-0.6,0l0.2-0.2
						c-0.6-0.2-1.3-0.1-2.1-0.4c-0.1,0.2,0.5,0.8-0.3,0.8c0-0.1,0-0.4,0.2-0.4c-0.1,0-0.3,0.1-0.4,0l0.4-0.2
						c-0.3-0.2-0.2,0.2-0.5,0.1c0-0.2-0.2-0.2-0.1-0.3c0.1,0,0.2,0.1,0.4,0.1c-0.3-0.1-0.7-0.2-0.8-0.4c0,0.1,0,0.3-0.3,0.3
						c-0.6,0-0.2-0.2-0.6-0.4c-0.2,0.1-0.5,0-0.6,0.3c-0.2,0-0.2-0.1-0.3-0.2c-0.3,0.1-1.5,0.1-1.1,0.4l0.1,0l-0.1,0h0h0
						c-1,0.4-2.2,0.1-3.1,0.6l0-0.1c-0.6,0.3-1.3,0.5-1.6,0.9c-0.2,0.1-0.5,0-0.4-0.1c-0.4,0.3-0.4,0.4-1.1,0.6
						c0.3-0.4-0.2-0.1,0.4-0.3c-0.6,0.2-0.8,0.2-1.2,0.7c0.1-0.3-0.6,0-0.8,0.2l0.5-0.1c-0.3,0.2-0.5,0.3-0.8,0.5l-0.1-0.4
						c-1.3,0.4-1.4,1.9-2.6,1.9c-0.1,0.4,0.6-0.3,0.6,0.1c-0.5,0.3-1.2,0.3-1.4,0.4c-0.2,0.1-0.3,0.2-0.3,0.3c0,0.1,0,0.1,0,0.2
						c0,0.2,0,0.4-0.2,0.5c0,0.1,0.2,0.4-0.1,0.8c0,0,0,0-0.1,0c-0.4-0.4-0.3-0.9-0.1-0.9c0.1,0,0.1,0.1,0.1,0.1c0,0,0.1,0,0.1,0
						c0-0.1,0-0.1,0-0.2l0,0l0,0.1c-0.1-0.2-0.4-0.4-0.2-0.6c-0.2,0-0.2,0.1-0.1,0.3c-0.1-0.1-0.1-0.2-0.1-0.2c0,0-0.2-0.2-0.3-0.2
						c-0.2-0.2-0.5-0.3-0.7-0.6c0,0.1,0,0.3,0,0.2c-0.8-0.8-0.5-0.1-1.1-0.6c-0.2-0.4,0.4-0.2-0.3-0.6c-0.3-0.4,0.1-0.3,0.3-0.3
						c-0.7-0.3-0.9-0.9-1.2-1.2l0.4,0.1c-0.2-0.1-0.4-0.2-0.5-0.3l0,0.3c-0.1-0.2-0.3-0.3-0.2-0.4c-0.3,0-0.1,0.4-0.6,0.3
						c-0.2-0.3-0.8-0.4-0.7-0.7c0.7,0.6,0.1-0.3,0.8,0.1c-0.1-0.1-0.3-0.2-0.5-0.3c0,0,0.1,0,0.1,0c-0.6-0.7-0.5,0.1-1.3-0.4
						c0.2-0.1,0-0.4-0.2-0.4c0.3,0.2,0,0.3-0.3,0.3c-0.5-0.4-0.6-0.2-0.9-0.3l0.3,0.2c-0.2,0.1-0.4,0-0.8-0.1c0-0.1,0.4,0,0.3-0.1
						c-0.5,0.1-0.9-0.7-1.6-0.6c-0.3-0.2,0.1-0.3-0.2-0.5c-0.8,0.1-0.7-0.4-1.5-0.3c0.2,0.3,0.2,0.2-0.3,0.4c0.4,0,0.8,0,1.2,0
						c-0.3,0.1-0.6,0.1-0.8,0.2c0.4,0.1,0.8,0,1,0.1c-0.4,0.1-0.4,0.1-0.2,0.3c-0.4-0.4-1,0-1.5-0.3l0.1-0.6
						c-0.9-0.3-1.6,0.2-2.7,0.1l0.4,0.1c-0.1,0.2-0.7,0-1.1,0.2c0-0.2-0.2-0.2-0.4-0.4c0,0.1-0.9,0.1-0.9,0.5
						c-0.2-0.1-0.4-0.1-0.6-0.1c-1,0.1-0.9,0.8-1.7,1.1c0.2-0.3-0.3-0.3,0.3-0.6c-0.3,0.1-0.6,0.2-0.5,0.3c-0.2,0-0.7,0.6-1,0.5
						c-0.1,0.1,0,0.3-0.3,0.5c-0.1,0,0-0.1,0-0.1c0,0.1-0.4,0.4,0,0.4c-0.5,0-1.1,0.3-1.6,0.7c-0.5,0.4-0.9,0.8-1.4,0.9
						c-0.4,0.5-0.9,1.1-1.2,1.6c0-0.1-0.1-0.1,0-0.1c-0.6,0.5,0.1,0.7-0.5,1.3c-0.5,0.2,0.1-0.5-0.1-0.3c-0.6-0.3-0.5,1-1.1,1.3
						l0-0.2c-0.4,0.3-0.3,1.1-0.6,1.8c0,0,0-0.1-0.1,0c0.1,0.6-0.1,1.6-0.2,2.3c-0.2-0.3,0-0.4-0.3-0.3c0,0.3,0.4,0,0.3,0.7
						c-0.2,0.2-0.4,0.6-0.7,0.6l0.1-0.6c-0.4,0.2-0.2,0.8-0.3,1.1l-0.1-0.1c-0.1,1,0.3,1,0.2,2l0.1-0.1c0.4,0.6-0.2,0.5,0,1
						l-0.4,0.2c0.1,0.4,0.4,1.3,0.6,1.9c-0.3-0.3-0.5-1.1-0.7-1.6c0,0.4,0.1,1.3,0.3,1.4c-0.1-0.1-0.2-0.3-0.1-0.5
						c0.3,0.4,0.5,1,0.7,1.7c-0.8,0,0.2,1.9-0.2,2.6c0.7,1.2,0.8,2.5,1.7,3.8c0.2-0.8,0.2,0.4,0.7,0c0.2,0.3,0.3,0.4,0.3,0.4
						c0.1,0.4,0.2,0.7,0.3,1.1c0,0.3-0.3-0.2-0.4-0.1c0.4,0.7,0,0.4,0.2,0.9c0.1-0.2,0.4,0,0.6,0.4l-0.2-0.7
						c0.9,0.6,0.2,1.1,1.2,1.6l-0.4-0.1c0.5,0.3,1.5,1.5,2.2,1.5c0,0.1,0,0.3-0.2,0.2c0.9,0.9,2.6,1.5,3.2,2.3l-0.2,0.1
						c0.2,0.1,0.5,0,0.7,0.3c0,0-0.2,0.1-0.1,0.1c0.1,0,0.7,0.2,0.9,0.4l-0.3,0c0.9,0.9,1.8,0.8,2.7,1.3c-0.3,0.4,0.5,1,0.8,1.4l0,0
						c1.1,0.9,2.2,1.1,3.4,1.8c0.4,0.9,2.1,1.8,2.9,2.9c-0.1-0.2,0.2-0.2,0.5-0.1c0.2,0.3,0.9,0.3,0.5,0.6l-0.1-0.1
						c-0.1,0.5,0.5,0.8,0.8,1.1l0.4-0.3c0.4,1.4,2.6,2.2,2.6,3.2c0.3,0.1,0.6,0.4,0.9,0.6l-0.2,0.2l0.4,0.5l0.6,0.8
						c0.4,0.5,0.8,1.1,1.4,1.8c-0.1,0-0.2,0-0.3,0c0.2,0.3,0.4,0.4,0.6,0.4c0.3-0.8,0.4-1.6,0.7-2c0.1,0.1,0.2,0.2,0.3,0.3
						c0.3-0.4,0.5-0.7,0.8-1l0.4-0.5l0.3-0.3c0.4-0.4,0.7-0.8,0.9-1.3c0,0.1,0.1,0.2,0,0.3c0.3-0.4,1.5-1.2,1-1.4
						c0.3,0.3,0.8-0.7,1.1-1.2l0.1,0.3c0.1-0.6,0.1-0.7,0.5-1.2c0.1-0.1,0.3,0.1,0,0.2c0.5-0.2,0.1-0.5,0.7-0.8l-0.1,0.3
						c0.4-0.3,0.3-0.4,0.4-0.7c0.2-0.3,0.9-0.6,1.1-0.5c0-0.2,0.1-0.5,0.4-0.7c0.1,0,0,0.2,0,0.2c0.8-0.4,0.9-1.1,1.6-1.2
						c0.1,0.1,0.1,0.1,0.2,0.1c-0.6,0.4-1.1,0.8-1,0.7c0.2,0.2,0.6-0.1,0.5,0.4c0.3-0.4,0.7-1.3,1.2-1.5c0,0,0.1,0,0.1,0l0,0.1
						c0.1-0.1,0.2-0.1,0.3-0.2c0.2-0.1,0.3-0.1,0.4-0.2c0.2,0.1,0.6-0.3,0.9-0.5c-0.2-0.2,0.2-0.4-0.3-0.4c0,0,0,0.1-0.2,0.2
						c0,0-0.1,0.1-0.1,0.1l0,0l-0.6,0.4c0.1-0.3,0.2-0.5,0.6-0.6c0-0.2,0-0.5,0.1-0.6c0.6,0.1,1.3-0.2,1.5,0
						c0.7-0.6,1.7-1.3,1.9-2.1c0.2-0.2,0.3,0,0.5,0c-0.1,0.1-0.2,0.2-0.3,0.3c0.3-0.4,1.2-0.9,1.1-1.3c0.6-0.2-0.1,0.5,0.6-0.1
						l0,0.2c1.8-0.6,1.7-2.4,3.7-3.1c-0.1,0.1-0.2,0.1-0.3,0.1c2-1.2,3.2-3.4,4.8-5c0.4-0.5,0.3-0.7,0.3-1.1l0.3,0
						c0-0.3,0-0.5,0-0.8c0.2-0.9,1.4-1.2,1.2-2.6l-0.2,0.1c0.2-0.4,0.2-1.3,0.4-1.2c0-0.1-0.2-0.2,0-0.3l0.2,0
						c0-0.4-0.1-0.7-0.1-1.1c0.2-0.8,0.6,0.2,0.7-1c0-0.5-0.4-1.3-0.5-1.1c0,0.2-0.1,0.5-0.3,0.5l-0.1-0.4c-0.5-0.1-0.9-0.4-1.3,0.6
						l0.2,0.7l-0.2,0.2c0-0.2,0-0.4,0-0.5c-0.2,0.3-0.1,0.5,0.1,0.7c-0.1,0-0.2,0.1-0.3,0.2l0.4,0.7c-0.2,0-0.3-0.3-0.5,0.1
						c0.2,0.3,0.5-0.2,0.5,0.3c-0.3,0.3-0.4,0.1-0.3,0.5c-0.1,0-0.2-0.1-0.2-0.2c0.1,0.3-0.1,0.8,0.1,1c-0.3,0.2-0.3,1-0.7,0.9
						c0.1,0.1,0.1,0.6,0,0.9c-0.3-0.7-0.5,1-0.9,0.6c0.3,0.6-0.5,1.3-0.7,2c0-0.1,0-0.2,0-0.2c-0.3,0.3-0.4,0.3-0.7,0.5
						c0.3,0.3,0,0.8-0.1,1.2c-0.6,0.1-0.2-0.5-0.5-0.6c0.3,0.2-0.3,0.8,0,0.9c-0.4,0.1-0.3,0.2-0.7,0.1c0.3,0.4-0.2,0.3-0.2,0.7
						c-0.6,0.2-0.4-0.2-0.7,0.3C-957.8,4028-957.5,4027.5-957.5,4027.5z M-968.7,4036.9L-968.7,4036.9l0.2-0.2L-968.7,4036.9z
						 M-969.7,4037.7c0.1-0.1,0.3-0.2,0.4-0.3c0.1,0.1,0.1,0.2,0,0.2C-969.2,4037.5-969.5,4037.6-969.7,4037.7z M-966.4,4037.7
						c-0.1,0.1-0.2,0.1-0.3,0.1c0.1-0.1,0.2-0.1,0.3-0.2l0,0C-966.4,4037.6-966.4,4037.6-966.4,4037.7z"/>
					<path class="st2" d="M-966.4,4037.2C-966.4,4037.2-966.3,4037.1-966.4,4037.2C-966.4,4037.1-966.4,4037.1-966.4,4037.2
						L-966.4,4037.2L-966.4,4037.2z"/>
					<path class="st2" d="M-966.4,4000.3L-966.4,4000.3C-966.4,4000.3-966.4,4000.3-966.4,4000.3
						C-966.4,4000.3-966.4,4000.3-966.4,4000.3z"/>
					<polygon class="st2" points="-980.3,4043.6 -980.4,4043.6 -980.2,4043.7 					"/>
					<path class="st2" d="M-959.9,4002.2c0,0,0,0.1,0,0.1C-959.9,4002.3-959.9,4002.2-959.9,4002.2z"/>
					<path class="st2" d="M-957.5,4003.7l0.3,0.3C-957.4,4003.9-957.4,4003.8-957.5,4003.7z"/>
					<path class="st2" d="M-956,4005.3c0.1,0,0.1,0,0.1-0.1l0,0L-956,4005.3z"/>
					<path class="st2" d="M-987.2,4002.6C-987.2,4002.6-987.3,4002.6-987.2,4002.6C-987.5,4002.6-987.4,4002.6-987.2,4002.6z"/>
					<path class="st2" d="M-977.9,4007.1c-0.1,0.1-0.2,0.3-0.3,0.4C-978,4007.4-977.8,4007.3-977.9,4007.1z"/>
					<polygon class="st2" points="-997.9,4003 -997.9,4003 -997.9,4003.1 					"/>
					<path class="st2" d="M-978.7,4008c0.2-0.1,0.4-0.3,0.5-0.4C-978.4,4007.7-978.5,4007.8-978.7,4008z"/>
					<path class="st2" d="M-952.1,4013.7l0,0.1c0,0,0,0,0,0L-952.1,4013.7z"/>
					<path class="st2" d="M-952,4013.8l0,0.1C-952,4013.8-952,4013.8-952,4013.8z"/>
					<path class="st2" d="M-951.9,4014.1l-0.1-0.2C-952,4014-952,4014.1-951.9,4014.1z"/>
					<path class="st2" d="M-952.7,4010.9l-0.1,0C-952.7,4010.9-952.7,4010.9-952.7,4010.9z"/>
					<path class="st2" d="M-953,4010c0.1,0.2,0,0.6,0.1,0.8l0.1,0C-953,4010.8-952.8,4010.2-953,4010z"/>
					<path class="st2" d="M-953.7,4006.1c0.1,0.2,0.3,0.5,0.4,0.7c0-0.2,0-0.4,0.3-0.1C-953.4,4005.7-953.2,4007-953.7,4006.1z"/>
					<path class="st2" d="M-955.2,4004.1c0.3,0.3,0.1-0.1,0.2-0.1C-955.3,4003.9-955.3,4003.8-955.2,4004.1z"/>
					<path class="st2" d="M-971.8,4001.6l-0.1-0.2C-972.2,4001.5-971.9,4001.4-971.8,4001.6z"/>
					<polygon class="st2" points="-974,4004.4 -973.6,4004.4 -973.7,4004.1 					"/>
					<polygon class="st2" points="-976.6,4004.1 -976.5,4004 -976.9,4004.4 					"/>
					<path class="st2" d="M-1002,4002.8l0.3,0.2C-1001.5,4002.8-1001.7,4002.5-1002,4002.8z"/>
					<path class="st2" d="M-1007.2,4014.6c-0.2,0.1-0.3,0.5-0.1,0.7C-1007.3,4015-1007.2,4014.8-1007.2,4014.6z"/>
					<polygon class="st2" points="-984.4,4043 -984.7,4042.9 -984.3,4043.2 					"/>
				</g>
			</g>
		</g>
	</g>
</g>
<g>
	<g>
		<g>
			<g>
				<g>
					<path class="st2" d="M-1000.6,4010c0.1,0,0.2,0.1,0.2,0.1L-1000.6,4010L-1000.6,4010z"/>
					<path class="st2" d="M-1000,4010.2c-0.1-0.1-0.4-0.3-0.6-0.4c0.3,0.2,0.1,0.1,0.5,0.3c0,0-0.1,0-0.2-0.1c0.1,0-0.1,0,0.1,0.1
						c0.2,0.1,0.3,0.1,0.1,0C-1000.1,4010.1-1000,4010.2-1000,4010.2z"/>
					<path class="st2" d="M-998.7,4009.1L-998.7,4009.1C-998.7,4009.1-998.7,4009.1-998.7,4009.1z"/>
					<path class="st2" d="M-997.9,4008.4C-997.9,4008.4-997.9,4008.5-997.9,4008.4C-997.8,4008.5-997.9,4008.4-997.9,4008.4z"/>
					<path class="st2" d="M-997.5,4008.6L-997.5,4008.6C-997.5,4008.6-997.5,4008.6-997.5,4008.6z"/>
					<path class="st2" d="M-998.7,4009.1L-998.7,4009.1C-998.6,4009-998.6,4009.1-998.7,4009.1z"/>
					<path class="st2" d="M-1000.6,4009.6C-1000.6,4009.6-1000.5,4009.6-1000.6,4009.6L-1000.6,4009.6L-1000.6,4009.6z"/>
					<polygon class="st2" points="-998.7,4009.6 -998.7,4009.6 -998.6,4009.7 					"/>
					<path class="st2" d="M-998.8,4009.9c0,0-0.2-0.2-0.3-0.2c0.1,0.1,0.1,0.1,0.2,0.1L-998.8,4009.9z"/>
					<path class="st2" d="M-999.5,4010.1L-999.5,4010.1L-999.5,4010.1z"/>
					<path class="st2" d="M-998.5,4009.4L-998.5,4009.4L-998.5,4009.4z"/>
					<path class="st2" d="M-990.1,4004.4L-990.1,4004.4C-990.1,4004.4-990.1,4004.4-990.1,4004.4z"/>
					<polygon class="st2" points="-990,4005.9 -990,4005.9 -990.1,4006 					"/>
					<path class="st2" d="M-997,4008.6L-997,4008.6C-997,4008.6-997,4008.6-997,4008.6z"/>
					<path class="st2" d="M-995,4007.1c-0.1-0.2-0.1-0.3-0.2-0.6C-995.2,4006.6-995.1,4006.9-995,4007.1z"/>
					<path class="st2" d="M-1000.5,4009.6C-1000.5,4009.6-1000.5,4009.6-1000.5,4009.6C-1000.5,4009.6-1000.5,4009.6-1000.5,4009.6z
						"/>
					<polygon class="st2" points="-995.3,4006.5 -995.3,4006.5 -995.3,4006.5 					"/>
					<path class="st2" d="M-996.7,4008.1L-996.7,4008.1L-996.7,4008.1z"/>
					<path class="st2" d="M-997.3,4008.1L-997.3,4008.1C-997.3,4008.1-997.3,4008.1-997.3,4008.1z"/>
					<path class="st2" d="M-996.7,4007.6C-996.7,4007.6-996.7,4007.6-996.7,4007.6L-996.7,4007.6
						C-996.7,4007.6-996.7,4007.6-996.7,4007.6z"/>
					<polygon class="st2" points="-996.5,4007.4 -996.5,4007.4 -996.5,4007.4 					"/>
					<path class="st2" d="M-991.1,4004.3l0,0.3C-991.1,4004.4-991.1,4004.3-991.1,4004.3z"/>
					<path class="st2" d="M-1000.4,4009.7C-1000.5,4009.6-1000.5,4009.6-1000.4,4009.7C-1000.5,4009.6-1000.5,4009.6-1000.4,4009.7
						L-1000.4,4009.7z"/>
					<path class="st2" d="M-998,4005.8L-998,4005.8C-998,4005.8-998,4005.8-998,4005.8z"/>
					<path class="st2" d="M-993.6,4004.4L-993.6,4004.4C-993.6,4004.3-993.6,4004.3-993.6,4004.4z"/>
					<path class="st2" d="M-997.8,4005.7c0.1,0.1,0.1,0.1,0.1,0.1l0-0.1L-997.8,4005.7z"/>
					<path class="st2" d="M-991.2,4004.6L-991.2,4004.6L-991.2,4004.6z"/>
					<path class="st2" d="M-990.7,4004c-0.1,0-0.1,0.4-0.1,0.6c-0.1,0.1,0-0.3,0-0.5c-0.1,0.1-0.1,0.4-0.2,0.4c0-0.1,0-0.1,0-0.2
						c-0.1,0.3-0.1,0-0.2,0.4l0-0.1l-0.1,0.5c0,0-0.1,0.2,0,0c0,0,0-0.1,0-0.2l0,0.1c0-0.3,0-0.1,0.1-0.4c-0.1,0.1-0.2,0.4-0.2,0.3
						c0-0.3,0.1-0.1,0.1-0.4l0,0.1c0-0.5,0,0,0.1-0.5c-0.1-0.1-0.1,0.2-0.2,0.1c0,0.2,0,0.3-0.1,0.5c-0.1,0.3,0-0.9-0.1-0.4
						c0,0.2-0.1,0.6-0.1,0.4l0.1-0.4c-0.1,0-0.1,0.5-0.1,0.3c0-0.1,0.1-0.1,0.1-0.2c0-0.3-0.1,0.2-0.1,0.2l0-0.3
						c-0.1,0-0.2,0.3-0.3,0.3c0-0.1,0-0.2,0-0.3c-0.1,0.2-0.2-0.1-0.3-0.3l0,0.3c0,0,0-0.1,0-0.2c0-0.1,0,0.2,0,0.3c0,0,0-0.2,0-0.3
						c-0.1,0.2-0.2,0.5-0.3,0.2l0-0.1c-0.1-0.1-0.1,0.6-0.1,0.3l0-0.1c-0.1-0.1-0.3,0.2-0.4-0.3c0,0.4-0.1-0.2-0.1,0.4
						c-0.1-0.3-0.1-0.4-0.2-0.6c0,0,0,0.4,0,0.4l0-0.3l0,0.3l-0.1-0.4l0,0.1c0,0,0,0.1,0.1,0.2c0,0.1-0.1-0.2-0.2-0.4l-0.1,0.3
						c0-0.1,0-0.2,0-0.2c0,0.3-0.1-0.3-0.1,0c0,0.1,0,0.2,0,0.2c-0.1-0.2-0.1-0.2-0.2-0.1l0-0.2c-0.1,0-0.2,0.1-0.3,0.1
						c0.1,0.1,0.1,0.5,0.1,0.5l-0.1-0.3c0,0.2,0.1,0.1,0.1,0.4c0,0-0.1-0.4-0.1-0.5l0,0.1c0-0.1,0-0.1,0-0.3c0,0.2-0.1-0.3-0.1,0
						l0-0.1c-0.1,0-0.1,0.1-0.2,0.2c0.1,0.3,0,0.2,0,0.4c-0.1-0.1-0.2-0.3-0.3-0.2c0,0.1,0,0.2,0.1,0.4c-0.1-0.2-0.1-0.2-0.1-0.4
						c-0.1,0.1-0.1,0.1-0.1,0.3c0,0.1,0.1,0.1,0.1,0.2c0,0-0.1-0.1-0.1-0.2l0,0c0,0.4-0.5-0.6-0.4-0.1l0,0v0.3c-0.1,0,0-0.2-0.1-0.3
						c0,0.4-0.2,0-0.2,0.3c-0.3-0.7-0.2,0.1-0.5-0.3l0.1,0.2c0,0.2-0.1-0.1-0.1-0.1c0.1,0.1,0.1,0.1,0.1,0.2
						c-0.1,0.3-0.5-0.1-0.8-0.1c-0.1,0,0.4,0.8,0.1,0.5l-0.1-0.3c0.1,0.4-0.3,0.2-0.2,0.5c0-0.1-0.1-0.2-0.1-0.2
						c-0.2-0.2-0.1,0.1,0,0.2c0,0-0.1-0.1-0.2-0.2c-0.1-0.1,0.1,0.3,0,0.1c0,0,0-0.1,0-0.1c0,0.1-0.1,0,0.1,0.2
						c-0.1-0.1,0,0.2-0.1,0.1c0.2,0.3-0.2-0.1,0.1,0.3c-0.3-0.4-0.3-0.2-0.2,0c-0.1-0.1-0.1-0.1-0.2-0.3c0,0,0,0.1,0.1,0.3
						c-0.4-0.4,0.1,0.4-0.3-0.1c0.1,0.3,0.1,0.5,0.1,0.6c-0.3-0.3,0.1-0.1-0.2-0.5c0,0.2,0.2,0.5,0.1,0.5c-0.1,0-0.1-0.2-0.2-0.2
						c0,0.2-0.2,0.1-0.1,0.3c0,0-0.1-0.1-0.1-0.1c0,0-0.1,0,0.1,0.1l0-0.1c0.2,0.2,0.4,0.5,0.5,0.6c-0.4-0.4-0.2-0.1-0.6-0.6
						c0,0,0.1,0.1,0.2,0.2c0,0-0.1-0.1-0.2-0.2c0,0.1,0.2,0.3,0.2,0.3c-0.1-0.1-0.1-0.1-0.2-0.2c0.1,0.2,0.2,0.3,0.1,0.3
						c0,0-0.1-0.1-0.1-0.1c0,0.1,0.3,0.5,0.1,0.4c-0.3-0.3-0.1-0.1-0.4-0.3l0,0.1l0.1,0.1c0,0,0.1,0.2,0,0.2l-0.1-0.1l0,0.1l0.1,0.1
						c0.1,0.2,0.3,0.3,0.2,0.3c0,0,0,0-0.2-0.1v0c0.1,0.1,0.2,0.2,0.1,0.2l-0.4-0.3c0.2,0.2,0,0.1,0.2,0.4c-0.1-0.1-0.2-0.2-0.2-0.2
						l0.2,0.2c-0.1,0-0.1-0.1-0.2-0.2c-0.1,0,0.4,0.3,0.2,0.2c0,0,0,0-0.1-0.1c-0.1,0,0,0.2-0.1,0.2c-0.3-0.2,0-0.1-0.3-0.3
						c0,0.1,0.2,0.4,0.1,0.4l0,0c0.4,0.3-0.2-0.1-0.1,0.1c0,0-0.2-0.2-0.2-0.2c-0.1,0,0,0.2,0.1,0.4l-0.1-0.1c-0.1,0-0.1,0-0.2,0
						c0.1,0.1,0.1,0.1,0.2,0.2c-0.7-0.4,0.2,0.4-0.4,0.1c0,0-0.1-0.1-0.1-0.1l0.1,0.1c0.2,0.1,0.1,0.1,0.3,0.2
						c0.1,0.1,0.2,0.2,0.2,0.2c-0.1-0.1-0.3-0.2-0.4-0.3l0.2,0.1c-0.4-0.2,0.4,0.3,0.1,0.2l-0.1-0.1c0,0.1,0.2,0.2,0.1,0.2
						c-0.2-0.1-0.1-0.1-0.3-0.2c0,0,0.4,0.3,0.1,0.2c-0.1-0.1,0-0.1-0.1-0.1c-0.3-0.1-0.2-0.1-0.3-0.1l0,0l-0.2,0l0.1,0
						c0.6,0.4,0.1,0.1,0.4,0.4c-0.3-0.3-0.2-0.1-0.5-0.3c-0.1,0-0.2-0.1-0.2-0.1c0.2,0.2-0.2-0.1,0.1,0.2c-0.1-0.1,0,0-0.2-0.1
						c0,0.1,0.1,0.1,0.3,0.1c0.3,0.2-0.4-0.1-0.1,0.2c0.1,0.2,0.4,0.3,0.5,0.5c-0.1-0.1-0.3-0.2-0.3-0.2c-0.1,0-0.1,0-0.1,0.1
						c-0.1,0-0.1-0.1-0.2-0.1c0,0,0.3,0.2,0.2,0.1l-0.3-0.2l0.3,0.3c-0.2-0.1-0.2-0.1-0.3-0.2c0,0.1,0.1,0.2,0.3,0.3l0.1,0
						c0,0-0.2-0.1-0.2-0.1c-0.2-0.1,0.1,0,0.2,0.1l0,0.1c0.5,0.3,0-0.1,0-0.1l0.4,0.2l-0.3-0.2c0.1,0,0.3,0.2,0.3,0.2
						c0.2,0.1-0.1-0.1,0.1,0c0,0,0,0,0.1,0l-0.1-0.1c0.1,0.1,0.3,0.1,0.2,0.1c0.2,0.1-0.2-0.2,0.1-0.1l0,0c-0.1-0.1-0.3-0.2-0.5-0.4
						l0.7,0.4l-0.3-0.2c0,0,0,0,0.1,0.1c-0.2-0.1-0.1-0.1-0.3-0.2c0.3,0.1-0.1-0.2,0.4,0.1c-0.2-0.1-0.2-0.1-0.3-0.2
						c0.5,0.3-0.1-0.1,0.2,0c0.2,0.2,0.1,0.1,0.3,0.2c-0.4-0.3,0.1,0,0.1-0.1c-0.3-0.2-0.1-0.1-0.2-0.2c0.1,0.1,0.2,0,0.4,0.1l0,0
						c-0.3-0.2-0.2-0.2-0.3-0.3c0.2,0.1,0.2,0.2,0.3,0.2l0,0c-0.1-0.1-0.1-0.1-0.2-0.2l0.2,0.2c0,0-0.2-0.3,0-0.2
						c-0.2-0.2-0.6-0.4-0.7-0.5c0.1,0.1,0.3,0.2,0.3,0.3c0,0-0.1-0.1,0-0.1l0.2,0.2c0.1,0-0.2-0.1-0.1-0.1c0.2,0.1,0.1,0.1,0.2,0.2
						c0,0-0.1,0,0,0c0,0,0.2,0.1,0.3,0.1c-0.1-0.1-0.2-0.2-0.2-0.2c0,0,0.2,0.1,0.3,0.2c-0.1-0.1,0,0-0.2-0.2c0,0,0.1,0.1,0.2,0.1
						c-0.1-0.1,0-0.1-0.2-0.3l0,0l0,0l0,0l0,0c-0.2-0.2,0.2,0,0.2-0.1l0.1,0.1c-0.1-0.1,0-0.1-0.1-0.3c0,0,0.2,0.1,0.2,0.2
						c0-0.1-0.1-0.1,0-0.1c0.1,0.1,0.1,0.1,0.1,0.1c0.1,0,0.2,0.1,0-0.1c0.2,0.2,0.3,0.2,0.2,0.1l-0.2-0.1c0,0,0,0,0,0l0.2,0.2
						c0.4,0.2-0.4-0.6,0.1-0.2c-0.2-0.2-0.2-0.1-0.3-0.3c0.1,0,0.4,0.3,0.4,0.3c0.2,0.1-0.3-0.4-0.2-0.3c-0.1-0.1-0.3-0.3-0.4-0.4
						c0.1,0,0.4,0.3,0.4,0.4c0,0,0,0-0.1,0c0,0,0,0.1,0.2,0.2l-0.1-0.1c0.1,0.1,0.1,0,0.3,0.2c-0.1-0.1-0.1-0.1-0.2-0.2
						c0.2,0.1,0.1-0.1,0.2,0c-0.1,0-0.2-0.1-0.2-0.1c0.2,0.1-0.1-0.2-0.1-0.3c0.1,0.1,0.3,0.3,0.2,0.2c0.1,0.1,0.2,0.2,0.3,0.3
						c-0.1-0.2,0.2,0.1,0.2,0.1l0.1,0.1c0-0.1,0-0.1,0-0.1l-0.2-0.2c0,0,0,0,0.1,0.1c-0.1-0.1-0.3-0.3-0.4-0.4
						c0.1,0.1,0-0.1,0.2,0.1c-0.1,0,0.2,0.2,0.2,0.3c0,0,0,0,0,0c0,0,0,0,0.1,0.1c0.2,0.2-0.2-0.3-0.2-0.3c0.1,0.1,0.2,0.2,0.2,0.2
						c0,0-0.2-0.2-0.3-0.3c0.1,0.1,0-0.1,0-0.1l-0.1,0c-0.1-0.1-0.1-0.1-0.1-0.2c0.1,0.1,0,0.1,0.1,0.1c-0.2-0.3,0.3,0.2,0.2,0
						c0.1,0.1,0.2,0.2,0.3,0.3c-0.1-0.2,0.2,0.2,0.1,0c-0.2-0.2-0.1-0.1-0.3-0.3l0.1,0.2l-0.2-0.3c0,0,0.1,0.1,0,0.1
						c-0.1-0.2-0.1-0.1-0.2-0.3c0.3,0.2-0.1-0.2,0.1,0l0.4,0.4c0.2,0.2-0.1-0.3,0-0.2l-0.1-0.1c-0.1-0.2,0-0.1,0-0.1
						c0.1,0.2,0.2,0.2,0.3,0.3c-0.1-0.1,0,0-0.2-0.3l0.2,0.2c0.1,0-0.3-0.5-0.2-0.5c0.1,0.2,0.2,0.3,0.3,0.4c0,0,0,0,0-0.1
						c0.1,0.1-0.1-0.2,0-0.1c0-0.1-0.2-0.2-0.1-0.2l0.1,0.1c-0.1-0.1-0.1-0.1-0.2-0.3c0.4,0.5,0.1-0.1,0.5,0.3c0-0.1,0-0.2,0-0.2
						c0,0.1,0.1,0.1,0,0.1c0.1,0.1-0.3-0.5-0.1-0.4c0.2,0.3,0.1,0.2,0.1,0.3c0.4,0.5,0-0.1,0.2,0.2l0,0c0.1,0.2-0.1-0.2,0-0.2
						l0.1,0.1c-0.1-0.3-0.1-0.4-0.1-0.5c0.1,0.2,0,0.1,0.2,0.3c0,0-0.2-0.4-0.2-0.4c0.1,0.1,0.2,0.2,0.3,0.4l0,0c0.2,0.3,0,0,0.1,0
						l0.1,0.1c0-0.1-0.2-0.4-0.1-0.4l-0.1-0.1c-0.1-0.4,0.1,0.2,0-0.1l0.2,0.3c0-0.1-0.1-0.4-0.1-0.5c0.1,0.3,0.1,0.4,0.2,0.6
						c0,0,0.1-0.1,0-0.2c0,0,0,0.1,0,0.1c-0.1-0.3-0.1-0.4-0.1-0.5c0.3,0.7,0.2,0.1,0.5,0.6c0-0.3,0.2,0,0.3,0c-0.3-0.5,0,0-0.2-0.6
						c0,0,0,0,0,0l0.2,0.3c0.1,0.2,0,0.1,0.1,0.3c0.1,0,0.1,0.2,0.2,0.4c-0.1-0.2-0.1-0.3,0-0.2l-0.1-0.3c-0.1-0.3,0.2,0.5,0.2,0.1
						l0,0.2c0-0.1,0.1,0,0-0.5c0,0.1,0.1,0.2,0.1,0.3c0.1,0,0-0.6,0.2-0.3l0,0.1c0,0-0.1-0.3,0-0.1c0,0.1,0,0.1,0,0.2
						c0-0.1,0-0.3,0-0.2l0,0.2c0.1,0.2,0-0.4,0-0.5c0.1,0.4,0.2,0.6,0.2,0.6l0,0.1c0.1,0,0.1-0.4,0.1-0.6c0.1,0.5,0.2,0.2,0.3,0.4
						c0-0.1-0.1-0.3,0-0.4c0,0.1,0-0.3,0.1,0.1l0,0c0.1,0.4,0.1,0.3,0.1,0.3l-0.1-0.5c0.2,0.8,0.2-0.3,0.3,0.4c0-0.1,0-0.1,0-0.3
						l0,0.3c0.1,0.1,0.1,0.1,0.1,0l0,0.2c0,0,0-0.8,0-0.8l0,0.4c0.1,0,0.1,0.4,0.2,0c0,0.1,0,0.2,0,0.2c0,0,0.1,0.3,0.1-0.3
						c0,0.4,0.1,0,0.1-0.1l0,0.3c0-0.4,0-0.5,0.1-0.6c0,0,0,0.2,0,0.2c0,0.1,0-0.3,0.1-0.1l0,0.2c0,0,0-0.1,0.1-0.3
						c0-0.1,0.1,0.1,0.1,0.3c0-0.2,0-0.4,0.1-0.3c0,0.1,0,0.2,0,0.2c0.1,0.2,0.1-0.3,0.1,0c0,0.1,0,0.1,0,0.2c0,0-0.1,0-0.1,0
						c0,0.3,0,0.3,0,0.7c0-0.2,0.1-0.6,0.1-0.5v0.1l0,0c0,0,0,0,0,0c0,0,0,0.1,0,0.1c0,0.2,0,0.1,0.1,0.1c0-0.3,0-0.2,0-0.5
						c0,0,0,0,0,0c0,0,0,0,0,0l0,0c0,0,0,0,0,0c0-0.1,0-0.3,0.1-0.1l0.1-0.4c0,0.4,0,0.6,0,0.9c0.1-0.2,0.1-0.1,0.2-0.6
						c0-0.1,0,0.2,0,0.2c0,0.1,0,0,0,0.1c0-0.1,0.1,0,0.2-0.4c0,0.2-0.1,0.3,0,0.3l0,0.1c0,0.6,0.3-0.9,0.3-0.1c0,0,0-0.1,0-0.1
						c0.1,0.4,0.4-0.3,0.4,0.3c0,0.1,0.1-0.1,0.1-0.3l-0.1,0.3l0.1-0.3c0.1-0.2-0.1,0.7,0.1,0.3l0-0.2c0,0,0.1-0.1,0.1,0.1
						c0,0,0.1-0.2,0-0.1l0,0.2l0.1-0.2c0,0.1-0.2,0.6-0.1,0.6c0-0.1,0.2-0.4,0.2-0.5c0,0,0-0.1,0.1-0.3l0.1-0.1
						c0.2-0.4,0.4-0.9,0.4-1.2l-0.1,0.3l0-0.2l0.1,0c0-0.2,0,0-0.1,0.1c0-0.1,0-0.2,0-0.2l-0.2,0.4c0-0.2,0.1-0.3,0.1-0.4
						c-0.1,0.2-0.1,0.4-0.2,0.5c0-0.2,0.1-0.4,0-0.2c0-0.1,0.1-0.2,0.1-0.2c-0.1,0.1-0.1,0-0.2,0.3c0-0.3-0.1,0,0-0.4
						c0,0.1-0.1,0.3-0.2,0.3c0.2-0.5-0.1-0.1,0.1-0.6c-0.1,0.5-0.2,0.2-0.3,0.4c0,0,0-0.1,0-0.1c0,0,0-0.2,0-0.3
						c-0.1,0.4-0.2,0.5-0.2,0.7c0-0.4,0.1-0.4,0.2-0.8c-0.1,0.3-0.1,0.3-0.2,0.6c0-0.2,0-0.1,0-0.4c-0.1,0.5,0,0.1-0.1,0.4
						c0-0.2,0.1-0.5,0-0.3C-990.8,4004.2-990.7,4004-990.7,4004z M-992,4004.7L-992,4004.7L-992,4004.7L-992,4004.7z M-992.1,4004.7
						C-992.1,4004.7-992.1,4004.7-992.1,4004.7c0,0.1,0,0.2,0,0.2C-992.1,4004.8-992.1,4004.8-992.1,4004.7z M-992,4006.7
						C-992,4006.7-992,4006.6-992,4006.7c0-0.1,0-0.1,0-0.1l0,0L-992,4006.7z"/>
					<path class="st2" d="M-992,4006.3C-992,4006.3-992,4006.3-992,4006.3L-992,4006.3L-992,4006.3L-992,4006.3z"/>
					<polygon class="st2" points="-998.7,4009 -998.7,4009 -998.7,4009 					"/>
					<polygon class="st2" points="-993.5,4004.2 -993.5,4004.3 -993.5,4004.2 					"/>
					<path class="st2" d="M-999.8,4008.9L-999.8,4008.9L-999.8,4008.9z"/>
					<path class="st2" d="M-1000,4009l-0.1,0C-1000,4009-1000,4009-1000,4009z"/>
					<polygon class="st2" points="-1000.2,4009.1 -1000.1,4009.2 -1000.1,4009.2 					"/>
					<path class="st2" d="M-998.6,4006.7C-998.6,4006.7-998.6,4006.7-998.6,4006.7C-998.6,4006.6-998.6,4006.7-998.6,4006.7z"/>
					<path class="st2" d="M-998.7,4007.8l-0.1-0.1C-998.8,4007.6-998.8,4007.7-998.7,4007.8z"/>
					<polygon class="st2" points="-998,4005.8 -998,4005.8 -998,4005.8 					"/>
					<path class="st2" d="M-998.8,4007.6C-998.8,4007.6-998.8,4007.6-998.8,4007.6C-998.8,4007.7-998.8,4007.7-998.8,4007.6z"/>
					<polygon class="st2" points="-1000.7,4009.7 -1000.7,4009.7 -1000.6,4009.7 					"/>
					<path class="st2" d="M-1000.6,4009.7L-1000.6,4009.7C-1000.6,4009.8-1000.6,4009.8-1000.6,4009.7z"/>
					<path class="st2" d="M-1000.6,4009.8L-1000.6,4009.8C-1000.6,4009.8-1000.6,4009.8-1000.6,4009.8z"/>
					<path class="st2" d="M-1000.4,4009.6L-1000.4,4009.6L-1000.4,4009.6z"/>
					<path class="st2" d="M-1000.4,4009.5c0,0-0.2-0.1-0.2,0L-1000.4,4009.5C-1000.7,4009.4-1000.3,4009.6-1000.4,4009.5z"/>
					<path class="st2" d="M-999.2,4009.9L-999.2,4009.9c0,0.1,0.1,0.1,0.1,0.2C-998.8,4010.2-999.3,4009.9-999.2,4009.9z"/>
					<path class="st2" d="M-999,4009.8c0,0.1,0.1,0.1,0.2,0.1C-998.9,4009.9-998.9,4009.9-999,4009.8z"/>
					<path class="st2" d="M-998.3,4008.9l0.2,0.2C-998.1,4009-998.2,4009-998.3,4008.9z"/>
					<polygon class="st2" points="-999.2,4007.9 -999.3,4007.8 -999.1,4007.9 					"/>
					<polygon class="st2" points="-997.7,4009 -997.7,4009 -997.7,4008.9 					"/>
					<path class="st2" d="M-996.4,4007.7l-0.2-0.3C-996.6,4007.5-996.4,4007.8-996.4,4007.7z"/>
					<path class="st2" d="M-995.9,4007C-995.8,4007.1-995.7,4007.2-995.9,4007C-995.8,4007-995.9,4006.9-995.9,4007z"/>
					<polygon class="st2" points="-993.5,4006.7 -993.5,4006.8 -993.4,4006.8 					"/>
				</g>
			</g>
		</g>
	</g>
</g>
</svg>
