<?xml version="1.0" encoding="utf-8"?>
<!-- Generator: Adobe Illustrator 19.1.0, SVG Export Plug-In . SVG Version: 6.00 Build 0)  -->
<svg version="1.1" id="Layer_1" xmlns="http://www.w3.org/2000/svg" xmlns:xlink="http://www.w3.org/1999/xlink" x="0px" y="0px"
	 viewBox="-2728.3 5743.9 65.9 57" style="enable-background:new -2728.3 5743.9 65.9 57;" xml:space="preserve">
<style type="text/css">
	.st0{display:none;fill:#F1F2F2;}
	.st1{display:none;fill:#A7A9AC;}
	.st2{fill:#D64667;}
</style>
<rect x="-2770" y="2771.3" class="st0" width="590" height="7550"/>
<rect x="-2726" y="5739.2" class="st1" width="64" height="64"/>
<g>
	<g>
		<g>
			<g>
				<g>
					<path class="st2" d="M-2670.1,5756.9c0.1,0,0.2-0.2-0.1-0.3l-0.3,0.2L-2670.1,5756.9z"/>
					<path class="st2" d="M-2671.2,5755.6c-0.3,0-0.7,0.1-0.7,0.5c0.4-0.2,0.4,0,0.8-0.2c0.2,0.1,0.3,0.3,0.2,0.4
						c0.1,0,0.3,0.2,0.5,0.1c-0.1-0.4-0.5-0.5-0.9-0.5C-2671.3,5755.8-2671.2,5755.6-2671.2,5755.6z"/>
					<path class="st2" d="M-2690.4,5745.4l0.1,0.1C-2690.3,5745.5-2690.3,5745.5-2690.4,5745.4z"/>
					<path class="st2" d="M-2703.1,5747.6c0.1,0,0.1-0.1,0.1-0.1L-2703.1,5747.6z"/>
					<path class="st2" d="M-2705.3,5748.2L-2705.3,5748.2C-2705.2,5748.1-2705.3,5748.1-2705.3,5748.2z"/>
					<path class="st2" d="M-2690.4,5745.4l-0.3-0.3C-2690.7,5745.4-2690.5,5745.4-2690.4,5745.4z"/>
					<path class="st2" d="M-2674.2,5755c0.1,0,0.1,0,0.2,0H-2674.2L-2674.2,5755z"/>
					<path class="st2" d="M-2684.9,5747.9L-2684.9,5747.9c0.1,0,0.2,0,0.2,0H-2684.9z"/>
					<path class="st2" d="M-2680.8,5749.9c-0.1-0.1-0.2,0.2-0.3,0.3c0.1-0.1,0.2-0.1,0.3-0.1
						C-2680.9,5750-2680.8,5749.9-2680.8,5749.9z"/>
					<path class="st2" d="M-2674.6,5753.5h0.1H-2674.6z"/>
					<path class="st2" d="M-2687.8,5746.4v-0.1V5746.4z"/>
					<path class="st2" d="M-2671.1,5778.5L-2671.1,5778.5L-2671.1,5778.5z"/>
					<path class="st2" d="M-2669.7,5773.2L-2669.7,5773.2c0.1,0.1,0.1,0.1,0.2,0.1L-2669.7,5773.2z"/>
					<path class="st2" d="M-2709.3,5749.5L-2709.3,5749.5C-2709.2,5749.5-2709.3,5749.5-2709.3,5749.5z"/>
					<path class="st2" d="M-2720,5782.9c0.3-0.4,0.3,0.7,0.6,0.1C-2719.5,5783-2719.8,5782.4-2720,5782.9z"/>
					<path class="st2" d="M-2674.3,5754.9c-0.1,0-0.1-0.1-0.2-0.1C-2674.4,5754.9-2674.3,5754.9-2674.3,5754.9z"/>
					<polygon class="st2" points="-2719.4,5782.9 -2719.4,5782.9 -2719.3,5782.9 					"/>
					<path class="st2" d="M-2718.1,5753.6l0.1,0.1C-2718,5753.8-2718,5753.6-2718.1,5753.6z"/>
					<path class="st2" d="M-2711.3,5751.1h-0.2C-2711.5,5751.1-2711.4,5751.1-2711.3,5751.1z"/>
					<path class="st2" d="M-2719.6,5757.8c0,0.1-0.1,0.1,0,0.3l0,0C-2719.6,5757.9-2719.7,5757.9-2719.6,5757.8z"/>
					<path class="st2" d="M-2719.6,5761.6C-2719.6,5761.6-2719.6,5761.5-2719.6,5761.6v-0.2V5761.6z"/>
					<path class="st2" d="M-2673.1,5787.5c0.1,0,0.2,0.1,0.3,0.1C-2673,5787.5-2672.5,5787.2-2673.1,5787.5z"/>
					<path class="st2" d="M-2674.1,5754.9c-0.1,0.1-0.1,0.1-0.2,0.1h0.1C-2674.1,5754.9-2674.1,5754.9-2674.1,5754.9z"/>
					<path class="st2" d="M-2717.4,5757.9v0.6C-2717.4,5758.4-2717.4,5758.1-2717.4,5757.9z"/>
					<path class="st2" d="M-2697.1,5796.5h0.1C-2697,5796.5-2697,5796.4-2697.1,5796.5z"/>
					<path class="st2" d="M-2717.4,5760.4c-0.1,0.1-0.2,0.2-0.2,0.3c0,0,0,0.1,0.1,0.1L-2717.4,5760.4z"/>
					<path class="st2" d="M-2672.9,5787.8L-2672.9,5787.8L-2672.9,5787.8z"/>
					<path class="st2" d="M-2671.4,5786.1c0,0.1,0.4,0.1,0.6,0.2c0.1,0.3-0.3,0-0.5,0v0.1c0.1,0.1,0.2,0.4,0,0.4l-0.1-0.1
						c0,0.1-0.1,0.2-0.2,0.3c-0.1,0.1-0.3,0.2-0.4,0.3c-0.3,0.2-0.6,0.3-0.8,0.6c-0.1,0-0.1,0-0.1-0.1c0.2,0.1,0.3,0.3,0.3,0.4
						c-0.2,0.1-0.3,0.4-0.5,0.2c0.1-0.1,0.1-0.2,0.2-0.3l-0.2,0.2c-0.4-0.2,0.3-0.3,0.2-0.5c-0.4,0.3-0.9,0.9-1.3,1
						c-0.2-0.3,0.8-0.5,0.2-0.6l0.6-0.2c-0.7-0.3,0.4-0.1-0.3-0.5c-0.8,0.3-0.8,0.6-1.6,0.8c-0.1,0.3,0.2,0.2,0.1,0.5
						c-0.9,0.8-1.2-0.4-1.8,0.4c-0.1,0.3,0,0.7-0.7,0.8v-0.4c-0.8,0.3-0.2,0.7-1.1,0.8c0.1-0.2,0.5-0.4,0.4-0.4
						c-0.6,0-0.3,0.4-0.6,0.6l-0.2-0.3c-0.8,0.4-1.5,1.1-2.4,1.5c0-0.1,0.1-0.3-0.1-0.3c-1,0.7-2.4,1.1-3.5,1.4l-0.3,0.5
						c-0.1,0-0.2,0-0.2-0.1c-0.5,0.1,0.1,0.2-0.1,0.4c-0.2,0.1-0.4,0-0.3-0.2c-0.6,0.6-1.8,1.5-2.7,1.6l0.1-0.1
						c-0.6,0.2-0.4,0.9-1.1,0.9l0.1-0.1c-1.3,0.5-2.7,1.4-3.8,1.5c0,0.2-0.3,0.3-0.7,0.5c-0.1,0-0.2,0.1-0.2,0.1s-0.1,0-0.1,0.1
						s-0.1,0.1,0,0.3c-0.1,0-0.2-0.1-0.2-0.1c-0.1-0.1-0.1-0.2-0.1-0.3l-0.1-0.1c0,0,0,0,0-0.1l-0.2-0.2c-0.2-0.2-0.6,0.1-0.9-0.1
						l0.2-0.3h-0.6v-0.5l-0.3-0.1c0.1,0.1,0.2,0.3,0.1,0.3c-0.5-0.2-1-0.9-1-1l-1.3-0.5c0.1-0.1,0.3,0,0.5,0
						c-0.8-0.1,0.1-0.3-0.6-0.4c0,0.1-0.1,0.1-0.2,0.2c-0.2-0.3-0.8-0.7-1.3-0.9l0.2-0.1c-0.8-0.6-1.8-1-2.7-1.6
						c0.3,0.3,0,0.6-0.3,0.4l0.1-0.3c-0.3,0.1,0.2,0.3-0.3,0.3c-0.3-0.2,0-0.5,0.2-0.4l-0.5-0.2c0-0.1,0.2-0.1,0.2-0.2
						c-0.3,0.1-0.6-0.7-1-0.6v-0.1c-0.9-0.6-1.4-0.8-2.2-1.2c-0.2,0.2-0.4,0-0.8,0c-0.5-0.4-1-1-1.7-1.4c-0.5-0.2-0.3,0.1-0.6,0.1
						c0.1-0.2-0.6-0.6-0.1-0.6c-0.8-0.5-1.1-0.6-2.2-1.1c0.1,0.2,0.2,0.3,0,0.3c-0.2-0.1-0.4-0.4-0.3-0.4h0.1
						c-1.4-0.4-2.2-2.3-3.4-2.4h0.1l-1.1-0.4c-0.4-0.3,0.4,0,0.1-0.3c-0.2,0-0.3-0.1-0.5-0.1l-0.2-0.1c0,0,0,0-0.1,0
						c-0.1,0-0.2-0.1-0.2-0.2s0-0.2,0-0.2v-0.1c0-0.1,0-0.2-0.1-0.3c0.8-0.8-0.1-2.7,0.4-3.8l-0.2,0.1c-0.2-0.3,0.1-0.3,0.1-0.5
						c-0.1,0-0.2,0.3-0.3,0.1c-0.2-2.3,0.3-4.7,0.4-7c0-0.9-0.9-0.5-0.5-1.6l0.3,0.3c-0.4-1.7,0-3.5-0.3-5.2
						c0.1,0.1,0.2,0.1,0.2,0.3c0.2-0.4,0-1.3-0.2-1.3c0-0.3,0.2-0.1,0.3-0.2c0.1-0.4-0.3-0.9-0.1-1.1c0,0,0.1,0.1,0.1,0.2
						c-0.1-0.2,0-1.1-0.2-0.9c0.1-0.6-0.1-1.2,0-1.7c-0.3-0.3,0.1-1.1-0.3-1.2c0.5,0,0.4-1.1,0.2-1.5c0.1,0.1,0.1-0.3,0.3-0.2
						c0-0.5-0.1-0.9-0.3-0.8c0.2-0.3,0.2-0.7,0.1-0.7c-0.1-0.1-0.2-0.3-0.1-0.3c0.1,0,0.2,0,0.3,0.1c0,0,0-0.1,0.1-0.1
						c0,0,0,0,0-0.1l0.2-0.1l0.8-0.5c0.5-0.3,1.1-0.6,1.6-0.9c0.1,0.4-1.2,0.6-1,1c1-0.6,1.4-1.3,2.5-1.6c0.3-0.1-0.1,0.2-0.1,0.4
						c1-0.6,2.1-0.9,2.9-1.5c0,0-0.1,0.1-0.1,0.2c0.2-0.1,0.5-0.1,0.4-0.3l-0.2,0.1c-0.4-0.1,0.5-0.9,0.5-1.1
						c-0.1,0.7,1-0.3,0.8,0.6c0.1-0.1,0.2-0.2,0.1-0.4c0.2,0,0.3,0,0.2,0.2c0.6-0.4,0.3-0.5,0.9-0.7c0,0.1-0.1,0.2-0.1,0.3
						c0.2-0.3,0.5-0.6,1-0.8c0,0.1,0.1,0.1-0.1,0.2c0.9-0.4,1.3-1.1,2.3-1.4c-0.1,0.5,0.4,0,0.6,0.3l0.5-0.3l-0.3-0.1
						c0.5-0.2,0.7-0.6,1.2-0.7l-0.3,0.3l0.8-0.4l-0.5,0.1c0.4-0.4-0.2-0.4,0.4-0.6c-0.1,0.1,0.5-0.2,0.8-0.1l0,0
						c0.2-0.2,0.4-0.4,0.7-0.5c0.1,0.1,0.1,0.4,0.2,0.5c0.1-0.4,1-0.5,1.2-1c-0.1,0.1,0,0.3,0.1,0.3l0.1-0.3c0.2,0,0.3,0,0.3,0.2
						c0.6-0.2-0.4-0.3,0.4-0.5c0,0,0,0.1-0.1,0.2c0.8-0.2,1.4-0.8,2.1-1c0.4,0.3-0.6,0.3-0.2,0.5c0.5-0.2,0.9-0.6,1.4-0.9
						c0.4-0.3,1-0.6,1.3-0.7h-0.1c0-0.3,0.2-0.3,0.4-0.3c0.2,0.2,0.3,0.4,0.5,0.4c-0.1,0-0.2,0.2-0.2,0.2c0.1,0.1,0.2,0.2,0.4,0.2
						c0.2,0.1,0.4,0.1,0.6,0.2l1.4,0.4l-0.2,0.1c0.3,0.3,1,0.6,1.3,0.8c0.2-0.1,0.4,0.1,0.4-0.2c0.9,1.3,2.6,0.8,3.4,2
						c-0.1-0.1-0.4-0.1-0.3,0l1,0.4c0-0.2-0.1-0.2-0.2-0.4c0.2-0.1,0.5,0,0.7,0.1c-0.5-0.1-0.2,0.3,0,0.5c0-0.1,0.1-0.1,0.1-0.2
						c0.3,0.6,0.3-0.4,0.8,0.2l-0.1,0.1c0.3,0.1,0.6,0,0.8,0.2c0,0.3-0.3,0-0.4,0.2c0.4,0.2,1-0.1,1.2,0.3c-0.2,0-0.4-0.1-0.6-0.1
						c0.2,0.5,0.3,0.4,0.6,0.6l0,0l0.6,0.5l-0.1-0.2c0.8-0.4,1,0.4,1.9,0.3c-0.8,0.1-0.2,0.2-0.4,0.4c0.1,0.2,0.3,0.4,0.2,0.4
						c0.4-0.1,0.4,0.4,1,0.3c0,0.1,0.3,0.2,0.1,0.4c0.4,0.1,0-0.2,0.1-0.3c0.8,0,1.3,1.1,2.4,1.1c0.8,0.2,1.1,0,1.9,0.2
						c0.2,0.3-0.4,0.2-0.4,0.2c0.3,0.3,0.6,0.4,1,0.5c-0.1,0-0.1,0.1,0,0.3c0.3,0.1,0.4-0.2,0.7,0.1c-0.1,0.1-0.3,0.2-0.5,0.2
						c0.4,0.1,0.8,0.1,1.2,0.2c0,0.2-0.3,0.1-0.5,0.2c0.4,0.1,1.1,0.4,1.3,0.2l-0.2-0.2c0.2,0.1,0,0.2-0.2,0.2
						c-0.4,0-0.5-0.3-0.4-0.4l0.3,0.1c0-0.6-1.1-0.4-1.6-0.7l0.4-0.3h-0.7c-0.1-0.2,0-0.4,0.2-0.3c-0.3-0.4-0.4,0-0.6-0.4v-0.1
						l-0.4-0.1c0.1,0,0.1-0.3,0.3-0.1c-0.5-0.5-1.2-0.2-1.3-0.6h0.1c-1-0.3-0.2,0.2-1,0.2l-0.1-0.9l-0.2,0.2
						c-0.1-0.1-0.3-0.2-0.2-0.3c-0.4,0,0,0.1-0.3,0.2c-0.3-0.5-1.3-0.5-1.2-1c-0.3,0.1,0.3,0.4-0.2,0.3c0.1-0.5-0.6-0.2-0.9-0.6
						c0.2-0.2,0.6,0.1,0.3-0.3c-0.4,0.3-0.7-0.5-1.1-0.6c-0.2,0.3-0.8-0.2-1.4-0.4c0.1-0.1-1-0.7-1.5-1.1l0,0
						c-0.3,0.3-0.8-0.1-1.2-0.2c0.1-0.2,0.2-0.2,0.5-0.2l-0.4-0.2c-0.1,0.1-0.3,0.1-0.5,0l0.2-0.2c-0.5-0.2-1.1-0.2-1.7-0.7
						c-0.2,0.2,0.2,0.9-0.6,0.7c0-0.1,0.1-0.4,0.3-0.3c-0.1,0-0.3,0-0.3-0.1l0.4-0.1c-0.2-0.2-0.2,0.1-0.5,0c0.1-0.2-0.1-0.2,0-0.3
						c0.1,0,0.2,0.2,0.3,0.1c-0.2-0.2-0.5-0.4-0.6-0.6c0,0.1-0.1,0.2-0.3,0.2c-0.5-0.2-0.1-0.3-0.3-0.5c-0.2,0.1-0.4-0.2-0.6,0
						c-0.1-0.1-0.1-0.2-0.1-0.3c-0.3,0-1.2-0.6-1.1-0.1l0.1,0.1l0,0l0,0l0,0c-1-0.2-1.7-1-2.6-1.3v-0.1c-0.3-0.1-0.7-0.3-1-0.4
						c-0.3,0.2-0.6,0.3-0.8,0.5c-0.2,0.1-0.4,0-0.4-0.1c-0.4,0.2-0.4,0.4-1,0.5c0.3-0.3-0.2-0.1,0.4-0.3c-0.5,0.1-0.7,0.1-1.2,0.5
						c0.1-0.3-0.5-0.1-0.7,0.1h0.4c-0.3,0.2-0.5,0.2-0.8,0.3v-0.4c-1.2,0.1-1.6,1.5-2.7,1.2c-0.2,0.3,0.6-0.1,0.5,0.3
						c-0.5,0.2-1.2,0-1.3,0c-0.7,0.1-0.4,0.7-1.2,0.9c0.1,0.1,0.3,0.3-0.1,0.7c-0.5,0.2-0.8-0.2-0.5-0.4c0.1-0.1,0.2,0,0.2,0
						c0.1-0.1,0.3-0.2,0.1-0.3v0.1c-0.3,0-0.9,0.3-0.9,0c-0.3,0.3-0.1,0.2,0.2,0.2c-0.7,0.1-1,0.4-1.6,0.6c0.1,0,0.3,0.1,0.2,0.1
						c-1,0.3-0.3,0.4-0.9,0.7c-0.4,0,0-0.5-0.6,0c-0.4,0.1-0.2-0.3-0.1-0.4c-0.5,0.5-1.1,0.3-1.5,0.4l0.3-0.2
						c-0.2,0.1-0.3,0.2-0.5,0.3l0.3,0.1c-0.2,0-0.3,0.1-0.4,0c-0.1,0.2,0.3,0.3,0,0.7c-0.3,0-0.7,0.4-0.9,0.2
						c0.8-0.2-0.2-0.3,0.4-0.6c-0.1,0.1-0.3,0.2-0.5,0.2v-0.1c-0.8,0.1-0.2,0.5-0.9,0.8c0-0.2-0.3-0.2-0.4-0.1
						c0.3-0.1,0.3,0.2,0,0.5c-0.5,0.1-0.5,0.3-0.7,0.4l0.3-0.1c0,0.2-0.3,0.3-0.6,0.5c-0.1-0.1,0.3-0.2,0.1-0.2
						c-0.2,0.4-1,0.1-1.4,0.5c-0.3,0-0.2-0.3-0.4-0.3c-0.5,0.5-0.7,0.1-1.2,0.5c0.3,0.1,0.3,0.1-0.1,0.5l0.9-0.6l-0.5,0.6
						c0.3-0.1,0.6-0.4,0.8-0.5c-0.2,0.3-0.2,0.2,0,0.4c-0.6-0.1-0.7,0.5-1.3,0.5l-0.2-0.5c-0.8,0.1-1.1,0.8-2.1,1.1h0.3
						c0,0.3-0.6,0.3-0.8,0.5c-0.1-0.2-0.3-0.2-0.4-0.2c0,0,0,0.1-0.1,0.1c0,0-0.1,0.1-0.3,0.2c-0.3,0.1-0.5,0.3-0.5,0.5
						c-0.3,0-0.5,0-0.8,0.1h-0.1c0,1.1,0.6,1.6,0.5,2.3c-0.2-0.2-0.4,0.1-0.5-0.4c0,0.3,0,0.5,0.1,0.5c-0.1,0.2,0.3,0.7,0.1,1
						c0.1,0.1,0.3,0.1,0.3,0.4h-0.1c0.1,0,0.1,0.5,0.4,0.2c-0.6,0.8,0,2.3-0.5,3c0.1,0.6,0.1,1.3,0.1,1.8c-0.1,0-0.1,0-0.1-0.1
						c-0.2,0.7,0.6,0.4,0.4,1.3c-0.3,0.4-0.2-0.4-0.3-0.2c-0.6,0.1,0.1,1-0.3,1.5v-0.1c-0.2,0.4,0.2,1,0.2,1.7h-0.1
						c0.3,0.5,0.4,1.4,0.5,2c-0.3-0.2-0.1-0.3-0.4-0.2c0,0.3,0.4-0.1,0.5,0.5c-0.1,0.2-0.3,0.6-0.5,0.7v-0.6c-0.4,0.3,0,0.7,0,1
						h-0.2c0.1,0.9,0.4,0.9,0.4,1.8l0.1-0.1c0.4,0.5-0.2,0.4,0.1,0.9l-0.4,0.2c0.1,0.3,0.4,1.2,0.5,1.8c-0.3-0.3-0.4-1-0.6-1.5
						c0,0.3,0,1.1,0.2,1.3c0-0.1-0.1-0.3-0.1-0.4c0.3,0.4,0.5,0.9,0.5,1.6c-0.8-0.1-0.2,1.7-0.8,2.2c0.3,1.2-0.1,2.3-0.1,3.6
						c0.6-0.5,0,0.4,0.6,0.3c0,0.3,0,0.4,0,0.5c-0.1,0.3-0.2,0.7-0.4,1.3c-0.2,0.4-0.1-0.4-0.3-0.4c0,1.1-0.2,0.7-0.4,1.3l0.1,0.1
						c0.1-0.2,0.6,0,1.2,0.5c-0.2-0.2-0.4-0.5-0.6-0.7c1.6,0.6,0.8,1.1,1.8,1.4h-0.4c0.5,0.2,1.5,1,2.2,0.8c0,0.1,0,0.3-0.2,0.2
						c1,0.7,2.5,1,3.1,1.7l-0.2,0.1c0.2,0.1,0.5,0,0.6,0.2c0,0-0.2,0.1-0.1,0.1c0.1,0,0.6,0.1,0.8,0.3h-0.3c0.9,0.8,1.7,0.6,2.6,1
						c-0.2,0.4,0.5,1,0.8,1.3l0,0c1.1,0.8,2.1,0.9,3.3,1.4c0.4,0.8,2.1,1.6,3,2.4c-0.1-0.2,0.2-0.3,0.4-0.2c0.2,0.2,0.8,0.2,0.6,0.5
						l-0.1-0.1c0,0.5,0.5,0.7,0.9,0.9l0.3-0.4c0.6,1.3,2.9,1.5,3.1,2.4c0.3,0,0.6,0.2,1,0.3l-0.2,0.2l1.4,0.9l0.9-0.4l0.5-0.3
						l0.4-0.2l-0.1,0.3c0.5-0.2,0.3-1,0.8-1.3l0.3,0.3c0.9-0.4,2-0.5,2.7-1.3c0,0.1,0,0.2-0.1,0.3c0.4-0.2,1.8-0.5,1.4-1
						c0.2,0.3,0.9-0.4,1.4-0.8v0.3c0.3-0.5,0.2-0.6,0.8-1c0.2,0,0.2,0.1,0,0.2c0.5-0.1,0.2-0.4,0.8-0.5l-0.1,0.3
						c0.5-0.2,0.4-0.3,0.6-0.6c0.2-0.2,0.9-0.4,1.1-0.2c0-0.2,0.2-0.5,0.5-0.5c0.1,0.1,0,0.2,0,0.2c0.9-0.2,1-0.8,1.7-0.9
						c0.1,0.1,0.1,0.1,0.2,0.1c-0.6,0.3-1.1,0.5-1.1,0.5c0.1,0.2,0.6,0,0.4,0.5c0.3-0.4,0.8-1.1,1.4-1.2c0,0,0.1,0,0.1,0.1l0,0
						c0.1,0,0.2-0.1,0.3-0.2c0.2,0,0.3-0.1,0.4-0.1c0.1,0.2,0.6-0.2,0.9-0.3c-0.1-0.2,0.2-0.4-0.2-0.4c0,0,0,0.1-0.2,0.1l-0.1,0.1
						l0,0l-0.6,0.3c0.1-0.2,0.3-0.4,0.6-0.4c0-0.2,0.1-0.5,0.2-0.6c0.5,0.2,1.3,0.1,1.5,0.2c0.7-0.5,1.7-1,2-1.7
						c0.2-0.2,0.3,0,0.4,0.1c-0.1,0.1-0.3,0.2-0.3,0.3c0.4-0.3,1.3-0.7,1.2-1c0.6-0.1-0.2,0.5,0.6,0l-0.1,0.1
						c0.9-0.1,1.4-0.6,1.9-1.1c0.3-0.2,0.5-0.5,0.9-0.7c0.3-0.2,0.6-0.3,1.4-0.4c-0.2,0-0.3,0.1-0.3,0c0.3-0.1,0.7-0.3,1.1-0.4
						c0-0.3,0-0.6,0-0.9v-0.8l-0.1-1.4c0-0.9,0-1.8,0.2-2.7c0.1-0.6-0.1-0.6-0.3-1l0.3-0.1l-0.3-0.6c-0.3-0.9,0.7-1.5,0.3-2.6
						l-0.2,0.1c0-0.4-0.1-1.2,0.1-1.2c0,0-0.2-0.1-0.1-0.3h0.2l-0.3-1c0.1-0.7,0.6,0.1,0.7-1c-0.1-0.4-0.5-1.1-0.6-1
						c0,0.2-0.1,0.4-0.3,0.4l-0.1-0.4c-0.5-0.1-0.9-0.4-1.3,0.6l0.3,0.6l-0.2,0.2v-0.5c-0.2,0.3,0,0.5,0.1,0.7
						c-0.1,0.1-0.2,0.1-0.2,0.3l0.4,0.6c-0.2,0.1-0.4-0.3-0.5,0.1c0.2,0.3,0.4-0.3,0.5,0.2c-0.2,0.3-0.4,0.2-0.2,0.6
						c-0.1,0-0.2,0-0.2-0.2c0.1,0.3,0.1,0.8,0.3,1c-0.3,0.3,0.1,1.1-0.4,1c0.1,0.1,0.3,0.6,0.4,0.8c-0.5-0.5,0,1.1-0.6,0.9
						c0.5,0.4,0.2,1.4,0.5,2.1c0,0-0.1-0.1-0.1-0.2c0,0.4-0.2,0.5-0.3,0.8c0.4,0,0.5,0.7,0.7,1c-0.4,0.5-0.5-0.3-0.8-0.1
						c0.3,0,0.3,0.8,0.6,0.7c-0.2,0.4-0.1,0.3-0.4,0.5c0.5,0.1,0.1,0.3,0.4,0.6c-0.1,0.3-0.2,0.3-0.3,0.3c0,0-0.1,0-0.1,0.1
						s0,0.1,0,0.1c-0.1,0-0.2,0-0.2,0C-2671.4,5786.1-2671.4,5786.1-2671.4,5786.1z M-2681.5,5792L-2681.5,5792l0.2-0.1
						L-2681.5,5792z M-2682.6,5792.5c0.1-0.1,0.3-0.1,0.5-0.2c0.1,0.1,0.1,0.2,0,0.2C-2682.1,5792.5-2682.4,5792.5-2682.6,5792.5z
						 M-2679.5,5793.2c-0.1,0.1-0.2,0.1-0.3,0.1c0.1,0,0.2-0.1,0.3-0.2l0,0V5793.2z"/>
					<path class="st2" d="M-2679.4,5792.8L-2679.4,5792.8L-2679.4,5792.8L-2679.4,5792.8L-2679.4,5792.8z"/>
					<path class="st2" d="M-2690.2,5745.5L-2690.2,5745.5C-2690.2,5745.5-2690.2,5745.6-2690.2,5745.5
						C-2690.2,5745.6-2690.2,5745.6-2690.2,5745.5z"/>
					<polygon class="st2" points="-2695.9,5797 -2695.9,5797.1 -2695.8,5797.1 					"/>
					<path class="st2" d="M-2685,5749.4v0.1C-2684.9,5749.4-2684.9,5749.4-2685,5749.4z"/>
					<path class="st2" d="M-2682.5,5750.5l0.3,0.3C-2682.3,5750.8-2682.4,5750.6-2682.5,5750.5z"/>
					<path class="st2" d="M-2680.7,5751.6C-2680.6,5751.6-2680.6,5751.6-2680.7,5751.6L-2680.7,5751.6L-2680.7,5751.6z"/>
					<path class="st2" d="M-2710.5,5752.8C-2710.5,5752.8-2710.5,5752.9-2710.5,5752.8C-2710.7,5752.9-2710.6,5752.9-2710.5,5752.8z
						"/>
					<path class="st2" d="M-2701.5,5748.1c-0.1,0.1-0.2,0.2-0.2,0.3C-2701.6,5748.4-2701.5,5748.2-2701.5,5748.1z"/>
					<polygon class="st2" points="-2717.4,5757.9 -2717.4,5757.9 -2717.4,5757.9 					"/>
					<path class="st2" d="M-2702.2,5748.5c0.2,0,0.3-0.1,0.4-0.2C-2701.9,5748.4-2702.1,5748.4-2702.2,5748.5z"/>
					<path class="st2" d="M-2672.5,5755.9L-2672.5,5755.9c0.1,0,0.1,0,0.1,0H-2672.5z"/>
					<path class="st2" d="M-2672.4,5755.9L-2672.4,5755.9C-2672.3,5755.9-2672.4,5755.9-2672.4,5755.9z"/>
					<path class="st2" d="M-2672,5755.9h-0.2C-2672.2,5755.9-2672.1,5756-2672,5755.9z"/>
					<path class="st2" d="M-2675,5754.5L-2675,5754.5L-2675,5754.5z"/>
					<path class="st2" d="M-2675.7,5754.1c0.2,0.1,0.4,0.4,0.6,0.5l0.1-0.1C-2675.2,5754.6-2675.5,5754-2675.7,5754.1z"/>
					<path class="st2" d="M-2678.4,5751.4l0.6,0.4c-0.1-0.2-0.1-0.4,0.2-0.2C-2678.3,5750.9-2677.6,5751.9-2678.4,5751.4z"/>
					<path class="st2" d="M-2680.3,5750.4c0.4,0.1,0.1-0.1,0.1-0.2C-2680.4,5750.1-2680.5,5750.1-2680.3,5750.4z"/>
					<path class="st2" d="M-2695.2,5744.1l-0.1-0.2C-2695.5,5744-2695.2,5744-2695.2,5744.1z"/>
					<polygon class="st2" points="-2697.4,5746.6 -2697.1,5746.6 -2697.1,5746.4 					"/>
					<polygon class="st2" points="-2699.8,5745.6 -2699.7,5745.5 -2700.1,5745.9 					"/>
					<path class="st2" d="M-2719.9,5760.9l0.3-0.1C-2719.6,5760.6-2719.9,5760.6-2719.9,5760.9z"/>
					<path class="st2" d="M-2719.5,5772.5c-0.2,0.1-0.3,0.5-0.1,0.7C-2719.6,5772.9-2719.5,5772.6-2719.5,5772.5z"/>
					<polygon class="st2" points="-2699.9,5797.5 -2700.1,5797.5 -2699.7,5797.8 					"/>
				</g>
			</g>
		</g>
	</g>
</g>
<g>
	<g>
		<g>
			<g>
				<g>
					<path class="st2" d="M-2669.5,5756.9c0-0.1-0.1-0.3-0.2-0.2l0.1,0.3L-2669.5,5756.9z"/>
					<path class="st2" d="M-2670.3,5756.5c0,0.2,0,0.5,0.2,0.7c0-0.3,0-0.2,0-0.6c0.1-0.1,0.2,0,0.2,0.2c0-0.1,0.1,0,0.1-0.2
						c-0.2-0.2-0.3-0.2-0.3,0.1C-2670.2,5756.6-2670.2,5756.5-2670.3,5756.5z"/>
					<path class="st2" d="M-2677.3,5759L-2677.3,5759L-2677.3,5759z"/>
					<path class="st2" d="M-2681.6,5760.8L-2681.6,5760.8C-2681.6,5760.8-2681.7,5760.8-2681.6,5760.8z"/>
					<path class="st2" d="M-2682.5,5760.8L-2682.5,5760.8L-2682.5,5760.8z"/>
					<path class="st2" d="M-2677.3,5759h-0.2C-2677.4,5759.1-2677.4,5759-2677.3,5759z"/>
					<path class="st2" d="M-2670.9,5757.6v-0.1V5757.6L-2670.9,5757.6z"/>
					<polygon class="st2" points="-2675.6,5757.9 -2675.5,5757.9 -2675.5,5757.9 					"/>
					<path class="st2" d="M-2674.1,5757.4c0,0,0.1,0.3,0.1,0.4c0-0.1,0-0.2,0-0.2C-2674.1,5757.4-2674.1,5757.4-2674.1,5757.4z"/>
					<path class="st2" d="M-2671.7,5756.8L-2671.7,5756.8L-2671.7,5756.8z"/>
					<path class="st2" d="M-2676.6,5758.4L-2676.6,5758.4L-2676.6,5758.4z"/>
					<path class="st2" d="M-2716.7,5758.2L-2716.7,5758.2L-2716.7,5758.2z"/>
					<polygon class="st2" points="-2717.8,5756.2 -2717.7,5756.2 -2717.7,5756 					"/>
					<path class="st2" d="M-2684,5761L-2684,5761C-2683.9,5760.9-2684,5760.9-2684,5761z"/>
					<path class="st2" d="M-2695.1,5765.9c0,0.3-0.4,0.2-0.3,0.5C-2695.3,5766.2-2695,5766-2695.1,5765.9z"/>
					<path class="st2" d="M-2670.9,5757.6C-2670.9,5757.6-2671,5757.6-2670.9,5757.6C-2671,5757.6-2670.9,5757.6-2670.9,5757.6z"/>
					<polygon class="st2" points="-2695.4,5766.4 -2695.4,5766.4 -2695.4,5766.4 					"/>
					<path class="st2" d="M-2687,5762.5C-2686.9,5762.5-2686.9,5762.5-2687,5762.5C-2686.9,5762.5-2686.9,5762.5-2687,5762.5z"/>
					<path class="st2" d="M-2684.5,5761.9L-2684.5,5761.9C-2684.6,5761.9-2684.5,5761.9-2684.5,5761.9z"/>
					<path class="st2" d="M-2688,5763.4C-2688,5763.4-2688.1,5763.4-2688,5763.4C-2688.1,5763.4-2688.1,5763.4-2688,5763.4
						C-2688.1,5763.4-2688,5763.4-2688,5763.4z"/>
					<polygon class="st2" points="-2689.2,5763.9 -2689.2,5763.9 -2689.1,5763.9 					"/>
					<path class="st2" d="M-2713,5759.9c0-0.1,0-0.2,0.1-0.3C-2713,5759.9-2713.2,5759.8-2713,5759.9z"/>
					<path class="st2" d="M-2670.9,5757.5c0,0.1,0,0.1,0,0.1V5757.5L-2670.9,5757.5z"/>
					<path class="st2" d="M-2687.1,5765.4h-0.2C-2687.3,5765.4-2687.2,5765.4-2687.1,5765.4z"/>
					<path class="st2" d="M-2704.3,5764L-2704.3,5764L-2704.3,5764z"/>
					<path class="st2" d="M-2687.9,5765.8c-0.1-0.1-0.1-0.1-0.2-0.1c0,0,0,0,0,0.1H-2687.9z"/>
					<path class="st2" d="M-2712.9,5759.6L-2712.9,5759.6L-2712.9,5759.6z"/>
					<path class="st2" d="M-2714.5,5759.6c0.2,0.1,0.2-0.3,0.4-0.5c0.3,0,0,0.3,0,0.5c0.2,0,0.4-0.3,0.5-0.2c0,0.1,0,0.1-0.1,0.1
						c0.3-0.2,0.4,0.2,0.8-0.1v0.1c0.1-0.2,0.1-0.4,0.2-0.5c0.1,0,0.3-0.1,0.2,0.1l-0.1,0.1l0.1-0.1c-0.1,0.4-0.2,0.1-0.3,0.3
						c0.2,0,0.5-0.2,0.6,0c-0.1,0.3-0.4,0-0.3,0.3l-0.1-0.2c-0.1,0.6-0.1-0.1-0.2,0.5c0.2,0.2,0.4,0,0.6,0.2
						c0.1-0.1,0.1-0.3,0.2-0.4c0.5-0.1-0.1,0.9,0.4,0.6c0.2-0.2,0.4-0.5,0.5-0.2l-0.2,0.3c0.2,0.2,0.4-0.4,0.5-0.1
						c-0.1,0.1-0.3,0-0.2,0.1c0,0.4,0.2-0.1,0.3-0.1l-0.1,0.3c0.3,0.1,0.7,0,1,0.1c-0.1,0.1-0.2,0.2-0.1,0.3c0.5,0,0.8,0.4,1.1,0.8
						l0.3-0.2c0,0,0,0.1-0.1,0.2c0.1,0.2,0.1-0.2,0.2-0.2s0,0.2-0.1,0.3c0.4-0.1,0.9-0.1,1.1,0.3l-0.1,0.1c0.2,0.2,0.5-0.4,0.6-0.1
						h-0.1c0.4,0.3,1,0.3,1.2,0.9c0.2-0.4,0.4,0.4,0.6-0.1c0.1,0.4,0,0.4,0.3,0.8c0.1,0.1,0.3-0.3,0.4-0.3l-0.1,0.3l0.3-0.2
						l-0.1,0.4h0.1v-0.2c0.2,0,0.3,0.4,0.3,0.5h0.5c-0.1,0.1-0.2,0.1-0.2,0.2c0.4-0.2-0.1,0.3,0.2,0.1c0-0.1,0.1-0.2,0.1-0.2
						c0,0.2,0.2,0.3,0.5,0.3l-0.1,0.2c0.3,0.2,0.7,0.2,1,0.4c-0.1-0.1,0.1-0.5,0.2-0.5l-0.1,0.3c0.2-0.1-0.1-0.2,0.2-0.3
						c0.1,0.1-0.1,0.4-0.2,0.4h0.2c0,0.1-0.1,0.1-0.2,0.2c0.2-0.2,0.1,0.4,0.4,0.1v0.1c0.3,0.2,0.5,0.1,0.8,0.3
						c0.1-0.3,0.2-0.1,0.4-0.3c0.2,0.2,0.3,0.5,0.6,0.6c0.2,0,0.2-0.2,0.3-0.3c-0.1,0.2,0.2,0.3,0,0.4c0.3,0.1,0.4,0.1,0.9,0.1
						c0-0.1,0-0.2,0-0.2c0.1,0,0.1,0.2,0,0.3l0,0c0.6-0.1,0.6,1.1,1.2,0.8l0,0l0.5-0.1c0.1,0.1-0.2,0.1-0.1,0.3
						c0.6-0.2,0.6,0.3,1,0.2c-0.1,0.3,0.1,0.4,0.4,0.6c0.3,0.1,0.6,0.2,0.8,0.3c0.2-0.1,0.4-0.2,0.6-0.1l-0.1-0.2
						c0.1-0.2,0.2,0,0.3,0c-0.1-0.1-0.2-0.1-0.1-0.2s0.3-0.2,0.4-0.2c0.1,0,0.2-0.1,0.3-0.1c0.2-0.1,0.4-0.1,0.6-0.1
						c0.4-0.1,0.9-0.1,1.3-0.2c0.3-0.1-0.2-0.9,0.3-0.7v0.3c0.4-0.6,1.1-0.5,1.5-1c0,0.1,0,0.2,0,0.2c0.2,0.2,0.4-0.2,0.3-0.4
						c0.1,0,0.1,0.2,0.2,0.2c0.2,0.1,0.2-0.4,0.3-0.2v0.1c0-0.1,0.4-0.1,0.2-0.3c0.3,0,0.3-0.3,0.6-0.2c0-0.3,0.4,0,0.3-0.4
						c0.2,0.4,0.5,0.2,0.5-0.1c0,0.1,0.2,0.1,0.2,0.3c0.1-0.1,0.2-0.2,0.1-0.4c0.5,0.4,0.4-0.6,0.8-0.1c0.3-0.4,0.7-0.7,1-1
						c0.2,0.4-0.4,0.2-0.2,0.7c0.3-0.3,0.3-0.8,0.7-0.8c0.1,0,0,0.2,0,0.3c0.3-0.3,0.7-0.3,0.9-0.6v0.1c0.1,0,0.2,0,0.1-0.2v0.1
						c-0.2-0.2,0-0.7,0-0.8c0.1,0.6,0.4,0,0.5,0.8c0-0.1,0-0.2,0-0.3c0.1,0,0.1,0.1,0.1,0.2c0.2-0.2,0-0.4,0.2-0.5
						c0,0.1,0,0.1,0,0.3c0-0.2,0.1-0.4,0.3-0.4c0,0.1,0.1,0.1,0,0.1c0.3-0.2,0.3-0.7,0.7-0.7c0.1,0.4,0.2,0.1,0.3,0.4l0.1-0.2
						l-0.1-0.1c0.2-0.1,0.2-0.4,0.4-0.3l-0.1,0.2l0.3-0.2l-0.2-0.1c0.1-0.2-0.2-0.4,0-0.4c0,0.1,0.2-0.1,0.3,0.1l0,0
						c0-0.1,0.1-0.3,0.2-0.3c0.1,0.1,0.1,0.4,0.2,0.5c-0.1-0.3,0.3-0.2,0.3-0.6c0,0.1,0.1,0.3,0.1,0.3v-0.3c0.1,0,0.1,0.1,0.2,0.2
						c0.2-0.1-0.3-0.4,0.1-0.3v0.1c0.3,0,0.4-0.4,0.7-0.4c0.2,0.3-0.2,0.2,0,0.4c0.3-0.2,0.5-0.7,0.9-0.8h-0.1
						c-0.2-0.5,0.4,0.1,0.4-0.2c0,0.1,0.1,0.3,0.1,0.2c0.3,0,0.4-0.3,0.7-0.6v0.1c0.2,0.1,0.4-0.1,0.5-0.1c0-0.1,0.1-0.2-0.1-0.3
						c0.8,0.5,0.7-0.8,1.3-0.3c0,0-0.1,0.2,0,0.1l0.3-0.3c-0.1-0.2-0.1-0.1-0.2-0.2c0-0.1,0-0.3,0.1-0.3c-0.1,0.2,0.2,0.3,0.3,0.4
						c0-0.1,0-0.1-0.1-0.2c0.3,0.3-0.2-0.4,0.2-0.3v0.1c0.1-0.1,0.1-0.3,0.2-0.3c0.1,0.2,0,0.2,0,0.4c0.1-0.1,0.1-0.6,0.3-0.4
						c0,0.1-0.1,0.1-0.1,0.2c0.3,0.2,0.2,0.1,0.4,0.1l0,0h0.3l-0.1-0.1c-0.1-0.7,0.3-0.3,0.3-0.8c0,0.5,0.1,0.2,0.2,0.5
						c0.1,0.1,0.2,0.1,0.2,0.2c0-0.3,0.3,0.1,0.3-0.3c0,0.1,0.1,0,0.2,0.2c0.1-0.1-0.1-0.1-0.1-0.3c0.1-0.4,0.7,0.1,0.8-0.4
						c0.2-0.3,0.1-0.6,0.3-0.9c0.1,0.1,0.1,0.4,0.1,0.4c0.2,0.1,0.3,0,0.4-0.2c0,0.1,0.1,0.1,0.1,0.2c0.1-0.1-0.1-0.4,0.1-0.3
						c0,0.1,0.1,0.3,0.1,0.4c0.1-0.1,0.1-0.4,0.2-0.5c0.1,0.1,0,0.3,0,0.4c0.1-0.1,0.3-0.3,0.2-0.6h-0.1c0,0,0.1,0.2,0.1,0.3
						c0,0.2-0.2,0-0.3-0.1l0.1-0.1c-0.3-0.5-0.3,0.2-0.5,0.3l-0.1-0.4v0.4c-0.1-0.1-0.2-0.3-0.1-0.4c-0.2-0.1-0.1,0.2-0.3,0
						c0,0,0,0,0-0.1l-0.1,0.2c0-0.1-0.1-0.3,0-0.2c-0.3-0.1-0.2,0.4-0.4,0.2l0,0c-0.3,0.3,0.1,0.3,0,0.7l-0.5-0.6l0.1,0.3
						c0,0-0.1,0-0.1-0.1c0,0.2,0.1,0.1,0.1,0.3c-0.3-0.2-0.4,0.3-0.6-0.1c0,0.2,0.2,0.1,0.1,0.3c-0.3-0.5-0.2,0.2-0.4,0
						c-0.1-0.3,0.1-0.2-0.1-0.4c0.1,0.5-0.3,0-0.4,0.2c0.1,0.3-0.2,0.3-0.4,0.5c0-0.1-0.5,0-0.7-0.1v-0.1c0.1,0.4-0.1,0.4-0.2,0.5
						c-0.1-0.2-0.1-0.3-0.1-0.4l-0.1,0.1c0,0.1,0,0.2-0.1,0.3l-0.1-0.3c-0.2,0.1-0.2,0.5-0.5,0.4c0.1,0.2,0.5,0.6,0.3,0.8
						c-0.1-0.1-0.2-0.3-0.1-0.4c0,0,0,0.1-0.1,0.1v-0.3c-0.1,0,0,0.2-0.1,0.2c-0.1-0.2-0.1-0.1-0.2-0.3h0.1c-0.1,0-0.3,0-0.4-0.2
						c0.1,0.1,0.1,0.2,0,0.3c-0.2,0.1-0.2-0.2-0.3-0.2c0,0.1-0.2,0.1,0,0.3c-0.1,0-0.1-0.1-0.2-0.2c0,0.2-0.4,0.2-0.2,0.5l0,0l0,0
						l0,0l0,0c-0.2,0.4-0.7,0.1-0.9,0.4v-0.1c-0.1,0.2-0.4,0.2-0.4,0.5c-0.1,0-0.2-0.1-0.2-0.2c-0.1,0.1-0.1,0.2-0.3,0.2
						c0.1-0.2-0.1-0.1,0.1-0.2c-0.2,0-0.3-0.1-0.4,0.2c0-0.3-0.3-0.2-0.3-0.1l0.2,0.1c-0.1,0.1-0.2,0.1-0.3,0.1l-0.1-0.3
						c-0.5-0.2-0.4,0.9-0.9,0.4c0,0.3,0.3,0.1,0.3,0.4c-0.2,0-0.5-0.3-0.6-0.3c-0.3-0.1,0,0.5-0.3,0.5c0.1,0.1,0.2,0.4,0.1,0.6
						c-0.2,0-0.4-0.4-0.3-0.5h0.1c0-0.1,0.1-0.1,0-0.2v0.1c-0.1-0.1-0.4,0-0.4-0.2c-0.1,0.2,0,0.2,0.1,0.2c-0.3-0.1-0.3,0.1-0.6,0.1
						c0.1,0,0.1,0.2,0.1,0.2c-0.4,0-0.1,0.3-0.2,0.4c-0.2-0.1-0.1-0.4-0.3-0.2c-0.2-0.1-0.2-0.3-0.1-0.4c-0.1,0.3-0.4,0-0.6,0
						l0.1-0.1c0,0.1-0.1,0.1-0.1,0.1l0.2,0.2c-0.1,0-0.1,0-0.2-0.1c0,0.2,0.2,0.3,0.2,0.6c-0.1-0.1-0.2,0.2-0.4,0
						c0.3,0-0.2-0.3,0-0.4c0,0.1-0.1,0.1-0.2,0.1v-0.1c-0.4-0.1,0,0.4-0.2,0.5c0-0.2-0.2-0.3-0.2-0.2c0.1,0,0.2,0.2,0.1,0.4
						c-0.2-0.1-0.1,0.2-0.2,0.2h0.1c0,0.2-0.1,0.2-0.1,0.3c-0.1-0.1,0.1-0.1,0-0.2c0,0.3-0.4-0.2-0.5,0.1c-0.1-0.1-0.1-0.3-0.2-0.3
						c-0.1,0.3-0.3-0.1-0.4,0.1c0.2,0.2,0.1,0.1,0.1,0.4l0.3-0.3l-0.1,0.4c0.1,0,0.2-0.2,0.2-0.2c0,0.2,0,0.2,0.1,0.3
						c-0.3-0.3-0.2,0.3-0.5,0.2l-0.2-0.5c-0.4-0.1-0.3,0.5-0.7,0.5h0.1c0.1,0.2-0.2,0.1-0.2,0.2c-0.1-0.2-0.2-0.2-0.3-0.3
						c0.1,0.1-0.2,0.1-0.1,0.5l-0.2-0.2c-0.3,0-0.1,0.6-0.3,0.7c0-0.2-0.2-0.3-0.1-0.5c-0.1,0-0.2,0-0.1,0.2
						c-0.1-0.1-0.1,0.3-0.3,0.2c0,0.1,0.1,0.3,0,0.3v-0.1c0,0.1-0.1,0.2,0.1,0.4c-0.5-0.5-0.7,0.4-1.1,0c-0.2,0.1-0.3,0.3-0.5,0.4
						c0-0.1,0-0.1,0-0.1c-0.3-0.1,0.1,0.6-0.2,0.5c-0.3-0.2,0.1-0.2-0.1-0.3c-0.3-0.6-0.3,0.2-0.6-0.1v-0.1
						c-0.2-0.1-0.2,0.4-0.5,0.4v-0.1c0,0.4-0.2,0.6-0.4,0.8c0-0.3,0-0.2-0.1-0.4c-0.1,0.1,0.2,0.4,0,0.5c-0.1-0.1-0.3-0.2-0.4-0.4
						l0.2-0.1c-0.2-0.3-0.2,0.1-0.3,0.1l-0.1-0.1c-0.2,0.2-0.1,0.5-0.4,0.6l0.1,0.1c0,0.4-0.2-0.1-0.3,0.2l-0.2-0.3
						c-0.1,0.1-0.2,0.5-0.4,0.7c0-0.3,0.1-0.5,0.2-0.8c-0.1,0-0.3,0.2-0.3,0.4c0-0.1,0-0.2,0.1-0.1c0,0.3-0.1,0.6-0.3,0.6
						c-0.1-0.4-0.3-0.3-0.5-0.3c-0.1,0-0.2,0.1-0.3,0c-0.1,0-0.1-0.1-0.2-0.2c0,0.2-0.1,0.2-0.2,0.1c-0.1-0.1-0.1-0.2-0.2-0.2
						c-0.1,0.6-0.1,0-0.3,0.6c-0.1,0-0.1,0-0.1-0.1l-0.1-0.5c0-0.2,0.2-0.1,0.2-0.2c-0.2-0.1,0-0.3,0-0.5c-0.1,0.2-0.2,0.2-0.3,0.1
						l0.1,0.3c-0.4,0.2,0-0.6-0.5-0.4l0.2-0.1c-0.2,0-0.6-0.3-0.9,0.1c0-0.1,0-0.2,0.1-0.3c-0.3-0.2-1,0.1-1.2-0.3l0.1-0.1
						c-0.1,0-0.2,0.2-0.3,0c0-0.1,0.1-0.1,0.1-0.1c-0.1,0-0.3,0.1-0.3,0l0.1-0.1c-0.3-0.3-0.7,0.1-1.1,0.1c0.2-0.4,0-0.7-0.1-0.8
						v-0.1c-0.4-0.2-0.9,0-1.3,0c0-0.5-0.7-0.6-1-1c0,0.1-0.2,0.3-0.2,0.3c-0.1-0.1-0.4,0.2-0.2-0.2l0,0c0.1-0.4-0.1-0.4-0.3-0.5
						l-0.3,0.5c-0.1-0.9-1.1-0.2-1-0.9c-0.1,0.1-0.3,0-0.4,0.1l0.1-0.3c-0.2-0.2-0.3-0.3-0.7-0.4l0.2-0.2c-0.2-0.1-0.6,0.6-0.7,0.6
						l0.1-0.4c-0.3-0.1-0.5-0.6-0.9-0.4c0-0.1,0.1-0.2,0.2-0.1c-0.1-0.1-0.4-0.5-0.6,0c0.2-0.3-0.3-0.2-0.5-0.1l0.1-0.2
						c-0.3,0.3-0.3,0.3-0.6,0.3c0-0.1,0.1-0.2,0.1-0.1c-0.1-0.2-0.2,0.2-0.4,0l0.1-0.1c-0.2-0.1-0.2,0-0.4,0.1
						c-0.1,0.1-0.3-0.2-0.2-0.4c-0.1,0.1-0.3,0.3-0.3,0.2c0-0.1,0.1-0.1,0.1-0.1c-0.2-0.3-0.5,0.1-0.6-0.2c0-0.1,0-0.1,0-0.2
						c0.2,0.1,0.4,0.2,0.4,0.2c0.1-0.2,0-0.4,0.2-0.6c-0.2,0.1-0.6,0.4-0.8,0.2v-0.1l0,0h-0.1c0-0.1-0.1-0.1-0.1-0.1
						c0.1-0.2-0.1-0.2-0.2-0.2c-0.1,0.3-0.2,0.2-0.2,0.4c0,0,0,0,0.1,0l0,0l0,0l0.2,0.1c-0.1,0.1-0.3,0.2-0.3,0l-0.3,0.4
						c0.1-0.4-0.1-0.7,0-0.9c-0.3,0-0.7-0.2-1.1,0.2c-0.1,0,0-0.2,0-0.3c0.1,0,0.1,0,0.2-0.1c-0.2,0.1-0.5-0.2-0.7,0.2
						c-0.1-0.2,0.3-0.3,0-0.3l0.1-0.1c-0.3-0.8-1.2,0.5-1.5-0.5c0,0.1,0,0.1,0,0.1c-0.5-0.6-1.5-0.4-1.9-1.1c-0.1-0.2-0.3,0-0.4,0.1
						l0.1-0.3l-0.3,0.2c-0.4,0.1-0.1-0.9-0.7-0.6v0.2c-0.1-0.1-0.4-0.1-0.3-0.3c0,0-0.1,0.2-0.1,0.1l0.1-0.1l-0.4,0.1
						c-0.2-0.2,0.3-0.5,0-0.7c-0.2,0-0.6,0.2-0.6,0.4c0,0,0.1,0.1,0,0.3h-0.2c-0.2,0.4-0.5,0.8-0.4,1.2l0.3-0.2v0.2l-0.2-0.1
						c0,0.2,0.1,0.1,0.3,0c0,0.1,0,0.2,0,0.3l0.4-0.3c-0.1,0.2-0.2,0.3-0.2,0.4c0.2-0.1,0.1-0.4,0.3-0.5c0,0.2-0.1,0.4,0.1,0.3
						c0,0.1-0.1,0.2-0.2,0.2c0.2-0.1,0.3,0.1,0.4-0.1c0,0.3,0.4,0.1,0.2,0.5c0.1-0.1,0.3-0.2,0.4-0.2c-0.4,0.4,0.3,0.2,0,0.7
						c0.3-0.4,0.5,0,0.9-0.1l-0.1,0.1c0.1,0.1,0.1,0.2,0.1,0.4c0.2-0.3,0.4-0.3,0.6-0.5c0,0.4-0.3,0.4-0.4,0.7
						c0.1-0.3,0.4-0.2,0.5-0.4c0,0.3,0,0.1,0,0.5c0.2-0.4,0.1,0,0.4-0.3c0.1,0.3-0.2,0.4,0.1,0.4
						C-2714.3,5759.5-2714.5,5759.6-2714.5,5759.6z M-2709.8,5760.9L-2709.8,5760.9L-2709.8,5760.9L-2709.8,5760.9z M-2709.5,5761
						c0,0-0.1-0.1-0.2-0.1c0-0.1,0.1-0.2,0.1-0.2C-2709.5,5760.9-2709.5,5760.9-2709.5,5761z M-2709.4,5758.9c0.1,0,0.1,0.1,0.1,0.1
						C-2709.4,5759-2709.4,5759-2709.4,5758.9l-0.1,0.1C-2709.4,5759-2709.4,5758.9-2709.4,5758.9z"/>
					<path class="st2" d="M-2709.7,5759.2L-2709.7,5759.2L-2709.7,5759.2L-2709.7,5759.2L-2709.7,5759.2z"/>
					<path class="st2" d="M-2677.2,5759L-2677.2,5759C-2677.2,5759-2677.2,5759.1-2677.2,5759L-2677.2,5759z"/>
					<polygon class="st2" points="-2704.7,5763.9 -2704.7,5763.9 -2704.8,5763.9 					"/>
					<path class="st2" d="M-2674.8,5759C-2674.8,5759.1-2674.8,5759.1-2674.8,5759C-2674.8,5759.1-2674.8,5759.1-2674.8,5759z"/>
					<path class="st2" d="M-2673.9,5758.8h0.2C-2673.9,5758.8-2673.9,5758.8-2673.9,5758.8z"/>
					<path class="st2" d="M-2673.2,5758.5v-0.1l0,0V5758.5z"/>
					<path class="st2" d="M-2683.7,5763.5L-2683.7,5763.5C-2683.8,5763.6-2683.8,5763.6-2683.7,5763.5z"/>
					<path class="st2" d="M-2680.8,5761.5c0,0.1,0,0.1,0,0.2C-2680.8,5761.8-2680.8,5761.8-2680.8,5761.5z"/>
					<path class="st2" d="M-2687.1,5765.4L-2687.1,5765.4L-2687.1,5765.4z"/>
					<path class="st2" d="M-2681,5761.9c0.1,0,0.1,0,0.1-0.1C-2680.9,5761.8-2681,5761.8-2681,5761.9z"/>
					<path class="st2" d="M-2670.3,5757.4L-2670.3,5757.4C-2670.2,5757.4-2670.2,5757.4-2670.3,5757.4L-2670.3,5757.4z"/>
					<path class="st2" d="M-2670.2,5757.4L-2670.2,5757.4C-2670.2,5757.4-2670.3,5757.4-2670.2,5757.4z"/>
					<path class="st2" d="M-2670.2,5757.2L-2670.2,5757.2C-2670.2,5757.4-2670.2,5757.4-2670.2,5757.2z"/>
					<path class="st2" d="M-2671.2,5757.8L-2671.2,5757.8L-2671.2,5757.8z"/>
					<path class="st2" d="M-2671.5,5757.9c0.1,0,0.2,0.1,0.3,0v-0.1C-2671.2,5757.9-2671.5,5757.6-2671.5,5757.9z"/>
					<path class="st2" d="M-2673.1,5757.1h0.3c-0.1-0.1-0.2-0.2-0.1-0.3C-2673.4,5756.8-2672.8,5757.1-2673.1,5757.1z"/>
					<path class="st2" d="M-2673.9,5757.4c0.1-0.1-0.1-0.1-0.1-0.2C-2674,5757.2-2674,5757.4-2673.9,5757.4z"/>
					<path class="st2" d="M-2678.9,5759.5l-0.1-0.2C-2679.1,5759.4-2679,5759.4-2678.9,5759.5z"/>
					<polygon class="st2" points="-2679.3,5761.2 -2679.2,5761.4 -2679.2,5761 					"/>
					<polygon class="st2" points="-2680.7,5759.8 -2680.6,5759.8 -2680.7,5759.9 					"/>
					<path class="st2" d="M-2689.1,5763.6l0.2,0.3C-2688.9,5763.9-2689,5763.4-2689.1,5763.6z"/>
					<path class="st2" d="M-2692.6,5765.5c-0.1-0.1-0.2-0.2-0.2,0C-2692.8,5765.4-2692.7,5765.5-2692.6,5765.5z"/>
					<polygon class="st2" points="-2702.7,5762.1 -2702.6,5762 -2702.7,5762 					"/>
				</g>
			</g>
		</g>
	</g>
</g>
<g>
	<g>
		<g>
			<g>
				<g>
					<path class="st2" d="M-2695.5,5798.2c0.1,0,0.3,0,0.2,0H-2695.5L-2695.5,5798.2z"/>
					<path class="st2" d="M-2694.9,5797.9c-0.2-0.1-0.4-0.1-0.7-0.1c0.3,0.1,0.2,0.1,0.6,0.1c0,0-0.1,0.1-0.2,0.1
						c0.1,0-0.1,0.1,0.1,0.1c0.3-0.1,0.3-0.1,0.1-0.2H-2694.9z"/>
					<path class="st2" d="M-2694.3,5793.5L-2694.3,5793.5C-2694.4,5793.5-2694.3,5793.5-2694.3,5793.5z"/>
					<path class="st2" d="M-2694.2,5790.9C-2694.1,5790.9-2694.1,5790.9-2694.2,5790.9C-2694.1,5790.9-2694.1,5790.9-2694.2,5790.9z
						"/>
					<path class="st2" d="M-2693.8,5790.4L-2693.8,5790.4C-2693.8,5790.4-2693.8,5790.4-2693.8,5790.4z"/>
					<path class="st2" d="M-2694.3,5793.5l0.1-0.1C-2694.3,5793.4-2694.3,5793.5-2694.3,5793.5z"/>
					<path class="st2" d="M-2695.7,5797.4C-2695.6,5797.4-2695.6,5797.4-2695.7,5797.4C-2695.6,5797.4-2695.6,5797.4-2695.7,5797.4
						L-2695.7,5797.4z"/>
					<polygon class="st2" points="-2694.1,5794.8 -2694.1,5794.8 -2693.9,5794.9 					"/>
					<path class="st2" d="M-2694,5795.6c0,0-0.3,0-0.4,0c0.1,0,0.2,0,0.2,0C-2694.2,5795.8-2694.1,5795.6-2694,5795.6z"/>
					<path class="st2" d="M-2694.5,5797.1L-2694.5,5797.1L-2694.5,5797.1z"/>
					<path class="st2" d="M-2694,5794.1h0.1H-2694z"/>
					<path class="st2" d="M-2696.1,5768.4L-2696.1,5768.4L-2696.1,5768.4z"/>
					<polygon class="st2" points="-2694.7,5767.2 -2694.7,5767.2 -2694.6,5767.2 					"/>
					<path class="st2" d="M-2693.4,5789.5L-2693.4,5789.5L-2693.4,5789.5z"/>
					<path class="st2" d="M-2693.6,5781.8c-0.3,0.1-0.3-0.1-0.6,0C-2694.1,5781.6-2693.8,5781.9-2693.6,5781.8z"/>
					<path class="st2" d="M-2695.6,5797.4L-2695.6,5797.4L-2695.6,5797.4z"/>
					<polygon class="st2" points="-2694.2,5781.8 -2694.2,5781.8 -2694.3,5781.8 					"/>
					<path class="st2" d="M-2693.6,5787.5L-2693.6,5787.5C-2693.7,5787.5-2693.7,5787.5-2693.6,5787.5z"/>
					<path class="st2" d="M-2694,5789L-2694,5789L-2694,5789z"/>
					<path class="st2" d="M-2694,5786.9C-2694,5786.8-2693.9,5786.8-2694,5786.9L-2694,5786.9C-2694,5786.8-2694,5786.8-2694,5786.9
						z"/>
					<path class="st2" d="M-2694,5786h-0.1H-2694z"/>
					<path class="st2" d="M-2696,5770.8c0.1,0,0.2,0,0.3,0C-2695.9,5770.8-2696,5770.5-2696,5770.8z"/>
					<path class="st2" d="M-2695.5,5797.4c-0.1,0-0.1,0-0.1,0l0,0H-2695.5z"/>
					<path class="st2" d="M-2696.2,5786.8v-0.1V5786.8z"/>
					<path class="st2" d="M-2695.9,5776.4L-2695.9,5776.4C-2696,5776.4-2696,5776.4-2695.9,5776.4z"/>
					<path class="st2" d="M-2696.2,5786.2c0.1,0,0.2,0,0.2-0.1c0,0,0,0-0.1,0L-2696.2,5786.2z"/>
					<path class="st2" d="M-2695.7,5770.6L-2695.7,5770.6L-2695.7,5770.6z"/>
					<path class="st2" d="M-2696.4,5769.9c0,0.1,0.4,0.1,0.6,0.1c0.1,0.1-0.3,0.1-0.5,0.1c0.1,0.1,0.4,0.2,0.4,0.2
						c-0.1,0-0.1,0-0.2,0c0.3,0.1,0,0.3,0.4,0.4h-0.1c0.2,0,0.4,0,0.5,0c0,0.1,0.2,0.1,0,0.1c0,0-0.1,0-0.2-0.1l0.1,0.1
						c-0.3,0.1-0.1-0.1-0.4-0.1c0.1,0.1,0.4,0.2,0.3,0.3c-0.3,0-0.1-0.2-0.4-0.1l0.1-0.1c-0.5,0.1,0-0.1-0.5,0
						c-0.1,0.2,0.2,0.2,0.1,0.4c0.2,0,0.3,0,0.5,0c0.3,0.2-0.9,0.2-0.4,0.4c0.2,0,0.7,0.1,0.4,0.2h-0.4c0,0.2,0.6,0.1,0.3,0.3
						c-0.2,0-0.1-0.1-0.2-0.1c-0.3,0.1,0.2,0.1,0.2,0.2h-0.3c0.1,0.2,0.3,0.4,0.4,0.6c-0.1,0-0.2,0-0.3,0c0.2,0.2,0,0.5-0.2,0.8
						l0.3,0.1c0,0-0.1,0-0.2,0c-0.1,0.1,0.2,0,0.3,0c0,0.1-0.2,0.1-0.3,0c0.2,0.2,0.5,0.5,0.2,0.6h-0.1c-0.1,0.1,0.6,0.2,0.3,0.3
						h-0.1c-0.1,0.3,0.1,0.6-0.3,0.8c0.4,0-0.2,0.3,0.4,0.3c-0.3,0.2-0.4,0.1-0.6,0.4c0,0.1,0.4,0.1,0.4,0.2h-0.3l0.3,0.1l-0.4,0.1
						l0.1,0.1c0,0,0.1-0.1,0.2-0.1c0.1,0.1-0.2,0.3-0.4,0.3l0.3,0.3c-0.1,0-0.2-0.1-0.2-0.1c0.3,0.1-0.3,0,0,0.2c0.1,0,0.2,0,0.2,0
						c-0.2,0.1-0.2,0.2-0.1,0.3h-0.2c-0.1,0.2,0.1,0.4,0.1,0.6c0.1-0.1,0.5-0.1,0.5,0h-0.3c0.2,0,0.1-0.1,0.4,0c0,0.1-0.4,0.1-0.5,0
						l0.1,0.1c-0.1,0-0.1,0-0.3,0c0.2,0-0.3,0.2,0,0.2h-0.1c0,0.2,0.1,0.3,0.1,0.5c0.3,0,0.2,0.1,0.4,0.1c-0.1,0.1-0.3,0.3-0.3,0.4
						c0.1,0.1,0.2,0,0.4,0.1c-0.3,0-0.2,0.2-0.4,0.1c0,0.2,0.1,0.2,0.3,0.5c0.1,0,0.2-0.1,0.2,0c0,0-0.1,0.1-0.2,0.1l0,0
						c0.4,0.3-0.7,0.6-0.2,0.8l0,0l0.3,0.2c0,0.1-0.2-0.1-0.4,0c0.4,0.2-0.1,0.4,0.2,0.6c-0.8,0.2,0.1,0.6-0.4,0.8h0.2
						c0.2,0.1-0.1,0.1-0.1,0.1c0.1,0,0.2-0.1,0.3,0c0.2,0.5-0.3,0.9-0.4,1.4c0,0.2,0.9,0.1,0.5,0.3l-0.3-0.1c0.4,0.3,0,0.7,0.3,1
						c-0.1,0-0.2,0-0.2-0.1c-0.2,0.1,0,0.3,0.2,0.3c0,0.1-0.2,0-0.3,0c-0.1,0.1,0.3,0.2,0.1,0.2h-0.1c0.1,0,0,0.2,0.2,0.2
						c-0.1,0.1,0.1,0.2,0,0.3c0.3,0.1-0.1,0.2,0.3,0.2c-0.5,0-0.4,0.2-0.2,0.3c-0.1,0-0.1,0.1-0.3,0c0,0.1,0.1,0.2,0.3,0.2
						c-0.5,0.2,0.4,0.3-0.3,0.4c0.2,0.3,0.4,0.5,0.5,0.8c-0.5,0,0-0.3-0.5-0.3c0.2,0.2,0.6,0.4,0.5,0.6c-0.1,0.1-0.2,0-0.3-0.1
						c0.2,0.2,0,0.5,0.2,0.7h-0.1c0,0-0.1,0.1,0.1,0.1h-0.1c0.3-0.1,0.6,0.2,0.8,0.2c-0.6-0.1-0.1,0.2-0.9,0.1c0,0,0.1,0.1,0.3,0.1
						c0,0-0.1,0.1-0.3,0c0.1,0.1,0.3,0.1,0.3,0.2c-0.1,0-0.1,0-0.3,0c0.2,0.1,0.4,0.1,0.3,0.2c-0.1,0-0.1,0-0.1,0
						c0,0.2,0.5,0.3,0.3,0.5c-0.4-0.1-0.1,0.1-0.5,0.1l0.1,0.1h0.2c0,0.1,0.3,0.2,0.1,0.3l-0.2-0.1l0.1,0.2l0.1-0.1
						c0.2,0.1,0.5,0,0.4,0.1c0,0,0,0.1-0.2,0.2l0,0c0.1,0,0.2,0.1,0.2,0.2c-0.1,0-0.4,0-0.5,0c0.3,0,0.1,0.2,0.4,0.3
						c-0.1,0-0.3,0-0.3,0h0.3c-0.1,0-0.1,0.1-0.3,0c0,0.1,0.5,0,0.3,0.1h-0.1c-0.1,0.2,0.2,0.3,0,0.5c-0.4,0-0.1-0.1-0.4-0.1
						c0.1,0.2,0.4,0.5,0.4,0.7l0,0c0.5,0-0.3,0.2,0,0.3c0,0-0.3,0-0.2,0c-0.1,0.1,0.1,0.3,0.3,0.5h-0.1c-0.1,0.1-0.1,0.2-0.1,0.3
						c0.1,0,0.1,0.1,0.3,0c-0.8,0.3,0.4,0.5-0.2,0.8c0,0-0.1-0.1-0.1,0l0.1,0.2c0.2,0,0.1,0,0.3-0.1c0.1,0,0.2,0.1,0.2,0.1
						c-0.2-0.1-0.4,0-0.5,0c0.1,0,0.1,0,0.2,0c-0.4,0.1,0.5,0,0.2,0.2h-0.1c0.1,0.1,0.2,0.1,0.2,0.2c-0.3,0-0.1-0.1-0.3-0.1
						c0,0.1,0.5,0.2,0.2,0.3c-0.1,0-0.1-0.1-0.1-0.1c-0.3,0.1-0.2,0.1-0.3,0.2l0,0l-0.1,0.1h0.1c0.7,0.1,0.1,0.2,0.6,0.4
						c-0.4-0.1-0.2,0-0.6,0c-0.1,0-0.2,0.1-0.3,0.1c0.2,0.1-0.2,0.1,0.2,0.2c-0.1,0,0,0.1-0.3,0.1c0.1,0.1,0.2,0,0.3,0
						c0.3,0.1-0.4,0.3,0.1,0.5c0.2,0.2,0.5,0.2,0.7,0.4c-0.2,0.1-0.4,0-0.4,0c-0.1,0.1-0.1,0.2,0,0.2c-0.1,0-0.2,0-0.3,0
						c0,0.1,0.4,0,0.2,0.1c-0.1,0-0.3,0-0.4-0.1c0.1,0.1,0.3,0.2,0.4,0.2c-0.2,0-0.3,0-0.4-0.1c0.1,0.1,0.2,0.2,0.4,0.3l0.1-0.1
						c0,0-0.2,0-0.3,0c-0.2-0.1,0.1-0.1,0.2-0.1l0.1,0.1c0.6-0.1-0.1-0.2-0.1-0.3h0.4l-0.3-0.1c0.1,0,0.3,0,0.4,0
						c0.2-0.1-0.1-0.1,0.1-0.1h0.1l-0.1-0.1c0.1,0,0.3,0,0.2,0c0.2-0.1-0.3-0.2,0-0.3l0,0c-0.1-0.2-0.3,0-0.7-0.2l0.8-0.1h-0.3
						c0,0,0-0.1,0.2-0.1c-0.2-0.1-0.1,0-0.3,0c0.3-0.1-0.1-0.3,0.4-0.3c-0.2,0-0.2,0.1-0.3,0c0.5,0-0.1-0.1,0.2-0.2
						c0.3,0,0.1,0.1,0.4,0c-0.5-0.1,0.1-0.2,0-0.3c-0.4,0-0.2-0.2-0.3-0.3c0.1,0,0.2-0.2,0.3-0.4h0.1c-0.4,0-0.3-0.1-0.4-0.2
						c0.2,0,0.3,0,0.4,0.1v-0.1c-0.1,0-0.2,0-0.2-0.1h0.3c0-0.1-0.3-0.2-0.1-0.4c-0.3,0-0.7,0.1-0.9,0c0.1,0,0.4,0,0.4,0
						s-0.1,0-0.1-0.1l0.2,0.1c0.1-0.1-0.2,0-0.2-0.1c0.2,0,0.1,0,0.3,0c0,0-0.1,0,0,0.1c0-0.1,0.2-0.1,0.3-0.2c-0.1,0-0.3,0-0.3,0
						c0-0.1,0.2,0,0.3-0.1c-0.1,0,0-0.1-0.3-0.1c0,0,0.1,0,0.2-0.1c-0.1-0.1,0-0.3-0.4-0.2l0,0l0,0l0,0l0,0c-0.3-0.2,0.2-0.4,0-0.6
						h0.1c-0.1-0.1-0.1-0.3-0.3-0.3c0,0,0.2-0.1,0.3-0.1c-0.1-0.1-0.2-0.1,0-0.2c0.2,0.1,0.2,0,0.1,0.1c0.1-0.1,0.2-0.1,0-0.3
						c0.3,0,0.3-0.1,0.2-0.1l-0.2,0.1c0-0.1,0-0.1,0-0.2h0.3c0.4-0.2-0.7-0.4,0-0.6c-0.2-0.1-0.2,0.1-0.4,0.1c0-0.1,0.5-0.2,0.5-0.2
						c0.2-0.1-0.5-0.1-0.4-0.3c-0.1,0-0.4,0-0.5-0.1c0-0.1,0.5-0.1,0.6-0.1c0,0,0,0-0.1,0c0,0,0.1,0.1,0.2,0h-0.1
						c0.1-0.1,0.1-0.2,0.3-0.2c-0.1-0.1-0.2,0-0.3,0c0.2-0.1,0-0.2,0.1-0.4c-0.1,0-0.2,0-0.2,0c0.1-0.2-0.2-0.1-0.3-0.2
						c0.2-0.1,0.4,0,0.3-0.1c0.1-0.1,0.3,0,0.4,0c-0.2-0.1,0.2-0.2,0.2-0.3l0.1,0.1c-0.1,0-0.1-0.1-0.1-0.1h-0.2c0,0,0-0.1,0.1-0.1
						c-0.2,0-0.4,0-0.6,0c0.1-0.1-0.1-0.2,0.2-0.2c-0.1,0.2,0.3,0,0.4,0.1v-0.1h0.1c0.3-0.2-0.4-0.1-0.3-0.2c0.2,0,0.3,0,0.3-0.1
						c0,0.1-0.3,0-0.4,0c0.1-0.1-0.1-0.1-0.1-0.2l-0.1,0.1c-0.2,0-0.2-0.1-0.2-0.1c0.1,0,0.1,0.1,0.2,0c-0.3-0.1,0.3-0.2,0.1-0.3
						c0.1-0.1,0.3,0,0.4-0.1c-0.2-0.1,0.2-0.1,0.1-0.3c-0.2,0-0.2,0-0.4,0l0.2,0.2l-0.3-0.1c0,0.1,0.2,0.1,0.1,0.2
						c-0.2-0.1-0.1-0.1-0.3,0c0.4-0.1-0.2-0.2,0-0.3h0.6c0.3-0.2-0.3-0.3-0.2-0.5l-0.1,0.1c-0.2,0,0-0.1-0.1-0.2
						c0.2,0,0.3,0,0.4-0.1c-0.1,0,0-0.1-0.4-0.2l0.3-0.1c0.1-0.2-0.6-0.2-0.5-0.3c0.2,0,0.4,0,0.5,0.1c0-0.1,0-0.1-0.1-0.1
						c0.1,0-0.3-0.1-0.1-0.2c-0.1,0-0.3,0-0.3-0.1h0.1c-0.1,0-0.1-0.1-0.4,0c0.6-0.2,0-0.5,0.5-0.6c-0.1-0.1-0.1-0.3-0.1-0.4
						c0.1,0,0.1,0,0.1,0c0.2-0.1-0.6-0.1-0.4-0.3c0.3-0.1,0.2,0.1,0.3,0c0.6,0-0.1-0.2,0.3-0.3l0,0c0.2-0.1-0.2-0.2-0.2-0.3h0.1
						c-0.3-0.1-0.4-0.3-0.5-0.4c0.3,0,0.1,0.1,0.4,0c0-0.1-0.4,0-0.5-0.1c0.1,0,0.3-0.1,0.5-0.1v0.1c0.4-0.1,0-0.1,0.1-0.2h0.2
						c-0.1-0.2-0.4-0.2-0.4-0.4h-0.1c-0.4-0.1,0.2-0.1-0.1-0.2h0.4c-0.1-0.1-0.4-0.2-0.5-0.4c0.3,0.1,0.4,0.2,0.6,0.3
						c0-0.1,0-0.2-0.2-0.3l0.1,0.1c-0.3-0.1-0.5-0.2-0.5-0.3c0.8,0,0.2-0.3,0.8-0.4c-0.3-0.2,0.1-0.5,0.1-0.7
						c-0.6,0.1,0-0.1-0.6-0.1c0-0.1,0-0.1,0-0.1l0.4-0.2c0.2,0,0.1,0.1,0.3,0.1c0-0.1,0.3-0.1,0.4-0.1c-0.2,0-0.3,0-0.2-0.1
						l-0.3,0.1c-0.3-0.2,0.5-0.2,0.2-0.4l0.2,0.1c-0.1-0.1,0-0.4-0.5-0.5c0.1,0,0.2,0,0.3,0c0.1-0.2-0.5-0.5-0.2-0.7h0.1
						c0,0-0.3-0.1-0.1-0.1c0.1,0,0.1,0,0.2,0c-0.1,0-0.3-0.1-0.2-0.2l0.2,0.1c0.2-0.2-0.4-0.4-0.5-0.6c0.4,0,0.6-0.2,0.7-0.3h0.1
						c0.1-0.3-0.4-0.5-0.5-0.7c0.5-0.2,0.2-0.5,0.5-0.8c-0.1,0-0.3,0-0.4-0.1c0.1-0.1-0.3-0.2,0.1-0.2l0,0c0.4,0,0.3-0.2,0.3-0.3
						h-0.5c0.8-0.2-0.3-0.6,0.4-0.8c-0.1-0.1-0.1-0.1-0.3-0.2h0.3c0.1-0.2,0.1-0.2,0-0.5h0.2c0-0.1-0.8-0.1-0.8-0.3h0.4
						c0-0.2,0.4-0.4,0-0.6c0.1,0,0.2,0,0.2,0c0-0.1,0.3-0.4-0.3-0.3c0.4,0,0-0.2-0.1-0.3h0.3c-0.4-0.1-0.5-0.1-0.6-0.2h0.2
						c0.1-0.1-0.3-0.1-0.1-0.2h0.2c0-0.1-0.1-0.1-0.3-0.2c-0.1-0.1,0.1-0.2,0.3-0.2c-0.2,0-0.4-0.1-0.3-0.1c0.1,0,0.2,0,0.2,0
						c0.2-0.2-0.3-0.3-0.1-0.4c0.1,0,0.1,0,0.2,0c0,0.1,0,0.2,0,0.2c0.3,0,0.3-0.1,0.7,0c-0.2-0.1-0.6-0.2-0.5-0.4h0.1l0,0
						c0,0,0,0,0-0.1l0.1-0.1c0.2,0,0.1-0.1,0.1-0.2c-0.3,0-0.2-0.1-0.5,0l0,0l0,0l0,0v0.1c-0.1,0-0.3-0.1-0.1-0.2l-0.5-0.1
						c0.4-0.1,0.6-0.2,0.8-0.2c-0.2-0.2-0.1-0.4-0.6-0.5c-0.1,0,0.2-0.1,0.2-0.1c0.1,0,0,0.1,0.1,0.1c-0.1-0.1-0.1-0.3-0.4-0.3
						c0.2-0.1,0.3,0.1,0.3-0.1h0.1c0.6-0.3-0.9-0.5-0.2-0.9h-0.1c0.3-0.4-0.3-0.9,0.2-1.3c0.1-0.1-0.1-0.1-0.3-0.2h0.3l-0.3-0.1
						c-0.3-0.2,0.7-0.3,0.3-0.5h-0.2c0-0.1-0.1-0.2,0.1-0.2c0,0-0.2,0-0.1-0.1h0.2l-0.3-0.2c0.1-0.1,0.6,0,0.7-0.2
						c-0.1-0.1-0.5-0.2-0.6-0.2c0,0-0.1,0.1-0.3,0.1l-0.1-0.1c-0.5,0-0.9-0.1-1.3,0.1l0.3,0.1h-0.2v-0.1c-0.2,0.1,0,0.1,0.1,0.1
						c-0.1,0-0.2,0-0.2,0.1l0.4,0.1c-0.2,0-0.4-0.1-0.5,0c0.2,0.1,0.4-0.1,0.5,0c-0.2,0.1-0.4,0-0.2,0.1c-0.1,0-0.2,0-0.2,0
						c0.1,0.1,0.1,0.2,0.3,0.2c-0.3,0.1,0.1,0.2-0.4,0.2c0.1,0,0.3,0.1,0.4,0.2c-0.5-0.1,0,0.2-0.6,0.2c0.5,0.1,0.2,0.3,0.5,0.4
						h-0.1c0,0.1-0.2,0.1-0.3,0.2c0.4,0,0.5,0.1,0.7,0.2c-0.4,0.1-0.5-0.1-0.8,0c0.3,0,0.3,0.2,0.6,0.1c-0.2,0.1-0.1,0.1-0.4,0.1
						c0.5,0,0.1,0.1,0.4,0.1c-0.2,0.1-0.5,0-0.3,0.1C-2696.2,5769.9-2696.4,5769.9-2696.4,5769.9z M-2695.6,5772.6L-2695.6,5772.6
						L-2695.6,5772.6L-2695.6,5772.6z M-2695.5,5772.9v-0.1c0.1,0,0.2,0,0.2,0C-2695.4,5772.9-2695.5,5772.9-2695.5,5772.9z
						 M-2693.6,5772.4L-2693.6,5772.4C-2693.7,5772.4-2693.7,5772.4-2693.6,5772.4L-2693.6,5772.4
						C-2693.7,5772.4-2693.6,5772.4-2693.6,5772.4z"/>
					<path class="st2" d="M-2694,5772.4L-2694,5772.4L-2694,5772.4L-2694,5772.4L-2694,5772.4z"/>
					<path class="st2" d="M-2694.4,5793.6L-2694.4,5793.6L-2694.4,5793.6L-2694.4,5793.6z"/>
					<path class="st2" d="M-2696.1,5776.1h0.1H-2696.1z"/>
					<path class="st2" d="M-2695.3,5794.9C-2695.4,5794.9-2695.4,5794.9-2695.3,5794.9C-2695.4,5794.9-2695.4,5794.9-2695.3,5794.9z
						"/>
					<path class="st2" d="M-2695.4,5795.4L-2695.4,5795.4C-2695.5,5795.4-2695.4,5795.4-2695.4,5795.4z"/>
					<polygon class="st2" points="-2695.6,5795.9 -2695.4,5795.9 -2695.4,5795.9 					"/>
					<path class="st2" d="M-2695.9,5789L-2695.9,5789L-2695.9,5789z"/>
					<path class="st2" d="M-2695.2,5791c-0.1,0-0.1,0-0.1-0.1C-2695.4,5791-2695.4,5791-2695.2,5791z"/>
					<path class="st2" d="M-2696.2,5786.8L-2696.2,5786.8L-2696.2,5786.8z"/>
					<path class="st2" d="M-2695.4,5790.9L-2695.4,5790.9C-2695.3,5790.9-2695.3,5790.9-2695.4,5790.9z"/>
					<polygon class="st2" points="-2695.7,5797.8 -2695.7,5797.8 -2695.6,5797.8 					"/>
					<path class="st2" d="M-2695.6,5797.8L-2695.6,5797.8L-2695.6,5797.8z"/>
					<path class="st2" d="M-2695.5,5797.9L-2695.5,5797.9C-2695.6,5797.9-2695.6,5797.9-2695.5,5797.9z"/>
					<path class="st2" d="M-2695.5,5797.1h-0.1C-2695.6,5797.1-2695.6,5797.1-2695.5,5797.1z"/>
					<path class="st2" d="M-2695.6,5797c0,0-0.2,0.1-0.2,0.2h0.1C-2695.8,5797.1-2695.4,5797-2695.6,5797z"/>
					<path class="st2" d="M-2694.3,5796.2l-0.1,0.1c0.1,0,0.3-0.1,0.3,0C-2693.8,5796.2-2694.4,5796.4-2694.3,5796.2z"/>
					<path class="st2" d="M-2694.2,5795.9c0.1,0.1,0.2,0,0.2,0C-2694,5795.8-2694.1,5795.8-2694.2,5795.9z"/>
					<path class="st2" d="M-2694.2,5792.5h0.3C-2693.9,5792.5-2694,5792.6-2694.2,5792.5z"/>
					<polygon class="st2" points="-2695.5,5791.9 -2695.6,5792 -2695.4,5792 					"/>
					<polygon class="st2" points="-2693.7,5791.6 -2693.6,5791.6 -2693.7,5791.5 					"/>
					<path class="st2" d="M-2693.8,5786.1h-0.3C-2694,5786.2-2693.7,5786.2-2693.8,5786.1z"/>
					<path class="st2" d="M-2694.1,5783.9c0.2,0,0.3-0.1,0.1-0.1C-2694,5783.8-2694.1,5783.8-2694.1,5783.9z"/>
					<polygon class="st2" points="-2693.6,5776.8 -2693.5,5776.9 -2693.5,5776.8 					"/>
				</g>
			</g>
		</g>
	</g>
</g>
<g>
	<g>
		<g>
			<g>
				<g>
					<path class="st2" d="M-2694.5,5761.2c0.1,0,0.3,0,0.2,0H-2694.5L-2694.5,5761.2z"/>
					<path class="st2" d="M-2693.9,5761.1c-0.2,0-0.4,0-0.7,0h0.6c0,0-0.1,0-0.2,0c0.1,0-0.1,0,0.1,0c0.3,0,0.3,0,0.1-0.1
						C-2694,5761.1-2693.9,5761.1-2693.9,5761.1z"/>
					<path class="st2" d="M-2693.3,5759.6L-2693.3,5759.6C-2693.4,5759.6-2693.3,5759.6-2693.3,5759.6z"/>
					<path class="st2" d="M-2693.2,5758.6C-2693.1,5758.6-2693.1,5758.6-2693.2,5758.6C-2693.1,5758.6-2693.1,5758.6-2693.2,5758.6z
						"/>
					<path class="st2" d="M-2692.8,5758.4L-2692.8,5758.4L-2692.8,5758.4z"/>
					<path class="st2" d="M-2693.3,5759.6L-2693.3,5759.6C-2693.3,5759.5-2693.3,5759.5-2693.3,5759.6z"/>
					<path class="st2" d="M-2694.7,5760.9C-2694.6,5760.9-2694.6,5760.9-2694.7,5760.9L-2694.7,5760.9L-2694.7,5760.9z"/>
					<polygon class="st2" points="-2693.1,5760 -2693.1,5760 -2692.9,5760 					"/>
					<path class="st2" d="M-2693,5760.4c0,0-0.3,0-0.4,0c0.1,0,0.2,0,0.2,0H-2693z"/>
					<path class="st2" d="M-2693.5,5760.9L-2693.5,5760.9L-2693.5,5760.9z"/>
					<path class="st2" d="M-2693,5759.8h0.1H-2693z"/>
					<path class="st2" d="M-2695.1,5750.6L-2695.1,5750.6L-2695.1,5750.6z"/>
					<polygon class="st2" points="-2693.7,5750.2 -2693.7,5750.2 -2693.6,5750.2 					"/>
					<path class="st2" d="M-2692.4,5758.1L-2692.4,5758.1L-2692.4,5758.1z"/>
					<path class="st2" d="M-2692.6,5755.4c-0.3,0-0.3-0.1-0.6,0C-2693.1,5755.4-2692.8,5755.4-2692.6,5755.4z"/>
					<path class="st2" d="M-2694.6,5760.9L-2694.6,5760.9L-2694.6,5760.9z"/>
					<polygon class="st2" points="-2693.2,5755.4 -2693.2,5755.4 -2693.3,5755.4 					"/>
					<path class="st2" d="M-2692.6,5757.4L-2692.6,5757.4L-2692.6,5757.4z"/>
					<path class="st2" d="M-2693,5757.9L-2693,5757.9L-2693,5757.9z"/>
					<path class="st2" d="M-2693,5757.2C-2693,5757.1-2692.9,5757.1-2693,5757.2L-2693,5757.2C-2693,5757.1-2693,5757.1-2693,5757.2
						z"/>
					<path class="st2" d="M-2693,5756.9h-0.1H-2693z"/>
					<path class="st2" d="M-2695,5751.5h0.3C-2694.9,5751.4-2695,5751.4-2695,5751.5z"/>
					<path class="st2" d="M-2694.5,5760.9c-0.1,0-0.1,0-0.1,0l0,0H-2694.5z"/>
					<path class="st2" d="M-2695.2,5757.1L-2695.2,5757.1L-2695.2,5757.1z"/>
					<path class="st2" d="M-2694.9,5753.5L-2694.9,5753.5C-2695,5753.5-2695,5753.5-2694.9,5753.5z"/>
					<path class="st2" d="M-2695.2,5757c0.1,0,0.2,0,0.2,0H-2695.2L-2695.2,5757z"/>
					<path class="st2" d="M-2694.7,5751.4L-2694.7,5751.4L-2694.7,5751.4z"/>
					<path class="st2" d="M-2695.4,5751.1c0,0,0.4,0,0.6,0C-2694.7,5751.2-2695.1,5751.1-2695.4,5751.1c0.2,0,0.5,0.1,0.5,0.1
						c-0.1,0-0.1,0-0.2,0c0.3,0,0,0.1,0.4,0.1h-0.1h0.5c0,0,0.2,0,0,0c0,0-0.1,0-0.2,0h0.1c-0.3,0-0.1,0-0.4,0
						c0.1,0,0.4,0.1,0.3,0.1c-0.3,0-0.1-0.1-0.4,0h0.1c-0.5,0,0,0-0.5,0c-0.1,0.1,0.2,0.1,0.1,0.1h0.5c0.3,0.1-0.9,0.1-0.4,0.1
						c0.2,0,0.7,0,0.4,0.1h-0.4c0,0.1,0.6,0,0.3,0.1c-0.2,0-0.1,0-0.2,0c-0.3,0,0.2,0,0.2,0.1h-0.3c0.1,0.1,0.3,0.1,0.4,0.2
						c-0.1,0-0.2,0-0.3,0c0.2,0.1,0,0.2-0.2,0.3h0.3c0,0-0.1,0-0.2,0s0.2,0,0.3,0c0,0-0.2,0-0.3,0c0.2,0.1,0.5,0.2,0.2,0.2h-0.1
						c-0.1,0,0.6,0.1,0.3,0.1h-0.1c-0.1,0.1,0.1,0.2-0.3,0.3c0.4,0-0.2,0.1,0.4,0.1c-0.3,0.1-0.4,0-0.6,0.1c0,0,0.4,0,0.4,0.1h-0.3
						h0.3h-0.4h0.1c0,0,0.1,0,0.2,0c0.1,0-0.2,0.1-0.4,0.1l0.3,0.1c-0.1,0-0.2,0-0.2,0c0.3,0.1-0.3,0,0,0.1c0.1,0,0.2,0,0.2,0
						c-0.2,0-0.2,0.1-0.1,0.1h-0.2c-0.1,0.1,0.1,0.1,0.1,0.2c0.1,0,0.5,0,0.5,0h-0.3c0.2,0,0.1,0,0.4,0c0,0-0.4,0-0.5,0h0.1h-0.3
						c0.2,0-0.3,0.1,0,0.1h-0.1c0,0.1,0.1,0.1,0.1,0.2c0.3,0,0.2,0,0.4,0c-0.1,0-0.3,0.1-0.3,0.2c0.1,0,0.2,0,0.4,0
						c-0.3,0-0.2,0.1-0.4,0c0,0.1,0.1,0.1,0.3,0.2c0.1,0,0.2,0,0.2,0s-0.1,0-0.2,0l0,0c0.4,0.1-0.7,0.2-0.2,0.3l0,0l0.3,0.1
						c0,0-0.2,0-0.4,0c0.4,0.1-0.1,0.1,0.2,0.2c-0.8,0.1,0.1,0.2-0.4,0.3h0.2c0.2,0-0.1,0-0.1,0c0.1,0,0.2,0,0.3,0
						c0.2,0.2-0.3,0.3-0.4,0.5c0,0.1,0.9,0,0.5,0.1h-0.3c0.4,0.1,0,0.3,0.3,0.4c-0.1,0-0.2,0-0.2,0c-0.2,0,0,0.1,0.2,0.1
						c0,0-0.2,0-0.3,0s0.3,0.1,0.1,0.1h-0.1c0.1,0,0,0.1,0.2,0.1c-0.1,0,0.1,0.1,0,0.1c0.3,0-0.1,0.1,0.3,0.1
						c-0.5,0-0.4,0.1-0.2,0.1c-0.1,0-0.1,0-0.3,0c0,0,0.1,0.1,0.3,0.1c-0.5,0.1,0.4,0.1-0.3,0.2c0.2,0.1,0.4,0.2,0.5,0.3
						c-0.5,0,0-0.1-0.5-0.1c0.2,0.1,0.6,0.1,0.5,0.2c-0.1,0-0.2,0-0.3,0c0.2,0.1,0,0.2,0.2,0.2h-0.1c0,0-0.1,0,0.1,0h-0.1
						c0.3,0,0.6,0.1,0.8,0.1c-0.6,0-0.1,0.1-0.9,0c0,0,0.1,0,0.3,0c0,0-0.1,0-0.3,0c0.1,0.1,0.3,0,0.3,0.1h-0.3c0.2,0,0.4,0,0.3,0.1
						c-0.1,0-0.1,0-0.1,0c0,0.1,0.5,0.1,0.3,0.2c-0.4,0-0.1,0-0.5,0h0.1h0.2c0,0,0.3,0.1,0.1,0.1h-0.2l0.1,0.1h0.1
						c0.2,0,0.5,0,0.4,0c0,0,0,0-0.2,0.1l0,0c0.1,0,0.2,0,0.2,0.1h-0.5c0.3,0,0.1,0.1,0.4,0.1c-0.1,0-0.3,0-0.3,0h0.3
						c-0.1,0-0.1,0-0.3,0c0,0,0.5,0,0.3,0h-0.1c-0.1,0.1,0.2,0.1,0,0.2c-0.4,0-0.1,0-0.4,0c0.1,0.1,0.4,0.2,0.4,0.2l0,0
						c0.5,0-0.3,0.1,0,0.1c0,0-0.3,0-0.2,0c-0.1,0.1,0.1,0.1,0.3,0.2h-0.1c-0.1,0-0.1,0.1-0.1,0.1c0.1,0,0.1,0,0.3,0
						c-0.8,0.1,0.4,0.2-0.2,0.3h-0.1l0.1,0.1c0.2,0,0.1,0,0.3,0c0.1,0,0.2,0,0.2,0.1c-0.2,0-0.4,0-0.5,0h0.2c-0.4,0,0.5,0,0.2,0.1
						h-0.1c0.1,0,0.2,0,0.2,0.1c-0.3,0-0.1,0-0.3,0c0,0,0.5,0.1,0.2,0.1c-0.1,0-0.1,0-0.1,0c-0.3,0-0.2,0-0.3,0.1l0,0l-0.1,0.1h0.1
						c0.7,0,0.1,0.1,0.6,0.1c-0.4-0.1-0.2,0-0.6,0c-0.1,0-0.2,0-0.3,0c0.2,0-0.2,0,0.2,0.1c-0.1,0,0,0-0.3,0c0.1,0,0.2,0,0.3,0
						c0.3,0.1-0.4,0.1,0.1,0.2c0.2,0.1,0.5,0.1,0.7,0.1c-0.2,0-0.4,0-0.4,0c-0.1,0-0.1,0.1,0,0.1c-0.1,0-0.2,0-0.3,0
						c0,0,0.4,0,0.2,0h-0.4l0.4,0.1c-0.2,0-0.3,0-0.4,0c0.1,0,0.2,0.1,0.4,0.1h0.1c0,0-0.2,0-0.3,0c-0.2,0,0.1,0,0.2,0h0.1
						c0.6,0-0.1-0.1-0.1-0.1h0.4h-0.3c0.1,0,0.3,0,0.4,0c0.2,0-0.1,0,0.1-0.1h0.1h-0.1c0.1,0,0.3,0,0.2,0c0.2-0.1-0.3-0.1,0-0.1l0,0
						c-0.1-0.1-0.3,0-0.7-0.1h0.8h-0.3c0,0,0,0,0.2,0c-0.2,0-0.1,0-0.3,0c0.3,0-0.1-0.1,0.4-0.1c-0.2,0-0.2,0-0.3,0
						c0.5,0-0.1,0,0.2-0.1c0.3,0,0.1,0,0.4,0c-0.5,0,0.1-0.1,0-0.1c-0.4,0-0.2-0.1-0.3-0.1c0.1,0,0.2-0.1,0.3-0.1h0.1
						c-0.4,0-0.3-0.1-0.4-0.1c0.2,0,0.3,0,0.4,0l0,0c-0.1,0-0.2,0-0.2,0h0.3c0,0-0.3-0.1-0.1-0.1c-0.3,0-0.7,0-0.9,0
						c0.1,0,0.4,0,0.4,0h-0.1h0.2c0.1,0-0.2,0-0.2,0c0.2,0,0.1,0,0.3,0c0,0-0.1,0,0,0c0,0,0.2,0,0.3-0.1c-0.1,0-0.3,0-0.3,0
						s0.2,0,0.3,0c-0.1,0,0,0-0.3,0c0,0,0.1,0,0.2,0c-0.1,0,0-0.1-0.4-0.1l0,0l0,0l0,0l0,0c-0.3-0.1,0.2-0.1,0-0.2h0.1
						c-0.1,0-0.1-0.1-0.3-0.1c0,0,0.2,0,0.3,0c-0.1,0-0.2,0,0-0.1c0.2,0,0.2,0,0.1,0c0.1,0,0.2,0,0-0.1c0.3,0,0.3,0,0.2,0h-0.2
						c0,0,0,0,0-0.1h0.3c0.4-0.1-0.7-0.1,0-0.2c-0.2,0-0.2,0-0.4,0l0.5-0.1c0.2-0.1-0.5,0-0.4-0.1c-0.1,0-0.4,0-0.5,0
						c0,0,0.5,0,0.6,0c0,0,0,0-0.1,0c0,0,0.1,0,0.2,0h-0.1c0.1,0,0.1-0.1,0.3-0.1c-0.1,0-0.2,0-0.3,0c0.2,0,0-0.1,0.1-0.1
						c-0.1,0-0.2,0-0.2,0c0.1-0.1-0.2,0-0.3-0.1c0.2,0,0.4,0,0.3,0c0.1,0,0.3,0,0.4,0c-0.2,0,0.2-0.1,0.2-0.1h0.1
						c-0.1,0-0.1,0-0.1,0h-0.2c0,0,0,0,0.1,0c-0.2,0-0.4,0-0.6,0c0.1,0-0.1-0.1,0.2-0.1c-0.1,0.1,0.3,0,0.4,0l0,0h0.1
						c0.3-0.1-0.4,0-0.3-0.1c0.2,0,0.3,0,0.3,0s-0.3,0-0.4,0c0.1,0-0.1,0-0.1-0.1h-0.1c-0.2,0-0.2,0-0.2-0.1c0.1,0,0.1,0,0.2,0
						c-0.3,0,0.3-0.1,0.1-0.1c0.1,0,0.3,0,0.4,0c-0.2,0,0.2,0,0.1-0.1c-0.2,0-0.2,0-0.4,0l0.2,0.1h-0.3c0,0,0.2,0,0.1,0.1
						c-0.2,0-0.1,0-0.3,0c0.4,0-0.2-0.1,0-0.1h0.6c0.3-0.1-0.3-0.1-0.2-0.2h-0.1c-0.2,0,0,0-0.1-0.1c0.2,0,0.3,0,0.4,0
						c-0.1,0,0-0.1-0.4-0.1h0.3c0.1-0.1-0.6-0.1-0.5-0.1c0.2,0,0.4,0,0.5,0c0,0,0,0-0.1,0c0.1,0-0.3-0.1-0.1-0.1c-0.1,0-0.3,0-0.3,0
						h0.1c-0.1,0-0.1,0-0.4,0c0.6-0.1,0-0.2,0.5-0.2c-0.1,0-0.1-0.1-0.1-0.1c0.1,0,0.1,0,0.1,0c0.2-0.1-0.6,0-0.4-0.1
						c0.3,0,0.2,0,0.3,0c0.6,0-0.1-0.1,0.3-0.1l0,0c0.2,0-0.2-0.1-0.2-0.1h0.1c-0.3,0-0.4-0.1-0.5-0.1c0.3,0,0.1,0,0.4,0
						c0,0-0.4,0-0.5,0c0.1,0,0.3,0,0.5,0l0,0c0.4,0,0-0.1,0.1-0.1h0.2c-0.1-0.1-0.4-0.1-0.4-0.1h-0.1c-0.4,0,0.2,0-0.1-0.1h0.4
						c-0.1,0-0.4-0.1-0.5-0.1c0.3,0,0.4,0.1,0.6,0.1c0,0,0-0.1-0.2-0.1h0.1c-0.3,0-0.5-0.1-0.5-0.1c0.8,0,0.2-0.1,0.8-0.2
						c-0.3-0.1,0.1-0.2,0.1-0.3c-0.6,0,0,0-0.6,0l0,0l0.4-0.1c0.2,0,0.1,0,0.3,0c0,0,0.3,0,0.4-0.1c-0.2,0-0.3,0-0.2,0h-0.3
						c-0.3-0.1,0.5-0.1,0.2-0.1h0.2c-0.1,0,0-0.1-0.5-0.2c0.1,0,0.2,0,0.3,0c0.1-0.1-0.5-0.2-0.2-0.3h0.1c0,0-0.3,0-0.1,0
						c0.1,0,0.1,0,0.2,0c-0.1,0-0.3,0-0.2-0.1h0.2c0.2-0.1-0.4-0.1-0.5-0.2c0.4,0,0.6-0.1,0.7-0.1h0.1c0.1-0.1-0.4-0.2-0.5-0.3
						c0.5-0.1,0.2-0.2,0.5-0.3c-0.1,0-0.3,0-0.4,0c0.1,0-0.3-0.1,0.1-0.1l0,0c0.4,0,0.3-0.1,0.3-0.1h-0.5c0.8-0.1-0.3-0.2,0.4-0.3
						c-0.1,0-0.1,0-0.3-0.1h0.3c0.1-0.1,0.1-0.1,0-0.2h0.2l-0.8-0.1h0.4c0-0.1,0.4-0.1,0-0.2c0.1,0,0.2,0,0.2,0s0.3-0.1-0.3-0.1
						c0.4,0,0-0.1-0.1-0.1h0.3c-0.4,0-0.5,0-0.6-0.1h0.2c0.1,0-0.3,0-0.1-0.1h0.2c0,0-0.1,0-0.3-0.1c-0.1,0,0.1-0.1,0.3-0.1
						c-0.2,0-0.4,0-0.3,0c0.1,0,0.2,0,0.2,0c0.2-0.1-0.3-0.1-0.1-0.1c0.1,0,0.1,0,0.2,0c0,0.1,0,0.1,0,0.1c0.3,0,0.3,0,0.7,0
						c-0.2,0-0.6-0.1-0.5-0.1h0.1l0,0l0,0h0.1c0.2,0,0.1,0,0.1-0.1c-0.3,0-0.2,0-0.5,0l0,0l0,0l0,0l0,0c-0.1,0-0.3,0-0.1-0.1h-0.5
						c0.4,0,0.6-0.1,0.8-0.1c-0.2-0.1-0.1-0.1-0.6-0.2c-0.1,0,0.2,0,0.2,0c0.1,0,0,0,0.1,0c-0.1,0-0.1-0.1-0.4-0.1
						c0.2,0,0.3,0,0.3,0h0.1c0.6-0.1-0.9-0.2-0.2-0.3h-0.1c0.3-0.1-0.3-0.3,0.2-0.5c0.1,0-0.1,0-0.3-0.1h0.3h-0.3
						c-0.3-0.1,0.7-0.1,0.3-0.2h-0.2c0,0-0.1-0.1,0.1-0.1c0,0-0.2,0-0.1,0h0.2l-0.3-0.1c0.1-0.1,0.6,0,0.7-0.1
						c-0.1,0-0.5-0.1-0.6-0.1c0,0-0.1,0-0.3,0h-0.1c-0.5,0-0.9,0-1.3,0h0.3h-0.2l0,0c-0.2,0,0,0,0.1,0.1c-0.1,0-0.2,0-0.2,0h0.4
						c-0.2,0-0.4,0-0.5,0c0.2,0,0.4,0,0.5,0c-0.2,0-0.4,0-0.2,0c-0.1,0-0.2,0-0.2,0c0.1,0,0.1,0.1,0.3,0.1c-0.3,0,0.1,0.1-0.4,0.1
						c0.1,0,0.3,0,0.4,0.1c-0.5,0,0,0.1-0.6,0.1c0.5,0,0.2,0.1,0.5,0.2h-0.1c0,0-0.2,0-0.3,0.1c0.4,0,0.5,0,0.7,0.1
						c-0.4,0-0.5,0-0.8,0c0.3,0,0.3,0.1,0.6,0c-0.2,0-0.1,0-0.4,0c0.5,0,0.1,0,0.4,0c-0.2,0-0.5,0-0.3,0.1
						C-2695.2,5751.2-2695.4,5751.1-2695.4,5751.1z M-2694.6,5752.1L-2694.6,5752.1L-2694.6,5752.1L-2694.6,5752.1z M-2694.5,5752.2
						L-2694.5,5752.2c0.1,0,0.2,0,0.2,0C-2694.4,5752.2-2694.5,5752.2-2694.5,5752.2z M-2692.6,5752
						C-2692.6,5752.1-2692.6,5752.1-2692.6,5752C-2692.7,5752-2692.7,5752-2692.6,5752L-2692.6,5752L-2692.6,5752z"/>
					<path class="st2" d="M-2693,5752L-2693,5752L-2693,5752L-2693,5752L-2693,5752z"/>
					<path class="st2" d="M-2693.4,5759.6L-2693.4,5759.6L-2693.4,5759.6z"/>
					<path class="st2" d="M-2695.1,5753.4h0.1H-2695.1z"/>
					<path class="st2" d="M-2694.3,5760L-2694.3,5760L-2694.3,5760z"/>
					<path class="st2" d="M-2694.4,5760.2L-2694.4,5760.2C-2694.5,5760.2-2694.4,5760.2-2694.4,5760.2z"/>
					<polygon class="st2" points="-2694.6,5760.4 -2694.4,5760.4 -2694.4,5760.4 					"/>
					<path class="st2" d="M-2694.9,5758C-2694.9,5758-2694.9,5757.9-2694.9,5758C-2694.9,5757.9-2694.9,5757.9-2694.9,5758z"/>
					<path class="st2" d="M-2694.2,5758.8L-2694.2,5758.8C-2694.4,5758.8-2694.4,5758.8-2694.2,5758.8z"/>
					<path class="st2" d="M-2695.2,5757.1L-2695.2,5757.1L-2695.2,5757.1z"/>
					<path class="st2" d="M-2694.4,5758.6L-2694.4,5758.6C-2694.3,5758.6-2694.3,5758.6-2694.4,5758.6z"/>
					<polygon class="st2" points="-2694.7,5761 -2694.7,5761 -2694.6,5761 					"/>
					<path class="st2" d="M-2694.6,5761L-2694.6,5761L-2694.6,5761z"/>
					<path class="st2" d="M-2694.5,5761.1L-2694.5,5761.1C-2694.6,5761.1-2694.6,5761.1-2694.5,5761.1z"/>
					<path class="st2" d="M-2694.5,5760.9h-0.1H-2694.5z"/>
					<path class="st2" d="M-2694.6,5760.9c0,0-0.2,0-0.2,0.1L-2694.6,5760.9C-2694.8,5760.9-2694.4,5760.9-2694.6,5760.9z"/>
					<path class="st2" d="M-2693.3,5760.5L-2693.3,5760.5c0,0,0.2,0,0.2,0.1C-2692.8,5760.5-2693.4,5760.6-2693.3,5760.5z"/>
					<path class="st2" d="M-2693.2,5760.4c0.1,0,0.2,0,0.2,0C-2693,5760.4-2693.1,5760.4-2693.2,5760.4z"/>
					<path class="st2" d="M-2693.2,5759.2h0.3C-2692.9,5759.2-2693,5759.2-2693.2,5759.2z"/>
					<polygon class="st2" points="-2694.5,5759 -2694.6,5759 -2694.4,5759 					"/>
					<polygon class="st2" points="-2692.7,5758.9 -2692.6,5758.9 -2692.7,5758.9 					"/>
					<path class="st2" d="M-2692.8,5756.9h-0.3C-2693,5756.9-2692.7,5756.9-2692.8,5756.9z"/>
					<path class="st2" d="M-2693.1,5756.1c0.2,0,0.3,0,0.1,0H-2693.1z"/>
					<polygon class="st2" points="-2692.6,5753.6 -2692.5,5753.6 -2692.5,5753.6 					"/>
				</g>
			</g>
		</g>
	</g>
</g>
<g>
	<g>
		<g>
			<g>
				<g>
					<path class="st2" d="M-2668.4,5756c-0.1,0-0.3,0.1-0.2,0.2l0.3-0.1L-2668.4,5756z"/>
					<path class="st2" d="M-2668.7,5756.8c0.2,0,0.5,0,0.7-0.2c-0.3,0.1-0.2,0-0.6,0.1c-0.1-0.1,0-0.2,0.2-0.2c-0.1,0,0-0.1-0.2-0.1
						c-0.2,0.2-0.1,0.3,0.1,0.3C-2668.6,5756.6-2668.7,5756.8-2668.7,5756.8z"/>
					<path class="st2" d="M-2665.9,5763.6L-2665.9,5763.6C-2665.9,5763.5-2665.9,5763.5-2665.9,5763.6z"/>
					<path class="st2" d="M-2664.1,5767.6L-2664.1,5767.6L-2664.1,5767.6z"/>
					<path class="st2" d="M-2664.3,5768L-2664.3,5768L-2664.3,5768z"/>
					<path class="st2" d="M-2665.9,5763.6v0.2C-2665.8,5763.8-2665.9,5763.6-2665.9,5763.6z"/>
					<path class="st2" d="M-2667.6,5757.2L-2667.6,5757.2C-2667.6,5757.2-2667.6,5757.2-2667.6,5757.2L-2667.6,5757.2z"/>
					<polygon class="st2" points="-2667,5761.9 -2667,5761.9 -2667.2,5761.9 					"/>
					<path class="st2" d="M-2667.8,5760.5c0,0,0.3-0.1,0.4-0.1c-0.1,0-0.2,0-0.2,0S-2667.7,5760.4-2667.8,5760.5z"/>
					<path class="st2" d="M-2668.4,5758.1L-2668.4,5758.1L-2668.4,5758.1z"/>
					<path class="st2" d="M-2666.6,5762.9C-2666.6,5762.9-2666.7,5762.9-2666.6,5762.9L-2666.6,5762.9z"/>
					<path class="st2" d="M-2693.1,5770.5L-2693.1,5770.5C-2693.1,5770.4-2693.1,5770.4-2693.1,5770.5z"/>
					<polygon class="st2" points="-2692.9,5768.2 -2692.9,5768.2 -2692.7,5768.1 					"/>
					<path class="st2" d="M-2664.8,5768.1L-2664.8,5768.1C-2664.9,5768.1-2664.9,5768.1-2664.8,5768.1z"/>
					<path class="st2" d="M-2676.1,5773.5c0.2,0.2-0.1,0.4,0.2,0.6C-2675.9,5773.9-2675.9,5773.5-2676.1,5773.5z"/>
					<path class="st2" d="M-2667.6,5757.4C-2667.6,5757.4-2667.5,5757.4-2667.6,5757.4C-2667.5,5757.4-2667.6,5757.4-2667.6,5757.4z
						"/>
					<polygon class="st2" points="-2675.9,5774 -2675.9,5774 -2675.8,5774 					"/>
					<path class="st2" d="M-2667.1,5769.4C-2667.1,5769.4-2667.1,5769.4-2667.1,5769.4C-2667.1,5769.4-2667.1,5769.4-2667.1,5769.4z
						"/>
					<path class="st2" d="M-2664.7,5768.8L-2664.7,5768.8C-2664.8,5768.8-2664.8,5768.8-2664.7,5768.8z"/>
					<path class="st2" d="M-2668.1,5770.2C-2668.2,5770.2-2668.2,5770.2-2668.1,5770.2C-2668.2,5770.2-2668.2,5770.4-2668.1,5770.2
						C-2668.2,5770.2-2668.2,5770.2-2668.1,5770.2z"/>
					<path class="st2" d="M-2669.3,5770.9L-2669.3,5770.9L-2669.3,5770.9z"/>
					<path class="st2" d="M-2690.8,5773.9c0.1-0.1,0.1-0.1,0.2-0.2C-2690.8,5773.8-2691,5773.6-2690.8,5773.9z"/>
					<path class="st2" d="M-2667.7,5757.4C-2667.6,5757.4-2667.6,5757.4-2667.7,5757.4L-2667.7,5757.4
						C-2667.6,5757.4-2667.7,5757.4-2667.7,5757.4z"/>
					<path class="st2" d="M-2667.3,5772.4l-0.2,0.1C-2667.4,5772.4-2667.3,5772.4-2667.3,5772.4z"/>
					<path class="st2" d="M-2683.3,5779.4L-2683.3,5779.4L-2683.3,5779.4z"/>
					<path class="st2" d="M-2668,5772.6c-0.1-0.1-0.1-0.1-0.2-0.1c0,0,0,0,0,0.1H-2668z"/>
					<path class="st2" d="M-2690.6,5773.6L-2690.6,5773.6L-2690.6,5773.6z"/>
					<path class="st2" d="M-2692,5772.9c0.1,0.2,0.4-0.1,0.6-0.2c0.2,0.1-0.2,0.2-0.3,0.4c0.2,0.1,0.5,0,0.6,0.1l-0.1,0.1
						c0.3,0,0.3,0.4,0.7,0.3c0,0,0,0.1-0.1,0.1c0.1-0.1,0.3-0.2,0.4-0.3c0.1,0.1,0.3,0,0.1,0.2c0,0-0.1,0-0.2,0h0.1
						c-0.2,0.3-0.2,0-0.4,0.1c0.2,0.1,0.6,0.1,0.5,0.3c-0.3,0.2-0.3-0.2-0.4,0.1v-0.3c-0.4,0.4,0-0.1-0.4,0.3
						c0.1,0.3,0.3,0.2,0.4,0.5c0.2,0,0.2-0.2,0.4-0.2c0.5,0.2-0.5,0.7,0,0.7c0.2-0.1,0.6-0.3,0.5,0l-0.4,0.1
						c0.1,0.3,0.6-0.2,0.5,0.2c-0.2,0-0.2-0.1-0.2-0.1c-0.2,0.3,0.3,0,0.3,0.1l-0.3,0.2c0.2,0.2,0.6,0.4,0.8,0.6
						c-0.1,0-0.2,0-0.3,0.2c0.4,0.3,0.4,0.8,0.5,1.2h0.3l-0.1,0.1c0,0.2,0.2-0.1,0.3-0.1c0.1,0.1-0.1,0.2-0.2,0.2
						c0.2,0.1,0.4,0.1,0.6,0.3c0.1,0.1,0.1,0.1,0.2,0.2c0.1,0.1,0.1,0.3,0.1,0.4h-0.1c0.1,0.4,0.6-0.1,0.6,0.4h-0.1
						c0.2,0.4,0.5,0.8,0.7,1.1c0.3-0.1,0.5-0.1,0.7,0c0.1-0.3,0.2-0.3,0.4-0.3s0.3-0.1,0.3-0.4c0.2,0.1,0.3,0.1,0.4,0.2
						c0.1,0.1,0.3,0,0.5,0c0.1,0,0-0.4,0.1-0.5l0.1,0.3v-0.4l0.2,0.3l0.1-0.1c-0.1,0-0.2-0.1-0.2-0.2c0.1-0.2,0.5,0,0.6,0.1l0.3-0.4
						c0,0.1,0,0.2,0,0.3c0.1-0.4,0.2,0.3,0.3-0.1c-0.1-0.1-0.1-0.2-0.1-0.2c0.2,0.1,0.4,0,0.5-0.1l0.1,0.2c0.3-0.1,0.6-0.4,0.9-0.5
						c-0.2,0-0.3-0.4-0.2-0.5l0.2,0.3c0-0.2-0.2-0.1-0.1-0.3c0.1,0,0.2,0.3,0.2,0.4l0.1-0.2c0,0.1,0,0.1,0.1,0.3
						c0-0.2,0.4,0.2,0.4-0.2v0.1c0.3-0.2,0.5-0.3,0.7-0.5c-0.1-0.3,0-0.3,0-0.5c0.2,0,0.6,0.1,0.8,0c0.1-0.2,0-0.2,0-0.4
						c0.1,0.2,0.4,0.1,0.3,0.3c0.3-0.2,0.4-0.2,0.6-0.6c-0.1-0.1-0.1-0.1-0.2-0.2c0.1-0.1,0.2,0,0.2,0.1l0,0
						c0.3-0.5,1.3,0.2,1.4-0.4l0,0l0.2-0.4c0.2,0,0,0.2,0.2,0.3c0.2-0.6,0.6-0.2,0.8-0.6c0.6,0.6,0.8-0.4,1.3-0.1l-0.1-0.2
						c0-0.2,0.1,0,0.2,0.1c-0.1-0.1-0.2-0.1-0.1-0.2c0.6-0.5,1.6-0.4,2.4-0.6c0.3-0.1-0.2-0.9,0.3-0.7v0.3c0.4-0.6,1.1-0.5,1.5-1
						c0,0.1,0,0.2,0,0.2c0.2,0.2,0.4-0.2,0.3-0.4c0.1,0,0.1,0.2,0.2,0.2c0.2,0.1,0.2-0.4,0.3-0.2v0.1c0-0.1,0.3-0.1,0.2-0.3
						c0.3,0,0.3-0.3,0.5-0.2c0-0.3,0.4,0,0.2-0.4c0.2,0.4,0.5,0.2,0.5-0.1c0,0.1,0.2,0.1,0.2,0.3c0.1-0.1,0.2-0.2,0.1-0.4
						c0.5,0.4,0.3-0.6,0.8-0.1c0.3-0.4,0.6-0.7,1-1c0.2,0.4-0.4,0.2-0.2,0.7c0.3-0.3,0.3-0.8,0.7-0.8c0.1,0,0,0.2,0,0.3
						c0.1-0.2,0.3-0.2,0.5-0.3c0.2-0.1,0.3-0.1,0.5-0.4c0,0,0,0.1,0,0.2c0.1-0.1,0.3-0.1,0.1-0.2l-0.1,0.1c-0.3-0.2,0-0.7-0.1-0.8
						c0.3,0.5,0.5-0.1,0.8,0.6c0-0.1,0-0.2-0.1-0.3c0.1,0,0.2,0,0.3,0.2c0.3-0.2-0.1-0.3,0.2-0.5c0.1,0.1,0.1,0.1,0.2,0.2
						c0-0.2-0.1-0.4,0.2-0.4c0.1,0,0.2,0.1,0.1,0.1c0.2-0.1,0.2-0.2,0.2-0.3c-0.3-0.3-0.6-0.5-0.6-0.7c0.6,0.2,0.1-0.1,0.5-0.1
						l-0.3-0.3l-0.2,0.1c-0.1-0.2-0.5-0.4-0.4-0.6l0.2,0.1l-0.3-0.4v0.3c-0.3-0.2-0.5,0.1-0.5-0.1c0.1,0-0.1-0.2,0.1-0.4l0,0
						c-0.2,0-0.3,0-0.3-0.2c0.1-0.1,0.4-0.2,0.4-0.2c-0.3,0.1-0.3-0.3-0.6-0.3c0.1,0,0.3-0.1,0.3-0.1l-0.3,0.1
						c0-0.1,0.1-0.1,0.2-0.2c-0.1-0.2-0.4,0.3-0.3-0.1h0.1c0-0.3-0.4-0.4-0.4-0.7c0.3-0.2,0.2,0.2,0.4-0.1c-0.2-0.3-0.7-0.5-0.8-0.8
						v0.1c-0.5,0.2,0.1-0.4-0.2-0.4c0.1,0,0.3-0.1,0.2-0.1c0-0.3-0.3-0.4-0.7-0.6h0.1c0-0.2-0.1-0.4-0.1-0.5c-0.1,0-0.2-0.1-0.3,0.1
						c0.5-0.8-0.8-0.6-0.4-1.3c0,0,0.2,0.1,0.1,0l-0.3-0.3c-0.2,0.1-0.1,0.1-0.2,0.3c-0.1,0-0.3,0-0.3-0.1c0.2,0.1,0.3-0.2,0.4-0.3
						c-0.1,0-0.1,0.1-0.2,0.1c0.3-0.4-0.4,0.2-0.3-0.2h0.1c-0.1-0.1-0.3-0.1-0.3-0.2c0.2-0.2,0.2,0,0.4-0.1c-0.1-0.1-0.6,0-0.4-0.3
						c0.1,0,0.1,0.1,0.2,0.1c0.2-0.3,0.1-0.2,0.1-0.4l0,0v-0.3v0.1c-0.7,0.1-0.3-0.3-0.8-0.3c0.5,0,0.2-0.1,0.5-0.2
						c0-0.1,0.1-0.2,0.2-0.2c-0.3,0,0.1-0.3-0.3-0.2c0.1-0.1,0-0.1,0.2-0.2c-0.1-0.1-0.1,0.1-0.3,0.1c-0.4-0.1,0.1-0.7-0.4-0.8
						c-0.3-0.2-0.6-0.1-0.9-0.2c0.1-0.2,0.4-0.1,0.4-0.1c0.1-0.2,0-0.3-0.2-0.4c0.1,0,0.1-0.1,0.2-0.2c-0.1-0.1-0.4,0.1-0.3-0.1
						c0.1,0,0.3-0.1,0.4-0.1c-0.1-0.1-0.4-0.1-0.5-0.2c0.1-0.1,0.3,0,0.4,0c-0.1-0.1-0.3-0.3-0.6-0.2v0.1c0,0,0.2-0.1,0.3-0.1
						c0.2,0,0,0.2-0.1,0.3l-0.1-0.1c-0.5,0.3,0.3,0.3,0.3,0.5l-0.4,0.1h0.4c-0.1,0.1-0.3,0.2-0.4,0.2c-0.1,0.2,0.2,0,0,0.3
						c0,0,0,0-0.1,0l0.2,0.1c-0.1,0-0.3,0.2-0.2,0.1c-0.1,0.3,0.5,0.2,0.2,0.4l0,0c0.3,0.2,0.3-0.1,0.7,0l-0.6,0.5l0.3-0.1
						c0,0,0,0.1-0.1,0.2c0.2,0,0.1-0.1,0.3-0.1c-0.2,0.3,0.3,0.4-0.1,0.6c0.2-0.1,0.1-0.2,0.3-0.1c-0.4,0.3,0.2,0.1,0,0.4
						c-0.3,0.1-0.2-0.1-0.3,0.1c0.5-0.1,0,0.3,0.2,0.4c0.3-0.2,0.3,0.2,0.5,0.3c-0.1,0,0,0.5,0,0.7h-0.1c0.3-0.1,0.4,0.1,0.5,0.2
						c-0.2,0.1-0.3,0.1-0.4,0.1l0.1,0.1c0.1,0,0.2,0,0.3,0.1l-0.3,0.1c0.1,0.2,0.5,0.2,0.4,0.5c0.2-0.1,0.6-0.5,0.8-0.3
						c-0.1,0.1-0.3,0.2-0.4,0.1c0,0,0.1,0,0.1,0.1h-0.3c0,0.1,0.2,0,0.2,0.1c-0.2,0.1-0.1,0.1-0.2,0.2v-0.1c0,0.1,0,0.3-0.2,0.4
						c0.1-0.1,0.2-0.1,0.3-0.1c0.1,0.2-0.2,0.2-0.2,0.3c0.1,0,0.1,0.2,0.3,0c0,0.1-0.1,0.1-0.2,0.2c0.2,0,0.2,0.4,0.5,0.2l0,0l0,0
						l0,0l0,0c0.4,0.2,0.1,0.7,0.4,0.9h-0.1c0.2,0.1,0.2,0.4,0.5,0.4c0,0.1-0.1,0.2-0.2,0.2c0.1,0.1,0.2,0.1,0.2,0.3
						c-0.2-0.1-0.1,0.1-0.2-0.1c0,0.2-0.1,0.3,0.2,0.4c-0.3,0.1-0.2,0.3-0.1,0.3l0.1-0.2c0.1,0.1,0.1,0.2,0.1,0.3l-0.3,0.1
						c-0.2,0.5,0.9,0.3,0.5,0.9c0.3,0,0.1-0.3,0.3-0.3c0,0.2-0.3,0.6-0.3,0.6c-0.1,0.3,0.5,0,0.5,0.2c0.1-0.1,0.4-0.2,0.6-0.1
						c0,0.2-0.4,0.2-0.6,0.2c0,0,0,0,0.1,0c-0.1,0-0.1,0-0.2,0h0.1c-0.1,0.1,0,0.2-0.3,0.2c0.1,0,0.2,0,0.3,0
						c-0.1,0.1,0.1,0.2,0,0.2c0.1,0,0.2,0,0.2,0c-0.1,0.1,0.3,0.1,0.5,0.3c-0.2,0-0.6-0.2-0.3,0c0,0-0.1,0-0.2,0h-0.1l-0.3-0.1
						c0.1,0,0.1,0,0.1,0.1s-0.4-0.1-0.4-0.1l-0.1-0.1c0.1,0,0,0,0,0l0.3,0.1c-0.1,0-0.1,0-0.2-0.1c0.1,0.1,0.4,0.2,0.6,0.4
						c-0.2-0.1,0,0.2-0.3-0.1c0.2,0-0.3-0.2-0.3-0.3l0,0c0,0-0.1,0-0.1-0.1c-0.3-0.2,0.3,0.3,0.2,0.3c-0.1-0.1-0.2-0.3-0.2-0.2
						c0,0,0.2,0.2,0.2,0.4c-0.2-0.1,0,0.1-0.1,0.1h0.1c0.1,0.2,0,0.2-0.1,0.3c-0.1-0.1,0.1-0.1,0-0.2c0,0.3-0.4-0.2-0.5,0.1
						c-0.1-0.1-0.1-0.3-0.3-0.3c-0.1,0.3-0.3-0.1-0.4,0.1c0.2,0.2,0.1,0.1,0.1,0.4l0.3-0.3l-0.1,0.4c0.1,0,0.2-0.2,0.2-0.2
						c0,0.2,0,0.2,0.1,0.3c-0.3-0.3-0.2,0.3-0.5,0.2l-0.2-0.5c-0.4-0.1-0.3,0.5-0.7,0.5h0.1c0.1,0.2-0.2,0.1-0.2,0.3
						c-0.1-0.2-0.2-0.2-0.3-0.3c0.1,0.1-0.2,0.1-0.1,0.5l-0.2-0.2c-0.3,0-0.1,0.6-0.3,0.7c0-0.2-0.2-0.3-0.1-0.5
						c-0.1,0-0.2,0-0.1,0.2c-0.1-0.1-0.1,0.3-0.3,0.2c0,0.1,0.1,0.3,0,0.3v-0.1c0,0.1-0.1,0.2,0.1,0.3c-0.5-0.4-0.7,0.4-1.1,0
						c-0.2,0.1-0.3,0.3-0.5,0.4c0-0.1,0-0.1,0-0.1c-0.3-0.1,0.1,0.6-0.2,0.5c-0.3-0.2,0.1-0.2-0.1-0.3c-0.3-0.6-0.3,0.2-0.6,0v-0.1
						c-0.2-0.1-0.2,0.4-0.4,0.4v-0.1c0,0.4-0.2,0.6-0.4,0.8c0-0.3,0-0.2-0.1-0.4c-0.1,0.1,0.2,0.4,0,0.5c-0.1-0.1-0.3-0.1-0.4-0.4
						l0.2-0.1c-0.2-0.3-0.2,0.1-0.3,0.1l-0.1-0.1c-0.2,0.2-0.1,0.5-0.4,0.6l0.1,0.1c0,0.4-0.2-0.1-0.3,0.2l-0.2-0.3
						c-0.1,0.1-0.2,0.5-0.4,0.7c0-0.3,0.1-0.5,0.2-0.8c-0.1,0-0.3,0.2-0.3,0.4c0-0.1,0-0.2,0.1-0.1c0,0.3-0.1,0.6-0.3,0.6
						c-0.3-0.7-0.6,0.1-1-0.4c-0.2,0.4-0.8,0.2-1.2,0.4c0.4,0.5-0.1,0.1,0.2,0.6c-0.1,0.1-0.1,0.1-0.1,0.1l-0.4-0.2
						c-0.1-0.1,0-0.2,0-0.3c-0.2,0.1-0.2-0.2-0.4-0.3c0.1,0.2,0.1,0.3-0.1,0.3l0.3,0.2c-0.2,0.4-0.5-0.4-0.6,0.1v-0.2
						c-0.1,0.2-0.6,0.3-0.5,0.8c-0.1-0.1-0.2-0.2-0.1-0.3c-0.4,0.1-0.6,0.9-1,0.7v-0.1c-0.1,0.1,0,0.3-0.2,0.2c0-0.1,0-0.1-0.1-0.1
						c0,0.1-0.1,0.3-0.2,0.3v-0.2c-0.4,0-0.4,0.6-0.6,0.9c-0.2-0.4-0.5-0.4-0.7-0.4v-0.1c-0.4,0.1-0.6,0.7-0.9,1
						c-0.4-0.3-0.9,0.2-1.4,0.1c0.1,0,0.1,0.3,0.1,0.4c-0.1,0-0.1,0.4-0.3,0l0,0c-0.2-0.3-0.4-0.1-0.5-0.1l0.2,0.5
						c-0.7-0.5-0.9,0.7-1.4,0.2c0,0.2-0.2,0.2-0.2,0.4l-0.1-0.3c-0.2,0-0.1-0.1-0.2,0.1v-0.2c0,0-0.1,0.9-0.2,1v-0.5
						c0,0-0.1,0-0.1-0.1c0-0.2,0-0.2-0.2-0.1c0-0.1,0.1-0.2,0.1-0.2c0-0.1,0.1-0.3-0.3,0.1c0.3-0.3,0-0.1-0.3-0.2l0.2-0.1
						c-0.4,0.1-0.5,0.1-0.7,0c0-0.1,0.2-0.2,0.1-0.1c0-0.2-0.3,0-0.3-0.2h0.2c-0.1-0.2-0.1-0.1-0.4-0.1c-0.2,0-0.1-0.3,0.1-0.5
						c-0.1,0.1-0.4,0.1-0.4,0c0.1-0.1,0.1-0.1,0.2-0.1c0-0.4-0.5-0.2-0.4-0.5c0.1-0.1,0.1-0.1,0.1-0.1c0.1,0.2,0.2,0.4,0.2,0.4
						c0.2-0.1,0.2-0.3,0.5-0.4c-0.2,0-0.7,0-0.7-0.2c0,0,0,0,0.1-0.1l0,0c0,0,0-0.1-0.1-0.1c0-0.1,0-0.1,0-0.2
						c0.2-0.1,0-0.2-0.1-0.3c-0.2,0.2-0.3,0-0.4,0.3c0,0,0,0,0.1,0l0,0l0,0l0.1,0.2c-0.2,0-0.3,0-0.2-0.2l-0.5,0.1
						c0.3-0.3,0.3-0.6,0.5-0.8c-0.3-0.2-0.5-0.5-1-0.4c-0.1,0,0.1-0.2,0.1-0.2c0.1,0,0.1,0.1,0.2,0c-0.2-0.1-0.3-0.4-0.6-0.2
						c0-0.3,0.3-0.1,0.1-0.3h0.1c0.2-0.8-1.3-0.3-1-1.2c0,0.1,0,0.1-0.1,0.1c-0.1-0.8-1-1.1-1-1.9c0-0.2-0.2-0.1-0.4-0.1l0.2-0.2
						h-0.4c-0.4-0.1,0.4-0.8-0.3-0.9l-0.1,0.2c0-0.1-0.3-0.3-0.1-0.4c0,0-0.2,0.1-0.1,0l0.1-0.1l-0.4-0.1c0-0.3,0.5-0.3,0.4-0.6
						c-0.1-0.1-0.6-0.1-0.7,0c0,0.1,0,0.2-0.1,0.3l-0.1-0.1c-0.4,0.2-0.9,0.4-1,0.8h0.4l-0.2,0.2l-0.1-0.1c-0.1,0.2,0.1,0.2,0.2,0.1
						c-0.1,0.1-0.1,0.1-0.2,0.2l0.5-0.1c-0.1,0.1-0.4,0.1-0.4,0.3c0.2,0,0.3-0.3,0.5-0.2c-0.1,0.2-0.3,0.3-0.1,0.3
						c-0.1,0.1-0.2,0.1-0.2,0.1c0.2,0,0.2,0.2,0.4,0.1c-0.2,0.2,0.3,0.3-0.1,0.5c0.1,0,0.4,0,0.5,0c-0.5,0.1,0.2,0.3-0.3,0.6
						c0.5-0.1,0.4,0.3,0.8,0.4h-0.1c0,0.1-0.1,0.2-0.1,0.4c0.3-0.2,0.5-0.1,0.8-0.1c-0.2,0.3-0.4,0.2-0.7,0.4
						c0.3-0.2,0.4,0.1,0.6-0.1c-0.1,0.2,0,0.2-0.3,0.4c0.4-0.2,0.1,0.1,0.4,0c-0.1,0.3-0.4,0.3-0.1,0.4
						C-2691.7,5772.9-2692,5772.9-2692,5772.9z M-2688.7,5776.4L-2688.7,5776.4L-2688.7,5776.4L-2688.7,5776.4z M-2688.5,5776.6
						c0,0,0-0.1-0.1-0.1c0.1-0.1,0.2-0.1,0.2-0.1C-2688.5,5776.4-2688.5,5776.5-2688.5,5776.6z M-2687.3,5774.9c0.1,0,0,0.1,0,0.1
						S-2687.4,5775-2687.3,5774.9l-0.1,0.1C-2687.4,5774.9-2687.3,5774.9-2687.3,5774.9z"/>
					<path class="st2" d="M-2687.7,5775L-2687.7,5775L-2687.7,5775L-2687.7,5775L-2687.7,5775z"/>
					<path class="st2" d="M-2665.9,5763.5L-2665.9,5763.5L-2665.9,5763.5L-2665.9,5763.5z"/>
					<path class="st2" d="M-2683.7,5779.6v-0.1V5779.6z"/>
					<path class="st2" d="M-2666,5761.1C-2666,5761.1-2665.9,5761.1-2666,5761.1C-2665.9,5761.1-2666,5761.1-2666,5761.1z"/>
					<path class="st2" d="M-2666.3,5760.2v-0.2C-2666.3,5760.1-2666.3,5760.2-2666.3,5760.2z"/>
					<path class="st2" d="M-2666.5,5759.5h-0.1l0,0H-2666.5z"/>
					<path class="st2" d="M-2663.8,5770.4L-2663.8,5770.4C-2663.9,5770.4-2663.9,5770.4-2663.8,5770.4z"/>
					<path class="st2" d="M-2663.2,5766.9c0.1,0,0.1,0,0.2,0.1C-2663.1,5766.9-2663.1,5766.9-2663.2,5766.9z"/>
					<polygon class="st2" points="-2667.2,5772.4 -2667.2,5772.2 -2667.3,5772.4 					"/>
					<path class="st2" d="M-2662.9,5767.2c0-0.1,0-0.1-0.1-0.2C-2663,5767.1-2663,5767.1-2662.9,5767.2z"/>
					<path class="st2" d="M-2667.8,5756.8L-2667.8,5756.8C-2667.8,5756.6-2667.9,5756.6-2667.8,5756.8L-2667.8,5756.8z"/>
					<path class="st2" d="M-2667.9,5756.6L-2667.9,5756.6L-2667.9,5756.6z"/>
					<path class="st2" d="M-2668,5756.6L-2668,5756.6C-2667.9,5756.6-2667.9,5756.6-2668,5756.6z"/>
					<path class="st2" d="M-2667.5,5757.6L-2667.5,5757.6C-2667.4,5757.5-2667.5,5757.6-2667.5,5757.6z"/>
					<path class="st2" d="M-2667.4,5757.9c0-0.1,0.1-0.3,0-0.3h-0.1C-2667.3,5757.5-2667.5,5757.9-2667.4,5757.9z"/>
					<path class="st2" d="M-2667.9,5759.5v-0.3c-0.1,0.1-0.2,0.2-0.3,0.1C-2668.4,5759.8-2668,5759.2-2667.9,5759.5z"/>
					<path class="st2" d="M-2667.7,5760.2c-0.1-0.1-0.1,0.1-0.2,0.1C-2667.8,5760.4-2667.8,5760.4-2667.7,5760.2z"/>
					<path class="st2" d="M-2665.3,5765.1l-0.2,0.1C-2665.5,5765.4-2665.5,5765.2-2665.3,5765.1z"/>
					<polygon class="st2" points="-2663.7,5765.5 -2663.6,5765.4 -2663.8,5765.4 					"/>
					<polygon class="st2" points="-2665,5766.9 -2665.1,5766.9 -2664.9,5766.9 					"/>
					<path class="st2" d="M-2669.2,5770.4l0.2,0.3C-2669,5770.6-2669.2,5770.4-2669.2,5770.4z"/>
					<path class="st2" d="M-2672.7,5772.4c-0.1-0.1-0.2-0.2-0.2,0C-2672.9,5772.4-2672.7,5772.4-2672.7,5772.4z"/>
					<polygon class="st2" points="-2683.8,5776.9 -2683.7,5776.8 -2683.8,5776.9 					"/>
				</g>
			</g>
		</g>
	</g>
</g>
<g>
	<g>
		<g>
			<g>
				<g>
					<path class="st2" d="M-2719.8,5761.9c0-0.1-0.1-0.3-0.1-0.2L-2719.8,5761.9L-2719.8,5761.9z"/>
					<path class="st2" d="M-2720.1,5761.4c0,0.2,0,0.5,0.1,0.7c0-0.3,0-0.2,0-0.6c0,0,0.1,0.1,0.1,0.2c0-0.1,0.1,0.1,0-0.1
						c-0.1-0.2-0.1-0.2-0.1,0C-2720.1,5761.5-2720.1,5761.4-2720.1,5761.4z"/>
					<path class="st2" d="M-2721.7,5761.4L-2721.7,5761.4L-2721.7,5761.4z"/>
					<path class="st2" d="M-2722.3,5761.4l0.1-0.1L-2722.3,5761.4z"/>
					<path class="st2" d="M-2721.9,5760.9L-2721.9,5760.9C-2721.9,5760.8-2721.9,5760.8-2721.9,5760.9z"/>
					<path class="st2" d="M-2721.7,5761.4l0.1-0.1C-2721.7,5761.4-2721.7,5761.2-2721.7,5761.4z"/>
					<path class="st2" d="M-2720.3,5762.2L-2720.3,5762.2L-2720.3,5762.2L-2720.3,5762.2z"/>
					<polygon class="st2" points="-2721.2,5760.9 -2721.1,5760.9 -2721.1,5760.8 					"/>
					<path class="st2" d="M-2720.9,5760.8l-0.1,0.4c0-0.1,0.1-0.2,0.1-0.2V5760.8z"/>
					<path class="st2" d="M-2720.5,5761.1L-2720.5,5761.1L-2720.5,5761.1z"/>
					<path class="st2" d="M-2721.3,5760.9l0.1-0.1L-2721.3,5760.9z"/>
					<path class="st2" d="M-2721.4,5754.9L-2721.4,5754.9C-2721.3,5754.9-2721.4,5754.9-2721.4,5754.9z"/>
					<polygon class="st2" points="-2719.9,5755.4 -2719.9,5755.4 -2719.8,5755.4 					"/>
					<path class="st2" d="M-2721.4,5760.2L-2721.4,5760.2L-2721.4,5760.2z"/>
					<path class="st2" d="M-2721.8,5760.1c-0.4,0.2-0.5,0.2-1,0.4C-2722.6,5760.4-2722.1,5760.2-2721.8,5760.1z"/>
					<path class="st2" d="M-2720.4,5762.2L-2720.4,5762.2L-2720.4,5762.2z"/>
					<path class="st2" d="M-2722.8,5760.4L-2722.8,5760.4L-2722.8,5760.4z"/>
					<path class="st2" d="M-2722.1,5760.6l-0.3,0.2L-2722.1,5760.6z"/>
					<path class="st2" d="M-2722.6,5761.2L-2722.6,5761.2L-2722.6,5761.2z"/>
					<path class="st2" d="M-2723.1,5761.4C-2723.1,5761.4-2723,5761.2-2723.1,5761.4L-2723.1,5761.4
						C-2723,5761.4-2723,5761.2-2723.1,5761.4z"/>
					<polygon class="st2" points="-2723,5761.2 -2723.1,5761.2 -2723.1,5761.2 					"/>
					<path class="st2" d="M-2721.9,5755.9l0.2,0.1C-2721.8,5755.9-2721.9,5755.9-2721.9,5755.9z"/>
					<path class="st2" d="M-2720.4,5762.1c0,0.1,0,0.1,0,0.1l0,0C-2720.3,5762.1-2720.3,5762.1-2720.4,5762.1z"/>
					<path class="st2" d="M-2728.3,5765.1l0.2-0.2C-2728.3,5765-2728.3,5765.1-2728.3,5765.1z"/>
					<path class="st2" d="M-2723.3,5758.1L-2723.3,5758.1L-2723.3,5758.1z"/>
					<polygon class="st2" points="-2728.1,5764.9 -2727.6,5764.4 -2727.8,5764.5 					"/>
					<path class="st2" d="M-2721.7,5756L-2721.7,5756L-2721.7,5756z"/>
					<path class="st2" d="M-2722,5755.4c0,0,0.3,0.2,0.5,0.4c0.1,0.1-0.2-0.1-0.4-0.2c0.1,0.1,0.3,0.3,0.3,0.3c-0.1,0-0.1,0-0.1-0.1
						c0.2,0.2-0.1,0.1,0.2,0.4h-0.1l0.4,0.3c0,0,0.2,0.2,0,0l-0.1-0.1l0.1,0.1c-0.3-0.2-0.1-0.1-0.3-0.2c0.1,0.1,0.3,0.3,0.2,0.3
						c-0.3-0.2,0-0.1-0.3-0.3h0.1c-0.5-0.3,0.1,0-0.4-0.3c-0.1,0,0.1,0.2,0,0.2c0.1,0.1,0.2,0.1,0.4,0.3c0.2,0.3-0.8-0.4-0.4-0.1
						c0.2,0.1,0.5,0.4,0.3,0.3l-0.3-0.2c-0.1,0,0.4,0.3,0.2,0.3c-0.1-0.1-0.1-0.1-0.1-0.1c-0.3-0.1,0.2,0.2,0.1,0.2l-0.3-0.2
						c0,0.1,0.2,0.3,0.2,0.4c-0.1-0.1-0.2-0.1-0.3-0.2c0.1,0.2-0.2,0.2-0.4,0.2l0.2,0.2c0,0-0.1-0.1-0.2-0.1c-0.1,0,0.2,0.1,0.2,0.2
						l-0.2-0.1c0.2,0.2,0.3,0.5,0,0.4l-0.1-0.1c-0.1,0,0.5,0.4,0.2,0.3l0,0c-0.2,0,0,0.3-0.5,0.1c0.3,0.3-0.2,0,0.3,0.3
						c-0.3-0.1-0.4-0.2-0.6-0.2c0,0,0.3,0.2,0.3,0.3l-0.3-0.2l0.2,0.2l-0.3-0.2v0.1c0,0,0.1,0.1,0.2,0.1c0.1,0.1-0.3,0-0.4-0.1
						c0,0.1,0.1,0.2,0.1,0.3c-0.1-0.1-0.1-0.1-0.2-0.2c0.2,0.2-0.3-0.1-0.1,0.1c0.1,0,0.2,0.1,0.2,0.1c-0.2,0-0.3,0.1-0.2,0.2
						l-0.2-0.1c-0.1,0.1-0.1,0.3-0.2,0.5c0.1,0,0.5,0.1,0.5,0.1l-0.4-0.1c0.2,0.1,0.2,0,0.4,0.1c-0.1,0-0.4,0-0.5-0.1l0.1,0.1
						c-0.1,0-0.2,0-0.3-0.1c0.2,0.1-0.4,0.1-0.1,0.2h-0.1c-0.1,0.2,0,0.2-0.1,0.4c0.3,0,0.2,0.1,0.5,0.1c-0.2,0.1-0.5,0.2-0.5,0.3
						c0.1,0.1,0.3,0,0.5,0c-0.3,0-0.4,0.1-0.6,0.1c0,0.1,0,0.2,0.1,0.3c0.2,0,0.2-0.1,0.3-0.1c0,0-0.2,0.1-0.3,0.1l0,0
						c0.2,0-0.1,0.2-0.4,0.3c-0.3,0.1-0.6,0.3-0.2,0.3l0,0c0.1,0,0.2,0,0.3,0c-0.1,0.1-0.3,0.1-0.5,0.2c0.6-0.1-0.3,0.3,0.1,0.3
						c-1.3,0.6-0.1,0.3-1.1,0.8l0.3-0.1c0.3-0.1-0.2,0.1-0.3,0.2c0.2-0.1,0.3-0.2,0.5-0.2c0.2,0.1-0.9,0.8-1.4,1.4
						c-0.2,0.2,1.8-1,0.8-0.3l-0.6,0.3c0.6-0.2-0.4,0.5,0.2,0.3c-0.2,0.1-0.4,0.2-0.3,0.2c-0.5,0.4-0.1,0.2,0.3-0.1
						c-0.1,0.1-0.4,0.3-0.6,0.4c-0.3,0.3,0.6-0.3,0,0.1c-0.1,0.1-0.2,0.1-0.2,0.1c0.2-0.1-0.2,0.2,0.5-0.3c-0.4,0.3,0.2,0-0.2,0.3
						c0.7-0.5-0.4,0.4,0.6-0.3c-1,0.7-0.9,0.8-0.5,0.4l-0.8,0.6l0,0c0.1-0.1,0.4-0.2,0.8-0.5c-1.1,0.9,1.2-0.8-0.3,0.4l1.6-1
						c-0.9,0.7-0.3,0.1-1.3,0.9c0.6-0.4,1.5-1,1.4-0.9c-0.1,0.1-0.4,0.3-0.6,0.5c0.5-0.3,0.2,0,0.8-0.5l-0.3,0.2
						c0.1,0-0.1,0.1,0.3-0.2l-0.1,0.1c0.5-0.5,1.2-1,1.5-1.3c-1.1,0.9-0.2,0.2-1.5,1.4c0.1-0.1,0.3-0.2,0.5-0.4
						c0,0.1-0.2,0.2-0.5,0.4c0.3-0.2,0.6-0.5,0.7-0.5l-0.5,0.4c0.4-0.3,0.8-0.6,0.7-0.5c-0.1,0.1-0.2,0.2-0.2,0.2
						c0.2-0.1,1-0.8,0.9-0.6c-0.7,0.7-0.2,0.2-0.7,0.8l0.2-0.2l0.2-0.3c0.1,0,0.5-0.4,0.4-0.3l-0.3,0.2l0.2-0.1l0.1-0.2
						c0.3-0.3,0.7-0.7,0.6-0.6c-0.1,0.1,0,0-0.2,0.3l0,0c0.2-0.2,0.4-0.4,0.3-0.2l-0.7,0.7c0.4-0.5,0.3-0.2,0.7-0.6l-0.4,0.4
						l0.3-0.4c-0.1,0.1-0.1,0.2-0.3,0.4c0,0,0.6-0.7,0.4-0.4l-0.1,0.1c0,0.1,0.4-0.3,0.3-0.1c-0.4,0.5-0.2,0.1-0.5,0.6
						c0.2-0.1,0.8-0.7,0.8-0.6l0,0c0.5-0.7-0.2,0.3,0.1,0c-0.1,0.1-0.3,0.4-0.2,0.3c0,0.1,0.3-0.2,0.6-0.5l-0.1,0.2
						c-0.1,0.1,0.1,0.1,0.1,0.1c0.1-0.2,0.1-0.2,0.3-0.4c-0.2,0.5,0,0.3,0.1,0.1c0.2-0.2,0.3-0.4,0.2,0l-0.1,0.2l0.2-0.2
						c0.1-0.3,0.1-0.2,0.1-0.4c0.1-0.2,0.2-0.3,0.2-0.3c-0.1,0.2-0.2,0.4-0.2,0.6l0.1-0.3c-0.1,0.5,0.2-0.6,0.2-0.2l-0.1,0.1
						c0.1-0.1,0.2-0.3,0.2-0.2c-0.1,0.3-0.1,0.2-0.2,0.4c0.1,0,0.3-0.6,0.2-0.3c0,0.1-0.1,0.1-0.1,0.2c-0.1,0.4,0,0.3,0,0.3l0,0v0.1
						v-0.1c0.3-0.8,0.2-0.2,0.4-0.7c-0.2,0.5-0.1,0.3-0.2,0.6c0,0.1,0,0.2,0,0.3c0.1-0.3,0,0.2,0.2-0.2c0,0.1,0,0,0,0.3
						c0.1-0.1,0-0.2,0-0.3c0.1-0.4,0.1,0.4,0.3-0.1c0.1-0.2,0.1-0.6,0.2-0.8c0,0.2,0,0.4,0,0.4c0,0.1,0.1,0.1,0.1,0
						c0,0.1,0,0.2,0,0.3c0,0,0-0.4,0.1-0.2c0,0.1,0,0.3,0,0.4c0-0.1,0.1-0.3,0.1-0.4c0,0.2,0,0.3,0,0.4c0-0.1,0.1-0.2,0.1-0.5v-0.1
						c0,0,0,0.2,0,0.3c0,0.2-0.1-0.1-0.1-0.2v-0.1c-0.1-0.6-0.1,0.1-0.2,0.1v-0.4v0.4c0-0.1,0-0.3,0-0.4c0-0.2,0,0.2-0.1-0.1v-0.1
						v0.1c0-0.1,0-0.3,0-0.2c0-0.2-0.1,0.4-0.1,0l0,0c-0.1,0.2,0,0.3-0.1,0.7v-0.8v0.3c0,0,0,0,0-0.2c-0.1,0.2,0,0.1-0.1,0.4
						c0-0.3-0.1,0.2-0.1-0.4c-0.1,0.3,0,0.2-0.1,0.4c0.1-0.6-0.1,0.1-0.1-0.1c0.1-0.3,0.1-0.2,0.1-0.4c-0.1,0.5,0-0.1-0.1,0
						c-0.1,0.4-0.1,0.2-0.2,0.3c0-0.1,0-0.2,0-0.4v-0.1c-0.2,0.4-0.2,0.4-0.3,0.5c0.1-0.3,0.2-0.4,0.2-0.5l0,0
						c-0.1,0.1-0.1,0.2-0.1,0.3l0.2-0.3c0,0-0.3,0.4-0.2,0.2c-0.2,0.3-0.4,0.9-0.6,1.1c0.1-0.2,0.2-0.5,0.3-0.5l-0.1,0.1l0.2-0.3
						c0-0.1-0.1,0.2-0.1,0.2l0.2-0.4c0,0,0,0.1,0,0c0,0,0.1-0.2,0.2-0.4c-0.1,0.1-0.2,0.3-0.2,0.4c0,0,0.2-0.3,0.2-0.4
						c-0.1,0.2,0,0-0.2,0.4c0,0,0.1-0.2,0.2-0.3c-0.1,0.2-0.1,0.1-0.3,0.5l0,0l0,0l0,0l0,0c-0.3,0.4,0-0.2-0.2,0l0.1-0.1
						c-0.1,0.2-0.1,0.1-0.4,0.4c0,0,0.2-0.2,0.3-0.4c-0.1,0.1-0.2,0.3-0.1,0.1c0.2-0.2,0.2-0.2,0.2-0.2c0.1-0.1,0.2-0.3-0.1,0.1
						c0.3-0.4,0.3-0.4,0.2-0.3l-0.2,0.2c-0.1,0.1,0,0,0,0l0.4-0.5c0.5-0.6-1,1-0.1,0.1c-0.3,0.3-0.2,0.2-0.5,0.6
						c0-0.1,0.6-0.7,0.6-0.7c0.2-0.3-0.7,0.7-0.6,0.5c-0.2,0.2-0.6,0.6-0.8,0.8c0-0.1,0.7-0.7,0.8-0.9c0,0,0,0-0.1,0.1
						c0.1-0.1,0.2-0.1,0.3-0.3l-0.2,0.2c0.2-0.2,0.1-0.1,0.4-0.4c-0.2,0.2-0.3,0.3-0.4,0.4c0.2-0.2,0,0,0.1-0.2l-0.3,0.3
						c0.2-0.2-0.4,0.3-0.5,0.4c0.3-0.3,0.7-0.7,0.4-0.4c0.2-0.2,0.5-0.5,0.7-0.6c-0.4,0.4,0.2-0.2,0.3-0.3l0.2-0.1
						c-0.1,0.1-0.1,0.1-0.1,0.1l-0.4,0.4l0.2-0.2l-1.1,0.9c0.2-0.2-0.3,0.2,0.3-0.3c-0.2,0.2,0.6-0.5,0.7-0.6c-0.1,0.1-0.1,0.1,0,0
						l0.1-0.1c0.5-0.4-0.6,0.6-0.7,0.6c0.3-0.3,0.6-0.5,0.5-0.5l-0.8,0.7c0.2-0.2-0.2,0.2-0.2,0.1l-0.1,0.1
						c-0.3,0.3-0.3,0.3-0.4,0.3l0.3-0.3c-0.6,0.5,0.6-0.5,0.1-0.2l0.8-0.7c-0.5,0.4,0.5-0.4,0.1-0.1l-0.8,0.7l0.4-0.3l-0.7,0.6
						c0,0,0.3-0.3,0.3-0.2l-0.7,0.5c0.7-0.6-0.5,0.4,0,0l1.2-1c0.5-0.4-0.7,0.5-0.4,0.3l-0.2,0.2c-0.5,0.4-0.1,0.1-0.3,0.2l0.8-0.7
						l-0.9,0.7l0.6-0.4c0.2-0.2-1.3,1-1.2,0.9l1.2-0.9c0,0,0.1-0.1-0.3,0.2c0.1-0.1,0,0-0.2,0.1c-0.1,0.1-0.3,0.2,0,0
						c-0.2,0.1-0.7,0.5-0.6,0.4l0.2-0.2l-0.8,0.6c1.5-1.1,0-0.1,1.2-0.9c-0.1,0.1-0.2,0.1-0.3,0.1c0.1-0.1,0.2-0.1,0.2-0.1
						c0.4-0.3-1.2,0.8-0.7,0.5c0.7-0.5,0.4-0.2,0.6-0.4c1.4-0.9-0.2,0.1,0.7-0.5h0.1c0.5-0.3-0.5,0.3-0.4,0.2l0.2-0.1
						c-0.7,0.4-0.9,0.5-1,0.6l0.8-0.5c-0.1,0-0.8,0.5-1,0.6l1.1-0.7l0,0c0.7-0.4,0,0,0.1-0.1l0.3-0.2c-0.1,0-0.8,0.5-0.8,0.4
						l-0.2,0.1c-0.7,0.4,0.4-0.3-0.1,0l0.8-0.4c-0.2,0.1-0.7,0.3-0.8,0.4l1.1-0.5c0,0,0,0-0.4,0.2c0.1,0,0.2-0.1,0.1-0.1
						c-0.6,0.3-0.8,0.4-0.8,0.3c1.4-0.7,0.4-0.3,1.5-0.8c-0.5,0.2,0.3-0.2,0.2-0.1c-1,0.4,0,0-1,0.4c-0.1,0,0,0,0,0l0.6-0.3l0.4-0.1
						c0.1,0,0.4-0.2,0.7-0.2c-0.3,0.1-0.5,0.2-0.4,0.1l-0.4,0.2c-0.5,0.1,0.8-0.3,0.3-0.1l0.3-0.1l-0.7,0.2l0.4-0.1
						c0.1,0-0.7,0.1-0.2,0h0.2c-0.1,0-0.4,0-0.2,0h0.2c-0.1,0-0.3,0-0.2,0h0.2c0.3,0-0.5,0-0.6,0h0.8h0.1c0.1,0-0.4-0.1-0.5-0.1
						c0.5,0.1,0.3,0,0.5,0c-0.1,0-0.3-0.1-0.4-0.1c0.1,0-0.3-0.1,0.1,0l0,0c0.4,0.2,0.3,0.1,0.3,0.1l-0.5-0.2c0.4,0.2,0.3,0.1,0.2,0
						c0-0.1-0.1-0.2,0.2,0c-0.1-0.1-0.1-0.1-0.2-0.2l0.2,0.2c0.1,0,0.2,0,0.2-0.1l0.2,0.1c0,0-0.6-0.5-0.6-0.6l0.4,0.2
						c0-0.1,0.4,0,0.1-0.2l0.2,0.1c0,0,0.3,0-0.2-0.3c0.3,0.2,0.1-0.1,0-0.2l0.2,0.2c-0.3-0.2-0.4-0.3-0.4-0.4c0,0,0.2,0.1,0.1,0.1
						c0.1,0-0.2-0.2,0-0.1l0.1,0.1c0,0,0-0.1-0.2-0.2c-0.1-0.1,0.1,0,0.3,0.1c-0.1-0.1-0.3-0.2-0.2-0.2c0.1,0.1,0.1,0.1,0.1,0.1
						c0.2,0-0.2-0.3,0.1-0.2c0.1,0.1,0.1,0.1,0.1,0.1l-0.1,0.1c0.2,0.1,0.3,0.1,0.6,0.4c-0.1-0.1-0.4-0.4-0.3-0.4h0.1l0,0
						c0,0,0,0,0-0.1h0.1c0.2,0.1,0.1,0,0.2,0c-0.2-0.2-0.2-0.2-0.4-0.3l0,0l0,0l0,0c0,0,0,0,0,0.1c-0.1-0.1-0.2-0.2-0.1-0.1
						l-0.4-0.3c0.3,0.2,0.6,0.3,0.8,0.4c-0.1-0.2,0-0.2-0.4-0.5c0-0.1,0.1,0.1,0.2,0.1c0,0,0,0,0.1,0.1c-0.1-0.1,0-0.1-0.3-0.4
						c0.2,0,0.3,0.2,0.3,0.1l0.1,0.1c0.6,0.2-0.6-0.7,0.1-0.4c0,0-0.1,0-0.1-0.1c0.4,0,0-0.5,0.5-0.4c0.1,0-0.1-0.1-0.2-0.2l0.3,0.2
						l-0.3-0.2c-0.2-0.2,0.7,0.3,0.3-0.1l-0.2-0.1c0.1,0,0-0.2,0.2,0c0,0-0.2-0.1-0.1-0.1l0.1,0.1l-0.2-0.2c0.1,0,0.5,0.4,0.6,0.3
						c0-0.1-0.3-0.3-0.4-0.4c0,0-0.1,0-0.2-0.1v-0.1c-0.4-0.3-0.8-0.6-1.1-0.7l0.2,0.2l-0.2-0.1l0,0c-0.2-0.1,0,0,0.1,0.1
						c-0.1-0.1-0.2-0.1-0.2-0.1l0.3,0.3c-0.2-0.1-0.3-0.2-0.4-0.2c0.2,0.1,0.4,0.2,0.4,0.3c-0.2-0.1-0.3-0.2-0.2-0.1
						c-0.1-0.1-0.2-0.1-0.2-0.2c0.1,0.1,0,0.1,0.2,0.2c-0.2-0.1,0,0.1-0.4-0.1c0.1,0.1,0.3,0.2,0.3,0.3c-0.4-0.3-0.1,0.1-0.5-0.3
						c0.4,0.3,0.1,0.2,0.3,0.4l-0.1-0.1c-0.1,0-0.2-0.1-0.3-0.1c0.3,0.2,0.4,0.3,0.5,0.5c-0.3-0.2-0.4-0.3-0.7-0.5
						c0.3,0.2,0.2,0.2,0.4,0.4c-0.2-0.1-0.1,0-0.4-0.2c0.4,0.3,0.1,0.1,0.3,0.3c-0.2-0.1-0.4-0.2-0.3-0.1
						C-2721.9,5755.5-2722,5755.4-2722,5755.4z M-2722,5756.9L-2722,5756.9L-2722,5756.9L-2722,5756.9z M-2722.1,5757
						C-2722,5757-2722,5757-2722.1,5757c0.1,0,0.2,0.1,0.2,0.1C-2721.9,5757-2722,5757-2722.1,5757z M-2720.3,5757.9L-2720.3,5757.9
						C-2720.4,5757.9-2720.4,5757.9-2720.3,5757.9l-0.1-0.1L-2720.3,5757.9z"/>
					<path class="st2" d="M-2720.6,5757.6L-2720.6,5757.6L-2720.6,5757.6L-2720.6,5757.6L-2720.6,5757.6z"/>
					<polygon class="st2" points="-2721.7,5761.4 -2721.7,5761.4 -2721.7,5761.4 					"/>
					<path class="st2" d="M-2723.3,5757.9v0.1V5757.9z"/>
					<path class="st2" d="M-2721.8,5762.4C-2721.8,5762.4-2721.8,5762.4-2721.8,5762.4L-2721.8,5762.4z"/>
					<path class="st2" d="M-2721.5,5762.4v0.1C-2721.5,5762.4-2721.5,5762.4-2721.5,5762.4z"/>
					<polygon class="st2" points="-2721.3,5762.4 -2721.2,5762.4 -2721.2,5762.4 					"/>
					<path class="st2" d="M-2726.1,5764.1L-2726.1,5764.1C-2726.2,5764.4-2726.2,5764.2-2726.1,5764.1z"/>
					<path class="st2" d="M-2723.8,5762.9l-0.2,0.2C-2724,5763-2724,5763-2723.8,5762.9z"/>
					<path class="st2" d="M-2728.3,5765.1L-2728.3,5765.1L-2728.3,5765.1z"/>
					<path class="st2" d="M-2724,5763C-2724.1,5763.1-2724,5763.1-2724,5763C-2724,5763-2723.9,5762.9-2724,5763z"/>
					<path class="st2" d="M-2720.1,5762.2L-2720.1,5762.2L-2720.1,5762.2z"/>
					<path class="st2" d="M-2720.1,5762.2L-2720.1,5762.2C-2720.1,5762.1-2720.1,5762.1-2720.1,5762.2z"/>
					<path class="st2" d="M-2720.1,5762L-2720.1,5762C-2720.1,5762.1-2720.1,5762.1-2720.1,5762z"/>
					<path class="st2" d="M-2720.5,5762.2v0.1V5762.2z"/>
					<path class="st2" d="M-2720.6,5762.2c0,0,0.1,0.2,0.1,0.1v-0.1C-2720.5,5762.4-2720.5,5762-2720.6,5762.2z"/>
					<path class="st2" d="M-2720.8,5761L-2720.8,5761l0.1-0.2C-2720.7,5760.4-2720.7,5761-2720.8,5761z"/>
					<path class="st2" d="M-2720.9,5760.9c0-0.1,0-0.2,0.1-0.2C-2720.9,5760.8-2720.9,5760.8-2720.9,5760.9z"/>
					<path class="st2" d="M-2721.8,5761.1l0.3-0.3C-2721.6,5760.9-2721.7,5760.9-2721.8,5761.1z"/>
					<polygon class="st2" points="-2723.6,5763 -2723.7,5763.2 -2723.4,5762.9 					"/>
					<polygon class="st2" points="-2721.5,5760.5 -2721.4,5760.4 -2721.6,5760.6 					"/>
					<path class="st2" d="M-2722.5,5760.9l-0.7,0.5C-2723.1,5761.2-2722.2,5760.6-2722.5,5760.9z"/>
					<path class="st2" d="M-2722.8,5760.9c0.3-0.2,0.5-0.3,0.2-0.1C-2722.7,5760.8-2722.9,5760.9-2722.8,5760.9z"/>
					<path class="st2" d="M-2721.3,5759.5h0.1H-2721.3z"/>
				</g>
			</g>
		</g>
	</g>
</g>
</svg>
