<?xml version="1.0" encoding="utf-8"?>
<!-- Generator: Adobe Illustrator 19.1.0, SVG Export Plug-In . SVG Version: 6.00 Build 0)  -->
<svg version="1.1" id="Layer_1" xmlns="http://www.w3.org/2000/svg" xmlns:xlink="http://www.w3.org/1999/xlink" x="0px" y="0px"
	 viewBox="-2504.6 9032 59.8 62.5" style="enable-background:new -2504.6 9032 59.8 62.5;" xml:space="preserve">
<style type="text/css">
	.st0{display:none;fill:#F1F2F2;}
	.st1{display:none;fill:#A7A9AC;}
	.st2{fill:#D64667;}
</style>
<rect x="-2770" y="2771.3" class="st0" width="590" height="7550"/>
<rect x="-2507" y="9031.2" class="st1" width="64" height="64"/>
<g>
	<g>
		<g>
			<g>
				<g>
					<path class="st2" d="M-2445.3,9036.4c-0.1-0.1-0.3,0-0.2,0.2l0.3,0.2L-2445.3,9036.4z"/>
					<path class="st2" d="M-2445.9,9038.2c0.2,0.3,0.4,0.7,0.7,0.5c-0.3-0.3-0.2-0.4-0.6-0.7c0-0.3,0.1-0.5,0.2-0.4
						c-0.1-0.1,0.1-0.4-0.1-0.5c-0.3,0.3-0.3,0.8-0.1,1.2L-2445.9,9038.2z"/>
					<path class="st2" d="M-2451.9,9057.8h0.2C-2451.8,9057.8-2451.9,9057.8-2451.9,9057.8z"/>
					<path class="st2" d="M-2466.4,9057.2C-2466.4,9057.2-2466.3,9057.2-2466.4,9057.2C-2466.3,9057.2-2466.3,9057.2-2466.4,9057.2z
						"/>
					<path class="st2" d="M-2464.5,9055.7L-2464.5,9055.7L-2464.5,9055.7z"/>
					<path class="st2" d="M-2451.9,9057.8l-0.4-0.1C-2452.4,9057.8-2452.1,9057.8-2451.9,9057.8z"/>
					<path class="st2" d="M-2445.1,9041.8c0-0.1,0-0.2-0.1-0.2L-2445.1,9041.8L-2445.1,9041.8z"/>
					<path class="st2" d="M-2446.7,9056.8L-2446.7,9056.8c0-0.1-0.1-0.1-0.1-0.1S-2446.8,9056.7-2446.7,9056.8z"/>
					<path class="st2" d="M-2446.8,9051.4c0,0.1,0.3,0.2,0.4,0.2c-0.1-0.1-0.2-0.2-0.2-0.3
						C-2446.6,9051.4-2446.7,9051.4-2446.8,9051.4z"/>
					<path class="st2" d="M-2446.3,9042.9v-0.2V9042.9z"/>
					<path class="st2" d="M-2448.8,9057.4L-2448.8,9057.4C-2448.8,9057.4-2448.8,9057.4-2448.8,9057.4z"/>
					<path class="st2" d="M-2451.2,9037.4L-2451.2,9037.4L-2451.2,9037.4z"/>
					<path class="st2" d="M-2446.1,9036.4L-2446.1,9036.4c-0.1-0.1-0.1-0.1-0.2-0.1C-2446.2,9036.4-2446.1,9036.4-2446.1,9036.4z"/>
					<path class="st2" d="M-2460.9,9052.2L-2460.9,9052.2C-2461,9052.3-2461,9052.2-2460.9,9052.2z"/>
					<path class="st2" d="M-2496,9057.3c0.5,0-0.4,0.7,0.3,0.5C-2495.8,9057.8-2495.5,9057.2-2496,9057.3z"/>
					<path class="st2" d="M-2445.2,9041.9v0.2C-2445.2,9042-2445.2,9041.9-2445.2,9041.9z"/>
					<polygon class="st2" points="-2495.7,9057.8 -2495.7,9057.8 -2495.6,9057.8 					"/>
					<path class="st2" d="M-2467.5,9043.4c0,0.1,0,0.1,0.1,0.2C-2467.5,9043.5-2467.5,9043.5-2467.5,9043.4z"/>
					<path class="st2" d="M-2460,9048.9l-0.2-0.2C-2460.1,9048.8-2460,9048.8-2460,9048.9z"/>
					<path class="st2" d="M-2472.1,9042.7c-0.1,0-0.2-0.1-0.3-0.1l0,0C-2472.3,9042.7-2472.2,9042.7-2472.1,9042.7z"/>
					<path class="st2" d="M-2476.9,9042.5C-2476.9,9042.7-2476.8,9042.7-2476.9,9042.5h0.2H-2476.9z"/>
					<path class="st2" d="M-2460.1,9035.8c0.1,0.1,0.1,0.2,0.1,0.3C-2460,9036-2459.4,9036.2-2460.1,9035.8z"/>
					<path class="st2" d="M-2445.3,9041.8C-2445.2,9041.8-2445.2,9041.8-2445.3,9041.8L-2445.3,9041.8
						C-2445.2,9041.8-2445.3,9041.8-2445.3,9041.8z"/>
					<path class="st2" d="M-2472.6,9044.8l-0.7-0.1C-2473.1,9044.8-2472.8,9044.8-2472.6,9044.8z"/>
					<path class="st2" d="M-2492.6,9037.7l0.1-0.1L-2492.6,9037.7z"/>
					<path class="st2" d="M-2475.3,9044.8c-0.1-0.1-0.3-0.2-0.4-0.2c0,0-0.1,0-0.1,0.1L-2475.3,9044.8z"/>
					<path class="st2" d="M-2460.1,9036.2L-2460.1,9036.2L-2460.1,9036.2z"/>
					<path class="st2" d="M-2455.5,9038.4c-0.6-0.5-0.5,0.1-0.7,0.2c-0.7-0.4-0.2-0.5-0.3-0.8c-0.5-0.2-1-0.2-1.4-0.4
						c0-0.1,0-0.1,0.1-0.1c-0.6-0.1-1.4-0.9-2.2-0.9c0-0.1,0-0.1,0-0.1c0,0.2-0.1,0.4-0.2,0.5c-0.3-0.1-0.6-0.1-0.6-0.3
						c0.2,0.1,0.2,0,0.3,0l-0.3-0.1c-0.1-0.4,0.5,0.1,0.6-0.1c-0.6-0.2-1.4-0.3-1.8-0.6c0.1-0.4,1.1,0.4,0.6-0.2l0.6,0.5
						c-0.3-0.8,0.4,0.3,0.2-0.5c-0.9-0.6-1.1-0.4-2-0.9c-0.3,0.1,0,0.3-0.3,0.4c-1.5-0.2-0.8-1.2-1.9-1.2c-0.3,0.1-0.6,0.5-1.2,0.1
						l0.4-0.3c-1-0.3-0.7,0.4-1.6-0.2c0.2-0.1,0.8,0.1,0.7,0c-0.6-0.5-0.5,0.1-1,0v-0.4c-1.1-0.2-2.2-0.2-3.4-0.2
						c0.1-0.1,0.3-0.2,0-0.3c-1.5,0-3.1-0.3-4.6-0.5l-0.5,0.3c-0.1,0-0.2-0.1-0.1-0.2c-0.6-0.1,0,0.2-0.3,0.3
						c-0.3,0-0.4-0.1-0.2-0.2c-1,0.3-2.7,0.8-3.8,0.7l0.2-0.1c-0.8,0-0.8,0.8-1.5,0.7l0.1-0.1c-1.7,0.3-3.5,1.1-4.9,1.2
						c-0.1,0.5-1.7,0.5-1.5,1.1c-1,0.2-0.8-0.1-2.1,0.5c-0.3,0.2-0.3,0.6-0.7,0.9l-0.2-0.3l-0.4,0.6l-0.5-0.1l-0.3,0.3
						c0.2-0.1,0.4-0.1,0.4,0c-0.5,0.5-1.5,0.8-1.6,0.7c-0.4,0.4-0.8,0.8-1.1,1.2c-0.1-0.1,0.1-0.3,0.2-0.5c-0.5,0.8-0.3-0.2-0.8,0.6
						c0.1,0,0.1,0.2,0.1,0.2c-0.4,0.1-1.1,0.7-1.5,1.2l-0.1-0.2c-0.9,0.8-1.7,1.9-2.6,2.9c0.4-0.3,0.6,0,0.4,0.3l-0.4-0.1
						c0,0.3,0.4-0.2,0.2,0.3c-0.3,0.4-0.5,0-0.4-0.3l-0.3,0.6c-0.1,0-0.1-0.2-0.1-0.3c0,0.3-0.9,0.7-0.8,1.2h-0.1
						c-0.8,1.1-1,1.7-1.5,2.7c0.2,0.2,0,0.5,0,0.9c-0.5,0.7-1,1.4-1.4,2.3c-0.1,0.7,0.1,0.3,0.2,0.6c-0.1,0-0.3,0.2-0.4,0.3
						c-0.1,0.2-0.2,0.3-0.2,0c-0.2,0.7-0.3,1.1-0.3,1.6s0,1,0.3,1.8c0.1-0.2,0.1-0.4,0.2-0.3c0.1,0.3,0,0.7-0.1,0.7v-0.1
						c0.4,0.9,0.7,1.9,1.4,2.8c0.6,0.9,1.6,1.6,2.4,1.6h-0.1c0.5,0.1,1.1,0.1,1.6,0.1c0.7,0.1-0.5,0.2,0.1,0.4
						c0.9-0.2,1.5-0.3,2.2-0.4c0.6-0.2,1.2-0.4,1.7-0.9c0.7,0,1.5-0.7,2-1.7c0.3-0.5,0.4-1,0.6-1.3c0.1-0.3,0.3-0.6,0.6-0.9h-0.2
						c0-0.3,0.2-0.3,0.4-0.4c-0.1,0-0.3,0.2-0.3,0c0.9-2.4,3-4.2,5.1-5.7c0.7-0.5-0.2-1.1,1.1-1.4l-0.1,0.5c1.3-1.4,3.3-2,4.9-2.9
						c-0.1,0.1-0.1,0.2-0.2,0.3c0.4,0.1,1.4-0.4,1.3-0.6c0.3,0,0.1,0.2,0.3,0.2c0.4,0,0.9-0.5,1.1-0.3c0,0-0.1,0.1-0.2,0.1
						c0.2-0.2,1.2-0.2,0.9-0.4c0.7,0,1.3-0.3,1.9-0.1c0.4-0.3,1.2,0.1,1.3-0.3c-0.1,0.4,1.2,0.4,1.7,0.3c-0.2,0.1,0.4,0.2,0.2,0.4
						c0.5,0.1,1,0.1,0.9-0.2c0.8,0.7,1.9,0,2.2,0.8c1.5,0.2,2.8,0.7,4.1,1.3c-0.3,0.4-1.3-0.7-1.5-0.2c1.2,0.4,2.1,0.5,3.1,1.3
						c0.2,0.2-0.3,0-0.4,0c0.6,0.3,1.1,0.7,1.5,1.1c0.3,0.3,0.3,0.3,0.4,0.4c0.1,0.1,0.2,0.1,0.4,0.2c-0.1,0-0.2,0-0.2-0.1
						c0.1,0.1,0.1,0.1,0.3,0.1c0,0-0.1,0-0.1-0.1c0.1,0,0.2-0.1,0.3,0c0.1,0,0.1,0,0.2,0.1c0.1,0,0.1,0.1,0.1,0.1
						c0.1,0.1,0,0.4,0.1,0.4c-0.5-0.4-0.7,0.6-1.1-0.1c0,0.1,0,0.2,0.1,0.3c-0.2,0.1-0.3,0.1-0.3-0.1c-0.5,0.7-0.1,0.6-0.6,1.2
						c-0.1-0.1,0-0.2,0-0.3c-0.1,0.4-0.2,0.8-0.7,1.3c0-0.1-0.1-0.1,0-0.2c-0.7,0.8-0.9,1.8-1.9,2.5c-0.1-0.6-0.4,0.2-0.7,0
						l-0.4,0.6l0.3-0.1c-0.2,0.2-0.3,0.5-0.5,0.7c-0.1,0.2-0.3,0.5-0.5,0.8c0-0.2,0.1-0.4,0.2-0.6c-0.1,0.2-0.3,0.4-0.4,0.7
						c-0.1,0.3-0.1,0.6,0,1c-0.1-0.4,0.1-0.8,0.2-1c-0.1,0.4,0.1,0.4,0.2,0.5c0.1,0,0,0.1,0.1,0.5c0-0.1,0,0.1,0.1,0.3
						c0.1,0.2,0.4,0.4,0.5,0.6l0,0c0.2,0,0.4,0,0.6,0s0.4,0,0.6,0c0.1,0.1-0.1,0.4,0,0.5c0.3-0.3,1.4-0.1,1.7-0.4
						c-0.1,0.1-0.1,0.3-0.1,0.3l0.2-0.3c0.3,0.1,0.3,0.1,0.3,0.3c0.8,0-0.3-0.5,0.7-0.3c-0.1,0,0,0.1-0.2,0.1c1,0.1,1.9-0.2,2.7,0
						c0.3,0.4-0.8,0.1-0.5,0.4c1.3-0.1,2.6-0.4,3.9-0.4h-0.2c0.2-0.5,0.9,0.3,1.5,0c-0.2,0-0.2,0.3-0.2,0.2c0.8,0.1,1.7-0.1,3-0.3
						l-0.2,0.1c0.5,0.1,1.3,0.1,1.8,0.1c0.2-0.1,0.5-0.1,0.3-0.3c0.8,0.4,1.6,0.3,2.4,0.2c0.3-0.1,0.9-0.1,1.3-0.2
						c0.4,0,0.9-0.3,1.2-0.6c-0.1,0.2-0.2,0.5-0.1,0.4c0.2-0.2,0.3-0.5,0.3-0.8s0-0.6,0-0.9c-0.2,0.1-0.1,0.2-0.3,0.5
						c-0.1-0.2-0.2-0.6-0.2-0.9c0.2,0.6,0.4,0,0.5-0.2c-0.1,0-0.1,0-0.2,0c0.4-0.7-0.5-0.1-0.2-1h0.1c-0.1-0.3-0.2-0.6-0.2-1
						c0.3-0.1,0.1,0.4,0.3,0.4c0-0.5-0.5-1-0.2-1.5c0.1,0.2,0.1,0.5,0.1,0.7c0.3-0.5,0.2-0.6,0.3-0.9l0,0l0.1-0.9l-0.1,0.2
						c-0.7-0.6-0.1-1.3-0.6-2.1c0.4,0.8,0.2,0.1,0.6,0.2c0.1-0.2,0.2-0.5,0.3-0.5c-0.2-0.4,0.2-0.7-0.2-1.2c0.1,0,0-0.4,0.3-0.3
						c-0.1-0.5-0.2,0.1-0.3,0.1c-0.3-0.8,0.4-1.9-0.1-3.1c-0.2-1-0.5-1.2-0.7-2.1c0.2-0.3,0.4,0.3,0.4,0.3c0.1-0.5,0.1-0.9,0-1.4
						c0.1,0.1,0.2,0,0.3-0.1c0-0.4-0.4-0.3-0.2-0.8c0.1,0.1,0.3,0.2,0.4,0.4c-0.1-0.5-0.3-0.9-0.4-1.4c0.2-0.1,0.3,0.3,0.4,0.4
						c-0.1-0.5-0.2-1.4-0.4-1.5l-0.1,0.3c0-0.2,0.2-0.1,0.3,0c0.2,0.5-0.1,0.6-0.2,0.7l-0.1-0.3c-0.6,0.3,0.1,1.3,0.1,2l-0.4-0.3
						l0.3,0.7c-0.1,0.1-0.3,0.2-0.4-0.1c-0.2,0.5,0.1,0.4-0.1,0.8h-0.1l0.1,0.5c-0.1-0.1-0.3,0.1-0.2-0.2c-0.2,0.8,0.3,1.4,0,1.7
						v-0.1c0.1,1.2,0.3,0.1,0.7,1l-0.8,0.6l0.3,0.1c0,0.1,0,0.4-0.2,0.3c0.2,0.4,0.1-0.1,0.3,0.2c-0.3,0.6,0.1,1.6-0.4,1.7
						c0.2,0.2,0.2-0.6,0.3,0.1c-0.5,0.2,0.1,0.7-0.1,1.2c-0.3-0.2-0.1-0.7-0.4-0.1c0.5,0.3-0.1,1,0,1.5c0.4,0,0.2,1,0.3,1.7
						c-0.1,0-0.2,1.4-0.3,2.1h-0.1c0.4,0.1,0.3,0.9,0.4,1.4c-0.2,0-0.3-0.1-0.4-0.4v0.4c0.1,0.1,0.2,0.2,0.2,0.4
						c-0.1-0.1-0.2-0.1-0.3-0.2c0,0.2,0.1,0.4-0.1,0.6c-0.1,0.2-0.4,0.2-0.7,0.1c0,0.1,0.2,0.3,0.3,0.5c0.1,0.2,0.1,0.3-0.4,0.4
						c0-0.1-0.1-0.4,0.1-0.4c-0.1,0-0.2,0.1-0.4,0.1c0.1-0.1,0.2-0.2,0.3-0.2c-0.3-0.1-0.2,0.2-0.5,0.2c0-0.2-0.2-0.1-0.2-0.3
						c0.1,0,0.3,0.1,0.4,0c-0.3,0-0.8-0.2-0.9-0.3c0,0.1,0,0.3-0.3,0.3c-0.7,0-0.2-0.2-0.6-0.3c-0.2,0.1-0.6,0-0.6,0.3
						c-0.2,0-0.2-0.1-0.3-0.2c-0.3,0.1-1.6,0-1.2,0.4h0.1h-0.1l0,0l0,0c-1.1,0.3-2.3-0.2-3.4,0v-0.1c-0.7,0.1-1.5,0.1-1.9,0.3
						c-0.2,0-0.5-0.2-0.4-0.3c-0.5,0.1-0.6,0.2-1.3,0c0.5-0.2-0.2-0.2,0.5-0.1c-0.7-0.1-0.8-0.2-1.5,0c0.2-0.3-0.5-0.3-0.8-0.2
						l0.5,0.2c-0.3,0-0.7,0-1,0l0.2-0.3c-1.3-0.4-2.4,0.7-3.4,0c-0.4,0.2,0.7,0.2,0.4,0.4c-0.6,0-1.3-0.5-1.5-0.5
						c-0.1,0-0.2,0-0.3,0h-0.1h-0.1l0,0l0,0l0,0l0,0l0,0c0-0.5,0,0.7,0,0.5l0,0l0,0c0-0.7,0-0.4,0-0.4c-0.1,0.1-0.4,0.1-0.4,0
						c0,0-0.1,0.1-0.2,0.2c-0.1,0.1-0.3,0.1-0.4-0.2c0-0.2,0.2-0.3,0.3-0.3c0.1,0,0.2,0.1,0.3,0.2c0,0,0,0-0.1,0l0,0l0,0l0,0l0,0
						c0.2,0,0.1,0,0.2-0.1c0.1-0.1,0.2-0.1,0.2,0c0.1-0.1,0.1-0.2,0-0.2c-0.1,0-0.2,0.1-0.3,0.1c0.2-0.1,0.5-0.4,0.7-0.6
						c0.2-0.2,0.4-0.5,0.7-0.7c-0.1,0.1-0.3,0-0.2,0c0.9-0.8,0.2-0.5,0.7-1.2c0.4-0.2,0.2,0.4,0.6-0.3c0.4-0.3,0.3,0.1,0.2,0.4
						c0.3-0.7,1-0.9,1.4-1.2l-0.2,0.4c0.1-0.2,0.2-0.4,0.4-0.5h-0.3c0.2-0.1,0.3-0.3,0.4-0.2c0-0.3-0.4-0.1-0.3-0.6
						c0.3-0.1,0.5-0.8,0.8-0.6c-0.7,0.6,0.3,0.1-0.2,0.8c0.1-0.1,0.2-0.3,0.4-0.4v0.1c0.8-0.5,0-0.5,1-1.6c0,0.2,0.6-0.2,0.7-0.4
						c-0.5,0.5-0.5,0.1-0.3-0.3c0.2-0.2,0.4-0.3,0.4-0.4c-0.1-0.1-0.2-0.2-0.3-0.3c-0.2-0.1-0.3-0.2-0.5-0.4l0.3,0.4
						c-0.3-0.1-0.6-0.4-1-0.8c0.1-0.1,0.5,0.3,0.4,0.2c-0.4-0.2-0.5-0.4-0.8-0.8c-0.2-0.3-0.4-0.6-0.7-0.7c-0.2-0.3,0.2-0.3,0-0.5
						c-0.8-0.3-0.5-0.7-1.3-1c0.1,0.3,0.1,0.3-0.5,0.2c0.4,0.2,0.8,0.4,1.2,0.6c-0.3-0.1-0.6-0.2-0.9-0.2c0.3,0.2,0.8,0.4,0.9,0.5
						c-0.4-0.1-0.4-0.1-0.3,0.2c-0.2-0.6-1-0.5-1.4-1l0.3-0.5c-0.7-0.7-1.6-0.6-2.7-1.3l0.3,0.3c-0.2,0.1-0.7-0.3-1.1-0.4
						c0.1-0.2-0.1-0.3-0.2-0.5c0,0.1-0.9-0.3-1.1,0l-0.5-0.4c-0.9-0.4-1.2,0.2-2.2,0c0.3-0.2-0.1-0.4,0.6-0.4
						c-0.3-0.1-0.6-0.2-0.6,0c-0.2-0.2-0.9,0.1-1.2-0.1c-0.1,0.1-0.2,0.3-0.6,0.2v-0.1c0,0.1-0.6,0.1-0.3,0.3
						c-0.9-0.7-2.7-0.1-3.6-0.5c-0.7,0.1-1.5,0.3-2.1,0.4c0-0.1,0-0.1,0.1-0.1c-0.9,0-0.4,0.6-1.4,0.7c-0.6-0.2,0.5-0.3,0.1-0.3
						c-0.3-0.6-1.1,0.4-1.9,0.3l0.1-0.1c-0.6,0-1.1,0.7-1.9,1v-0.1c-0.4,0.5-1.3,1.1-1.9,1.6c0.1-0.3,0.2-0.3,0-0.4
						c-0.3,0.2,0.3,0.3-0.3,0.7c-0.3,0-0.8,0.2-1,0c0.2-0.1,0.4-0.3,0.6-0.4c-0.5-0.1-0.7,0.5-1,0.7l-0.1-0.2
						c-0.8,0.7-0.6,1-1.4,1.7h0.2c-0.2,0.7-0.5,0.2-0.8,0.8l-0.4-0.1c-0.2,0.4-0.7,1.3-1.1,1.9c0-0.5,0.5-1.2,0.7-1.7
						c-0.3,0.3-0.9,1-0.9,1.3c0.1-0.1,0.1-0.4,0.3-0.5c-0.1,0.6-0.4,1.2-0.8,1.8c-0.6-0.6-1.3,1.6-2.1,1.8c-0.2,0.7-0.5,1.3-0.9,2
						l-0.1,0.2l-0.1,0.2c-0.1,0.1-0.2,0.2-0.2,0.4c-0.2,0.2-0.4,0.5-0.6,0.7c0.7,0.1-0.2,0.3,0.2,0.7c-0.2,0.2-0.3,0.3-0.4,0.3
						c-0.3,0.1-0.7,0.1-1,0.2c-0.3-0.1,0.2-0.2,0.1-0.4c-0.6,0.2-0.3-0.1-0.7-0.2c0.1,0.2-0.1,0.4-0.5,0.3c0.2,0.1,0.3,0.1,0.5,0.2
						c-0.4,0.3-0.6,0.2-0.8,0c-0.2-0.1-0.4-0.2-0.8-0.1c0.1-0.1,0.2-0.1,0.3-0.2c-0.2,0-0.6,0-1-0.1s-0.8-0.2-1.1-0.1
						c0-0.1,0-0.3,0.2-0.2c-0.4-0.3-0.9-0.7-1.3-1.1c-0.4-0.5-0.6-1-0.5-1.5l0.2,0.1c-0.1-0.2-0.3-0.3-0.2-0.6c0.1,0,0.1,0.1,0.2,0
						c-0.1-0.1-0.2-0.6-0.1-0.8c0,0.1,0.1,0.2,0.1,0.3c0.1-0.2,0.2-0.5,0.2-0.7c0.1-0.2,0.1-0.5,0.1-0.7c0.1-0.5,0.1-1,0.3-1.5
						c0.4,0.2,1-0.7,1.3-1.1l0,0c0.8-1.3,1-2.4,1.7-3.7c0.9-0.4,2-2.2,3.2-3c-0.2,0.1-0.2-0.3-0.1-0.5c0.3-0.2,0.5-0.9,0.7-0.5
						l-0.1,0.1c0.5,0.1,0.9-0.4,1.3-0.7l-0.3-0.5c1.5-0.3,2.8-2.4,3.8-2.2c0.2-0.3,0.6-0.5,0.8-0.8l0.1,0.3c0.8-0.4,1.3-0.6,2.3-1.1
						l-0.1,0.3c0.6-0.2,0.4-1.1,1-1.3l0.3,0.3c1.1-0.4,2.2-0.4,3.2-1.1c0,0.1,0,0.2-0.2,0.3c0.5-0.1,2-0.2,1.7-0.7
						c0.1,0.4,1.1-0.2,1.7-0.4l-0.1,0.3c0.5-0.4,0.5-0.5,1.2-0.7c0.2,0,0.2,0.2-0.1,0.2c0.6,0.1,0.4-0.3,1.1-0.2l-0.2,0.2
						c0.6,0,0.5-0.1,0.9-0.3c0.4-0.1,1.1,0,1.2,0.3c0.1-0.2,0.4-0.4,0.8-0.3c0,0.1-0.1,0.2-0.1,0.2c1,0.2,1.5-0.3,2.2,0.1
						c0,0.1,0,0.1,0.1,0.2c-0.8-0.1-1.4-0.1-1.3-0.1c0,0.3,0.6,0.3,0.1,0.7c0.5-0.2,1.4-0.5,2-0.3l0.1,0.1h-0.1c0.1,0,0.3,0,0.4,0
						c0.2,0.1,0.3,0.1,0.5,0.2c0,0.2,0.7,0.2,1,0.3c0-0.3,0.4-0.2,0.1-0.5c0,0-0.1,0-0.3,0h-0.1l0,0l-0.8-0.1c0.3-0.1,0.5-0.2,0.9,0
						c0.2-0.1,0.4-0.3,0.5-0.4c0.4,0.5,1.1,0.9,1.2,1.1c1,0.1,2.2,0.5,2.9,0.2c0.3,0,0.2,0.3,0.3,0.4c-0.2,0-0.3-0.1-0.4,0
						c0.6,0.1,1.5,0.5,1.8,0.3c0.6,0.4-0.5,0.2,0.4,0.5h-0.2c0.7,0.6,1.5,0.8,2.3,1s1.6,0.5,2.3,1.4c-0.1-0.1-0.1-0.2-0.1-0.2
						c0.7,0.6,1.5,1.2,2.3,1.8l0.6,0.5c0.2,0.2,0.3,0.3,0.6,0.5c0.5,0.4,1,0.9,1.4,1.4c0.4-0.4,0.8-0.8,1.3-1.2
						c0.2-0.2,0.3-0.3,0.4-0.4c0.1-0.1,0.1-0.2,0.1-0.3c0.1-0.2,0.1-0.3,0.1-0.5l0.3,0.1l0.2-0.8c0.5-0.9,1.7-0.8,2.2-2.1h-0.3
						c0.3-0.3,0.9-1.2,1-0.9c0-0.1-0.1-0.3,0.1-0.3l0.1,0.1l0.3-0.5c0.1-0.1,0.2-0.3,0.3-0.4c0.3-0.1,0.3,0.1,0.4,0.2
						c0,0,0.1,0.2,0,0.1c0-0.1,0.1-0.2-0.1,0.1c-0.1,0.1,0,0,0.1,0s0.2,0.1,0.2,0.1c0.2,0.1,0.3,0.1,0.3,0.1c0-0.1,0-0.3,0.2-0.4
						c0.1,0.1,0.1,0.2,0.2,0.4c0.2,0,0.5,0.1,0.7,0.1c0.1,0,0.2-0.2,0.3-0.4c0.1-0.2,0.1-0.5-0.1-1c-0.3-0.3-0.7-0.6-1.3-0.7
						c-0.1-0.1-0.3-0.2-0.5-0.3c0.5,0,1.1,0.2,1.4,0.5c-0.2-0.3-0.6-0.5-0.9-0.6c-0.4,0-0.7,0.1-0.9,0.2c-0.1-0.1-0.4-0.1-0.6,0
						c-0.3,0.4-0.4,0.7-0.5,1c-0.2-0.1,0-0.5-0.5-0.2c-0.1,0.4,0.5,0,0.2,0.5c-0.4,0.1-0.5-0.1-0.6,0.4c-0.1,0-0.1-0.2-0.1-0.3
						c-0.1,0.4-0.6,0.8-0.6,1.1c-0.4,0.1-0.8,1-1.1,0.6c0,0.2-0.2,0.7-0.4,1c0-0.8-0.9,0.9-1.2,0.4c0,0.3-0.2,0.7-0.5,1
						c-0.2,0.2-0.2,0.2-0.2,0.3c0,0.1-0.1,0.2-0.1,0.3c0-0.1,0-0.2,0-0.2c-0.1,0.1-0.2-0.1-0.2-0.2l0,0c0,0.6-0.2,0.5-0.5,0.5
						c0-0.3,0.1-0.3,0.2-0.4c0.1-0.1,0.2-0.2,0.2-0.4c-0.1,0.2-0.1,0.2-0.2,0.2c0,0.1-0.3-0.1-0.3,0.1c-0.2-0.5-0.2-0.3-0.2-0.7
						c-0.4,0.3-0.4-0.2-0.8-0.2c-0.4-0.6,0.2-0.5-0.5-0.8C-2456.1,9038.2-2455.5,9038.4-2455.5,9038.4z M-2471.2,9032.8
						L-2471.2,9032.8h0.3H-2471.2z M-2472.6,9032.7c0.2,0,0.4,0,0.6,0.1c0,0.1,0,0.2-0.2,0.2
						C-2472.1,9032.8-2472.4,9032.8-2472.6,9032.7z M-2470,9034.9c-0.2,0-0.3-0.1-0.3-0.1C-2470.2,9034.8-2470.1,9034.8-2470,9034.9
						l0.1-0.1C-2469.9,9034.8-2470,9034.9-2470,9034.9z"/>
					<path class="st2" d="M-2469.6,9034.7C-2469.6,9034.7-2469.5,9034.7-2469.6,9034.7C-2469.5,9034.7-2469.6,9034.5-2469.6,9034.7
						L-2469.6,9034.7L-2469.6,9034.7z"/>
					<path class="st2" d="M-2451.7,9057.8L-2451.7,9057.8L-2451.7,9057.8L-2451.7,9057.8z"/>
					<polygon class="st2" points="-2491.4,9036.7 -2491.3,9036.8 -2491.2,9036.7 					"/>
					<path class="st2" d="M-2445.4,9056.2c0,0,0.1,0,0.1-0.1C-2445.4,9056-2445.4,9056-2445.4,9056.2z"/>
					<path class="st2" d="M-2445.4,9052.8l0.1-0.5C-2445.3,9052.7-2445.4,9052.8-2445.4,9052.8z"/>
					<path class="st2" d="M-2445.2,9050.3h-0.1l0,0H-2445.2z"/>
					<path class="st2" d="M-2462,9049.5C-2462.1,9049.5-2462.1,9049.5-2462,9049.5C-2462.2,9049.4-2462.1,9049.4-2462,9049.5z"/>
					<path class="st2" d="M-2466.5,9058.5c-0.2,0-0.3-0.1-0.5-0.1C-2466.8,9058.5-2466.6,9058.7-2466.5,9058.5z"/>
					<polygon class="st2" points="-2472.5,9044.8 -2472.5,9044.8 -2472.6,9044.8 					"/>
					<path class="st2" d="M-2467.5,9057.7c0.1,0.4,0.3,0.6,0.5,0.7C-2467.2,9058.2-2467.4,9057.9-2467.5,9057.7z"/>
					<path class="st2" d="M-2445.1,9039.5v-0.1l0,0V9039.5z"/>
					<path class="st2" d="M-2445.2,9039.4L-2445.2,9039.4C-2445.2,9039.3-2445.2,9039.4-2445.2,9039.4z"/>
					<path class="st2" d="M-2445.3,9039l0.1,0.3C-2445.2,9039.2-2445.2,9039-2445.3,9039z"/>
					<path class="st2" d="M-2445.2,9042.8L-2445.2,9042.8C-2445.2,9042.8-2445.2,9042.8-2445.2,9042.8z"/>
					<path class="st2" d="M-2445.2,9043.8c0-0.2,0.2-0.6,0.2-0.9h-0.1C-2445,9043-2445.4,9043.7-2445.2,9043.8z"/>
					<path class="st2" d="M-2446.5,9048l0.1-0.8c-0.1,0.1-0.3,0.3-0.3,0C-2447,9048.2-2446.4,9046.9-2446.5,9048z"/>
					<path class="st2" d="M-2446.6,9050.7c-0.1-0.5-0.2,0-0.2,0C-2446.8,9050.9-2446.7,9051-2446.6,9050.7z"/>
					<path class="st2" d="M-2457.6,9057.7v-0.3C-2457.9,9057.4-2457.6,9057.4-2457.6,9057.7z"/>
					<polygon class="st2" points="-2461.2,9058.9 -2460.9,9059.2 -2460.7,9058.8 					"/>
					<polygon class="st2" points="-2463.4,9057.2 -2463.2,9057.2 -2463.8,9057.2 					"/>
					<path class="st2" d="M-2476,9042.2l0.1,0.3C-2475.7,9042.5-2475.6,9042.2-2476,9042.2z"/>
					<path class="st2" d="M-2488.9,9047.9c-0.2,0-0.6,0.2-0.7,0.5C-2489.3,9048.2-2489,9048-2488.9,9047.9z"/>
					<polygon class="st2" points="-2492.9,9040.8 -2493,9041 -2492.7,9040.7 					"/>
				</g>
			</g>
		</g>
	</g>
</g>
<g>
	<g>
		<g>
			<g>
				<g>
					<path class="st2" d="M-2504,9090.2c0.1,0.1,0.3,0,0.2-0.2l-0.3-0.2L-2504,9090.2z"/>
					<path class="st2" d="M-2503.4,9088.3c-0.2-0.3-0.4-0.7-0.7-0.5c0.3,0.3,0.2,0.4,0.6,0.7c0,0.3-0.1,0.5-0.2,0.4
						c0.1,0.1-0.1,0.4,0.1,0.5c0.3-0.3,0.3-0.8,0.1-1.2L-2503.4,9088.3z"/>
					<path class="st2" d="M-2497.4,9068.8h-0.2C-2497.5,9068.8-2497.4,9068.8-2497.4,9068.8z"/>
					<path class="st2" d="M-2483,9069.3L-2483,9069.3L-2483,9069.3z"/>
					<path class="st2" d="M-2484.8,9070.9L-2484.8,9070.9C-2484.7,9070.8-2484.8,9070.9-2484.8,9070.9z"/>
					<path class="st2" d="M-2497.4,9068.8l0.4,0.1C-2496.9,9068.8-2497.2,9068.8-2497.4,9068.8z"/>
					<path class="st2" d="M-2504.2,9084.8c0,0.1,0,0.2,0.1,0.2L-2504.2,9084.8L-2504.2,9084.8z"/>
					<path class="st2" d="M-2502.6,9069.8L-2502.6,9069.8c0,0.1,0.1,0.1,0.1,0.1C-2502.5,9069.9-2502.6,9069.9-2502.6,9069.8z"/>
					<path class="st2" d="M-2502.5,9075.2c0-0.1-0.3-0.2-0.4-0.2c0.1,0.1,0.2,0.2,0.2,0.3
						C-2502.7,9075.2-2502.6,9075.2-2502.5,9075.2z"/>
					<path class="st2" d="M-2503,9083.7v0.2V9083.7z"/>
					<path class="st2" d="M-2500.5,9069.2L-2500.5,9069.2C-2500.5,9069.2-2500.5,9069.2-2500.5,9069.2z"/>
					<path class="st2" d="M-2498.1,9089.2L-2498.1,9089.2L-2498.1,9089.2z"/>
					<path class="st2" d="M-2503.2,9090.2L-2503.2,9090.2c0.1,0.1,0.1,0.1,0.2,0.1C-2503.1,9090.2-2503.2,9090.2-2503.2,9090.2z"/>
					<path class="st2" d="M-2488.4,9074.3L-2488.4,9074.3C-2488.3,9074.2-2488.3,9074.3-2488.4,9074.3z"/>
					<path class="st2" d="M-2453.3,9069.2c-0.5,0,0.4-0.7-0.3-0.5C-2453.5,9068.8-2453.8,9069.4-2453.3,9069.2z"/>
					<path class="st2" d="M-2504.1,9084.7v-0.2C-2504.1,9084.5-2504.1,9084.7-2504.1,9084.7z"/>
					<polygon class="st2" points="-2453.6,9068.8 -2453.6,9068.8 -2453.7,9068.8 					"/>
					<path class="st2" d="M-2481.8,9083.2c0-0.1,0-0.1-0.1-0.2C-2481.9,9083-2481.8,9083-2481.8,9083.2z"/>
					<path class="st2" d="M-2489.3,9077.7l0.2,0.2C-2489.2,9077.8-2489.3,9077.8-2489.3,9077.7z"/>
					<path class="st2" d="M-2477.2,9083.9c0.1,0,0.1,0.1,0.3,0.1l0,0C-2477,9083.9-2477.1,9083.9-2477.2,9083.9z"/>
					<path class="st2" d="M-2472.4,9084C-2472.5,9083.9-2472.5,9083.9-2472.4,9084h-0.2H-2472.4z"/>
					<path class="st2" d="M-2489.2,9090.8c-0.1-0.1-0.1-0.2-0.1-0.3C-2489.3,9090.5-2489.9,9090.3-2489.2,9090.8z"/>
					<path class="st2" d="M-2504,9084.8C-2504.1,9084.8-2504.1,9084.8-2504,9084.8l-0.1,0.1C-2504.1,9084.8-2504,9084.8-2504,9084.8
						z"/>
					<path class="st2" d="M-2476.7,9081.8l0.7,0.1C-2476.2,9081.8-2476.5,9081.8-2476.7,9081.8z"/>
					<path class="st2" d="M-2456.7,9088.9l-0.1,0.1C-2456.8,9089-2456.7,9088.9-2456.7,9088.9z"/>
					<path class="st2" d="M-2474,9081.8c0.1,0.1,0.3,0.2,0.4,0.2c0,0,0.1,0,0.1-0.1L-2474,9081.8z"/>
					<path class="st2" d="M-2489.3,9090.3L-2489.3,9090.3L-2489.3,9090.3z"/>
					<path class="st2" d="M-2493.8,9088.2c0.6,0.5,0.5-0.1,0.7-0.2c0.7,0.4,0.2,0.5,0.3,0.8c0.5,0.2,1,0.2,1.4,0.4
						c0,0.1,0,0.1-0.1,0.1c0.6,0.1,1.4,0.9,2.2,0.9c0,0.1,0,0.1,0,0.1c0-0.2,0.1-0.4,0.2-0.5c0.3,0.1,0.6,0.1,0.6,0.3
						c-0.2-0.1-0.2,0-0.3,0l0.3,0.1c0.1,0.4-0.5-0.1-0.6,0.1c0.6,0.2,1.4,0.3,1.8,0.6c-0.1,0.4-1.1-0.4-0.6,0.2l-0.6-0.5
						c0.3,0.8-0.4-0.3-0.2,0.5c0.9,0.6,1.1,0.4,2,0.9c0.3-0.1,0-0.3,0.3-0.4c1.5,0.2,0.8,1.2,1.9,1.2c0.3-0.1,0.6-0.5,1.2-0.1
						l-0.4,0.3c1,0.3,0.7-0.4,1.6,0.2c-0.2,0.1-0.8-0.1-0.7,0c0.6,0.5,0.5-0.1,1,0v0.4c1.1,0.2,2.2,0.2,3.4,0.2
						c-0.1,0.1-0.3,0.2,0,0.3c1.5,0,3.1,0.3,4.6,0.5l0.5-0.3c0.1,0,0.2,0.1,0.1,0.2c0.6,0.1,0-0.2,0.3-0.3c0.3,0,0.4,0.1,0.2,0.2
						c1-0.3,2.7-0.8,3.8-0.7l-0.2,0.1c0.8,0,0.8-0.8,1.5-0.7l-0.1,0.1c1.7-0.3,3.5-1.1,4.9-1.2c0.1-0.5,1.7-0.5,1.5-1.1
						c1-0.2,0.8,0.1,2.1-0.5c0.3-0.2,0.3-0.6,0.7-0.9l0.2,0.3l0.4-0.6l0.5,0.1l0.3-0.3c-0.2,0.1-0.4,0.1-0.4,0
						c0.5-0.5,1.5-0.8,1.6-0.7c0.4-0.4,0.8-0.8,1.1-1.2c0.1,0.1-0.1,0.3-0.2,0.5c0.5-0.8,0.3,0.2,0.8-0.6c-0.1,0-0.1-0.2-0.1-0.2
						c0.4-0.1,1.1-0.7,1.5-1.2l0.1,0.2c0.9-0.8,1.7-1.9,2.6-2.9c-0.4,0.3-0.6,0-0.4-0.3l0.4,0.1c0-0.3-0.4,0.2-0.2-0.3
						c0.3-0.4,0.5,0,0.4,0.3l0.3-0.6c0.1,0,0.1,0.2,0.1,0.3c0-0.3,0.9-0.7,0.8-1.2h0.1c0.8-1.1,1-1.7,1.5-2.7c-0.2-0.2,0-0.5,0-0.9
						c0.5-0.7,1-1.4,1.4-2.3c0.1-0.7-0.1-0.3-0.2-0.6c0.1,0,0.3-0.2,0.4-0.3c0.1-0.2,0.2-0.3,0.2,0c0.2-0.7,0.3-1.1,0.3-1.6
						s0-1-0.3-1.8c-0.1,0.2-0.1,0.4-0.2,0.3c-0.1-0.3,0-0.7,0.1-0.7v0.1c-0.4-0.9-0.7-1.9-1.4-2.8c-0.6-0.9-1.6-1.6-2.4-1.6h0.1
						c-0.5-0.1-1.1-0.1-1.6-0.1c-0.7-0.1,0.5-0.2-0.1-0.4c-0.9,0.2-1.5,0.3-2.2,0.4c-0.6,0.2-1.2,0.4-1.7,0.9c-0.7,0-1.5,0.7-2,1.7
						c-0.3,0.5-0.4,1-0.6,1.3c-0.1,0.3-0.3,0.6-0.6,0.9h0.2c0,0.3-0.2,0.3-0.4,0.4c0.1,0,0.3-0.2,0.3,0c-0.9,2.4-3,4.2-5.1,5.7
						c-0.7,0.5,0.2,1.1-1.1,1.4l0.1-0.5c-1.3,1.4-3.3,2-4.9,2.9c0.1-0.1,0.1-0.2,0.2-0.3c-0.4-0.1-1.4,0.4-1.3,0.6
						c-0.3,0-0.1-0.2-0.3-0.2c-0.4,0-0.9,0.5-1.1,0.3c0,0,0.1-0.1,0.2-0.1c-0.2,0.2-1.2,0.2-0.9,0.4c-0.7,0-1.3,0.3-1.9,0.1
						c-0.4,0.3-1.2-0.1-1.3,0.3c0.1-0.4-1.2-0.4-1.7-0.3c0.2-0.1-0.4-0.2-0.2-0.4c-0.5-0.1-1-0.1-0.9,0.2c-0.8-0.7-1.9,0-2.2-0.8
						c-1.5-0.2-2.8-0.7-4.1-1.3c0.3-0.4,1.3,0.7,1.5,0.2c-1.2-0.4-2.1-0.5-3.1-1.3c-0.2-0.2,0.3,0,0.4,0c-0.6-0.3-1.1-0.7-1.5-1.1
						c-0.3-0.3-0.3-0.3-0.4-0.4c-0.1-0.1-0.2-0.1-0.4-0.2c0.1,0,0.2,0,0.2,0.1c-0.1-0.1-0.1-0.1-0.3-0.1c0,0,0.1,0,0.1,0.1
						c-0.1,0-0.2,0.1-0.3,0c-0.1,0-0.1,0-0.2-0.1c-0.1,0-0.1-0.1-0.1-0.1c-0.1-0.1,0-0.4-0.1-0.4c0.5,0.4,0.7-0.6,1.1,0.1
						c0-0.1,0-0.2-0.1-0.3c0.2-0.1,0.3-0.1,0.3,0.1c0.5-0.7,0.1-0.6,0.6-1.2c0.1,0.1,0,0.2,0,0.3c0.1-0.4,0.2-0.8,0.7-1.3
						c0,0.1,0.1,0.1,0,0.2c0.7-0.8,0.9-1.8,1.9-2.5c0.1,0.6,0.4-0.2,0.7,0l0.4-0.6l-0.3,0.1c0.2-0.2,0.3-0.5,0.5-0.7
						c0.1-0.2,0.3-0.5,0.5-0.8c0,0.2-0.1,0.4-0.2,0.6c0.1-0.2,0.3-0.4,0.4-0.7c0.1-0.3,0.1-0.6,0-1c0.1,0.4-0.1,0.8-0.2,1
						c0.1-0.4-0.1-0.4-0.2-0.5c-0.1,0,0-0.1-0.1-0.5c0,0.1,0-0.1-0.1-0.3c-0.1-0.2-0.4-0.4-0.5-0.6l0,0c-0.2,0-0.4,0-0.6,0
						s-0.4,0-0.6,0c-0.1-0.1,0.1-0.4,0-0.5c-0.3,0.3-1.4,0.1-1.7,0.4c0.1-0.1,0.1-0.3,0.1-0.3l-0.2,0.3c-0.3-0.1-0.3-0.1-0.3-0.3
						c-0.8,0,0.3,0.5-0.7,0.3c0.1,0,0-0.1,0.2-0.1c-1-0.1-1.9,0.2-2.7,0c-0.3-0.4,0.8-0.1,0.5-0.4c-1.3,0.1-2.6,0.4-3.9,0.4h0.2
						c-0.2,0.5-0.9-0.3-1.5,0c0.2,0,0.2-0.3,0.2-0.2c-0.8-0.1-1.7,0.1-3,0.3l0.2-0.1c-0.5-0.1-1.3-0.1-1.8-0.1
						c-0.2,0.1-0.5,0.1-0.3,0.3c-0.8-0.4-1.6-0.3-2.4-0.2c-0.3,0.1-0.9,0.1-1.3,0.2c-0.4,0-0.9,0.3-1.2,0.6c0.1-0.2,0.2-0.5,0.1-0.4
						c-0.2,0.2-0.3,0.5-0.3,0.8s0,0.6,0,0.9c0.2-0.1,0.1-0.2,0.3-0.5c0.1,0.2,0.2,0.6,0.2,0.9c-0.2-0.6-0.4,0-0.5,0.2
						c0.1,0,0.1,0,0.2,0c-0.4,0.7,0.5,0.1,0.2,1h-0.1c0.1,0.3,0.2,0.6,0.2,1c-0.3,0.1-0.1-0.4-0.3-0.4c0,0.5,0.5,1,0.2,1.5
						c-0.1-0.2-0.1-0.5-0.2-0.7c-0.3,0.5-0.2,0.6-0.3,0.9l0,0l-0.1,0.9l0.1-0.2c0.7,0.6,0.1,1.3,0.6,2.1c-0.4-0.8-0.2-0.1-0.6-0.2
						c-0.1,0.2-0.2,0.5-0.3,0.5c0.2,0.4-0.2,0.7,0.2,1.2c-0.1,0,0,0.4-0.3,0.3c0.1,0.5,0.2-0.1,0.3-0.1c0.3,0.8-0.4,1.9,0.1,3.1
						c0.2,1,0.5,1.2,0.7,2.1c-0.2,0.3-0.4-0.3-0.4-0.3c-0.1,0.5-0.1,0.9,0,1.4c-0.1-0.1-0.2,0-0.3,0.1c0,0.4,0.4,0.3,0.2,0.8
						c-0.1-0.1-0.3-0.2-0.4-0.4c0.1,0.5,0.3,0.9,0.4,1.4c-0.2,0.1-0.3-0.3-0.4-0.4c0.1,0.5,0.2,1.4,0.4,1.5l0.1-0.3
						c0,0.2-0.2,0.1-0.3,0c-0.2-0.5,0.1-0.6,0.2-0.7l0.1,0.3c0.6-0.3-0.1-1.3-0.1-2l0.4,0.3l-0.3-0.7c0.1-0.1,0.3-0.2,0.4,0.1
						c0.2-0.5-0.1-0.4,0.1-0.8h0.1l-0.1-0.5c0.1,0.1,0.3-0.1,0.2,0.2c0.2-0.8-0.3-1.4,0-1.7v0.1c-0.1-1.2-0.3-0.1-0.7-1l0.8-0.6
						l-0.3-0.1c0-0.1,0-0.4,0.2-0.3c-0.2-0.4-0.1,0.1-0.3-0.2c0.3-0.6-0.1-1.6,0.4-1.7c-0.2-0.2-0.2,0.6-0.3-0.1
						c0.5-0.2-0.1-0.7,0.1-1.2c0.3,0.2,0.1,0.7,0.4,0.1c-0.5-0.3,0.1-1,0-1.5c-0.4,0-0.2-1-0.3-1.7c0.1,0,0.2-1.4,0.3-2.1h0.1
						c-0.4-0.1-0.3-0.9-0.4-1.4c0.2,0,0.3,0.1,0.4,0.4v-0.4c-0.1-0.1-0.2-0.2-0.2-0.4c0.1,0.1,0.2,0.1,0.3,0.2
						c0-0.2-0.1-0.4,0.1-0.6c0.1-0.2,0.4-0.2,0.7-0.1c0-0.1-0.2-0.3-0.3-0.5c-0.1-0.2-0.1-0.3,0.4-0.4c0,0.1,0.1,0.4-0.1,0.4
						c0.1,0,0.2-0.1,0.4-0.1c-0.1,0.1-0.2,0.2-0.3,0.2c0.3,0.1,0.2-0.2,0.5-0.2c0,0.2,0.2,0.1,0.2,0.3c-0.1,0-0.3-0.1-0.4,0
						c0.3,0,0.8,0.2,0.9,0.3c0-0.1,0-0.3,0.3-0.3c0.7,0,0.2,0.2,0.6,0.3c0.2-0.1,0.6,0,0.6-0.3c0.2,0,0.2,0.1,0.3,0.2
						c0.3-0.1,1.6,0,1.2-0.4h-0.1h0.1l0,0l0,0c1.1-0.3,2.3,0.2,3.4,0v0.1c0.7-0.1,1.5-0.1,1.9-0.3c0.2,0,0.5,0.2,0.4,0.3
						c0.5-0.1,0.6-0.2,1.3,0c-0.5,0.2,0.2,0.2-0.5,0.1c0.7,0.1,0.8,0.2,1.5,0c-0.2,0.3,0.5,0.3,0.8,0.2l-0.5-0.2c0.4,0,0.7,0,1,0
						l-0.2,0.3c1.3,0.4,2.4-0.7,3.4,0c0.4-0.2-0.7-0.2-0.4-0.4c0.6,0,1.3,0.5,1.5,0.5c0.1,0,0.2,0,0.3,0h0.1h0.1l0,0l0,0l0,0l0,0
						l0,0c0,0.5,0-0.7,0-0.5l0,0l0,0c0,0.7,0,0.4,0,0.4c0.1-0.1,0.4-0.1,0.4,0c0,0,0.1-0.1,0.2-0.2c0.1-0.1,0.3-0.1,0.4,0.2
						c0,0.2-0.2,0.3-0.3,0.3s-0.2-0.1-0.3-0.2c0,0,0,0,0.1,0l0,0l0,0l0,0l0,0c-0.2,0-0.1,0-0.2,0.1s-0.2,0.1-0.2,0
						c-0.1,0.1-0.1,0.2,0,0.2s0.2-0.1,0.3-0.1c-0.2,0.1-0.5,0.4-0.7,0.6s-0.4,0.5-0.7,0.7c0.1-0.1,0.3,0,0.2,0
						c-0.9,0.8-0.2,0.5-0.7,1.2c-0.4,0.2-0.2-0.4-0.6,0.3c-0.4,0.3-0.3-0.1-0.2-0.4c-0.3,0.7-1,0.9-1.4,1.2l0.2-0.4
						c-0.1,0.2-0.2,0.4-0.4,0.5h0.3c-0.2,0.1-0.3,0.3-0.4,0.2c0,0.3,0.4,0.1,0.3,0.6c-0.3,0.1-0.5,0.8-0.8,0.6
						c0.7-0.6-0.3-0.1,0.2-0.8c-0.1,0.1-0.2,0.3-0.4,0.4v-0.1c-0.8,0.5,0,0.5-1,1.6c0-0.2-0.6,0.2-0.7,0.4c0.5-0.5,0.5-0.1,0.3,0.3
						c-0.2,0.2-0.4,0.3-0.4,0.4c0.1,0.1,0.2,0.2,0.3,0.3c0.2,0.1,0.3,0.2,0.5,0.4l-0.3-0.4c0.3,0.1,0.6,0.4,1,0.8
						c-0.1,0.1-0.5-0.3-0.4-0.1c0.4,0.2,0.5,0.4,0.8,0.8c0.2,0.3,0.4,0.6,0.7,0.7c0.2,0.3-0.2,0.3,0,0.5c0.8,0.3,0.5,0.7,1.3,1
						c-0.1-0.3-0.1-0.3,0.5-0.2c-0.4-0.2-0.8-0.4-1.2-0.6c0.3,0.1,0.6,0.2,0.9,0.2c-0.3-0.2-0.8-0.4-0.9-0.5
						c0.4,0.1,0.4,0.1,0.3-0.2c0.2,0.6,1,0.5,1.4,1l-0.3,0.5c0.7,0.7,1.6,0.6,2.7,1.3l-0.3-0.3c0.2-0.1,0.7,0.3,1.1,0.4
						c-0.1,0.2,0.1,0.3,0.2,0.5c0-0.1,0.9,0.3,1.1,0l0.5,0.4c0.9,0.4,1.2-0.2,2.2,0c-0.3,0.2,0.1,0.4-0.6,0.4c0.3,0.1,0.6,0.2,0.6,0
						c0.2,0.2,0.9-0.1,1.2,0.1c0.1-0.1,0.2-0.3,0.6-0.2v0.1c0-0.1,0.6-0.1,0.3-0.3c0.9,0.7,2.7,0.1,3.6,0.5c0.7-0.1,1.5-0.3,2.1-0.4
						c0,0.1,0,0.1-0.1,0.1c0.9,0,0.4-0.6,1.4-0.7c0.6,0.2-0.5,0.3-0.1,0.3c0.3,0.6,1.1-0.4,1.9-0.3l-0.1,0.1c0.6,0,1.1-0.7,1.9-1
						v0.1c0.4-0.5,1.3-1.1,1.9-1.6c-0.1,0.3-0.2,0.3,0,0.4c0.3-0.2-0.3-0.3,0.3-0.7c0.3,0,0.8-0.2,1,0c-0.2,0.1-0.4,0.3-0.6,0.4
						c0.5,0.1,0.7-0.5,1-0.7l0.1,0.2c0.8-0.7,0.6-1,1.4-1.7h-0.2c0.2-0.7,0.5-0.2,0.8-0.8l0.4,0.1c0.2-0.4,0.7-1.3,1.1-1.9
						c0,0.5-0.5,1.2-0.7,1.7c0.3-0.3,0.9-1,0.9-1.3c-0.1,0.1-0.1,0.4-0.3,0.5c0.1-0.6,0.4-1.2,0.8-1.8c0.6,0.6,1.3-1.6,2.1-1.8
						c0.2-0.7,0.5-1.3,0.9-2l0.1-0.2l0.1-0.2c0.1-0.1,0.2-0.2,0.2-0.4c0.2-0.2,0.4-0.5,0.6-0.7c-0.7-0.1,0.2-0.3-0.2-0.7
						c0.2-0.2,0.3-0.3,0.4-0.3c0.3-0.1,0.7-0.1,1-0.2c0.3,0.1-0.2,0.2-0.1,0.4c0.6-0.2,0.3,0.1,0.7,0.2c-0.1-0.2,0.1-0.4,0.5-0.3
						c-0.2-0.1-0.3-0.1-0.5-0.2c0.4-0.3,0.6-0.2,0.8,0c0.2,0.1,0.4,0.2,0.8,0.1c-0.1,0.1-0.2,0.1-0.3,0.2c0.2,0,0.6,0,1,0.1
						c0.4,0.1,0.8,0.2,1.1,0.1c0,0.1,0,0.3-0.2,0.2c0.4,0.3,0.9,0.7,1.3,1.1c0.4,0.5,0.6,1,0.5,1.5l-0.2-0.1
						c0.1,0.2,0.3,0.3,0.2,0.6c-0.1,0-0.1-0.1-0.2,0c0.1,0.1,0.2,0.6,0.1,0.8c0-0.1-0.1-0.2-0.1-0.3c-0.1,0.2-0.2,0.5-0.2,0.7
						c-0.1,0.2-0.1,0.5-0.1,0.7c-0.1,0.5-0.1,1-0.3,1.5c-0.4-0.2-1,0.7-1.3,1.1l0,0c-0.8,1.3-1,2.4-1.7,3.7c-0.9,0.4-2,2.2-3.2,3
						c0.2-0.1,0.2,0.3,0.1,0.5c-0.3,0.2-0.5,0.9-0.7,0.5l0.1-0.1c-0.5-0.1-0.9,0.4-1.3,0.7l0.3,0.5c-1.5,0.3-2.8,2.4-3.8,2.2
						c-0.2,0.3-0.6,0.5-0.8,0.8l-0.1-0.3c-0.8,0.4-1.3,0.6-2.3,1.1l0.1-0.3c-0.6,0.2-0.4,1.1-1,1.3l-0.3-0.3
						c-1.1,0.4-2.2,0.4-3.2,1.1c0-0.1,0-0.2,0.2-0.3c-0.5,0.1-2,0.2-1.7,0.7c-0.1-0.4-1.1,0.2-1.7,0.4l0.1-0.3
						c-0.5,0.4-0.5,0.5-1.2,0.7c-0.2,0-0.2-0.2,0.1-0.2c-0.6-0.1-0.4,0.3-1.1,0.2l0.2-0.2c-0.6,0-0.5,0.1-0.9,0.3
						c-0.4,0.1-1.1,0-1.2-0.3c-0.1,0.2-0.4,0.4-0.8,0.3c0-0.1,0.1-0.2,0.1-0.2c-1-0.2-1.5,0.3-2.2-0.1c0-0.1,0-0.1-0.1-0.2
						c0.8,0.1,1.4,0.1,1.3,0.1c0-0.3-0.6-0.3-0.1-0.7c-0.5,0.2-1.4,0.5-2,0.3l-0.1-0.1h0.1c-0.1,0-0.3,0-0.4,0
						c-0.2-0.1-0.3-0.1-0.5-0.2c0-0.2-0.7-0.2-1-0.3c0,0.3-0.4,0.2-0.1,0.5c0,0,0.1,0,0.3,0h0.1l0,0l0.8,0.1c-0.3,0.1-0.6,0.2-0.9,0
						c-0.2,0.1-0.4,0.3-0.5,0.4c-0.4-0.5-1.1-0.9-1.2-1.1c-1-0.1-2.2-0.5-2.9-0.2c-0.3,0-0.2-0.3-0.3-0.4c0.2,0,0.3,0.1,0.4,0
						c-0.6-0.1-1.5-0.5-1.8-0.3c-0.6-0.4,0.5-0.2-0.4-0.5h0.2c-0.7-0.6-1.5-0.8-2.3-1c-0.8-0.2-1.6-0.5-2.3-1.4
						c0.1,0.1,0.1,0.2,0.1,0.2c-0.7-0.6-1.5-1.2-2.3-1.8l-0.6-0.5c-0.2-0.2-0.3-0.3-0.6-0.5c-0.5-0.4-1-0.9-1.4-1.4
						c-0.4,0.4-0.8,0.8-1.3,1.2c-0.2,0.2-0.3,0.3-0.4,0.4s-0.1,0.2-0.1,0.3c-0.1,0.2-0.1,0.3-0.1,0.5l-0.3-0.1l-0.2,0.8
						c-0.5,0.9-1.7,0.8-2.2,2.1h0.3c-0.3,0.3-0.9,1.2-1,0.9c0,0.1,0.1,0.3-0.1,0.3l-0.1-0.1l-0.3,0.5c-0.1,0.1-0.2,0.3-0.3,0.4
						c-0.3,0.1-0.3-0.1-0.4-0.2c0,0-0.1-0.2,0-0.1c0,0.1-0.1,0.2,0.1-0.1c0.1-0.1,0,0-0.1,0c-0.1,0-0.2-0.1-0.2-0.1
						c-0.2-0.1-0.3-0.1-0.3-0.1c0,0.1,0,0.3-0.2,0.4c-0.1-0.1-0.1-0.2-0.2-0.4c-0.2,0-0.5-0.1-0.7-0.1c-0.1,0-0.2,0.2-0.3,0.4
						c-0.1,0.2-0.1,0.5,0.1,1c0.3,0.3,0.7,0.6,1.3,0.7c0.1,0.1,0.3,0.2,0.5,0.3c-0.5,0-1.1-0.2-1.4-0.5c0.2,0.3,0.6,0.5,0.9,0.6
						c0.4,0,0.7-0.1,0.9-0.2c0.1,0.1,0.4,0.1,0.6,0c0.3-0.4,0.4-0.7,0.5-1c0.2,0.1,0,0.5,0.5,0.2c0.1-0.4-0.5,0-0.2-0.5
						c0.4-0.1,0.5,0.1,0.6-0.4c0.1,0,0.1,0.2,0.1,0.3c0.1-0.4,0.6-0.8,0.6-1.1c0.4-0.1,0.8-1,1.1-0.6c0-0.2,0.2-0.7,0.4-1
						c0,0.8,0.9-0.9,1.2-0.4c0-0.3,0.2-0.7,0.5-1c0.2-0.2,0.2-0.2,0.2-0.3s0.1-0.2,0.1-0.3c0,0.1,0,0.2,0,0.2
						c0.1-0.1,0.2,0.1,0.2,0.2l0,0c0-0.6,0.2-0.5,0.5-0.5c0,0.3-0.1,0.3-0.2,0.4c-0.1,0.1-0.2,0.2-0.2,0.4c0.1-0.2,0.1-0.2,0.2-0.2
						c0-0.1,0.3,0.1,0.3-0.1c0.2,0.5,0.2,0.3,0.2,0.7c0.4-0.3,0.4,0.2,0.8,0.2c0.4,0.6-0.2,0.5,0.5,0.8
						C-2493.2,9088.4-2493.8,9088.2-2493.8,9088.2z M-2478.1,9093.8L-2478.1,9093.8h-0.3H-2478.1z M-2476.7,9093.9
						c-0.2,0-0.4,0-0.6-0.1c0-0.1,0-0.2,0.2-0.2C-2477.2,9093.8-2476.9,9093.8-2476.7,9093.9z M-2479.3,9091.7
						c0.2,0,0.3,0.1,0.3,0.1C-2479.1,9091.8-2479.2,9091.8-2479.3,9091.7l-0.1,0.1L-2479.3,9091.7z"/>
					<path class="st2" d="M-2479.7,9091.9C-2479.8,9091.9-2479.8,9091.9-2479.7,9091.9C-2479.8,9091.9-2479.7,9092-2479.7,9091.9
						L-2479.7,9091.9L-2479.7,9091.9z"/>
					<path class="st2" d="M-2497.6,9068.8L-2497.6,9068.8L-2497.6,9068.8L-2497.6,9068.8z"/>
					<polygon class="st2" points="-2458,9089.9 -2458,9089.8 -2458.1,9089.9 					"/>
					<path class="st2" d="M-2503.9,9070.4c0,0-0.1,0-0.1,0.1C-2503.9,9070.5-2503.9,9070.5-2503.9,9070.4z"/>
					<path class="st2" d="M-2503.9,9073.8l-0.1,0.5C-2504,9073.9-2504,9073.8-2503.9,9073.8z"/>
					<path class="st2" d="M-2504.1,9076.2L-2504.1,9076.2L-2504.1,9076.2L-2504.1,9076.2z"/>
					<path class="st2" d="M-2487.3,9077C-2487.3,9077-2487.2,9077-2487.3,9077C-2487.1,9077.2-2487.2,9077.2-2487.3,9077z"/>
					<path class="st2" d="M-2482.8,9068c0.2,0,0.3,0.1,0.5,0.1C-2482.5,9068-2482.7,9067.9-2482.8,9068z"/>
					<polygon class="st2" points="-2476.8,9081.8 -2476.8,9081.8 -2476.7,9081.8 					"/>
					<path class="st2" d="M-2481.8,9068.9c-0.1-0.4-0.3-0.6-0.5-0.7C-2482.1,9068.3-2481.9,9068.7-2481.8,9068.9z"/>
					<path class="st2" d="M-2504.2,9087v0.1l0,0V9087z"/>
					<path class="st2" d="M-2504.2,9087.2L-2504.2,9087.2C-2504.1,9087.2-2504.1,9087.2-2504.2,9087.2z"/>
					<path class="st2" d="M-2504.1,9087.5l-0.1-0.3C-2504.1,9087.4-2504.1,9087.5-2504.1,9087.5z"/>
					<path class="st2" d="M-2504.1,9083.8L-2504.1,9083.8L-2504.1,9083.8z"/>
					<path class="st2" d="M-2504.1,9082.8c0,0.2-0.2,0.6-0.2,0.9h0.1C-2504.3,9083.5-2503.9,9082.9-2504.1,9082.8z"/>
					<path class="st2" d="M-2502.8,9078.5l-0.1,0.8c0.1-0.1,0.3-0.3,0.3,0C-2502.3,9078.3-2502.9,9079.7-2502.8,9078.5z"/>
					<path class="st2" d="M-2502.7,9075.9c0.1,0.5,0.2,0,0.2,0C-2502.6,9075.7-2502.6,9075.5-2502.7,9075.9z"/>
					<path class="st2" d="M-2491.7,9068.9v0.3C-2491.4,9069.2-2491.7,9069.2-2491.7,9068.9z"/>
					<polygon class="st2" points="-2488.1,9067.7 -2488.4,9067.4 -2488.6,9067.8 					"/>
					<polygon class="st2" points="-2486,9069.4 -2486.1,9069.4 -2485.5,9069.4 					"/>
					<path class="st2" d="M-2473.3,9084.3l-0.1-0.3C-2473.6,9084-2473.7,9084.4-2473.3,9084.3z"/>
					<path class="st2" d="M-2460.5,9078.7c0.2,0,0.6-0.2,0.7-0.5C-2460,9078.4-2460.4,9078.5-2460.5,9078.7z"/>
					<polygon class="st2" points="-2456.4,9085.8 -2456.3,9085.5 -2456.6,9085.9 					"/>
				</g>
			</g>
		</g>
	</g>
</g>
<g>
	<g>
		<g>
			<g>
				<g>
					<path class="st2" d="M-2485.4,9039.8c0,0.1,0.2,0.2,0.2,0.2L-2485.4,9039.8L-2485.4,9039.8z"/>
					<path class="st2" d="M-2484.9,9040.2c-0.1-0.1-0.2-0.4-0.4-0.6c0.2,0.3,0.1,0.2,0.3,0.5c0,0-0.1-0.1-0.2-0.2c0,0.1-0.1,0,0,0.1
						c0.2,0.2,0.2,0.2,0.1,0C-2485,9040-2484.9,9040.2-2484.9,9040.2z"/>
					<path class="st2" d="M-2482.6,9039.4L-2482.6,9039.4L-2482.6,9039.4z"/>
					<path class="st2" d="M-2481.3,9039L-2481.3,9039C-2481.2,9039.2-2481.2,9039-2481.3,9039z"/>
					<path class="st2" d="M-2480.9,9039.3L-2480.9,9039.3L-2480.9,9039.3z"/>
					<path class="st2" d="M-2482.6,9039.4L-2482.6,9039.4L-2482.6,9039.4z"/>
					<path class="st2" d="M-2485.1,9039.3L-2485.1,9039.3C-2485,9039.3-2485,9039.3-2485.1,9039.3L-2485.1,9039.3z"/>
					<polygon class="st2" points="-2483.1,9039.9 -2483.1,9039.9 -2483,9040 					"/>
					<path class="st2" d="M-2483.4,9040.2c0,0-0.1-0.2-0.2-0.3c0.1,0.1,0.1,0.2,0.1,0.2L-2483.4,9040.2z"/>
					<path class="st2" d="M-2484.3,9040.2L-2484.3,9040.2L-2484.3,9040.2z"/>
					<path class="st2" d="M-2482.7,9039.8L-2482.7,9039.8L-2482.7,9039.8z"/>
					<path class="st2" d="M-2469.2,9036.8L-2469.2,9036.8L-2469.2,9036.8z"/>
					<polygon class="st2" points="-2469,9038.3 -2469,9038.3 -2469.1,9038.5 					"/>
					<path class="st2" d="M-2480.4,9039.5L-2480.4,9039.5L-2480.4,9039.5z"/>
					<path class="st2" d="M-2476.6,9038.7c-0.1-0.2,0.1-0.3,0-0.6C-2476.6,9038.2-2476.7,9038.4-2476.6,9038.7z"/>
					<path class="st2" d="M-2485,9039.3L-2485,9039.3L-2485,9039.3z"/>
					<polygon class="st2" points="-2476.6,9038 -2476.6,9038 -2476.6,9037.9 					"/>
					<path class="st2" d="M-2479.5,9039.2v-0.1V9039.2z"/>
					<path class="st2" d="M-2480.3,9038.9L-2480.3,9038.9L-2480.3,9038.9z"/>
					<path class="st2" d="M-2479.2,9038.7L-2479.2,9038.7L-2479.2,9038.7L-2479.2,9038.7z"/>
					<polygon class="st2" points="-2478.8,9038.5 -2478.8,9038.4 -2478.9,9038.5 					"/>
					<path class="st2" d="M-2470.6,9036.7v0.3C-2470.6,9036.8-2470.5,9036.7-2470.6,9036.7z"/>
					<path class="st2" d="M-2485,9039.4C-2485,9039.3-2485.1,9039.3-2485,9039.4L-2485,9039.4C-2485,9039.3-2485,9039.4-2485,9039.4
						z"/>
					<path class="st2" d="M-2479.7,9036.4L-2479.7,9036.4C-2479.6,9036.4-2479.7,9036.4-2479.7,9036.4z"/>
					<path class="st2" d="M-2473.8,9036.3L-2473.8,9036.3C-2473.7,9036.2-2473.7,9036.2-2473.8,9036.3z"/>
					<path class="st2" d="M-2479.4,9036.4c0,0.1,0.1,0.1,0.1,0.2v-0.1L-2479.4,9036.4z"/>
					<path class="st2" d="M-2470.6,9036.9L-2470.6,9036.9L-2470.6,9036.9z"/>
					<path class="st2" d="M-2470,9036.3c-0.1,0-0.1,0.3-0.2,0.5c-0.1,0.1,0-0.3,0-0.5c-0.1,0.1-0.2,0.4-0.2,0.4c0-0.1,0-0.1,0-0.2
						c-0.1,0.3-0.2,0-0.3,0.3v-0.1c0,0.2-0.1,0.4-0.1,0.5c0,0-0.1,0.2-0.1,0c0,0,0-0.1,0.1-0.2l-0.1,0.1c0-0.3,0.1-0.1,0.1-0.4
						c-0.1,0.1-0.2,0.4-0.2,0.3c0.1-0.3,0.1-0.1,0.1-0.4v0.1c0-0.5,0,0,0.1-0.5c-0.1-0.1-0.1,0.1-0.2,0c-0.1,0.2,0,0.3-0.1,0.5
						c-0.2,0.3,0-0.9-0.1-0.4c-0.1,0.2-0.1,0.6-0.2,0.4l0.1-0.4c-0.1-0.1-0.1,0.5-0.2,0.3c0-0.1,0.1-0.1,0.1-0.2
						c0-0.3-0.1,0.2-0.1,0.2v-0.3c-0.1,0-0.3,0.3-0.4,0.3c0-0.1,0.1-0.2,0-0.3c-0.2,0.1-0.3-0.1-0.4-0.3l-0.1,0.3c0,0,0-0.1,0-0.2
						s0,0.2-0.1,0.3c0,0,0-0.2,0-0.3c-0.1,0.2-0.3,0.5-0.4,0.2v-0.1c-0.1-0.1-0.2,0.6-0.2,0.3v-0.1c-0.1-0.1-0.4,0.1-0.4-0.3
						c-0.1,0.4-0.1-0.2-0.2,0.4c-0.1-0.3,0-0.4-0.2-0.6l-0.1,0.4v-0.3l-0.1,0.3v-0.4v0.1c0,0,0,0.1,0,0.2c-0.1,0.1-0.1-0.2-0.1-0.4
						l-0.2,0.3c0-0.1,0-0.2,0.1-0.2c-0.1,0.3,0-0.3-0.1,0c0,0.1,0,0.2,0,0.2c0-0.2-0.1-0.2-0.2-0.1v-0.2c-0.1-0.1-0.2,0.1-0.4,0.1
						c0,0.1,0,0.5,0,0.5v-0.3c0,0.2,0,0.1,0,0.4c0,0,0-0.4,0-0.5l-0.1,0.1c0-0.1,0-0.1,0-0.3c0,0.2-0.1-0.3-0.1,0v-0.1
						c-0.1,0-0.2,0.1-0.3,0.1c0,0.3,0,0.2-0.1,0.4c-0.1-0.1-0.2-0.3-0.2-0.3c-0.1,0.1,0,0.2,0,0.4c0-0.3-0.1-0.2-0.1-0.4
						c-0.1,0-0.1,0.1-0.3,0.3c0,0.1,0,0.1,0,0.2c0,0-0.1-0.1-0.1-0.2l0,0c-0.1,0.4-0.4-0.7-0.5-0.2l0,0l-0.1,0.3c-0.1,0,0-0.2,0-0.4
						c-0.1,0.4-0.2,0-0.3,0.2c-0.1-0.7-0.3,0.1-0.5-0.4v0.2c0,0.2,0-0.1-0.1-0.1c0,0.1,0,0.2,0,0.3c-0.2,0.2-0.6-0.2-0.9-0.3
						c-0.1,0,0.1,0.9-0.1,0.5v-0.3c-0.1,0.4-0.4,0-0.5,0.4c0-0.1,0-0.2,0-0.2c-0.1-0.2-0.2,0-0.1,0.2c0,0,0-0.2-0.1-0.3
						c-0.1-0.1,0,0.3-0.1,0.1v-0.1c0,0.1-0.1,0-0.1,0.3c-0.1-0.1-0.1,0.1-0.2,0c0,0.3-0.2-0.1-0.1,0.3c-0.1-0.4-0.2-0.3-0.2-0.1
						c0-0.1-0.1-0.1-0.1-0.3c-0.1,0-0.1,0.1,0,0.3c-0.2-0.5-0.1,0.5-0.3-0.2c-0.1,0.3-0.2,0.5-0.3,0.6c-0.1-0.4,0.1-0.1,0-0.5
						c-0.1,0.2-0.1,0.6-0.2,0.5c0,0,0-0.2,0-0.3c-0.1,0.2-0.3,0-0.3,0.3v-0.1c0,0-0.1,0,0,0.1v-0.1c0.1,0.3,0.1,0.6,0.1,0.8
						c-0.1-0.6-0.2-0.1-0.3-0.8c0,0,0,0.1,0.1,0.3c0,0-0.1-0.1-0.1-0.3c0,0.1,0,0.3,0,0.3c0-0.1,0-0.1-0.1-0.2c0,0.2,0,0.4,0,0.3
						s0-0.1,0-0.1c-0.1,0.1,0,0.5-0.2,0.4c-0.1-0.4-0.1-0.1-0.2-0.5v0.1l0.1,0.2c-0.1,0,0,0.3-0.1,0.2v-0.2l-0.1,0.1l0.1,0.1
						c0,0.2,0.2,0.4,0.1,0.4c0,0-0.1,0-0.2-0.2l0,0c0,0.1,0,0.2,0,0.2c-0.1-0.1-0.1-0.4-0.2-0.5c0.1,0.3-0.1,0.1,0,0.5
						c0-0.1-0.1-0.3-0.1-0.3l0.1,0.2c-0.1-0.1-0.1-0.1-0.1-0.2c-0.1,0,0.2,0.4,0,0.3v-0.1c-0.1-0.1-0.1,0.2-0.2,0.1
						c-0.2-0.3,0-0.1-0.1-0.4c-0.1,0.1-0.1,0.5-0.2,0.5l0,0c0.2,0.5-0.2-0.2-0.1,0c0,0-0.1-0.3-0.1-0.2c-0.1,0-0.1,0.2-0.1,0.4v-0.1
						c-0.1-0.1-0.1,0-0.2,0c0,0.1,0,0.1,0.1,0.3c-0.5-0.6-0.1,0.5-0.5,0v-0.1v0.2c0.1,0.2,0.1,0.1,0.2,0.3c0.1,0.1,0.1,0.2,0,0.3
						c0-0.2-0.2-0.3-0.3-0.4l0.1,0.2c-0.2-0.3,0.2,0.4,0,0.2l-0.1-0.1c0,0.1,0.1,0.2,0,0.2c-0.1-0.2,0-0.1-0.1-0.3
						c0,0,0.2,0.5,0,0.3c0-0.1,0-0.1,0-0.2c-0.2-0.3-0.2-0.2-0.2-0.2l0,0l-0.1-0.1l0.1,0.1c0.3,0.6,0,0.2,0.1,0.6
						c-0.2-0.4-0.1-0.2-0.3-0.5c-0.1-0.1-0.1-0.1-0.2-0.2c0.1,0.2-0.2-0.1,0,0.2c-0.1-0.1,0,0-0.2-0.2c0,0.1,0.1,0.1,0.2,0.2
						c0.1,0.3-0.4-0.2-0.2,0.2c0,0.2,0.2,0.5,0.2,0.7c-0.1-0.1-0.2-0.3-0.2-0.3c-0.1-0.1-0.1-0.1-0.1,0.1c0-0.1-0.1-0.1-0.2-0.2
						c0,0,0.2,0.3,0.1,0.2c-0.1-0.1-0.1-0.2-0.2-0.3c0,0.1,0.1,0.3,0.1,0.4c-0.1-0.1-0.1-0.2-0.2-0.3c0,0.1,0,0.2,0.1,0.4l0.1,0.1
						c0,0-0.1-0.2-0.2-0.2c-0.1-0.2,0.1,0,0.2,0.1v0.1c0.3,0.5,0.1-0.1,0.1-0.2l0.2,0.4l-0.1-0.3c0.1,0.1,0.2,0.3,0.2,0.3
						c0.1,0.1,0-0.1,0.1,0c0,0,0,0,0,0.1v-0.1c0,0.1,0.2,0.2,0.1,0.2c0.2,0.2-0.1-0.3,0.1-0.1l0,0c0-0.2-0.2-0.3-0.3-0.6l0.4,0.6
						l-0.2-0.3c0,0,0,0,0.1,0.1c-0.1-0.2-0.1-0.1-0.2-0.3c0.2,0.2,0.1-0.2,0.3,0.2c-0.1-0.2-0.1-0.1-0.2-0.3c0.3,0.4,0-0.1,0.2,0.1
						c0.1,0.2,0,0.1,0.2,0.3c-0.2-0.4,0.1,0,0.1-0.1c-0.2-0.3,0-0.2,0-0.3c0.1,0.1,0.2,0.1,0.3,0.2v0.1c-0.2-0.3-0.1-0.3-0.1-0.4
						c0.1,0.2,0.1,0.3,0.2,0.4l0,0c0-0.1-0.1-0.2-0.1-0.2l0.1,0.2c0,0,0-0.3,0.1-0.2c-0.1-0.2-0.4-0.6-0.4-0.8
						c0.1,0.1,0.2,0.3,0.2,0.4v-0.1l0.1,0.2c0.1,0.1-0.1-0.2,0-0.2c0.1,0.2,0.1,0.1,0.1,0.3c0,0-0.1-0.1,0,0c0,0,0.1,0.1,0.2,0.2
						c-0.1-0.1-0.1-0.2-0.1-0.3c0,0,0.1,0.2,0.2,0.3c0-0.1,0,0-0.1-0.3c0,0,0.1,0.1,0.1,0.2c0-0.1,0.1-0.1-0.1-0.4l0,0l0,0l0,0l0,0
						c0-0.3,0.3,0.1,0.3-0.1v0.1c0-0.1,0.1-0.1,0-0.3c0,0,0.1,0.1,0.2,0.3c0-0.1,0-0.2,0.1-0.1c0,0.2,0.1,0.1,0,0.1
						c0.1,0.1,0.2,0.2,0.1-0.1c0.1,0.2,0.2,0.3,0.2,0.2l-0.1-0.2c0,0,0,0,0.1,0l0.1,0.3c0.3,0.3-0.1-0.7,0.3-0.1
						c-0.1-0.2-0.1-0.1-0.2-0.4c0.1,0,0.3,0.4,0.3,0.4c0.1,0.1-0.1-0.5,0-0.4c0-0.1-0.2-0.4-0.2-0.5c0.1,0,0.2,0.4,0.2,0.5
						c0,0,0,0,0-0.1c0,0,0,0.1,0.1,0.2v-0.1c0.1,0.1,0.1,0.1,0.2,0.3c0-0.1,0-0.2-0.1-0.2c0.1,0.1,0.1,0,0.2,0.1
						c0-0.1-0.1-0.2-0.1-0.2c0.1,0.1,0-0.2,0-0.3c0.1,0.2,0.1,0.4,0.1,0.2c0.1,0.1,0.1,0.3,0.1,0.4c0-0.2,0.2,0.1,0.2,0.1v0.1
						c0-0.1,0-0.1,0-0.1l-0.1-0.2c0,0,0,0,0.1,0.1c0-0.2-0.1-0.4-0.2-0.6c0.1,0.1,0-0.1,0.1,0.1c-0.1-0.1,0.1,0.3,0.1,0.4l0,0v0.1
						c0.2,0.2-0.1-0.4,0-0.4c0,0.2,0.1,0.3,0.1,0.3s-0.1-0.3-0.1-0.4c0.1,0.1,0-0.1,0.1-0.1v-0.1c0-0.2,0-0.2,0-0.2
						c0,0.1,0,0.1,0,0.2c0-0.3,0.2,0.3,0.2,0.1c0.1,0.1,0.1,0.3,0.1,0.4c0-0.2,0.1,0.2,0.1,0c-0.1-0.2-0.1-0.2-0.1-0.4l-0.1,0.2
						v-0.4c0,0,0,0.2-0.1,0.1c0-0.2,0-0.1-0.1-0.3c0.1,0.3,0-0.2,0.2,0l0.2,0.6c0.1,0.2,0.1-0.3,0.2-0.2l-0.1-0.1
						c0-0.2,0.1,0,0.1-0.1c0,0.2,0.1,0.3,0.1,0.4c0-0.1,0.1,0,0-0.4l0.1,0.2c0.1,0.1,0-0.6,0.1-0.5c0,0.2,0.1,0.3,0.1,0.5
						c0,0,0.1,0,0-0.1c0,0.1,0-0.3,0.1-0.1c0-0.1,0-0.3,0-0.3v0.1c0-0.1,0-0.1-0.1-0.3c0.2,0.6,0.2-0.1,0.4,0.4
						c0-0.1,0.1-0.2,0.2-0.2c0,0.1,0,0.1,0,0.1c0.1,0.2-0.1-0.6,0.1-0.4c0.1,0.3,0,0.2,0,0.3c0.1,0.6,0.1-0.1,0.2,0.3l0,0
						c0.1,0.2,0.1-0.3,0.1-0.2v0.1c0-0.3,0.1-0.5,0.1-0.6c0,0.3,0,0.1,0,0.4c0,0-0.1-0.4,0-0.5c0,0.1,0.1,0.2,0.1,0.5h-0.1
						c0.1,0.3,0.1,0,0.1,0v0.2c0.1-0.1,0-0.5,0.1-0.4v-0.1c0-0.4,0.1,0.2,0.1-0.1l0.1,0.4c0-0.1,0.1-0.4,0.1-0.5
						c0,0.3-0.1,0.5-0.1,0.6c0,0,0.1,0,0.1-0.2v0.1c0-0.3,0-0.5,0.1-0.5c0.1,0.8,0.2,0.2,0.3,0.8c0.1-0.3,0.2,0.1,0.4,0
						c-0.1-0.6,0,0,0-0.6c0,0,0,0,0.1,0l0.1,0.4c0,0.2,0,0.1,0,0.3c0.1,0,0,0.3,0.1,0.4c0-0.2,0-0.3,0-0.2l-0.1-0.3
						c0.1-0.3,0.1,0.5,0.2,0.2v0.2c0-0.1,0.2,0,0.2-0.5c0,0.1,0,0.2,0,0.3c0.1,0.1,0.3-0.5,0.4-0.2v0.1c0,0,0-0.3,0.1-0.1
						c0,0.1,0,0.1,0,0.2c0-0.1,0.1-0.3,0.1-0.2v0.2c0.1,0.2,0.2-0.4,0.3-0.5c0,0.4,0.1,0.6,0.1,0.7v0.1c0.1,0.1,0.2-0.4,0.4-0.5
						c0.1,0.5,0.3,0.2,0.4,0.5c0-0.1,0-0.3,0-0.4c0,0.1,0.1-0.3,0.1,0.1l0,0c0,0.4,0.1,0.3,0.1,0.3v-0.5c0.1,0.8,0.4-0.3,0.4,0.4
						c0-0.1,0.1-0.1,0.1-0.3v0.3c0.1,0.1,0.1,0.1,0.2,0.1v0.2c0.1,0,0.1-0.8,0.2-0.8v0.4c0.1,0,0.2,0.4,0.3,0c0,0.1,0,0.2,0,0.2
						s0.2,0.3,0.2-0.3c0,0.4,0.1,0,0.2-0.1v0.3c0.1-0.3,0.1-0.4,0.2-0.5c0,0,0,0.2,0,0.1c0,0.2,0.1-0.3,0.1-0.1v0.2
						c0.1,0,0.1-0.1,0.1-0.3c0-0.1,0.1,0.1,0.1,0.3c0-0.1,0.1-0.4,0.1-0.3s0,0.2,0,0.2c0.1,0.2,0.2-0.3,0.2,0c0,0.1,0,0.1,0,0.2
						c-0.1,0-0.1,0-0.1-0.1c0,0.3,0,0.3-0.1,0.7c0.1-0.2,0.2-0.6,0.2-0.5v0.1l0,0l0,0v0.1c0,0.2,0,0.1,0.1,0.1
						c0-0.3,0.1-0.2,0.1-0.5l0,0l0,0l0,0c0,0,0,0-0.1,0c0-0.1,0.1-0.3,0.1-0.1l0.1-0.4c0,0.4,0,0.6,0,0.9c0.1-0.1,0.2-0.1,0.4-0.6
						c0-0.1,0,0.2,0,0.2s0,0-0.1,0.1c0.1-0.1,0.2,0,0.2-0.4c0,0.2-0.1,0.3,0,0.3v0.1c0.1,0.6,0.5-0.9,0.5-0.1v-0.1
						c0.1,0.4,0.5-0.2,0.6,0.4c0,0.1,0.1-0.1,0.2-0.3l-0.1,0.3l0.1-0.3c0.2-0.2,0,0.8,0.2,0.3v-0.2c0,0,0.2-0.1,0.1,0.1
						c0,0,0.1-0.2,0.1-0.1v0.2l0.2-0.2c0,0.1-0.2,0.6-0.1,0.7c0.1,0,0.2-0.4,0.3-0.5c0,0,0-0.1,0-0.3l0.1-0.1
						c0.2-0.4,0.3-0.9,0.3-1.2l-0.2,0.2v-0.2h0.1c0-0.2-0.1,0-0.1,0.1c0-0.1,0-0.2,0-0.2l-0.2,0.4c0-0.2,0.1-0.3,0.1-0.4
						c-0.1,0.2-0.1,0.4-0.2,0.5c0-0.2,0.1-0.4,0-0.2c0-0.1,0.1-0.2,0.1-0.2c-0.1,0.1-0.1,0-0.2,0.3c0-0.3-0.1,0,0-0.4
						c0,0.1-0.2,0.3-0.2,0.3c0.2-0.5-0.1-0.1,0-0.6c-0.2,0.4-0.2,0.2-0.4,0.4v-0.1c0,0,0-0.2,0-0.3c-0.1,0.4-0.2,0.5-0.3,0.7
						c0-0.4,0.1-0.4,0.2-0.8c-0.1,0.3-0.2,0.3-0.2,0.5c0-0.2,0-0.1,0-0.4c-0.1,0.5-0.1,0.1-0.2,0.4c0-0.2,0.1-0.5,0-0.3
						C-2470.1,9036.5-2470,9036.3-2470,9036.3z M-2471.7,9036.9L-2471.7,9036.9L-2471.7,9036.9L-2471.7,9036.9z M-2471.8,9036.9
						L-2471.8,9036.9c0,0.1,0,0.2,0,0.2C-2471.8,9037-2471.8,9036.9-2471.8,9036.9z M-2471.9,9038.8
						C-2471.9,9038.9-2471.9,9038.8-2471.9,9038.8C-2471.9,9038.8-2471.9,9038.8-2471.9,9038.8L-2471.9,9038.8L-2471.9,9038.8z"/>
					<path class="st2" d="M-2471.8,9038.5L-2471.8,9038.5L-2471.8,9038.5L-2471.8,9038.5L-2471.8,9038.5z"/>
					<polygon class="st2" points="-2482.7,9039.4 -2482.7,9039.4 -2482.7,9039.3 					"/>
					<path class="st2" d="M-2473.6,9036.2L-2473.6,9036.2L-2473.6,9036.2z"/>
					<path class="st2" d="M-2483.7,9038.8L-2483.7,9038.8L-2483.7,9038.8z"/>
					<path class="st2" d="M-2484,9038.9L-2484,9038.9C-2484.1,9038.9-2484,9038.9-2484,9038.9z"/>
					<polygon class="st2" points="-2484.3,9038.9 -2484.2,9039 -2484.2,9039 					"/>
					<path class="st2" d="M-2480.9,9037.2L-2480.9,9037.2C-2480.9,9037-2480.9,9037-2480.9,9037.2z"/>
					<path class="st2" d="M-2481.7,9038c0-0.1,0-0.1,0-0.1C-2481.8,9037.9-2481.8,9037.9-2481.7,9038z"/>
					<path class="st2" d="M-2479.7,9036.4L-2479.7,9036.4L-2479.7,9036.4z"/>
					<path class="st2" d="M-2481.7,9037.9C-2481.7,9037.9-2481.8,9037.9-2481.7,9037.9L-2481.7,9037.9z"/>
					<path class="st2" d="M-2485.3,9039.4L-2485.3,9039.4L-2485.3,9039.4z"/>
					<path class="st2" d="M-2485.3,9039.4L-2485.3,9039.4C-2485.2,9039.4-2485.2,9039.4-2485.3,9039.4z"/>
					<path class="st2" d="M-2485.2,9039.5L-2485.2,9039.5C-2485.3,9039.4-2485.3,9039.4-2485.2,9039.5z"/>
					<path class="st2" d="M-2484.9,9039.3L-2484.9,9039.3L-2484.9,9039.3z"/>
					<path class="st2" d="M-2484.9,9039.2l-0.2-0.1v0.1C-2485,9039.2-2484.8,9039.4-2484.9,9039.2z"/>
					<path class="st2" d="M-2483.9,9040.2h-0.1c0.1,0.1,0.2,0.2,0.1,0.2C-2483.6,9040.5-2484,9040.2-2483.9,9040.2z"/>
					<path class="st2" d="M-2483.6,9040.2c0,0.1,0.1,0.1,0.1,0.2C-2483.5,9040.2-2483.5,9040.2-2483.6,9040.2z"/>
					<path class="st2" d="M-2482.1,9039.3l0.1,0.2C-2482,9039.5-2482,9039.5-2482.1,9039.3z"/>
					<polygon class="st2" points="-2482.3,9038 -2482.4,9037.9 -2482.3,9038.2 					"/>
					<polygon class="st2" points="-2481.4,9039.7 -2481.4,9039.7 -2481.4,9039.5 					"/>
					<path class="st2" d="M-2478.8,9038.8l-0.1-0.3C-2478.9,9038.5-2478.9,9038.9-2478.8,9038.8z"/>
					<path class="st2" d="M-2477.7,9038.2C-2477.7,9038.4-2477.6,9038.5-2477.7,9038.2C-2477.7,9038.3-2477.7,9038.2-2477.7,9038.2z
						"/>
					<polygon class="st2" points="-2474.1,9038.7 -2474.1,9038.8 -2474.1,9038.8 					"/>
				</g>
			</g>
		</g>
	</g>
</g>
</svg>
